<?xml version="1.0" encoding="UTF-8" standalone="no"?>
<svg
   xmlns:dc="http://purl.org/dc/elements/1.1/"
   xmlns:cc="http://creativecommons.org/ns#"
   xmlns:rdf="http://www.w3.org/1999/02/22-rdf-syntax-ns#"
   xmlns:svg="http://www.w3.org/2000/svg"
   xmlns="http://www.w3.org/2000/svg"
   xmlns:sodipodi="http://sodipodi.sourceforge.net/DTD/sodipodi-0.dtd"
   xmlns:inkscape="http://www.inkscape.org/namespaces/inkscape"
   width="617.3"
   height="256"
   fill="none"
   stroke-linecap="square"
   stroke-miterlimit="10"
   version="1.1"
   viewBox="0 0 617.3 256"
   id="svg28"
   sodipodi:docname="logo_noir.svg"
   inkscape:version="1.0.1 (3bc2e813f5, 2020-09-07)">
  <defs
     id="defs32" />
  <sodipodi:namedview
     pagecolor="#ffffff"
     bordercolor="#666666"
     borderopacity="1"
     objecttolerance="10"
     gridtolerance="10"
     guidetolerance="10"
     inkscape:pageopacity="0"
     inkscape:pageshadow="2"
     inkscape:window-width="1920"
     inkscape:window-height="1052"
     id="namedview30"
     showgrid="false"
     inkscape:zoom="1.1331606"
     inkscape:cx="354.94827"
     inkscape:cy="136.06779"
     inkscape:window-x="1920"
     inkscape:window-y="88"
     inkscape:window-maximized="1"
     inkscape:current-layer="g26" />
  <metadata
     id="metadata2">
    <rdf:RDF>
      <cc:Work
         rdf:about="">
        <dc:format>image/svg+xml</dc:format>
        <dc:type
           rdf:resource="http://purl.org/dc/dcmitype/StillImage" />
        <dc:title />
      </cc:Work>
    </rdf:RDF>
  </metadata>
  <clipPath
     id="clipPath6">
    <path
       d="m0 0h960v720h-960z"
       id="path4" />
  </clipPath>
  <g
     fill="#000"
     id="g26">
    <path
       d="m 270.97411,180.90018 q -8.05719,0 -15.69219,-1.79188 -7.62054,-1.8073 -12.53061,-4.86477 l 7.03353,-15.92352 q 4.6238,2.68059 10.36185,4.30764 5.73806,1.61163 11.00767,1.61163 4.53319,0 6.4764,-0.87348 1.94321,-0.87348 1.94321,-2.63529 0,-2.03285 -2.54564,-3.04204 -2.54565,-1.02366 -8.37431,-2.22853 -7.4856,-1.58175 -12.48242,-3.37362 -5.00068,-1.8073 -8.70493,-5.91927 -3.7052,-4.12643 -3.7052,-11.16189 0,-6.11494 3.41893,-11.10406 3.43339,-5.00068 10.22691,-7.86151 6.80701,-2.87626 16.52113,-2.87626 6.67208,0 13.09932,1.43042 6.4311,1.43041 11.32575,4.21703 l -6.56604,15.8175 q -9.53388,-4.80405 -18.04409,-4.80405 -8.41865,0 -8.41865,4.06667 0,1.94321 2.50034,2.92156 2.50034,0.96389 8.2384,2.07815 7.39499,1.38608 12.48242,3.19242 5.08743,1.80633 8.84083,5.87397 3.75051,4.06666 3.75051,11.10405 0,6.11494 -3.43339,11.0655 -3.41893,4.93995 -10.22691,7.86152 -6.79256,2.9071 -16.50186,2.9071 z m 75.13551,-24.98412 v 23.50936 h -21.84183 v -23.77925 l -24.42507,-40.9944 h 23.0467 l 13.23426,22.39125 13.31137,-22.39125 h 21.09963 z m 51.35625,24.98412 q -8.05719,0 -15.69219,-1.79188 -7.62054,-1.8073 -12.53062,-4.86477 l 7.03354,-15.92352 q 4.62379,2.68059 10.36185,4.30764 5.73806,1.61163 11.00767,1.61163 4.53319,0 6.4764,-0.87348 1.94321,-0.87348 1.94321,-2.63529 0,-2.03285 -2.54565,-3.04204 -2.54564,-1.02366 -8.37334,-2.22853 -7.4856,-1.58175 -12.48242,-3.37362 -5.00068,-1.8073 -8.70492,-5.91927 -3.70521,-4.12643 -3.70521,-11.16189 0,-6.11494 3.41893,-11.10406 3.43339,-5.00068 10.22691,-7.86151 6.80702,-2.87626 16.52114,-2.87626 6.67207,0 13.09931,1.43042 6.4311,1.43041 11.32575,4.21703 l -6.56604,15.8175 q -9.53387,-4.80405 -18.04409,-4.80405 -8.41865,0 -8.41865,4.06667 0,1.94321 2.50034,2.92156 2.50034,0.96389 8.2384,2.07815 7.39499,1.38608 12.48242,3.19242 5.08743,1.80633 8.84084,5.87397 3.75051,4.06666 3.75051,11.10405 0,6.11494 -3.43339,11.0655 -3.41893,4.93995 -10.22692,7.86152 -6.79255,2.9071 -16.50185,2.9071 z m 94.47121,-1.47572 -0.18073,-29.51442 -14.06321,23.6925 h -9.62351 l -14.06321,-22.67078 v 28.4927 h -19.89476 v -64.77365 h 17.9477 l 21.09963,34.51703 20.54057,-34.51703 h 17.9477 l 0.18073,64.77365 z m 30.43976,-64.77365 h 21.84183 v 64.77365 h -21.84183 z m 65.88213,66.24841 q -10.27511,0 -18.50676,-4.29222 -8.22297,-4.30764 -12.90653,-12.02939 -4.6691,-7.72657 -4.6691,-17.53323 0,-9.82207 4.6691,-17.54286 4.68356,-7.72657 12.90653,-12.01976 8.2384,-4.30764 18.50676,-4.30764 9.44326,0 16.83922,3.32833 7.41041,3.32832 12.23181,9.62351 l -13.79332,12.30892 q -6.00891,-7.59066 -14.15959,-7.59066 -6.85232,0 -11.02695,4.39728 -4.15631,4.39729 -4.15631,11.8077 0,7.39499 4.15631,11.78842 4.17173,4.39728 11.02695,4.39728 8.14779,0 14.15959,-7.59066 L 617.33,167.95316 q -4.81947,6.29519 -12.23181,9.62352 -7.39499,3.32832 -16.83922,3.32832 z"
       id="path8"
       style="fill:#262626;fill-opacity:1;stroke-width:0.963894" />
    <path
       d="m111 230.3-6.014-10.41-20.83 12.03-24.06-41.65-20.83 12.03 24.06 41.65-20.83 12.03-36.09-62.48 20.83-12.03-12.03-20.83 20.83-12.03-12.03-20.83 20.83-12.03-12.03-20.83-20.83 12.03-12.03-20.83 20.83-12.03 12.03 20.83 20.83-12.03 12.03 20.83 62.48-36.09-12.03-20.83 20.83-12.03-12.03-20.83 20.83-12.03 12.03 20.83-20.83 12.03 12.03 20.83 20.83-12.03 12.03 20.83 20.83-12.03 12.03 20.83 20.83-12.03 12.03 20.83-10.41 6.014 6.014 10.41-10.41 6.014-6.014-10.41-20.83 12.03 18.04 31.24-10.41 6.014 6.014 10.41-10.41 6.014-12.03-20.83-104.1 60.14 12.03 20.83 41.65-24.06 12.03 20.83-41.65 24.06zm-27.29-95.34-6.014-10.41-20.83 12.03 12.03 20.83 20.83-12.03zm83.31-48.12-6.014-10.41-20.83 12.03 12.03 20.83 20.83-12.03zm6.462 107.4-6.014-10.41 31.24-18.04 6.014 10.41-10.41 6.014 6.014 10.41-20.83 12.03z"
       stroke-width=".4009"
       id="path10"
       style="fill:#262626;fill-opacity:1" />
    <g
       transform="translate(-119.2 -222.3)"
       fill-rule="evenodd"
       id="g24"
       style="fill:#262626;fill-opacity:1">
      <path
         d="m533.9 264.6 10.63-6.141 5.783 10.01-10.63 6.141z"
         id="path12"
         style="fill:#262626;fill-opacity:1" />
      <path
         d="m413.5 290.5 10.63-6.141 5.783 10.01-10.63 6.141z"
         id="path14"
         style="fill:#262626;fill-opacity:1" />
      <path
         d="m418.7 465.6 10.63-6.141 5.783 10.01-10.63 6.141z"
         id="path16"
         style="fill:#262626;fill-opacity:1" />
      <path
         d="m328.5 408.9 10.63-6.141 5.783 10.01-10.63 6.141z"
         id="path18"
         style="fill:#262626;fill-opacity:1" />
      <path
         d="m345 228.4 10.63-6.141 5.783 10.01-10.63 6.141z"
         id="path20"
         style="fill:#262626;fill-opacity:1" />
      <path
         d="m308.9 456.2 10.63-6.141 5.783 10.01-10.63 6.141z"
         id="path22"
         style="fill:#262626;fill-opacity:1" />
    </g>
  </g>
</svg>
