<?xml version="1.0" encoding="UTF-8" standalone="no"?>
<svg
   xmlns:dc="http://purl.org/dc/elements/1.1/"
   xmlns:cc="http://creativecommons.org/ns#"
   xmlns:rdf="http://www.w3.org/1999/02/22-rdf-syntax-ns#"
   xmlns:svg="http://www.w3.org/2000/svg"
   xmlns="http://www.w3.org/2000/svg"
   xmlns:sodipodi="http://sodipodi.sourceforge.net/DTD/sodipodi-0.dtd"
   xmlns:inkscape="http://www.inkscape.org/namespaces/inkscape"
   width="24"
   height="24"
   viewBox="0 0 24 24"
   version="1.1"
   id="svg64"
   sodipodi:docname="escape.svg"
   inkscape:version="1.0.2 (e86c870879, 2021-01-15, custom)">
  <metadata
     id="metadata70">
    <rdf:RDF>
      <cc:Work
         rdf:about="">
        <dc:format>image/svg+xml</dc:format>
        <dc:type
           rdf:resource="http://purl.org/dc/dcmitype/StillImage" />
        <dc:title />
      </cc:Work>
    </rdf:RDF>
  </metadata>
  <defs
     id="defs68" />
  <sodipodi:namedview
     pagecolor="#ffffff"
     bordercolor="#666666"
     borderopacity="1"
     objecttolerance="10"
     gridtolerance="10"
     guidetolerance="10"
     inkscape:pageopacity="0"
     inkscape:pageshadow="2"
     inkscape:window-width="1920"
     inkscape:window-height="1052"
     id="namedview66"
     showgrid="false"
     inkscape:zoom="26.916667"
     inkscape:cx="5.0154799"
     inkscape:cy="12"
     inkscape:window-x="1920"
     inkscape:window-y="88"
     inkscape:window-maximized="1"
     inkscape:current-layer="svg64"
     inkscape:document-rotation="0" />
  <path
     d="M14.811 0c2.23 0 3.729 1.684 3.729 3.256 0 1.195-.587 2.117-1.072 2.744h6.531999999999999v5.608c0 1.49-.949 2.169-1.832 2.169-.539 0-1.081-.246-1.526-.691-.314-.329-.442-.546-.846-.546-.45 0-1.256.578-1.256 1.73s.806 1.73 1.256 1.73c.401 0 .533-.218.847-.547.444-.445.986-.691 1.525-.691.883 0 1.832.679 1.832 2.169v7.069h-7.068c-.974 0-1.736-.438-2.04-1.171-.293-.71-.078-1.548.562-2.187.327-.312.546-.446.546-.846 0-.451-.578-1.256-1.729-1.256-1.152 0-1.73.805-1.73 1.256 0 .403.219.532.547.847.639.638.854 1.476.561 2.186-.304.733-1.068 1.171-2.041 1.171h-5.608v-6.531999999999999c-.755.569-1.707 1.073-2.744 1.073-1.572-.001-3.256-1.5-3.256-3.731s1.684-3.73 3.256-3.73c1.037 0 1.989.503 2.744 1.073v-6.153h6.151999999999999c-.485-.627-1.072-1.547-1.072-2.744 0-1.572 1.499-3.256 3.731-3.256zm7.189 8h-4.528c-.974 0-1.736-.438-2.04-1.171-.293-.71-.078-1.548.562-2.187 1.298-1.245.131-2.642-1.183-2.642-1.29 0-2.484 1.397-1.184 2.644.639.638.854 1.476.561 2.185-.303.733-1.066 1.171-2.04 1.171h-4.148v4.148c0 1.49-.949 2.169-1.832 2.169-.539 0-1.081-.246-1.526-.691-1.245-1.298-2.642-.105-2.642 1.184 0 1.231 1.398 2.484 2.643 1.183.893-.893 2.241-.874 2.909 0 .293.384.448.896.448 1.479v4.528h3.612c-.675-.648-1.072-1.167-1.072-2.204 0-1.572 1.499-3.256 3.73-3.256 2.23 0 3.729 1.684 3.729 3.256 0 1.03-.396 1.562-1.073 2.204h5.074v-5.071999999999999c-.647.673-1.165 1.072-2.204 1.072-1.572 0-3.256-1.499-3.256-3.73s1.684-3.73 3.256-3.73c1.036 0 1.562.399 2.204 1.073v-3.613z"
     id="path62"
     style="fill:#000000;fill-opacity:1" />
</svg>
