<?xml version="1.0" encoding="UTF-8" standalone="no"?>
<svg
   xmlns:dc="http://purl.org/dc/elements/1.1/"
   xmlns:cc="http://creativecommons.org/ns#"
   xmlns:rdf="http://www.w3.org/1999/02/22-rdf-syntax-ns#"
   xmlns:svg="http://www.w3.org/2000/svg"
   xmlns="http://www.w3.org/2000/svg"
   xmlns:sodipodi="http://sodipodi.sourceforge.net/DTD/sodipodi-0.dtd"
   xmlns:inkscape="http://www.inkscape.org/namespaces/inkscape"
   width="24"
   height="24"
   version="1.1"
   viewBox="0 0 24 24"
   id="svg4"
   sodipodi:docname="instagram.svg"
   inkscape:version="0.92.4 (5da689c313, 2019-01-14)">
  <metadata
     id="metadata10">
    <rdf:RDF>
      <cc:Work
         rdf:about="">
        <dc:format>image/svg+xml</dc:format>
        <dc:type
           rdf:resource="http://purl.org/dc/dcmitype/StillImage" />
      </cc:Work>
    </rdf:RDF>
  </metadata>
  <defs
     id="defs8" />
  <sodipodi:namedview
     pagecolor="#ffffff"
     bordercolor="#666666"
     borderopacity="1"
     objecttolerance="10"
     gridtolerance="10"
     guidetolerance="10"
     inkscape:pageopacity="0"
     inkscape:pageshadow="2"
     inkscape:window-width="1920"
     inkscape:window-height="1017"
     id="namedview6"
     showgrid="false"
     inkscape:zoom="19.666667"
     inkscape:cx="22.025719"
     inkscape:cy="12.367552"
     inkscape:window-x="3832"
     inkscape:window-y="-8"
     inkscape:window-maximized="1"
     inkscape:current-layer="svg4"
     inkscape:snap-page="true" />
  <path
     style="fill:#0e7f22;fill-opacity:1;stroke-width:0.76229358"
     d="M 2.2890625 0 C 1.0214354 0 2.8324799e-17 1.0214354 0 2.2890625 L 0 21.710938 C 0 22.978565 1.0214354 24 2.2890625 24 L 21.710938 24 C 22.978565 24 24 22.978565 24 21.710938 L 24 2.2890625 C 24 1.0214354 22.978565 2.8324799e-17 21.710938 0 L 2.2890625 0 z M 12.050781 2.8515625 C 14.535096 2.8515625 14.847723 2.8632281 15.824219 2.9082031 C 19.149345 3.0606618 20.993169 4.909489 21.142578 8.2285156 C 21.186798 9.2042512 21.199219 9.5156852 21.199219 12 C 21.199219 14.484315 21.187548 14.795748 21.142578 15.771484 C 20.992407 19.096608 19.141292 20.939339 15.822266 21.091797 C 14.84653 21.136017 14.535096 21.148438 12.050781 21.148438 C 9.566466 21.148438 9.2557954 21.136007 8.2792969 21.091797 C 4.9541724 20.939339 3.1114427 19.09356 2.9589844 15.771484 C 2.9147724 14.795748 2.9023438 14.484315 2.9023438 12 C 2.9023437 9.515685 2.9140134 9.2050133 2.9589844 8.2285156 C 3.1114429 4.9033908 4.9572213 3.0606614 8.2792969 2.9082031 C 9.2550325 2.8639911 9.566466 2.8515623 12.050781 2.8515625 z M 12.050781 4.5019531 C 9.6083917 4.5019534 9.3205316 4.5092884 8.3554688 4.5527344 C 5.8742031 4.6655535 4.7170967 5.8447666 4.6035156 8.3046875 C 4.5600616 9.2697512 4.5507812 9.5576113 4.5507812 12 C 4.5507812 14.443151 4.5593026 14.731012 4.6035156 15.695312 C 4.7163347 18.150661 5.8703912 19.333684 8.3554688 19.447266 C 9.3197696 19.491476 9.6083922 19.5 12.050781 19.5 C 14.494694 19.5 14.782983 19.491516 15.748047 19.447266 C 18.229312 19.334446 19.384465 18.155663 19.498047 15.697266 C 19.541477 14.732964 19.550781 14.443151 19.550781 12 C 19.550781 9.5576113 19.542297 9.2689892 19.498047 8.3046875 C 19.385227 5.8440043 18.227025 4.6675069 15.748047 4.5546875 C 14.782983 4.5104735 14.49317 4.5019535 12.050781 4.5019531 z M 16.933594 6.0195312 C 17.539618 6.0195312 18.03125 6.5111644 18.03125 7.1171875 C 18.03125 7.7232107 17.539618 8.2148438 16.933594 8.2148438 C 16.326808 8.2148438 15.835938 7.7232107 15.835938 7.1171875 C 15.835938 6.5111644 16.326808 6.0195312 16.933594 6.0195312 z M 12.050781 7.3027344 C 14.644866 7.3027344 16.748047 9.405915 16.748047 12 C 16.748047 14.594847 14.644866 16.699219 12.050781 16.699219 C 9.4566959 16.699219 7.3535156 14.594085 7.3535156 12 C 7.3535156 9.405915 9.4566959 7.3027344 12.050781 7.3027344 z M 12.050781 8.9492188 C 10.366874 8.9492188 9 10.316093 9 12 C 9 13.684669 10.366874 15.050781 12.050781 15.050781 C 13.734688 15.050781 15.101563 13.684669 15.101562 12 C 15.101563 10.316093 13.734688 8.9492188 12.050781 8.9492188 z "
     id="path2" />
</svg>
