<?xml version="1.0" encoding="UTF-8" standalone="no"?>
<svg
   xmlns:dc="http://purl.org/dc/elements/1.1/"
   xmlns:cc="http://creativecommons.org/ns#"
   xmlns:rdf="http://www.w3.org/1999/02/22-rdf-syntax-ns#"
   xmlns:svg="http://www.w3.org/2000/svg"
   xmlns="http://www.w3.org/2000/svg"
   xmlns:sodipodi="http://sodipodi.sourceforge.net/DTD/sodipodi-0.dtd"
   xmlns:inkscape="http://www.inkscape.org/namespaces/inkscape"
   width="24"
   height="24"
   viewBox="0 0 24 24"
   version="1.1"
   id="svg74"
   sodipodi:docname="IT.svg"
   inkscape:version="1.0.2 (e86c870879, 2021-01-15, custom)">
  <metadata
     id="metadata80">
    <rdf:RDF>
      <cc:Work
         rdf:about="">
        <dc:format>image/svg+xml</dc:format>
        <dc:type
           rdf:resource="http://purl.org/dc/dcmitype/StillImage" />
        <dc:title />
      </cc:Work>
    </rdf:RDF>
  </metadata>
  <defs
     id="defs78" />
  <sodipodi:namedview
     pagecolor="#ffffff"
     bordercolor="#666666"
     borderopacity="1"
     objecttolerance="10"
     gridtolerance="10"
     guidetolerance="10"
     inkscape:pageopacity="0"
     inkscape:pageshadow="2"
     inkscape:window-width="1920"
     inkscape:window-height="1052"
     id="namedview76"
     showgrid="false"
     inkscape:zoom="26.916667"
     inkscape:cx="5.0154799"
     inkscape:cy="12"
     inkscape:window-x="1920"
     inkscape:window-y="88"
     inkscape:window-maximized="1"
     inkscape:current-layer="svg74"
     inkscape:document-rotation="0" />
  <path
     d="M23 17h-22v7h22v-7zm-20 5l.863-3h1.275l-.863 3h-1.275zm2.066 0l.863-3h1.275l-.863 3h-1.275zm2.067 0l.863-3h1.275l-.864 3h-1.274zm2.066 0l.863-3h1.274l-.863 3h-1.274zm3.341 0h-1.274l.863-3h1.275l-.864 3zm7.46-.5c-.552 0-1-.448-1-1s.448-1 1-1c.553 0 1 .448 1 1s-.447 1-1 1zm1-19.5v11h-18v-11h18zm2-2h-22v15h22v-15zm-13 7.5l-2.563-2.5-.771.751 1.794 1.749-1.794 1.749.771.751 2.563-2.5zm7 1.5h-5v1h5v-1z"
     id="path72"
     style="fill:#000000;fill-opacity:1" />
</svg>
