<svg width="689" height="256" fill="none" stroke-linecap="square" stroke-miterlimit="10" version="1.1" viewBox="0 0 689 256" xmlns="http://www.w3.org/2000/svg">
 <clipPath>
  <path d="m0 0h845v398h-845z"/>
 </clipPath>
 <path d="m281 160q-6.8 0-13.2-1.67-6.39-1.69-10.4-4.5l5.19-11.7q3.77 2.48 8.72 4 4.97 1.52 9.77 1.52 9.12 0 9.12-4.56 0-2.39-2.61-3.55-2.59-1.17-8.36-2.45-6.31-1.36-10.6-2.91-4.23-1.56-7.28-5-3.03-3.45-3.03-9.28 0-5.12 2.8-9.23 2.8-4.12 8.36-6.53t13.6-2.41q5.52 0 10.9 1.25 5.38 1.23 9.45 3.64l-4.89 11.8q-8-4.31-15.5-4.31-4.72 0-6.89 1.41-2.16 1.39-2.16 3.62 0 2.25 2.56 3.38 2.56 1.11 8.25 2.31 6.39 1.36 10.6 2.92 4.2 1.56 7.28 4.97 3.08 3.39 3.08 9.23 0 5.03-2.8 9.11t-8.41 6.53q-5.59 2.44-13.6 2.44zm60.9-21.2v20.1h-15.8v-20.3l-21.4-35.7h16.7l13.3 22.2 13.3-22.2h15.4zm43.9 21.2q-6.8 0-13.2-1.67-6.39-1.69-10.4-4.5l5.19-11.7q3.77 2.48 8.72 4 4.97 1.52 9.77 1.52 9.12 0 9.12-4.56 0-2.39-2.61-3.55-2.59-1.17-8.36-2.45-6.31-1.36-10.6-2.91-4.23-1.56-7.28-5-3.03-3.45-3.03-9.28 0-5.12 2.8-9.23 2.8-4.12 8.36-6.53t13.6-2.41q5.52 0 10.9 1.25 5.38 1.23 9.45 3.64l-4.89 11.8q-8-4.31-15.5-4.31-4.72 0-6.89 1.41-2.16 1.39-2.16 3.62 0 2.25 2.56 3.38 2.56 1.11 8.25 2.31 6.39 1.36 10.6 2.92 4.2 1.56 7.28 4.97 3.08 3.39 3.08 9.23 0 5.03-2.8 9.11t-8.41 6.53q-5.59 2.44-13.6 2.44zm82.6-1.12-0.156-29.7-14.4 24.2h-7.03l-14.3-23.4v28.9h-14.6v-56h13l19.7 32.3 19.2-32.3h13l0.156 56zm25.8-56h15.8v56h-15.8zm55 57.1q-8.8 0-15.8-3.72t-11-10.4q-4-6.64-4-15t4-15 11-10.4 15.8-3.72q7.69 0 13.8 2.72t10.2 7.84l-10.1 9.12q-5.44-6.56-13.2-6.56-4.55 0-8.11 2t-5.53 5.64q-1.95 3.64-1.95 8.36t1.95 8.36q1.97 3.64 5.53 5.64t8.11 2q7.77 0 13.2-6.56l10.1 9.12q-4.08 5.12-10.2 7.84t-13.8 2.72z" fill="#48d048"/>
 <path d="m269 188v8.78h10.9v1.34h-10.9v9.06h-1.5v-20.5h13.7v1.34zm28.9 11.9h-13.2q0.0625 1.78 0.906 3.17 0.859 1.39 2.3 2.16 1.45 0.766 3.28 0.766 1.48 0 2.77-0.531 1.28-0.547 2.12-1.61l0.859 0.969q-1 1.2-2.52 1.86-1.5 0.641-3.27 0.641-2.3 0-4.09-1-1.78-1-2.8-2.75-1-1.77-1-4.03 0-2.23 0.953-4 0.953-1.78 2.62-2.77 1.67-1 3.75-1t3.73 0.984q1.67 0.969 2.62 2.73 0.953 1.77 0.953 3.98zm-7.28-6.84q-1.61 0-2.91 0.719-1.28 0.719-2.06 2.03-0.781 1.3-0.891 2.94h11.7q-0.0937-1.64-0.891-2.92-0.781-1.3-2.08-2.03-1.3-0.734-2.91-0.734zm15.7 14.3q-1.86 0-3.53-0.562t-2.61-1.41l0.688-1.17q0.938 0.781 2.41 1.31 1.48 0.531 3.09 0.531 2.33 0 3.42-0.766 1.11-0.766 1.11-2.11 0-0.969-0.609-1.52-0.594-0.562-1.48-0.828-0.875-0.266-2.44-0.562-1.81-0.312-2.94-0.688-1.11-0.391-1.91-1.23-0.781-0.859-0.781-2.36 0-1.81 1.5-3 1.52-1.19 4.31-1.19 1.47 0 2.91 0.406t2.34 1.08l-0.672 1.19q-0.953-0.688-2.16-1.03-1.19-0.359-2.45-0.359-2.14 0-3.23 0.797-1.08 0.797-1.08 2.08 0 1.03 0.609 1.61 0.625 0.562 1.52 0.844 0.891 0.281 2.52 0.594 1.78 0.328 2.88 0.703 1.11 0.359 1.86 1.19 0.766 0.812 0.766 2.25 0 1.91-1.58 3.06-1.58 1.14-4.45 1.14zm17.7-1.09q-0.562 0.531-1.41 0.812-0.828 0.281-1.73 0.281-1.98 0-3.08-1.09-1.08-1.11-1.08-3.08v-10h-2.81v-1.27h2.81v-3.34h1.47v3.34h4.86v1.27h-4.86v9.86q0 1.48 0.719 2.27t2.12 0.781q1.44 0 2.38-0.859zm4.08-14.3h1.47v15.3h-1.47zm0.734-3.72q-0.5 0-0.859-0.328-0.344-0.344-0.344-0.844t0.344-0.844q0.359-0.359 0.859-0.359t0.844 0.344q0.359 0.328 0.359 0.828t-0.359 0.859q-0.344 0.344-0.844 0.344zm19.2 3.72-6.92 15.3h-1.48l-6.89-15.3h1.55l6.11 13.7 6.16-13.7zm7.89-0.109q2.84 0 4.38 1.45 1.53 1.45 1.53 4.27v9.7h-1.42v-2.73q-0.719 1.36-2.14 2.11-1.41 0.75-3.36 0.75-2.56 0-4.05-1.2-1.47-1.2-1.47-3.17 0-1.91 1.36-3.09 1.36-1.19 4.36-1.19h5.25v-1.23q0-2.14-1.17-3.25-1.16-1.12-3.38-1.12-1.53 0-2.92 0.531t-2.36 1.41l-0.734-1.05q1.14-1.03 2.75-1.59 1.62-0.578 3.38-0.578zm-0.812 14.3q1.91 0 3.23-0.875 1.34-0.891 2.02-2.56v-2.88h-5.22q-2.27 0-3.28 0.828-1 0.812-1 2.25 0 1.5 1.11 2.38 1.11 0.859 3.14 0.859zm12.8-20.7h1.47v21.8h-1.47zm28.8 0v21.8h-1.44v-3.61q-0.906 1.8-2.55 2.77-1.64 0.969-3.73 0.969-2.14 0-3.88-1-1.72-1-2.7-2.75-0.984-1.77-0.984-4.03 0-2.25 0.984-4.03t2.7-2.75q1.73-0.984 3.88-0.984 2.06 0 3.69 0.969t2.56 2.69v-10zm-7.62 20.6q1.75 0 3.14-0.812 1.41-0.828 2.2-2.3 0.812-1.47 0.812-3.34t-0.812-3.34q-0.797-1.47-2.2-2.28-1.39-0.828-3.14-0.828-1.77 0-3.16 0.828-1.39 0.812-2.2 2.28-0.797 1.47-0.797 3.34t0.797 3.34q0.812 1.47 2.2 2.3 1.39 0.812 3.16 0.812zm26.7-6.09h-13.2q0.0625 1.78 0.906 3.17 0.859 1.39 2.3 2.16 1.45 0.766 3.28 0.766 1.48 0 2.77-0.531 1.28-0.547 2.12-1.61l0.859 0.969q-1 1.2-2.52 1.86-1.5 0.641-3.27 0.641-2.3 0-4.09-1-1.78-1-2.8-2.75-1-1.77-1-4.03 0-2.23 0.953-4 0.953-1.78 2.62-2.77 1.67-1 3.75-1t3.73 0.984q1.67 0.969 2.62 2.73 0.953 1.77 0.953 3.98zm-7.28-6.84q-1.61 0-2.91 0.719-1.28 0.719-2.06 2.03-0.781 1.3-0.891 2.94h11.7q-0.0937-1.64-0.891-2.92-0.781-1.3-2.08-2.03-1.3-0.734-2.91-0.734zm19.4-7.62h1.47v21.8h-1.47zm12.8 6.34q2.84 0 4.38 1.45 1.53 1.45 1.53 4.27v9.7h-1.42v-2.73q-0.719 1.36-2.14 2.11-1.41 0.75-3.36 0.75-2.56 0-4.05-1.2-1.47-1.2-1.47-3.17 0-1.91 1.36-3.09 1.36-1.19 4.36-1.19h5.25v-1.23q0-2.14-1.17-3.25-1.16-1.12-3.38-1.12-1.53 0-2.92 0.531t-2.36 1.41l-0.734-1.05q1.14-1.03 2.75-1.59 1.62-0.578 3.38-0.578zm-0.812 14.3q1.91 0 3.23-0.875 1.34-0.891 2.02-2.56v-2.88h-5.22q-2.27 0-3.28 0.828-1 0.812-1 2.25 0 1.5 1.11 2.38 1.11 0.859 3.14 0.859zm39.4-14.3q2.84 0 4.47 1.67 1.62 1.67 1.62 4.81v8.94h-1.45v-8.83q0-2.58-1.27-3.92-1.27-1.36-3.52-1.36-2.59 0-4.11 1.62-1.5 1.61-1.5 4.33v8.16h-1.47v-8.83q0-2.58-1.27-3.92-1.25-1.36-3.52-1.36-2.58 0-4.09 1.62-1.5 1.61-1.5 4.33v8.16h-1.47v-15.3h1.41v3.28q0.766-1.61 2.27-2.5 1.52-0.891 3.59-0.891 2.09 0 3.55 0.938 1.45 0.938 2.06 2.75 0.766-1.7 2.39-2.69 1.62-1 3.8-1zm12.1 0.109h1.47v15.3h-1.47zm0.734-3.72q-0.5 0-0.859-0.328-0.344-0.344-0.344-0.844t0.344-0.844q0.359-0.359 0.859-0.359t0.844 0.344q0.359 0.328 0.359 0.828t-0.359 0.859q-0.344 0.344-0.844 0.344zm13 19.2q-2.23 0-4-1-1.75-1-2.75-2.77-1-1.78-1-4.02 0-2.25 1-4.03t2.75-2.75q1.77-0.984 4-0.984 1.84 0 3.34 0.719 1.52 0.719 2.45 2.09l-1.08 0.797q-0.828-1.16-2.05-1.72-1.22-0.578-2.67-0.578-1.8 0-3.22 0.812-1.42 0.797-2.23 2.27-0.797 1.47-0.797 3.38t0.797 3.38q0.812 1.47 2.23 2.28 1.42 0.797 3.22 0.797 1.45 0 2.67-0.562 1.22-0.578 2.05-1.72l1.08 0.781q-0.938 1.39-2.45 2.11-1.5 0.719-3.34 0.719zm11.6-12.1q0.703-1.67 2.2-2.56 1.5-0.891 3.64-0.891v1.44l-0.359-0.0312q-2.55 0-3.98 1.59t-1.44 4.44v7.98h-1.47v-15.3h1.41zm15.7 12.1q-2.17 0-3.92-1-1.73-1-2.73-2.77-1-1.78-1-4.02 0-2.23 1-4 1-1.78 2.73-2.77 1.75-1 3.92-1t3.91 1q1.75 0.984 2.75 2.77 1 1.77 1 4t-1 4.02q-1 1.77-2.75 2.77-1.73 1-3.91 1zm0-1.33q1.75 0 3.14-0.812 1.41-0.828 2.2-2.3 0.812-1.47 0.812-3.34t-0.812-3.34q-0.797-1.47-2.2-2.28-1.39-0.828-3.14-0.828-1.77 0-3.16 0.828-1.39 0.812-2.2 2.28-0.797 1.47-0.797 3.34t0.797 3.34q0.812 1.47 2.2 2.3 1.39 0.812 3.16 0.812zm19.8 0.234q-0.562 0.531-1.41 0.812-0.828 0.281-1.73 0.281-1.98 0-3.08-1.09-1.08-1.11-1.08-3.08v-10h-2.81v-1.27h2.81v-3.34h1.47v3.34h4.86v1.27h-4.86v9.86q0 1.48 0.719 2.27t2.12 0.781q1.44 0 2.38-0.859zm16.5-6.33h-13.2q0.0625 1.78 0.906 3.17 0.859 1.39 2.3 2.16 1.45 0.766 3.28 0.766 1.48 0 2.77-0.531 1.28-0.547 2.12-1.61l0.859 0.969q-1 1.2-2.52 1.86-1.5 0.641-3.27 0.641-2.3 0-4.09-1-1.78-1-2.8-2.75-1-1.77-1-4.03 0-2.23 0.953-4 0.953-1.78 2.62-2.77 1.67-1 3.75-1t3.73 0.984q1.67 0.969 2.62 2.73 0.953 1.77 0.953 3.98zm-7.28-6.84q-1.61 0-2.91 0.719-1.28 0.719-2.06 2.03-0.781 1.3-0.891 2.94h11.7q-0.0937-1.64-0.891-2.92-0.781-1.3-2.08-2.03-1.3-0.734-2.91-0.734zm17.9 14.3q-2.23 0-4-1-1.75-1-2.75-2.77-1-1.78-1-4.02 0-2.25 1-4.03t2.75-2.75q1.77-0.984 4-0.984 1.84 0 3.34 0.719 1.52 0.719 2.45 2.09l-1.08 0.797q-0.828-1.16-2.05-1.72-1.22-0.578-2.67-0.578-1.8 0-3.22 0.812-1.42 0.797-2.23 2.27-0.797 1.47-0.797 3.38t0.797 3.38q0.812 1.47 2.23 2.28 1.42 0.797 3.22 0.797 1.45 0 2.67-0.562 1.22-0.578 2.05-1.72l1.08 0.781q-0.938 1.39-2.45 2.11-1.5 0.719-3.34 0.719zm17.4-15.5q2.88 0 4.55 1.67t1.67 4.81v8.94h-1.47v-8.83q0-2.58-1.31-3.92-1.3-1.36-3.66-1.36-2.69 0-4.25 1.62-1.55 1.61-1.55 4.33v8.16h-1.47v-21.8h1.47v9.66q0.781-1.59 2.33-2.45 1.56-0.859 3.69-0.859zm19.7 0q2.88 0 4.55 1.67t1.67 4.81v8.94h-1.47v-8.83q0-2.58-1.31-3.92-1.3-1.36-3.66-1.36-2.69 0-4.25 1.62-1.55 1.61-1.55 4.33v8.16h-1.47v-15.3h1.41v3.31q0.797-1.61 2.36-2.52 1.58-0.906 3.72-0.906zm12.3 0.109h1.47v15.3h-1.47zm0.734-3.72q-0.5 0-0.859-0.328-0.344-0.344-0.344-0.844t0.344-0.844q0.359-0.359 0.859-0.359t0.844 0.344q0.359 0.328 0.359 0.828t-0.359 0.859q-0.344 0.344-0.844 0.344zm20.5 3.72v21h-1.47v-9.23q-0.938 1.73-2.56 2.7t-3.69 0.969q-2.14 0-3.88-0.984-1.72-0.984-2.7-2.75-0.984-1.78-0.984-4.05 0-2.25 0.984-4.02t2.7-2.75q1.73-1 3.88-1 2.09 0 3.73 0.969t2.55 2.75v-3.61zm-7.62 14.1q1.75 0 3.14-0.812 1.41-0.828 2.2-2.3 0.812-1.47 0.812-3.34t-0.812-3.34q-0.797-1.47-2.2-2.28-1.39-0.828-3.14-0.828-1.77 0-3.16 0.828-1.39 0.812-2.2 2.28-0.797 1.47-0.797 3.34t0.797 3.34q0.812 1.47 2.2 2.3 1.39 0.812 3.16 0.812zm27.2-14.1v15.3h-1.41v-3.28q-0.766 1.61-2.27 2.52-1.5 0.891-3.52 0.891-3 0-4.7-1.67-1.69-1.67-1.69-4.81v-8.95h1.47v8.83q0 2.58 1.31 3.94 1.31 1.34 3.72 1.34 2.59 0 4.09-1.61 1.52-1.61 1.52-4.34v-8.16zm19.2 8.02h-13.2q0.0625 1.78 0.906 3.17 0.859 1.39 2.3 2.16 1.45 0.766 3.28 0.766 1.48 0 2.77-0.531 1.28-0.547 2.12-1.61l0.859 0.969q-1 1.2-2.52 1.86-1.5 0.641-3.27 0.641-2.3 0-4.09-1-1.78-1-2.8-2.75-1-1.77-1-4.03 0-2.23 0.953-4 0.953-1.78 2.62-2.77 1.67-1 3.75-1t3.73 0.984q1.67 0.969 2.62 2.73 0.953 1.77 0.953 3.98zm-7.28-6.84q-1.61 0-2.91 0.719-1.28 0.719-2.06 2.03-0.781 1.3-0.891 2.94h11.7q-0.0937-1.64-0.891-2.92-0.781-1.3-2.08-2.03-1.3-0.734-2.91-0.734z" fill="#39a539"/>
 <g fill="#48d048">
  <path d="m111 231-6-10.4-20.8 12-24-41.6-20.8 12 24 41.6-20.8 12-36-62.5 20.8-12-12-20.8 20.8-12-12-20.8 20.8-12-12-20.8-20.8 12-12-20.8 20.8-12 12 20.8 20.8-12 12 20.8 62.5-36-12-20.8 20.8-12-12-20.8 20.8-12 12 20.8-20.8 12 12 20.8 20.8-12 12 20.8 20.8-12 12 20.8 20.8-12 12 20.8-10.4 6 6 10.4-10.4 6-6-10.4-20.8 12 18 31.2-10.4 6 6 10.4-10.4 6-12-20.8-104 60 12 20.8 41.6-24 12 20.8-41.6 24zm-27.2-95.3-6-10.4-20.8 12 12 20.8 20.8-12zm83.3-48-6-10.4-20.8 12 12 20.8 20.8-12zm6.36 107-6-10.4 31.2-18 6 10.4-10.4 6 6 10.4-20.8 12z" stroke-width=".401"/>
  <g fill-rule="evenodd">
   <path d="m436 42.3 10.6-6.14 5.78 10-10.6 6.14z"/>
   <path d="m315 68.7 10.6-6.14 5.78 10-10.6 6.14z"/>
   <path d="m321 244 10.6-6.14 5.78 10-10.6 6.14z"/>
   <path d="m231 187 10.6-6.14 5.78 10-10.6 6.14z"/>
   <path d="m247 6.14 10.6-6.14 5.78 10-10.6 6.14z"/>
   <path d="m211 234 10.6-6.14 5.78 10-10.6 6.14z"/>
  </g>
 </g>
</svg>
