<?xml version="1.0" encoding="UTF-8" standalone="no"?>
<svg
   xmlns:dc="http://purl.org/dc/elements/1.1/"
   xmlns:cc="http://creativecommons.org/ns#"
   xmlns:rdf="http://www.w3.org/1999/02/22-rdf-syntax-ns#"
   xmlns:svg="http://www.w3.org/2000/svg"
   xmlns="http://www.w3.org/2000/svg"
   xmlns:sodipodi="http://sodipodi.sourceforge.net/DTD/sodipodi-0.dtd"
   xmlns:inkscape="http://www.inkscape.org/namespaces/inkscape"
   width="24"
   height="24"
   viewBox="0 0 24 24"
   version="1.1"
   id="svg114"
   sodipodi:docname="spectacle.svg"
   inkscape:version="1.0.2 (e86c870879, 2021-01-15, custom)">
  <metadata
     id="metadata120">
    <rdf:RDF>
      <cc:Work
         rdf:about="">
        <dc:format>image/svg+xml</dc:format>
        <dc:type
           rdf:resource="http://purl.org/dc/dcmitype/StillImage" />
        <dc:title />
      </cc:Work>
    </rdf:RDF>
  </metadata>
  <defs
     id="defs118" />
  <sodipodi:namedview
     pagecolor="#ffffff"
     bordercolor="#666666"
     borderopacity="1"
     objecttolerance="10"
     gridtolerance="10"
     guidetolerance="10"
     inkscape:pageopacity="0"
     inkscape:pageshadow="2"
     inkscape:window-width="1920"
     inkscape:window-height="1052"
     id="namedview116"
     showgrid="false"
     inkscape:zoom="26.916667"
     inkscape:cx="12"
     inkscape:cy="12"
     inkscape:window-x="1920"
     inkscape:window-y="88"
     inkscape:window-maximized="1"
     inkscape:current-layer="svg114"
     inkscape:document-rotation="0" />
  <path
     d="M11 6.999c2.395.731 4.27 2.607 4.999 5.001.733-2.395 2.608-4.269 5.001-5-2.393-.731-4.268-2.605-5.001-5-.729 2.394-2.604 4.268-4.999 4.999zm7 7c1.437.438 2.562 1.564 2.999 3.001.44-1.437 1.565-2.562 3.001-3-1.436-.439-2.561-1.563-3.001-3-.437 1.436-1.562 2.561-2.999 2.999zm-6 5.501c1.198.365 2.135 1.303 2.499 2.5.366-1.198 1.304-2.135 2.501-2.5-1.197-.366-2.134-1.302-2.501-2.5-.364 1.197-1.301 2.134-2.499 2.5zm-6-8.272c.522.658 1.118 1.253 1.775 1.775-.657.522-1.252 1.117-1.773 1.774-.522-.658-1.118-1.253-1.776-1.776.658-.521 1.252-1.116 1.774-1.773zm-.001-4.228c-.875 2.873-3.128 5.125-5.999 6.001 2.876.88 5.124 3.128 6.004 6.004.875-2.874 3.128-5.124 5.996-6.004-2.868-.874-5.121-3.127-6.001-6.001z"
     id="path112"
     style="fill:#000000;fill-opacity:1" />
</svg>
