<svg width="615.29" height="564.22" version="1.1" viewBox="0 0 141.21 189.92" xmlns="http://www.w3.org/2000/svg">
 <rect x="-32.948" y="-7.1054e-15" width="207.11" height="189.92" fill-opacity="0"/>
 <g transform="translate(-33.881 -43.206)" fill="none" stroke="#90fff0" stroke-linejoin="round">
  <rect x="149.23" y="72.54" width="13.02" height="13.02" stroke-width=".18844"/>
  <rect x="47.298" y="122.82" width="35.591" height="33.898" stroke-width=".18844"/>
  <g stroke-width=".19219">
   <rect x="184.3" y="171.13" width="10.624" height="16.599"/>
   <rect x="13.781" y="155.27" width="10.624" height="16.599"/>
   <rect x="134.33" y="87.323" width="10.624" height="16.599"/>
   <rect x="102.61" y="155.53" width="10.624" height="16.599"/>
  </g>
  <rect x="65.881" y="118.89" width="14.817" height="20.094" stroke-width=".24973"/>
  <rect x="133.25" y="151.7" width="14.817" height="20.094" stroke-width=".24973"/>
  <rect x="11.473" y="122.7" width="33.296" height="14.539" stroke-width=".15275"/>
  <g stroke-width=".18844">
   <rect x="149.1" y="173.18" width="13.02" height="13.02"/>
   <rect x="114.71" y="189.26" width="13.02" height="13.02"/>
   <rect x="149.85" y="106.26" width="13.02" height="13.02"/>
  </g>
  <g stroke-width=".22423">
   <rect x="82.955" y="103.01" width="15.65" height="15.339"/>
   <rect x="167.28" y="119.79" width="15.65" height="15.339"/>
   <rect x="82.955" y="119.58" width="15.65" height="15.339"/>
   <rect x="82.741" y="153.14" width="15.65" height="15.339"/>
   <rect x="132.82" y="186.29" width="15.65" height="15.339"/>
  </g>
 </g>
</svg>
