<svg width="615.29" height="564.22" version="1.1" viewBox="0 0 141.21 189.92" xmlns="http://www.w3.org/2000/svg">
 <rect x="-32.948" y="-7.1054e-15" width="207.11" height="189.92" fill-opacity="0"/>
 <g transform="translate(-33.881 -43.206)" fill="none" stroke="#eebbc3" stroke-linejoin="round">
  <rect x="129.78" y="137.89" width="35.591" height="33.898" stroke-width=".18844"/>
  <rect x="129.78" y="122.56" width="35.591" height="33.898" stroke-width=".18844"/>
  <rect x="181.67" y="172.62" width="18.536" height="14.669" stroke-width=".23865"/>
  <g stroke-width=".24973">
   <rect x="65.352" y="120.74" width="14.817" height="20.094"/>
   <rect x="64.559" y="118.62" width="14.817" height="20.094"/>
   <rect x="65.881" y="187.36" width="14.817" height="20.094"/>
   <rect x="84.272" y="102.72" width="14.817" height="20.094"/>
   <rect x="181.48" y="138.24" width="14.817" height="20.094"/>
   <rect x="116.8" y="152.82" width="14.817" height="20.094"/>
  </g>
  <rect x="131.02" y="88.236" width="18.536" height="14.669" stroke-width=".23865"/>
  <rect x="166.15" y="119.92" width="14.817" height="20.094" stroke-width=".24973"/>
  <rect x="85.918" y="140.66" width="13.02" height="13.02" stroke-width=".18844"/>
  <rect x="111.51" y="118.55" width="37.399" height="31.612" stroke-width=".22423"/>
 </g>
</svg>
