<svg width="615.29" height="564.22" version="1.1" viewBox="0 0 141.21 189.92" xmlns="http://www.w3.org/2000/svg">
 <rect x="-32.948" y="-7.1054e-15" width="207.11" height="189.92" fill-opacity="0"/>
 <g transform="translate(-33.881 -43.206)" fill="none" stroke="#eebbc3" stroke-linejoin="round">
  <g stroke-width=".18844">
   <rect x="84.434" y="191.54" width="13.02" height="13.02"/>
   <rect x="101.21" y="140.58" width="13.02" height="13.02"/>
   <rect x="118.27" y="156.46" width="13.02" height="13.02"/>
   <rect x="181.06" y="155.71" width="20.275" height="36.336"/>
   <rect x="2.0898" y="165.65" width="35.591" height="33.898"/>
   <rect x="81.138" y="120.71" width="35.591" height="33.898"/>
   <rect x="165.55" y="141.03" width="13.02" height="13.02"/>
   <rect x="150.97" y="157.11" width="13.02" height="13.02"/>
  </g>
  <g stroke-width=".22423">
   <rect x="66.261" y="103.11" width="15.65" height="15.339"/>
   <rect x="13.397" y="136.78" width="15.65" height="15.339"/>
   <rect x="149.73" y="120" width="15.65" height="15.339"/>
   <rect x="184.62" y="136.57" width="15.65" height="15.339"/>
   <rect x="133.25" y="152.93" width="15.65" height="15.339"/>
  </g>
 </g>
</svg>
