<svg width="615.29" height="564.22" version="1.1" viewBox="0 0 141.21 189.92" xmlns="http://www.w3.org/2000/svg">
 <rect x="-32.948" y="-7.1054e-15" width="207.11" height="189.92" fill-opacity="0"/>
 <g transform="translate(-33.881 -43.206)" fill="none" stroke="#90fff0" stroke-linejoin="round">
  <g stroke-width=".18844">
   <rect x="101.21" y="123.34" width="13.02" height="13.02"/>
   <rect x="118.09" y="140.4" width="13.02" height="13.02"/>
   <rect x="182.87" y="140.58" width="13.02" height="13.02"/>
   <rect x="101.21" y="156.64" width="13.02" height="13.02"/>
   <rect x="117.02" y="190.11" width="13.02" height="13.02"/>
   <rect x="46.505" y="106.43" width="35.591" height="33.898"/>
  </g>
  <rect x="150.73" y="170.07" width="10.624" height="16.599" stroke-width=".19219"/>
  <g stroke-width=".23865">
   <rect x="147.17" y="104.63" width="18.536" height="14.669"/>
   <rect x="62.964" y="121.07" width="18.536" height="14.669"/>
   <rect x="63.288" y="123.51" width="18.536" height="14.669"/>
  </g>
  <rect x="117.17" y="103.1" width="14.817" height="20.094" stroke-width=".24973"/>
  <rect x="13.611" y="154.4" width="15.65" height="15.339" stroke-width=".22423"/>
  <rect x="82.543" y="150.76" width="16.714" height="19.738" stroke-width=".22423"/>
 </g>
</svg>
