<svg width="615.29" height="564.22" version="1.1" viewBox="0 0 141.21 189.92" xmlns="http://www.w3.org/2000/svg">
 <rect x="-32.948" y="-7.1054e-15" width="207.11" height="189.92" fill-opacity="0"/>
 <g transform="translate(-33.881 -43.206)" fill="none" stroke="#90fff0" stroke-linejoin="round">
  <g stroke-width=".18844">
   <rect x="66.023" y="191.54" width="13.02" height="13.02"/>
   <rect x="183.04" y="172.7" width="13.02" height="13.02"/>
   <rect x="133.79" y="189.76" width="13.02" height="13.02"/>
  </g>
  <rect x="63.416" y="120.55" width="16.233" height="15.991" stroke-width=".23318"/>
  <rect x="146.16" y="119.49" width="20.275" height="36.336" stroke-width=".18844"/>
  <rect x="83.607" y="156.56" width="33.296" height="14.539" stroke-width=".15275"/>
  <rect x="47.653" y="156.56" width="33.296" height="14.539" stroke-width=".15275"/>
  <rect x="130.14" y="122.36" width="20.066" height="13.149" stroke-width=".23508"/>
  <rect x="44.277" y="157.4" width="18.536" height="14.669" stroke-width=".23865"/>
  <g stroke-width=".22423">
   <rect x="132.67" y="102.91" width="15.65" height="15.339"/>
   <rect x="82.955" y="136.78" width="15.65" height="15.339"/>
   <rect x="116.34" y="136.36" width="15.65" height="15.339"/>
   <rect x="149.94" y="136.15" width="15.65" height="15.339"/>
   <rect x="82.443" y="104.39" width="38.095" height="13.257"/>
  </g>
 </g>
</svg>
