<svg width="615.29" height="564.22" version="1.1" viewBox="0 0 141.21 189.92" xmlns="http://www.w3.org/2000/svg">
 <rect x="-32.948" y="-7.1054e-15" width="207.11" height="189.92" fill-opacity="0"/>
 <g transform="translate(-33.881 -43.206)" fill="none" stroke="#eebbc3" stroke-linejoin="round">
  <g stroke-width=".18844">
   <rect x="101.21" y="106.08" width="13.02" height="13.02"/>
   <rect x="149.59" y="105.84" width="13.02" height="13.02"/>
   <rect x="166.45" y="123.34" width="13.02" height="13.02"/>
   <rect x="12.497" y="174.66" width="13.02" height="13.02"/>
   <rect x="85.146" y="156.64" width="13.02" height="13.02"/>
   <rect x="149.68" y="172.34" width="13.02" height="13.02"/>
   <rect x="129.24" y="84.857" width="20.275" height="36.336"/>
   <rect x="81.138" y="106.17" width="35.591" height="33.898"/>
  </g>
  <rect x="84.897" y="121.96" width="10.624" height="16.599" stroke-width=".19219"/>
  <rect x="131.96" y="123.71" width="18.536" height="14.669" stroke-width=".23865"/>
  <rect x="129.79" y="123.52" width="20.066" height="13.149" stroke-width=".23508"/>
  <rect x="63.718" y="190.31" width="18.536" height="14.669" stroke-width=".23865"/>
  <rect x="48.711" y="136.78" width="15.65" height="15.339" stroke-width=".22423"/>
 </g>
</svg>
