<svg width="615.29" height="564.22" version="1.1" viewBox="0 0 141.21 189.92" xmlns="http://www.w3.org/2000/svg">
 <rect x="-32.948" y="-7.1054e-15" width="207.11" height="189.92" fill-opacity="0"/>
 <g transform="translate(-33.881 -43.206)" fill="none" stroke="#eebbc3" stroke-linejoin="round">
  <g stroke-width=".18844">
   <rect x="133.67" y="106.02" width="13.02" height="13.02"/>
   <rect x="66.45" y="106.19" width="13.02" height="13.02"/>
   <rect x="12.497" y="140.75" width="13.02" height="13.02"/>
   <rect x="150.03" y="140.22" width="13.02" height="13.02"/>
   <rect x="166.45" y="140.58" width="13.02" height="13.02"/>
   <rect x="66.628" y="156.82" width="13.02" height="13.02"/>
   <rect x="63.416" y="120.55" width="20.275" height="36.336"/>
   <rect x="96.991" y="103.36" width="20.275" height="36.336"/>
   <rect x="113.91" y="120.81" width="20.275" height="36.336"/>
  </g>
  <rect x="113.52" y="188.11" width="33.296" height="14.539" stroke-width=".15275"/>
  <rect x="129.85" y="121.07" width="18.536" height="14.669" stroke-width=".23865"/>
  <rect x="44.65" y="172.73" width="18.536" height="14.669" stroke-width=".23865"/>
  <rect x="47.408" y="123.83" width="13.02" height="13.02" stroke-width=".18844"/>
 </g>
</svg>
