<svg width="615.29" height="564.22" version="1.1" viewBox="0 0 141.21 189.92" xmlns="http://www.w3.org/2000/svg">
 <rect x="-32.948" y="-7.1054e-15" width="207.11" height="189.92" fill-opacity="0"/>
 <g transform="translate(-33.881 -43.206)" fill="none" stroke="#5ed1b5" stroke-linejoin="round">
  <g stroke-width=".18844">
   <rect x="48.128" y="106.1" width="13.02" height="13.02"/>
   <rect x="48.038" y="123.34" width="13.02" height="13.02"/>
   <rect x="29.805" y="123.16" width="13.02" height="13.02"/>
   <rect x="47.86" y="140.75" width="13.02" height="13.02"/>
   <rect x="29.449" y="140.93" width="13.02" height="13.02"/>
   <rect x="117.91" y="123.16" width="13.02" height="13.02"/>
   <rect x="149.85" y="123.52" width="13.02" height="13.02"/>
   <rect x="134.15" y="140.4" width="13.02" height="13.02"/>
  </g>
  <rect x="47.917" y="106.07" width="33.296" height="14.539" stroke-width=".15275"/>
  <rect x="131.9" y="121.77" width="35.591" height="33.898" stroke-width=".18844"/>
  <rect x="45.976" y="154.81" width="35.591" height="33.898" stroke-width=".18844"/>
  <rect x="134.6" y="121.69" width="10.624" height="16.599" stroke-width=".19219"/>
  <rect x="31.803" y="119.58" width="15.65" height="15.339" stroke-width=".22423"/>
  <rect x="47.109" y="151.36" width="16.714" height="19.738" stroke-width=".22423"/>
 </g>
</svg>
