<svg width="2267.7" height="630.87" version="1.1" viewBox="0 0 2267.7 630.87" xml:space="preserve" xmlns="http://www.w3.org/2000/svg">
<defs>
	<clipPath id="a">
	<path d="M 0,473.152 H 1700.787 V 0 H 0 Z"/></clipPath>
</defs>
<g transform="matrix(1.3333 0 0 -1.3333 0 630.87)">
<g clip-path="url(#a)">
<g transform="translate(629.18 222.28)">
	<path d="m0 0h-58.29c-8.104 0-14.986-2.84-20.648-8.51-5.671-5.671-8.502-12.553-8.502-20.648 0-7.953 2.866-14.801 8.608-20.542 5.741-5.75 12.589-8.616 20.542-8.616h58.29zm-58.202-87.758c-16.384 0-30.211 5.653-41.499 16.976-11.289 11.324-16.933 25.195-16.933 41.624 0 10.651 2.575 20.498 7.732 29.52 11.041 19.384 27.902 29.08 50.585 29.08h58.317v28.875c0 8.166-2.795 15.024-8.369 20.562-5.582 5.538-12.482 8.316-20.692 8.316h-58.131c-9.899 0-14.845 4.901-14.845 14.721 0 9.811 4.946 14.721 14.845 14.721h58.317c16.349 0 30.149-5.644 41.419-16.924 11.263-11.289 16.898-25.107 16.898-41.475v-131.4c0-9.732-4.875-14.597-14.606-14.597z" fill="#e30513"/>
</g>
<g transform="translate(814.96 309.47)">
	<path d="m0 0h-58.291c-8.103 0-14.985-2.831-20.647-8.493-5.671-5.662-8.502-12.529-8.502-20.615v-87.299c0-7.945 2.866-14.774 8.608-20.506 5.741-5.733 12.588-8.599 20.541-8.599h58.291zm14.836 29.441c9.731 0 14.606-4.874 14.606-14.606v-219.12c0-16.375-5.636-30.212-16.898-41.5-11.27-11.288-25.07-16.932-41.419-16.932h-58.317c-9.9 0-14.845 4.909-14.845 14.721 0 9.819 4.945 14.72 14.845 14.72h58.131c8.068 0 14.933 2.84 20.586 8.501 5.644 5.68 8.475 12.563 8.475 20.658v29.159h-58.317c-22.683 0-39.544 9.66-50.585 28.981-5.158 8.989-7.732 18.799-7.732 29.414v87.6c0 16.369 5.644 30.187 16.933 41.476 11.288 11.279 25.115 16.923 41.499 16.923z" fill="#e30513"/>
</g>
<g transform="translate(957.15 309.47)">
	<path d="m0 0c-12.041 0-22.321-4.229-30.831-12.687-8.511-8.459-12.766-18.668-12.766-30.628v-14.438h87.193v14.438c0 11.96-4.264 22.169-12.775 30.628-8.51 8.458-18.791 12.687-30.821 12.687m-43.597-87.195v-29.159c0-7.953 2.867-14.8 8.617-20.542 5.742-5.75 12.588-8.616 20.542-8.616h72.896c9.714 0 14.579-4.91 14.579-14.72 0-9.821-4.874-14.721-14.605-14.721h-73.038c-16.384 0-30.211 5.635-41.499 16.923-11.29 11.279-16.933 25.107-16.933 41.472v73.003c0 20.197 7.112 37.415 21.355 51.649 14.244 14.226 31.468 21.347 51.683 21.347 20.506 0 37.81-7.033 51.902-21.099 14.084-14.066 21.135-31.328 21.135-51.8v-43.737z" fill="#e30513"/>
</g>
<g transform="translate(1099.3 309.47)">
	<path d="m0 0v-145.51h58.131c8.068 0 14.933 2.822 20.587 8.484 5.643 5.662 8.474 12.536 8.474 20.621v87.299c0 8.227-2.795 15.139-8.369 20.73-5.582 5.582-12.482 8.378-20.692 8.378zm-29.441 14.835c0 9.732 4.865 14.606 14.605 14.606h73.038c16.375 0 30.211-5.644 41.5-16.923 11.288-11.289 16.933-25.107 16.933-41.476v-87.6c0-16.224-5.636-30.007-16.898-41.366-11.27-11.359-25.072-17.029-41.42-17.029h-58.317v-73.136c0-9.749-4.91-14.623-14.721-14.623-9.819 0-14.72 4.874-14.72 14.606z" fill="#e30513"/>
</g>
<g transform="translate(1372.3 207.61)">
	<path d="m0 0v58.21c0 12.049-4.264 22.329-12.775 30.859-8.51 8.529-18.79 12.793-30.822 12.793-12.04 0-22.32-4.264-30.83-12.793-8.511-8.53-12.765-18.81-12.765-30.859v-58.21c0-12.2 4.219-22.524 12.659-30.973 8.439-8.457 18.746-12.676 30.936-12.676 12.032 0 22.312 4.254 30.822 12.783 8.511 8.527 12.775 18.816 12.775 30.866m-116.63-0.098v58.406c0 20.196 7.113 37.414 21.356 51.649 14.243 14.225 31.467 21.347 51.681 21.347 20.507 0 37.811-7.042 51.904-21.126 14.084-14.084 21.134-31.381 21.134-51.87v-58.406c0-20.206-7.122-37.421-21.364-51.646-14.243-14.235-31.468-21.347-51.674-21.347-20.214 0-37.438 7.112-51.681 21.347-14.243 14.225-21.356 31.44-21.356 51.646" fill="#e30513"/>
</g>
<g transform="translate(1441.5 412.07)">
	<path d="m0 0c0 9.731 4.901 14.606 14.721 14.606 9.811 0 14.721-4.875 14.721-14.606v-233.72c0-7.528 4.822-12.402 14.473-14.614 9.644-2.212 14.474-7.086 14.474-14.605 0-9.741-4.867-14.606-14.598-14.606-13.128 0-23.709 3.865-31.741 11.615s-12.05 18.481-12.05 32.21z" fill="#e30513"/>
</g>
<g transform="translate(1573 76.159)">
	<path d="m0 0 24.328 73.18-56.548 170.3c-0.742 1.769-1.105 3.326-1.105 4.653 0 9.749 4.945 14.624 14.845 14.624 7.201 0 11.924-3.3 14.171-9.9l44.155-132.98 44.223 132.98c2.221 6.6 6.892 9.9 14.005 9.9 9.784 0 14.677-4.875 14.677-14.624 0-1.327-0.257-2.884-0.77-4.653l-87.352-262.75c-2.212-6.75-6.857-10.128-13.934-10.128h-29.424c-9.731 0-14.596 4.9-14.596 14.703 0 7.873 4.043 12.624 12.138 14.251 1.327 0.301 8.386 0.442 21.187 0.442" fill="#e30513"/>
</g>
<g transform="translate(291.64 264.45)">
	<path d="m0 0c-18.145-18.091-40.199-27.128-66.164-27.128-26.044 0-48.232 9.037-66.544 27.128l8e-3 -8e-3c16.371 18.091 40.036 29.459 66.354 29.459 26.31 0 49.967-11.359 66.337-29.433" fill="#1475a1"/>
</g>
<g transform="translate(185.78 325.95)">
	<path d="m0 0c-12.854-19.551-27.708-32.051-44.543-37.51-6.511 13.027-9.784 27.283-9.784 42.765 9e-3 25.974 9.13 48.254 27.363 66.832 15.127 15.141 33.104 24.067 53.946 26.757 9e-3 -38.939-8.988-71.888-26.982-98.844" fill="#1475a1"/>
</g>
<g transform="translate(237.81 424.8)">
	<path d="m0 0c20.833-2.694 38.819-11.616 53.946-26.752 18.233-18.578 27.354-40.863 27.354-66.837 0-15.481-3.264-29.733-9.775-42.765-16.836 5.463-31.689 17.964-44.552 37.51-17.985 26.956-26.991 59.91-26.973 98.844" fill="#1475a1"/>
</g>
<g transform="translate(243.87 117)">
	<path d="m0 0c-6.631 24.748-3.468 48.373 9.479 70.879 12.991 22.572 31.892 37.298 56.702 44.149l-8e-3 -5e-3c7.514-23.213 5.564-49.395-7.56-72.206-13.124-22.802-34.763-37.642-58.595-42.817" fill="#5fa5c1"/>
</g>
<g transform="translate(349.98 178.09)">
	<path d="m0 0c-10.541 20.892-13.964 40-10.298 57.317 14.535-0.853 28.522-5.126 41.947-12.849 22.505-12.96 37.27-31.977 44.277-57.043 5.582-20.666 4.352-40.699-3.711-60.105-33.755 19.41-57.826 43.641-72.215 72.68" fill="#5fa5c1"/>
</g>
<g transform="translate(409.7 83.688)">
	<path d="m0 0c-12.722-16.716-29.424-27.854-50.09-33.414-25.195-6.542-49.063-3.331-71.574 9.621-13.416 7.719-24.142 17.657-32.192 29.8 13.132 11.867 31.374 18.507 54.729 19.909 32.335 2.146 65.39-6.48 99.127-25.916" fill="#5fa5c1"/>
</g>
<g transform="translate(139.93 232.07)">
	<path d="m0 0c24.749-6.635 43.627-21.187 56.645-43.653 13.053-22.537 16.353-46.269 9.881-71.181v0.014c-23.859 5.095-45.56 19.878-58.75 42.649-13.186 22.767-15.216 48.927-7.785 72.153" fill="#b6d3db"/>
</g>
<g transform="translate(139.78 109.64)">
	<path d="m0 0c23.36-1.318 41.619-7.909 54.783-19.741-8.006-12.164-18.702-22.139-32.1-29.902-22.479-13.013-46.33-16.287-71.543-9.824-20.688 5.502-37.421 16.583-50.196 33.268 33.688 19.528 66.708 28.256 99.056 26.199" fill="#b6d3db"/>
</g>
<g transform="translate(28.166 105.12)">
	<path d="m0 0c-8.112 19.375-9.408 39.407-3.892 60.087 6.935 25.089 21.647 44.153 44.122 57.171 13.394 7.759 27.363 12.08 41.907 12.978 3.711-17.308 0.336-36.425-10.125-57.352-14.309-29.075-38.31-53.386-72.012-72.884" fill="#b6d3db"/>
</g>
</g>
</g>
</svg>
