<?xml version="1.0" encoding="utf-8"?>
<!-- Generator: Adobe Illustrator 24.0.1, SVG Export Plug-In . SVG Version: 6.00 Build 0)  -->
<svg version="1.1" id="Calque_1" xmlns="http://www.w3.org/2000/svg" xmlns:xlink="http://www.w3.org/1999/xlink" x="0px" y="0px"
	 viewBox="0 0 1000 1000" style="enable-background:new 0 0 1000 1000;" xml:space="preserve">
<style type="text/css">
	.st0{fill:#FFFFFF;}
	.st1{clip-path:url(#SVGID_2_);fill:url(#SVGID_3_);}
</style>
<g>
	<path class="st0" d="M297.52,755.44c8.07-8.45,12.05-18.51,12.05-30.09c0-12.15-4.27-22.59-12.91-31.14
		c-8.54-8.64-18.99-12.91-31.14-12.91H225v155.3h48.6c12.15,0,22.59-4.37,31.13-12.91c8.64-8.64,12.91-18.99,12.91-31.14
		c0-7.69-1.8-14.81-5.51-21.36C308.63,764.75,303.79,759.43,297.52,755.44z M245.98,702.29h19.55c6.36,0,11.77,2.18,16.33,6.74
		c4.56,4.46,6.74,9.87,6.74,16.33c0,6.26-2.28,11.77-6.93,16.33c-4.56,4.46-10.06,6.74-16.61,6.74h-19.08V702.29z M289.93,808.89
		c-4.56,4.46-9.97,6.74-16.33,6.74h-27.62V769.4h27.62c6.36,0,11.77,2.18,16.33,6.74c4.56,4.56,6.74,9.97,6.74,16.42
		C296.67,798.83,294.48,804.33,289.93,808.89z"/>
	<path class="st0" d="M446.55,794.65c5.03-2.85,9.59-6.36,13.67-10.35c11.77-11.77,17.66-26.01,17.66-42.72s-5.89-30.85-17.66-42.62
		c-11.77-11.77-25.91-17.66-42.62-17.66h-38.45v155.3h21.93v-34.65h22.97l27.53,34.65h27.91L446.55,794.65z M417.6,780.03h-16.52
		v-76.89h16.52c10.63,0,19.65,3.7,27.15,11.3c7.59,7.4,11.29,16.52,11.29,27.15s-3.7,19.65-11.29,27.15
		C437.25,776.23,428.23,780.03,417.6,780.03z"/>
	<rect x="538.54" y="681.31" class="st0" width="21.17" height="155.3"/>
	<path class="st0" d="M752.31,704c-15.19-15.19-33.51-22.69-54.87-22.69c-21.45,0-39.77,7.5-54.96,22.69
		c-15.19,15.19-22.78,33.51-22.78,54.87c0,21.45,7.59,39.77,22.78,54.96c15.19,15.19,33.51,22.78,54.96,22.78
		c21.36,0,39.68-7.59,54.87-22.78C767.5,798.63,775,780.31,775,758.86C775,737.51,767.5,719.18,752.31,704z M737.88,799.4
		c-11.2,11.11-24.68,16.71-40.44,16.71c-15.76,0-29.33-5.6-40.53-16.71c-11.11-11.2-16.71-24.78-16.71-40.53
		c0-15.76,5.6-29.24,16.71-40.44c11.2-11.2,24.78-16.8,40.53-16.8c15.76,0,29.24,5.6,40.44,16.8c11.2,11.2,16.8,24.68,16.8,40.44
		C754.69,774.62,749.09,788.19,737.88,799.4z"/>
	<polygon class="st0" points="238.1,881.03 227.64,862.9 225.45,862.9 237.14,883.16 237.14,896.9 239.05,896.9 239.05,883.16 
		250.76,862.9 248.57,862.9 	"/>
	<polygon class="st0" points="289.26,896.9 306.26,896.9 306.26,894.99 291.17,894.99 291.17,880.86 306.26,880.86 306.26,878.95 
		291.17,878.95 291.17,864.82 306.26,864.82 306.26,862.9 289.26,862.9 	"/>
	<path class="st0" d="M365.14,874c0-3.06-1.08-5.67-3.25-7.84c-1.81-1.81-4.02-2.9-6.61-3.25h-8.92v34h1.91v-11.79h5.78
		c0.2,0,0.39,0,0.57-0.02l7.58,11.81h2.36l-7.84-12.09c1.94-0.47,3.66-1.45,5.16-2.95C364.05,879.69,365.14,877.07,365.14,874z
		 M354.04,883.18h-5.78v-18.34h5.78c2.52,0,4.68,0.89,6.47,2.68c1.79,1.79,2.69,3.95,2.69,6.48c0,2.54-0.9,4.7-2.69,6.49
		C358.72,882.28,356.57,883.18,354.04,883.18z"/>
	<path class="st0" d="M413.41,874.12c1.8-1.51,2.7-3.15,2.7-4.91c0-1.74-0.62-3.23-1.86-4.46c-1.24-1.23-2.73-1.85-4.47-1.85h-6.03
		v34h6.59v-0.02c2.93-0.04,5.45-1.15,7.56-3.33c2.27-2.35,3.4-5.13,3.4-8.35c0-3.23-1.13-5.98-3.4-8.27
		C416.49,875.38,414.99,874.45,413.41,874.12z M405.65,864.82h4.12c1.27,0,2.34,0.41,3.21,1.24c0.86,0.83,1.3,1.88,1.3,3.16
		c0,1.28-0.43,2.31-1.3,3.1c-0.75,0.69-1.66,1.09-2.72,1.19h-4.61V864.82z M416.45,892.1c-1.71,1.79-3.75,2.76-6.12,2.91v-0.02
		h-4.67v-19.44h3.97c2.66,0,4.94,0.94,6.82,2.83c1.88,1.88,2.83,4.16,2.83,6.82C419.27,887.86,418.33,890.16,416.45,892.1z"/>
	<path class="st0" d="M458.3,896.9h2.04l4.74-13.03h11.77l4.74,13.03h2.02l-12.64-34.78L458.3,896.9z M465.78,881.97l5.18-14.26
		l5.18,14.26H465.78z"/>
	<polygon class="st0" points="586.36,885.01 573.59,862.9 571.4,862.9 571.48,863.06 571.48,896.9 573.4,896.9 573.4,866.37 
		586.36,888.77 599.3,866.37 599.3,896.9 601.21,896.9 601.21,863.06 601.3,862.9 599.11,862.9 	"/>
	<path class="st0" d="M639.79,896.9h2.04l4.74-13.03h11.77l4.74,13.03h2.02l-12.64-34.78L639.79,896.9z M647.27,881.97l5.19-14.26
		l5.18,14.26H647.27z"/>
	<polygon class="st0" points="699.93,864.82 708.53,864.82 708.53,896.9 710.44,896.9 710.44,864.82 719.05,864.82 719.05,862.9 
		699.93,862.9 	"/>
	<polygon class="st0" points="757.55,896.9 774.55,896.9 774.55,894.99 759.46,894.99 759.46,880.86 774.55,880.86 774.55,878.95 
		759.46,878.95 759.46,864.82 774.55,864.82 774.55,862.9 757.55,862.9 	"/>
	<polygon class="st0" points="765.49,858.27 770.7,854.3 767.17,854.3 763.71,858.27 	"/>
	<g>
		<path class="st0" d="M382.2,358.96c3.62-4.34,5.49-8.68,6.83-13.03c1.31-4.34,1.85-8.69,1.85-13.03
			c-0.02-4.34-0.56-8.69-1.88-13.03c-1.34-4.34-3.21-8.69-6.81-13.03c-3.6,4.34-5.46,8.68-6.81,13.03
			c-1.31,4.34-1.86,8.68-1.88,13.03c0,4.34,0.54,8.68,1.85,13.03C376.71,350.27,378.58,354.62,382.2,358.96z"/>
		<path class="st0" d="M424.38,448.29c-3.6,4.34-5.46,8.69-6.81,13.03c-1.31,4.34-1.86,8.68-1.88,13.03c0,4.34,0.54,8.68,1.85,13.03
			c1.34,4.34,3.21,8.68,6.83,13.03c3.62-4.34,5.49-8.69,6.83-13.03c1.31-4.34,1.85-8.69,1.85-13.03c-0.02-4.34-0.56-8.69-1.88-13.03
			C429.85,456.97,427.98,452.63,424.38,448.29z"/>
		<path class="st0" d="M463.11,519.07c0.27,4.53,1.27,8.79,2.75,12.87c1.51,4.07,3.52,7.96,6.25,11.58
			c2.76,3.61,6.02,7.04,10.92,9.85c1.89-5.33,2.14-10.05,1.89-14.59c-0.28-4.53-1.27-8.79-2.77-12.86
			c-1.52-4.07-3.54-7.95-6.27-11.57c-2.76-3.61-6.02-7.04-10.9-9.86C463.11,509.81,462.87,514.53,463.11,519.07z"/>
		<path class="st0" d="M358.55,372.31c1.89,4.12,4.36,7.74,7.22,11.01c2.88,3.25,6.16,6.15,10.02,8.53
			c3.88,2.37,8.16,4.38,13.74,5.24c-0.16-5.65-1.64-10.14-3.51-14.28c-1.89-4.12-4.36-7.74-7.24-10.99
			c-2.89-3.24-6.17-6.13-10.03-8.52c-3.88-2.36-8.15-4.38-13.73-5.26C355.2,363.68,356.68,368.17,358.55,372.31z"/>
		<circle class="st0" cx="459.12" cy="456.97" r="11.17"/>
		
			<ellipse transform="matrix(0.3827 -0.9239 0.9239 0.3827 -76.846 684.7953)" class="st0" cx="474.01" cy="399.9" rx="8.68" ry="8.69"/>
		<circle class="st0" cx="360.17" cy="447.05" r="8.69"/>
		
			<ellipse transform="matrix(0.9732 -0.2298 0.2298 0.9732 -68.93 118.46)" class="st0" cx="474.24" cy="355.24" rx="8.69" ry="8.69"/>
		<circle class="st0" cx="378.48" cy="495.44" r="4.96"/>
		
			<ellipse transform="matrix(0.9871 -0.1602 0.1602 0.9871 -42.9634 68.3195)" class="st0" cx="402.28" cy="300.64" rx="8.69" ry="8.68"/>
		<path class="st0" d="M609.12,332.9c0,4.34,0.54,8.68,1.85,13.03c1.34,4.34,3.21,8.68,6.83,13.03c3.62-4.34,5.49-8.68,6.83-13.03
			c1.31-4.34,1.85-8.69,1.85-13.03c-0.02-4.34-0.56-8.69-1.88-13.03c-1.34-4.34-3.21-8.69-6.81-13.03
			c-3.6,4.34-5.46,8.68-6.81,13.03C609.68,324.22,609.14,328.56,609.12,332.9z"/>
		<path class="st0" d="M575.62,500.4c3.62-4.34,5.49-8.69,6.83-13.03c1.31-4.34,1.85-8.69,1.85-13.03
			c-0.02-4.34-0.56-8.69-1.88-13.03c-1.34-4.34-3.21-8.69-6.81-13.03c-3.6,4.34-5.46,8.69-6.81,13.03
			c-1.31,4.34-1.86,8.68-1.88,13.03c0,4.34,0.54,8.68,1.85,13.03C570.13,491.71,572,496.06,575.62,500.4z"/>
		<path class="st0" d="M524.12,514.36c-2.74,3.62-4.75,7.5-6.27,11.57c-1.5,4.07-2.5,8.34-2.77,12.86c-0.25,4.54,0,9.26,1.89,14.59
			c4.9-2.82,8.16-6.24,10.92-9.85c2.73-3.62,4.75-7.51,6.25-11.58c1.48-4.08,2.48-8.34,2.75-12.87c0.24-4.54,0-9.26-1.87-14.58
			C530.14,507.32,526.88,510.75,524.12,514.36z"/>
		<path class="st0" d="M621.22,371.82c-2.87,3.25-5.34,6.87-7.24,10.99c-1.87,4.14-3.35,8.63-3.51,14.28
			c5.59-0.86,9.87-2.87,13.74-5.24c3.86-2.39,7.14-5.28,10.02-8.53c2.86-3.27,5.33-6.88,7.22-11.01c1.87-4.14,3.35-8.63,3.53-14.27
			c-5.57,0.87-9.84,2.89-13.73,5.26C627.39,365.68,624.11,368.58,621.22,371.82z"/>
		<circle class="st0" cx="540.88" cy="456.97" r="11.17"/>
		<circle class="st0" cx="525.99" cy="399.9" r="8.69"/>
		<circle class="st0" cx="639.83" cy="447.05" r="8.69"/>
		
			<ellipse transform="matrix(0.7071 -0.7071 0.7071 0.7071 -97.1975 475.8163)" class="st0" cx="525.76" cy="355.24" rx="8.69" ry="8.69"/>
		<circle class="st0" cx="621.52" cy="495.44" r="4.96"/>
		
			<ellipse transform="matrix(0.9871 -0.1602 0.1602 0.9871 -40.4397 99.6267)" class="st0" cx="597.72" cy="300.64" rx="8.69" ry="8.68"/>
		<path class="st0" d="M635.74,518.89c57.68-69.87,52.72-172.33-11.54-238.35l-10.53-10.82c0.04-0.44,0.07-0.88,0.07-1.34
			c0-9.35-9.35-14.47-18.27-17.59l50.26-135.15l-62.75-12.55l-29.64,139.45c-16.2-1.76-34.54-2.7-53.34-2.7
			c-28.58,0-55.54,2.12-75.89,5.96c-26.17,4.95-37.84,11.91-37.84,22.57c0,0.45,0.03,0.9,0.07,1.34l-10.53,10.82
			c-64.26,66.02-69.22,168.48-11.54,238.35c32.27,39.09,78.07,61.57,128.95,63.28c1.26,0.04,2.53,0.07,3.8,0.09
			c0.85,0.19,1.7,0.38,2.56,0.56l0.11-0.53c0.11,0,0.21,0,0.32,0c0.11,0,0.21,0,0.32,0l0.11,0.53c0.86-0.18,1.71-0.37,2.56-0.56
			c1.27-0.02,2.54-0.05,3.8-0.09C557.67,580.46,603.46,557.98,635.74,518.89z M619.71,467.87c2.96-12.17,4.41-24.67,4.31-37.28
			c12.13-3.89,23.6-9.2,34.3-15.87c-0.86,17.62-4.61,35.11-11.31,51.71C637.89,466.1,628.77,466.58,619.71,467.87z M657.99,393.98
			c-10.76,7.93-22.53,14.2-35.16,18.7c-0.5-4.04-1.16-8.08-1.98-12.11l-17.02,3.48c2.55,12.48,3.35,25.05,2.47,37.41
			c-14.28-9.17-26.54-20.72-36.36-34.11l0.19,0.11c9.15-16.09,21.17-29.91,35.73-41.07l-10.57-13.79
			c-14.03,10.75-25.96,23.7-35.57,38.54c-4.75-8.88-8.55-18.36-11.31-28.31l-16.74,4.64c10.95,39.49,36.48,72.33,71.96,92.68
			c-3.53,16.51-10.16,32.39-19.75,46.91c-2.15,3.25-4.42,6.38-6.81,9.41c-11.47-14.03-20.17-30.39-25.36-47.84l-16.65,4.95
			c6.1,20.52,16.51,39.71,30.29,55.97c-15.81,15.52-35.13,26.92-56.62,33.3v-61.97c3.71-26.27,14.98-51.1,32.53-71.2l-13.08-11.43
			c-7.77,8.9-14.23,18.62-19.45,28.94V296.92h-0.13v-0.07c6.31-0.1,12.51-0.29,18.56-0.59c-1.67,1.64-3.09,3.36-4.38,5.13
			c-2.57,3.56-4.41,7.37-5.76,11.34c-1.32,3.98-2.13,8.13-2.22,12.52c-0.06,4.4,0.4,8.97,2.5,14.1c4.76-2.84,7.86-6.22,10.45-9.78
			c2.57-3.57,4.41-7.37,5.73-11.35c1.31-3.99,2.11-8.14,2.19-12.53c0.04-3.15-0.19-6.39-1.08-9.85c7.03-0.45,13.8-1.04,20.21-1.77
			c-10.44,14.66-18.33,31.11-23.15,48.4l16.73,4.66c3.14-11.29,7.77-22.46,13.69-32.87c8.16,10.6,17.61,20.07,28.23,28.21
			l10.57-13.79c-11.02-8.44-20.61-18.49-28.61-29.88c2.25-2.96,4.62-5.82,7.1-8.54c9.87-2.04,17.48-4.41,22.99-7.22l9.36,9.61
			C639.52,321.19,655.04,357.24,657.99,393.98z M568.06,274.66c-1.27,0.21-2.58,0.42-3.93,0.63l23.12-108.77l18.87,5.78
			L568.06,274.66z M622.34,128.68l-10.15,27.3l-21.31-6.52l5.52-25.96L622.34,128.68z M500,257.22c17.51,0,34.56,0.83,49.71,2.41
			l-3.8,17.89c-12.98,1.24-28.31,2.04-45.9,2.04c-49.9,0-81.69-6.4-92.95-11.17C418.31,263.62,450.1,257.22,500,257.22z
			 M388.25,292.66l9.36-9.61c5.51,2.81,13.12,5.18,22.99,7.22c2.48,2.72,4.85,5.58,7.1,8.54c-8,11.39-17.6,21.43-28.61,29.88
			l10.57,13.79c10.63-8.14,20.08-17.61,28.23-28.21c5.91,10.41,10.54,21.58,13.69,32.87l16.73-4.66
			c-4.81-17.29-12.71-33.74-23.15-48.4c6.41,0.73,13.18,1.31,20.21,1.77c-0.89,3.46-1.12,6.7-1.08,9.85
			c0.08,4.39,0.89,8.55,2.19,12.53c1.33,3.98,3.17,7.79,5.73,11.35c2.59,3.56,5.69,6.94,10.45,9.78c2.11-5.12,2.56-9.69,2.5-14.1
			c-0.08-4.39-0.89-8.54-2.22-12.52c-1.34-3.97-3.19-7.78-5.76-11.34c-1.29-1.76-2.7-3.49-4.38-5.13c6,0.3,12.16,0.49,18.42,0.59
			v150.34c-5.22-10.32-11.68-20.04-19.45-28.94l-13.08,11.43c17.55,20.09,28.82,44.93,32.53,71.2v61.97
			c-21.49-6.38-40.81-17.78-56.62-33.3c13.78-16.26,24.19-35.45,30.29-55.97l-16.65-4.95c-5.19,17.45-13.89,33.81-25.36,47.84
			c-2.38-3.03-4.66-6.16-6.81-9.41c-9.59-14.51-16.22-30.39-19.75-46.91c35.48-20.35,61.01-53.19,71.96-92.68l-16.74-4.64
			c-2.76,9.95-6.56,19.43-11.31,28.31c-9.6-14.85-21.53-27.79-35.57-38.54l-10.57,13.79c14.56,11.16,26.59,24.98,35.73,41.07
			l0.19-0.11c-9.82,13.39-22.08,24.94-36.36,34.11c-0.88-12.37-0.08-24.93,2.47-37.41l-17.02-3.48c-0.82,4.03-1.48,8.07-1.98,12.11
			c-12.63-4.5-24.4-10.76-35.16-18.7C344.96,357.24,360.48,321.19,388.25,292.66z M352.99,466.44c-6.7-16.6-10.46-34.09-11.31-51.71
			c10.7,6.66,22.17,11.97,34.3,15.87c-0.1,12.61,1.35,25.11,4.31,37.28C371.23,466.58,362.11,466.1,352.99,466.44z M377.66,507.83
			c-6.31-7.64-11.77-15.71-16.42-24.1c8.32,0.16,16.63,1.09,24.86,2.77c4.01,10.46,9.19,20.56,15.51,30.13
			c8.27,12.52,18.14,23.58,29.28,33C410.64,539.95,392.55,525.86,377.66,507.83z M598.39,516.63c6.32-9.57,11.5-19.67,15.51-30.13
			c8.23-1.69,16.54-2.61,24.86-2.77c-4.65,8.39-10.12,16.47-16.42,24.1c-14.89,18.03-32.97,32.12-53.23,41.8
			C580.25,540.21,590.12,529.14,598.39,516.63z"/>
		<path class="st0" d="M489.02,215.35c1.44,2.43,2.94,4.86,4.75,7.29c1.74,2.43,3.8,4.86,6.23,7.29c2.42-2.43,4.49-4.86,6.23-7.29
			c1.81-2.43,3.31-4.86,4.75-7.29c2.76-4.86,4.97-9.72,6.61-14.58c3.32-9.72,4.75-19.44,4.75-29.16
			c-0.05-9.72-1.47-19.44-4.81-29.16c-1.64-4.86-3.84-9.72-6.6-14.58c-1.43-2.43-2.93-4.86-4.73-7.29
			c-1.73-2.43-3.78-4.86-6.19-7.29c-2.41,2.43-4.46,4.86-6.19,7.29c-1.8,2.43-3.3,4.86-4.73,7.29c-2.75,4.86-4.96,9.72-6.6,14.58
			c-3.34,9.72-4.77,19.44-4.81,29.16c-0.01,9.72,1.42,19.44,4.75,29.16C484.06,205.63,486.26,210.49,489.02,215.35z"/>
		<path class="st0" d="M427.22,179.62c2.95,5.03,6.86,9.49,12.04,13.2c5.32,3.63,11.39,6.82,20.65,8.15
			c3.35-8.72,3.52-15.58,2.94-22c-0.72-6.33-2.71-11.92-5.67-16.94c-2.98-5.01-6.89-9.47-12.08-13.18
			c-5.32-3.63-11.39-6.83-20.6-8.17c-3.31,8.7-3.47,15.56-2.9,21.97C422.3,168.99,424.3,174.58,427.22,179.62z"/>
		<path class="st0" d="M422.28,226.01c3.3,2.96,6.92,4.9,10.76,6.1c3.85,1.19,7.93,1.61,12.32,1.03c4.42-0.67,9.04-2.02,14.41-5.79
			c-2.33-6.13-5.39-9.85-8.67-12.88c-3.3-2.95-6.92-4.89-10.77-6.07c-3.85-1.16-7.93-1.58-12.33-0.99
			c-4.42,0.67-9.04,2.02-14.4,5.76C415.93,219.26,419,222.97,422.28,226.01z"/>
	</g>
</g>
<g>
	<defs>
		<path id="SVGID_1_" d="M-659.48,744.44c8.07-8.45,12.05-18.51,12.05-30.09c0-12.15-4.27-22.59-12.91-31.14
			c-8.54-8.64-18.99-12.91-31.14-12.91H-732v155.3h48.6c12.15,0,22.59-4.37,31.13-12.91c8.64-8.64,12.91-18.99,12.91-31.14
			c0-7.69-1.8-14.81-5.51-21.36C-648.37,753.75-653.21,748.43-659.48,744.44z M-711.02,691.29h19.55c6.36,0,11.77,2.18,16.33,6.74
			c4.56,4.46,6.74,9.87,6.74,16.33c0,6.26-2.28,11.77-6.93,16.33c-4.56,4.46-10.06,6.74-16.61,6.74h-19.08V691.29z M-667.07,797.89
			c-4.56,4.46-9.97,6.74-16.33,6.74h-27.62V758.4h27.62c6.36,0,11.77,2.18,16.33,6.74c4.56,4.56,6.74,9.97,6.74,16.42
			C-660.33,787.83-662.52,793.33-667.07,797.89z M-510.45,783.65c5.03-2.85,9.59-6.36,13.67-10.35
			c11.77-11.77,17.66-26.01,17.66-42.72s-5.89-30.85-17.66-42.62c-11.77-11.77-25.91-17.66-42.62-17.66h-38.45v155.3h21.93v-34.65
			h22.97l27.53,34.65h27.91L-510.45,783.65z M-539.4,769.03h-16.52v-76.89h16.52c10.63,0,19.65,3.7,27.15,11.3
			c7.59,7.4,11.29,16.52,11.29,27.15s-3.7,19.65-11.29,27.15C-519.75,765.23-528.77,769.03-539.4,769.03z M-418.46,670.31h21.17
			v155.3h-21.17V670.31z M-204.69,693c-15.19-15.19-33.51-22.69-54.87-22.69c-21.45,0-39.77,7.5-54.96,22.69
			c-15.19,15.19-22.78,33.51-22.78,54.87c0,21.45,7.59,39.77,22.78,54.96c15.19,15.19,33.51,22.78,54.96,22.78
			c21.36,0,39.68-7.59,54.87-22.78c15.19-15.19,22.69-33.51,22.69-54.96C-182,726.51-189.5,708.18-204.69,693z M-219.12,788.4
			c-11.2,11.11-24.68,16.71-40.44,16.71c-15.76,0-29.33-5.6-40.53-16.71c-11.11-11.2-16.71-24.78-16.71-40.53
			c0-15.76,5.6-29.24,16.71-40.44c11.2-11.2,24.78-16.8,40.53-16.8c15.76,0,29.24,5.6,40.44,16.8c11.2,11.2,16.8,24.68,16.8,40.44
			C-202.31,763.62-207.91,777.19-219.12,788.4z M-708.43,851.9h2.19l-11.71,20.25v13.75h-1.91v-13.75l-11.69-20.25h2.19l10.46,18.13
			L-708.43,851.9z M-667.74,851.9h17v1.91h-15.09v14.13h15.09v1.91h-15.09v14.13h15.09v1.91h-17V851.9z M-591.86,863
			c0-3.06-1.08-5.67-3.25-7.84c-1.81-1.81-4.02-2.9-6.61-3.25h-8.92v34h1.91v-11.79h5.78c0.2,0,0.39,0,0.57-0.02l7.58,11.81h2.36
			l-7.84-12.09c1.94-0.47,3.66-1.45,5.16-2.95C-592.95,868.69-591.86,866.07-591.86,863z M-602.96,872.18h-5.78v-18.34h5.78
			c2.52,0,4.68,0.89,6.47,2.68c1.79,1.79,2.69,3.95,2.69,6.48c0,2.54-0.9,4.7-2.69,6.49C-598.28,871.28-600.43,872.18-602.96,872.18
			z M-543.59,863.12c1.8-1.51,2.7-3.15,2.7-4.91c0-1.74-0.62-3.23-1.86-4.46c-1.24-1.23-2.73-1.85-4.47-1.85h-6.03v34h6.59v-0.02
			c2.93-0.04,5.45-1.15,7.56-3.33c2.27-2.35,3.4-5.13,3.4-8.35c0-3.23-1.13-5.98-3.4-8.27
			C-540.51,864.38-542.01,863.45-543.59,863.12z M-551.35,853.82h4.12c1.27,0,2.34,0.41,3.21,1.24c0.86,0.83,1.3,1.88,1.3,3.16
			c0,1.28-0.43,2.31-1.3,3.1c-0.75,0.69-1.66,1.09-2.72,1.19h-4.61V853.82z M-540.55,881.1c-1.71,1.79-3.75,2.76-6.12,2.91v-0.02
			h-4.67v-19.44h3.97c2.66,0,4.94,0.94,6.82,2.83c1.88,1.88,2.83,4.16,2.83,6.82C-537.73,876.86-538.67,879.16-540.55,881.1z
			 M-498.7,885.9h2.04l4.74-13.03h11.77l4.74,13.03h2.02l-12.64-34.78L-498.7,885.9z M-491.22,870.97l5.18-14.26l5.18,14.26H-491.22
			z M-357.89,851.9h2.19l-0.08,0.15v33.85h-1.91v-30.54l-12.94,22.4l-12.96-22.4v30.54h-1.91v-33.85l-0.08-0.15h2.19l12.77,22.1
			L-357.89,851.9z M-317.21,885.9h2.04l4.74-13.03h11.77l4.74,13.03h2.02l-12.64-34.78L-317.21,885.9z M-309.73,870.97l5.19-14.26
			l5.18,14.26H-309.73z M-257.07,851.9h19.12v1.91h-8.61v32.09h-1.91v-32.09h-8.61V851.9z M-199.45,851.9h17v1.91h-15.09v14.13
			h15.09v1.91h-15.09v14.13h15.09v1.91h-17V851.9z M-193.29,847.27l3.46-3.97h3.53l-5.21,3.97H-193.29z M-581.63,334.93
			c-1.31-4.34-1.85-8.69-1.85-13.03c0.02-4.34,0.56-8.69,1.88-13.03c1.34-4.34,3.21-8.69,6.81-13.03c3.6,4.34,5.46,8.68,6.81,13.03
			c1.31,4.34,1.86,8.68,1.88,13.03c0,4.34-0.54,8.68-1.85,13.03c-1.34,4.34-3.21,8.68-6.83,13.03
			C-578.42,343.62-580.29,339.27-581.63,334.93z M-525.81,450.32c1.31,4.34,1.86,8.68,1.88,13.03c0,4.34-0.54,8.68-1.85,13.03
			c-1.34,4.34-3.21,8.68-6.83,13.03c-3.62-4.34-5.49-8.69-6.83-13.03c-1.31-4.34-1.85-8.69-1.85-13.03
			c0.02-4.34,0.56-8.69,1.88-13.03c1.34-4.34,3.21-8.69,6.81-13.03C-529.02,441.63-527.15,445.97-525.81,450.32z M-492.01,493.49
			c4.88,2.83,8.13,6.25,10.9,9.86c2.74,3.62,4.75,7.5,6.27,11.57c1.5,4.07,2.5,8.34,2.77,12.86c0.25,4.54,0,9.26-1.89,14.59
			c-4.9-2.82-8.16-6.24-10.92-9.85c-2.73-3.62-4.75-7.51-6.25-11.58c-1.48-4.08-2.48-8.34-2.75-12.87
			C-494.13,503.53-493.89,498.81-492.01,493.49z M-601.98,347.04c5.57,0.87,9.84,2.89,13.73,5.26c3.86,2.38,7.14,5.28,10.03,8.52
			c2.87,3.25,5.34,6.87,7.24,10.99c1.87,4.14,3.35,8.63,3.51,14.28c-5.59-0.86-9.87-2.87-13.74-5.24
			c-3.86-2.39-7.14-5.28-10.02-8.53c-2.86-3.27-5.33-6.88-7.22-11.01C-600.32,357.17-601.8,352.68-601.98,347.04z M-497.88,434.81
			c6.17,0,11.17,5,11.17,11.17s-5,11.17-11.17,11.17s-11.17-5-11.17-11.17S-504.04,434.81-497.88,434.81z M-474.3,388.9
			c0,4.8-3.89,8.68-8.69,8.68c-4.8,0-8.68-3.89-8.68-8.68s3.89-8.68,8.68-8.68C-478.19,380.22-474.3,384.11-474.3,388.9z
			 M-588.14,436.05c0,4.8-3.89,8.68-8.68,8.68c-4.8,0-8.68-3.89-8.68-8.68c0-4.8,3.89-8.69,8.68-8.69
			C-592.03,427.36-588.14,431.25-588.14,436.05z M-491.45,344.24c0-4.8,3.89-8.68,8.68-8.68c4.8,0,8.69,3.89,8.69,8.68
			c0,4.8-3.89,8.69-8.69,8.69C-487.56,352.92-491.45,349.03-491.45,344.24z M-573.56,484.44c0,2.74-2.22,4.96-4.96,4.96
			s-4.96-2.22-4.96-4.96s2.22-4.96,4.96-4.96S-573.56,481.7-573.56,484.44z M-563.41,289.64c0-4.8,3.89-8.68,8.68-8.68
			c4.8,0,8.69,3.89,8.69,8.68c0,4.8-3.89,8.68-8.69,8.68C-559.52,298.33-563.41,294.44-563.41,289.64z M-346,308.88
			c1.34-4.34,3.21-8.69,6.81-13.03c3.6,4.34,5.46,8.68,6.81,13.03c1.31,4.34,1.86,8.68,1.88,13.03c0,4.34-0.54,8.68-1.85,13.03
			c-1.34,4.34-3.21,8.68-6.83,13.03c-3.62-4.34-5.49-8.68-6.83-13.03c-1.31-4.34-1.85-8.69-1.85-13.03
			C-347.86,317.56-347.32,313.22-346,308.88z M-388.21,476.37c-1.31-4.34-1.85-8.69-1.85-13.03c0.02-4.34,0.56-8.69,1.88-13.03
			c1.34-4.34,3.21-8.69,6.81-13.03c3.6,4.34,5.46,8.69,6.81,13.03c1.31,4.34,1.86,8.68,1.88,13.03c0,4.34-0.54,8.68-1.85,13.03
			c-1.34,4.34-3.21,8.68-6.83,13.03C-385,485.06-386.87,480.71-388.21,476.37z M-421.99,493.49c1.87,5.32,2.12,10.04,1.87,14.58
			c-0.27,4.53-1.27,8.79-2.75,12.87c-1.51,4.07-3.52,7.96-6.25,11.58c-2.76,3.61-6.02,7.04-10.92,9.85
			c-1.89-5.33-2.14-10.05-1.89-14.59c0.28-4.53,1.27-8.79,2.77-12.86c1.52-4.07,3.54-7.95,6.27-11.57
			C-430.12,499.75-426.86,496.32-421.99,493.49z M-325.75,352.3c3.88-2.36,8.15-4.38,13.73-5.26c-0.18,5.64-1.66,10.13-3.53,14.27
			c-1.89,4.12-4.36,7.74-7.22,11.01c-2.88,3.25-6.16,6.15-10.02,8.53c-3.88,2.37-8.16,4.38-13.74,5.24
			c0.16-5.65,1.64-10.14,3.51-14.28c1.89-4.12,4.36-7.74,7.24-10.99C-332.89,357.58-329.61,354.68-325.75,352.3z M-416.12,434.81
			c6.17,0,11.17,5,11.17,11.17s-5,11.17-11.17,11.17s-11.17-5-11.17-11.17S-422.29,434.81-416.12,434.81z M-431.01,380.22
			c4.8,0,8.68,3.89,8.68,8.68s-3.89,8.68-8.68,8.68c-4.8,0-8.69-3.89-8.69-8.68S-435.81,380.22-431.01,380.22z M-308.49,436.05
			c0,4.8-3.89,8.68-8.68,8.68c-4.8,0-8.68-3.89-8.68-8.68c0-4.8,3.89-8.69,8.68-8.69C-312.38,427.36-308.49,431.25-308.49,436.05z
			 M-422.55,344.24c0,4.8-3.89,8.69-8.68,8.69c-4.8,0-8.69-3.89-8.69-8.69c0-4.8,3.89-8.68,8.69-8.68
			C-426.44,335.55-422.55,339.44-422.55,344.24z M-340.44,484.44c0-2.74,2.22-4.96,4.96-4.96s4.96,2.22,4.96,4.96
			s-2.22,4.96-4.96,4.96S-340.44,487.18-340.44,484.44z M-350.59,289.64c0,4.8-3.89,8.68-8.68,8.68c-4.8,0-8.69-3.89-8.69-8.68
			c0-4.8,3.89-8.68,8.69-8.68C-354.48,280.96-350.59,284.85-350.59,289.64z M-321.26,507.89c57.68-69.87,52.72-172.33-11.54-238.35
			l-10.53-10.82c0.04-0.44,0.07-0.88,0.07-1.34c0-9.35-9.35-14.47-18.27-17.59l50.26-135.15l-62.75-12.55l-29.64,139.45
			c-16.2-1.76-34.54-2.7-53.34-2.7c-28.58,0-55.54,2.12-75.89,5.96c-26.17,4.95-37.84,11.91-37.84,22.57c0,0.45,0.03,0.9,0.07,1.34
			l-10.53,10.82c-64.26,66.02-69.22,168.48-11.54,238.35c32.27,39.09,78.07,61.57,128.95,63.28c1.26,0.04,2.53,0.07,3.8,0.09
			c0.85,0.19,1.7,0.38,2.56,0.56l0.11-0.53c0.11,0,0.21,0,0.32,0c0.11,0,0.21,0,0.32,0l0.11,0.53c0.86-0.18,1.71-0.37,2.56-0.56
			c1.27-0.02,2.54-0.05,3.8-0.09C-399.33,569.46-353.54,546.98-321.26,507.89z M-337.29,456.87c2.96-12.17,4.41-24.67,4.31-37.28
			c12.13-3.89,23.6-9.2,34.3-15.87c-0.86,17.62-4.61,35.11-11.31,51.71C-319.11,455.1-328.23,455.58-337.29,456.87z M-299.01,382.98
			c-10.76,7.93-22.53,14.2-35.16,18.7c-0.5-4.04-1.16-8.08-1.98-12.11l-17.02,3.48c2.55,12.48,3.35,25.05,2.47,37.41
			c-14.28-9.17-26.54-20.72-36.36-34.11l0.19,0.11c9.15-16.09,21.17-29.91,35.73-41.07l-10.57-13.79
			c-14.03,10.75-25.96,23.7-35.57,38.54c-4.75-8.88-8.55-18.36-11.31-28.31l-16.74,4.64c10.95,39.49,36.48,72.33,71.96,92.68
			c-3.53,16.51-10.16,32.39-19.75,46.91c-2.15,3.25-4.42,6.38-6.81,9.41c-11.47-14.03-20.17-30.39-25.36-47.84l-16.65,4.95
			c6.1,20.52,16.51,39.71,30.29,55.97c-15.81,15.52-35.13,26.92-56.62,33.3v-61.97c3.71-26.27,14.98-51.1,32.53-71.2l-13.08-11.43
			c-7.77,8.9-14.23,18.62-19.45,28.94V285.92h-0.13v-0.07c6.31-0.1,12.51-0.29,18.56-0.59c-1.67,1.64-3.09,3.36-4.38,5.13
			c-2.57,3.56-4.41,7.37-5.76,11.34c-1.32,3.98-2.13,8.13-2.22,12.52c-0.06,4.4,0.4,8.97,2.5,14.1c4.76-2.84,7.86-6.22,10.45-9.78
			c2.57-3.57,4.41-7.37,5.73-11.35c1.31-3.99,2.11-8.14,2.19-12.53c0.04-3.15-0.19-6.39-1.08-9.85c7.03-0.45,13.8-1.04,20.21-1.77
			c-10.44,14.66-18.33,31.11-23.15,48.4l16.73,4.66c3.14-11.29,7.77-22.46,13.69-32.87c8.16,10.6,17.61,20.07,28.23,28.21
			l10.57-13.79c-11.02-8.44-20.61-18.49-28.61-29.88c2.25-2.96,4.62-5.82,7.1-8.54c9.87-2.04,17.48-4.41,22.99-7.22l9.36,9.61
			C-317.48,310.19-301.96,346.24-299.01,382.98z M-388.94,263.66c-1.27,0.21-2.58,0.42-3.93,0.63l23.12-108.77l18.87,5.78
			L-388.94,263.66z M-334.66,117.68l-10.15,27.3l-21.31-6.52l5.52-25.96L-334.66,117.68z M-457,246.22
			c17.51,0,34.56,0.83,49.71,2.41l-3.8,17.89c-12.98,1.24-28.31,2.04-45.9,2.04c-49.9,0-81.69-6.4-92.95-11.17
			C-538.69,252.62-506.9,246.22-457,246.22z M-568.75,281.66l9.36-9.61c5.51,2.81,13.12,5.18,22.99,7.22
			c2.48,2.72,4.85,5.58,7.1,8.54c-8,11.39-17.6,21.43-28.61,29.88l10.57,13.79c10.63-8.14,20.08-17.61,28.23-28.21
			c5.91,10.41,10.54,21.58,13.69,32.87l16.73-4.66c-4.81-17.29-12.71-33.74-23.15-48.4c6.41,0.73,13.18,1.31,20.21,1.77
			c-0.89,3.46-1.12,6.7-1.08,9.85c0.08,4.39,0.89,8.55,2.19,12.53c1.33,3.98,3.17,7.79,5.73,11.35c2.59,3.56,5.69,6.94,10.45,9.78
			c2.11-5.12,2.56-9.69,2.5-14.1c-0.08-4.39-0.89-8.54-2.22-12.52c-1.34-3.97-3.19-7.78-5.76-11.34c-1.29-1.76-2.7-3.49-4.38-5.13
			c6,0.3,12.16,0.49,18.42,0.59v150.34c-5.22-10.32-11.68-20.04-19.45-28.94l-13.08,11.43c17.55,20.09,28.82,44.93,32.53,71.2v61.97
			c-21.49-6.38-40.81-17.78-56.62-33.3c13.78-16.26,24.19-35.45,30.29-55.97l-16.65-4.95c-5.19,17.45-13.89,33.81-25.36,47.84
			c-2.38-3.03-4.66-6.16-6.81-9.41c-9.59-14.51-16.22-30.39-19.75-46.91c35.48-20.35,61.01-53.19,71.96-92.68l-16.74-4.64
			c-2.76,9.95-6.56,19.43-11.31,28.31c-9.6-14.85-21.53-27.79-35.57-38.54l-10.57,13.79c14.56,11.16,26.59,24.98,35.73,41.07
			l0.19-0.11c-9.82,13.39-22.08,24.94-36.36,34.11c-0.88-12.37-0.08-24.93,2.47-37.41l-17.02-3.48c-0.82,4.03-1.48,8.07-1.98,12.11
			c-12.63-4.5-24.4-10.76-35.16-18.7C-612.04,346.24-596.52,310.19-568.75,281.66z M-604.01,455.44
			c-6.7-16.6-10.46-34.09-11.31-51.71c10.7,6.66,22.17,11.97,34.3,15.87c-0.1,12.61,1.35,25.11,4.31,37.28
			C-585.77,455.58-594.89,455.1-604.01,455.44z M-579.34,496.83c-6.31-7.64-11.77-15.71-16.42-24.1c8.32,0.16,16.63,1.09,24.86,2.77
			c4.01,10.46,9.19,20.56,15.51,30.13c8.27,12.52,18.14,23.58,29.28,33C-546.36,528.95-564.45,514.86-579.34,496.83z
			 M-358.61,505.63c6.32-9.57,11.5-19.67,15.51-30.13c8.23-1.69,16.54-2.61,24.86-2.77c-4.65,8.39-10.12,16.47-16.42,24.1
			c-14.89,18.03-32.97,32.12-53.23,41.8C-376.75,529.21-366.88,518.14-358.61,505.63z M-474.58,189.77
			c-3.32-9.72-4.75-19.44-4.75-29.16c0.05-9.72,1.47-19.44,4.81-29.16c1.64-4.86,3.84-9.72,6.6-14.58c1.43-2.43,2.93-4.86,4.73-7.29
			c1.73-2.43,3.78-4.86,6.19-7.29c2.41,2.43,4.46,4.86,6.19,7.29c1.8,2.43,3.3,4.86,4.73,7.29c2.75,4.86,4.96,9.72,6.6,14.58
			c3.34,9.72,4.77,19.44,4.81,29.16c0.01,9.72-1.42,19.44-4.75,29.16c-1.64,4.86-3.84,9.72-6.61,14.58
			c-1.44,2.43-2.94,4.86-4.75,7.29c-1.74,2.43-3.8,4.86-6.23,7.29c-2.42-2.43-4.49-4.86-6.23-7.29c-1.81-2.43-3.31-4.86-4.75-7.29
			C-470.74,199.49-472.94,194.63-474.58,189.77z M-535.41,151.65c-0.58-6.42-0.42-13.27,2.9-21.97c9.21,1.35,15.28,4.54,20.6,8.17
			c5.19,3.71,9.1,8.17,12.08,13.18c2.96,5.02,4.95,10.61,5.67,16.94c0.58,6.42,0.41,13.28-2.94,22c-9.25-1.32-15.33-4.51-20.65-8.15
			c-5.18-3.72-9.09-8.18-12.04-13.2C-532.7,163.58-534.7,157.99-535.41,151.65z M-543.4,202.16c5.36-3.73,9.98-5.09,14.4-5.76
			c4.39-0.59,8.47-0.17,12.33,0.99c3.85,1.18,7.46,3.12,10.77,6.07c3.28,3.03,6.34,6.75,8.67,12.88c-5.37,3.77-9.99,5.12-14.41,5.79
			c-4.39,0.58-8.47,0.16-12.32-1.03c-3.84-1.21-7.45-3.15-10.76-6.1C-538,211.97-541.07,208.26-543.4,202.16z"/>
	</defs>
	<clipPath id="SVGID_2_">
		<use xlink:href="#SVGID_1_"  style="overflow:visible;"/>
	</clipPath>
	<linearGradient id="SVGID_3_" gradientUnits="userSpaceOnUse" x1="-1030.7324" y1="953.6372" x2="308.2843" y2="-169.9312">
		<stop  offset="0" style="stop-color:#B57E10"/>
		<stop  offset="0.1507" style="stop-color:#B57E10"/>
		<stop  offset="0.4638" style="stop-color:#E5C35C"/>
		<stop  offset="0.6129" style="stop-color:#F9DF7B"/>
		<stop  offset="0.8387" style="stop-color:#F9DF7B"/>
		<stop  offset="1" style="stop-color:#B57E10"/>
	</linearGradient>
	<rect x="-981.58" y="-228.51" class="st1" width="1240.72" height="1240.72"/>
</g>
</svg>
