<?xml version="1.0" encoding="utf-8"?>
<!-- Generator: Adobe Illustrator 24.0.1, SVG Export Plug-In . SVG Version: 6.00 Build 0)  -->
<svg version="1.1" id="Calque_1" xmlns="http://www.w3.org/2000/svg" xmlns:xlink="http://www.w3.org/1999/xlink" x="0px" y="0px"
	 viewBox="0 0 1000 355" style="enable-background:new 0 0 1000 355;" xml:space="preserve">
<style type="text/css">
	.st0{fill:#FFFFFF;}
</style>
<g>
	<g>
		<g>
			<path class="st0" d="M366,267.7v-155.3h40.53c12.15,0,22.59,4.27,31.14,12.91c8.64,8.54,12.91,18.99,12.91,31.14
				c0,11.58-3.99,21.64-12.05,30.09c6.27,3.99,11.11,9.3,14.62,15.76c3.7,6.55,5.51,13.67,5.51,21.36c0,12.15-4.27,22.5-12.91,31.14
				c-8.54,8.54-18.98,12.91-31.13,12.91H366z M386.98,179.52h19.08c6.55,0,12.05-2.28,16.61-6.74c4.65-4.56,6.93-10.06,6.93-16.33
				c0-6.46-2.18-11.87-6.74-16.33c-4.56-4.56-9.97-6.74-16.33-6.74h-19.55V179.52z M386.98,246.72h27.62
				c6.36,0,11.77-2.28,16.33-6.74c4.56-4.56,6.74-10.06,6.74-16.33c0-6.45-2.18-11.86-6.74-16.42c-4.56-4.56-9.97-6.74-16.33-6.74
				h-27.62V246.72z"/>
			<path class="st0" d="M592.59,267.7l-27.53-34.65h-22.97v34.65h-21.93v-155.3h38.45c16.71,0,30.85,5.88,42.62,17.66
				c11.77,11.77,17.66,25.91,17.66,42.62s-5.89,30.95-17.66,42.72c-4.08,3.99-8.64,7.5-13.67,10.35l32.94,41.96H592.59z
				 M558.6,211.13c10.63,0,19.65-3.8,27.15-11.3c7.59-7.5,11.29-16.52,11.29-27.15c0-10.63-3.7-19.74-11.29-27.15
				c-7.5-7.59-16.52-11.3-27.15-11.3h-16.52v76.89H558.6z"/>
			<path class="st0" d="M700.71,267.7h-21.17v-155.3h21.17V267.7z"/>
			<path class="st0" d="M783.49,244.92c-15.19-15.19-22.78-33.51-22.78-54.96c0-21.36,7.59-39.68,22.78-54.87
				c15.19-15.19,33.51-22.69,54.96-22.69c21.36,0,39.68,7.5,54.87,22.69C908.5,150.28,916,168.6,916,189.96
				c0,21.45-7.5,39.77-22.69,54.96c-15.19,15.19-33.51,22.78-54.87,22.78C816.99,267.7,798.67,260.11,783.49,244.92z M797.91,149.52
				c-11.11,11.2-16.71,24.68-16.71,40.44c0,15.76,5.6,29.33,16.71,40.53c11.2,11.11,24.78,16.71,40.53,16.71
				c15.76,0,29.24-5.6,40.44-16.71c11.2-11.2,16.8-24.78,16.8-40.53c0-15.76-5.6-29.24-16.8-40.44c-11.2-11.2-24.68-16.8-40.44-16.8
				C822.69,132.72,809.11,138.32,797.91,149.52z"/>
		</g>
		<g>
			<g>
				<path class="st0" d="M378.14,314.25L366.46,294h2.19l10.46,18.13L389.57,294h2.19l-11.71,20.25V328h-1.91V314.25z"/>
				<path class="st0" d="M447.26,294v1.91h-15.09v14.13h15.09v1.91h-15.09v14.13h15.09V328h-17v-34H447.26z"/>
				<path class="st0" d="M495.62,316.19c-0.18,0.01-0.38,0.02-0.57,0.02h-5.78V328h-1.91v-34h8.92c2.59,0.35,4.8,1.44,6.61,3.25
					c2.17,2.17,3.25,4.78,3.25,7.84c0,3.08-1.08,5.69-3.25,7.86c-1.5,1.5-3.22,2.49-5.16,2.95l7.84,12.09h-2.36L495.62,316.19z
					 M489.26,295.94v18.34h5.78c2.52,0,4.68-0.89,6.47-2.69c1.79-1.79,2.69-3.95,2.69-6.49c0-2.53-0.9-4.69-2.69-6.48
					c-1.79-1.79-3.95-2.68-6.47-2.68H489.26z"/>
				<path class="st0" d="M550.77,294c1.74,0,3.23,0.62,4.47,1.85s1.86,2.72,1.86,4.46c0,1.76-0.9,3.4-2.7,4.91
					c1.59,0.33,3.08,1.26,4.48,2.8c2.27,2.28,3.4,5.04,3.4,8.27c0,3.22-1.13,6-3.4,8.35c-2.11,2.18-4.63,3.29-7.56,3.33V328h-6.59
					v-34H550.77z M546.65,295.91v8.69h4.61c1.06-0.1,1.97-0.5,2.72-1.19c0.86-0.79,1.3-1.83,1.3-3.1c0-1.27-0.43-2.33-1.3-3.16
					s-1.93-1.24-3.21-1.24H546.65z M546.65,306.65v19.44h4.67v0.02c2.37-0.16,4.41-1.13,6.12-2.91c1.88-1.94,2.83-4.24,2.83-6.91
					c0-2.66-0.94-4.94-2.83-6.82c-1.88-1.89-4.16-2.83-6.82-2.83H546.65z"/>
				<path class="st0" d="M617.85,314.97h-11.77L601.34,328h-2.04l12.66-34.78L624.61,328h-2.02L617.85,314.97z M617.15,313.06
					l-5.18-14.26l-5.18,14.26H617.15z"/>
				<path class="st0" d="M714.59,294l12.77,22.1l12.75-22.1h2.19l-0.08,0.15V328h-1.91v-30.54l-12.94,22.4l-12.96-22.4V328h-1.91
					v-33.85L712.4,294H714.59z"/>
				<path class="st0" d="M799.34,314.97h-11.77L782.83,328h-2.04l12.67-34.78L806.1,328h-2.02L799.34,314.97z M798.64,313.06
					l-5.18-14.26l-5.19,14.26H798.64z"/>
				<path class="st0" d="M851.45,295.91V328h-1.91v-32.09h-8.61V294h19.12v1.91H851.45z"/>
				<path class="st0" d="M915.55,294v1.91h-15.09v14.13h15.09v1.91h-15.09v14.13h15.09V328h-17v-34H915.55z M911.7,285.4l-5.21,3.97
					h-1.79l3.46-3.97H911.7z"/>
			</g>
		</g>
	</g>
	<g>
		<path class="st0" d="M120.33,187.01c2.26-2.72,3.43-5.43,4.27-8.15c0.82-2.72,1.16-5.43,1.16-8.15c-0.01-2.72-0.35-5.43-1.17-8.15
			c-0.84-2.72-2.01-5.43-4.26-8.15c-2.25,2.72-3.42,5.43-4.26,8.15c-0.82,2.72-1.16,5.43-1.17,8.15c0,2.72,0.34,5.43,1.16,8.15
			C116.9,181.58,118.07,184.29,120.33,187.01z"/>
		<path class="st0" d="M146.71,242.87c-2.25,2.72-3.42,5.43-4.26,8.15c-0.82,2.72-1.16,5.43-1.17,8.15c0,2.72,0.34,5.43,1.16,8.15
			c0.84,2.72,2.01,5.43,4.27,8.15c2.26-2.72,3.43-5.43,4.27-8.15c0.82-2.72,1.16-5.43,1.16-8.15c-0.01-2.72-0.35-5.43-1.17-8.15
			C150.13,248.3,148.96,245.59,146.71,242.87z"/>
		<path class="st0" d="M170.93,287.14c0.17,2.83,0.79,5.5,1.72,8.05c0.94,2.55,2.2,4.98,3.91,7.24c1.73,2.26,3.76,4.4,6.83,6.16
			c1.18-3.33,1.34-6.28,1.18-9.12c-0.17-2.83-0.79-5.5-1.73-8.04c-0.95-2.54-2.21-4.97-3.92-7.24c-1.73-2.26-3.76-4.4-6.81-6.17
			C170.93,281.35,170.78,284.3,170.93,287.14z"/>
		<path class="st0" d="M105.54,195.36c1.18,2.58,2.73,4.84,4.51,6.88c1.8,2.03,3.85,3.84,6.26,5.34c2.42,1.48,5.1,2.74,8.59,3.28
			c-0.1-3.53-1.02-6.34-2.19-8.93c-1.18-2.58-2.73-4.84-4.53-6.87c-1.81-2.03-3.86-3.84-6.27-5.33c-2.43-1.48-5.1-2.74-8.58-3.29
			C103.45,189.96,104.37,192.77,105.54,195.36z"/>
		<circle class="st0" cx="168.44" cy="248.3" r="6.98"/>
		
			<ellipse transform="matrix(0.3827 -0.9239 0.9239 0.3827 -86.7001 295.4661)" class="st0" cx="177.75" cy="212.61" rx="5.43" ry="5.43"/>
		<circle class="st0" cx="106.56" cy="242.1" r="5.43"/>
		
			<ellipse transform="matrix(0.9732 -0.2298 0.2298 0.9732 -37.6716 45.8109)" class="st0" cx="177.89" cy="184.68" rx="5.43" ry="5.43"/>
		<circle class="st0" cx="118" cy="272.36" r="3.1"/>
		
			<ellipse transform="matrix(0.9871 -0.1602 0.1602 0.9871 -22.3977 23.23)" class="st0" cx="132.89" cy="150.54" rx="5.43" ry="5.43"/>
		<path class="st0" d="M262.24,170.71c0,2.72,0.34,5.43,1.16,8.15c0.84,2.72,2.01,5.43,4.27,8.15c2.26-2.72,3.43-5.43,4.27-8.15
			c0.82-2.72,1.16-5.43,1.16-8.15c-0.01-2.72-0.35-5.43-1.17-8.15c-0.84-2.72-2.01-5.43-4.26-8.15c-2.25,2.72-3.42,5.43-4.26,8.15
			C262.59,165.28,262.25,168,262.24,170.71z"/>
		<path class="st0" d="M241.29,275.46c2.26-2.72,3.43-5.43,4.27-8.15c0.82-2.72,1.16-5.43,1.16-8.15c-0.01-2.72-0.35-5.43-1.17-8.15
			c-0.84-2.72-2.01-5.43-4.26-8.15c-2.25,2.72-3.42,5.43-4.26,8.15c-0.82,2.72-1.16,5.43-1.17,8.15c0,2.72,0.34,5.43,1.16,8.15
			C237.85,270.03,239.03,272.74,241.29,275.46z"/>
		<path class="st0" d="M209.08,284.19c-1.71,2.26-2.97,4.69-3.92,7.24c-0.94,2.55-1.56,5.21-1.73,8.04c-0.16,2.84,0,5.79,1.18,9.12
			c3.06-1.76,5.1-3.91,6.83-6.16c1.71-2.26,2.97-4.69,3.91-7.24c0.93-2.55,1.55-5.22,1.72-8.05c0.15-2.84,0-5.79-1.17-9.12
			C212.85,279.79,210.81,281.93,209.08,284.19z"/>
		<path class="st0" d="M269.81,195.05c-1.8,2.04-3.34,4.3-4.53,6.87c-1.17,2.59-2.09,5.4-2.19,8.93c3.49-0.54,6.17-1.8,8.59-3.28
			c2.41-1.49,4.47-3.3,6.26-5.34c1.79-2.04,3.33-4.3,4.51-6.88c1.17-2.59,2.09-5.4,2.21-8.92c-3.48,0.55-6.16,1.81-8.58,3.29
			C273.67,191.21,271.62,193.02,269.81,195.05z"/>
		<circle class="st0" cx="219.56" cy="248.3" r="6.98"/>
		<circle class="st0" cx="210.25" cy="212.61" r="5.43"/>
		<circle class="st0" cx="281.44" cy="242.1" r="5.43"/>
		
			<ellipse transform="matrix(0.7071 -0.7071 0.7071 0.7071 -69.0474 202.6622)" class="st0" cx="210.11" cy="184.68" rx="5.43" ry="5.43"/>
		<circle class="st0" cx="270" cy="272.36" r="3.1"/>
		
			<ellipse transform="matrix(0.9871 -0.1602 0.1602 0.9871 -20.8195 42.8084)" class="st0" cx="255.11" cy="150.54" rx="5.43" ry="5.43"/>
		<path class="st0" d="M278.88,287.02c36.07-43.69,32.97-107.77-7.22-149.05l-6.59-6.77c0.03-0.28,0.04-0.55,0.04-0.84
			c0-5.85-5.84-9.05-11.42-11l31.43-84.52L245.89,27l-18.53,87.21c-10.13-1.1-21.6-1.69-33.35-1.69c-17.88,0-34.73,1.32-47.46,3.73
			c-16.37,3.09-23.66,7.45-23.66,14.12c0,0.28,0.02,0.56,0.04,0.84l-6.59,6.77c-40.19,41.28-43.29,105.36-7.22,149.05
			c20.18,24.45,48.82,38.5,80.64,39.58c0.79,0.03,1.58,0.04,2.37,0.06c0.53,0.12,1.07,0.24,1.6,0.35l0.07-0.33c0.07,0,0.13,0,0.2,0
			c0.07,0,0.13,0,0.2,0l0.07,0.33c0.54-0.11,1.07-0.23,1.6-0.35c0.79-0.01,1.59-0.03,2.38-0.06
			C230.06,325.52,258.7,311.47,278.88,287.02z M268.86,255.12c1.85-7.61,2.76-15.43,2.7-23.31c7.59-2.43,14.76-5.76,21.45-9.92
			c-0.54,11.02-2.88,21.96-7.08,32.34C280.23,254.01,274.53,254.31,268.86,255.12z M292.8,208.91c-6.73,4.96-14.09,8.88-21.99,11.69
			c-0.31-2.53-0.72-5.05-1.24-7.58l-10.64,2.17c1.59,7.8,2.1,15.66,1.54,23.4c-8.93-5.73-16.6-12.96-22.74-21.33l0.12,0.07
			c5.72-10.06,13.24-18.7,22.35-25.68l-6.61-8.62c-8.78,6.72-16.24,14.82-22.24,24.1c-2.97-5.55-5.35-11.48-7.08-17.7l-10.47,2.9
			c6.85,24.69,22.81,45.23,45,57.96c-2.21,10.33-6.35,20.26-12.35,29.33c-1.34,2.03-2.77,3.99-4.26,5.88
			c-7.17-8.77-12.61-19-15.86-29.92l-10.41,3.09c3.81,12.83,10.32,24.83,18.94,35c-9.89,9.7-21.97,16.84-35.41,20.82v-38.75
			c2.32-16.43,9.37-31.96,20.34-44.52l-8.18-7.15c-4.86,5.56-8.9,11.64-12.16,18.1v-93.97h-0.08v-0.04
			c3.95-0.06,7.83-0.18,11.6-0.37c-1.05,1.02-1.93,2.1-2.74,3.21c-1.61,2.23-2.76,4.61-3.6,7.09c-0.83,2.49-1.33,5.08-1.39,7.83
			c-0.04,2.75,0.25,5.61,1.57,8.81c2.98-1.77,4.92-3.89,6.54-6.12c1.61-2.23,2.76-4.61,3.59-7.1c0.82-2.49,1.32-5.09,1.37-7.84
			c0.02-1.97-0.12-4-0.68-6.16c4.4-0.28,8.63-0.65,12.64-1.11c-6.53,9.17-11.46,19.45-14.47,30.26l10.46,2.91
			c1.97-7.06,4.86-14.04,8.56-20.55c5.1,6.63,11.01,12.55,17.66,17.64l6.61-8.62c-6.89-5.28-12.89-11.56-17.89-18.68
			c1.41-1.85,2.89-3.64,4.44-5.34c6.17-1.28,10.93-2.76,14.38-4.51l5.85,6.01C281.25,163.39,290.96,185.93,292.8,208.91z
			 M236.56,134.29c-0.79,0.13-1.61,0.27-2.46,0.39l14.46-68.02l11.8,3.61L236.56,134.29z M270.51,43l-6.35,17.07l-13.33-4.08
			l3.45-16.24L270.51,43z M194,123.38c10.95,0,21.61,0.52,31.08,1.51l-2.38,11.19c-8.12,0.77-17.71,1.27-28.71,1.27
			c-31.2,0-51.09-4-58.13-6.98C142.92,127.38,162.8,123.38,194,123.38z M124.12,145.54l5.85-6.01c3.45,1.76,8.2,3.24,14.38,4.51
			c1.55,1.7,3.03,3.49,4.44,5.34c-5,7.12-11,13.4-17.89,18.68l6.61,8.62c6.64-5.09,12.55-11.01,17.66-17.64
			c3.7,6.51,6.59,13.5,8.56,20.55l10.46-2.91c-3.01-10.81-7.95-21.1-14.47-30.26c4.01,0.45,8.24,0.82,12.64,1.11
			c-0.56,2.16-0.7,4.19-0.68,6.16c0.05,2.75,0.56,5.34,1.37,7.84c0.83,2.49,1.98,4.87,3.59,7.1c1.62,2.22,3.56,4.34,6.54,6.12
			c1.32-3.2,1.6-6.06,1.57-8.81c-0.05-2.75-0.56-5.34-1.39-7.83c-0.84-2.48-1.99-4.87-3.6-7.09c-0.81-1.1-1.69-2.18-2.74-3.21
			c3.75,0.19,7.6,0.31,11.52,0.37v94.02c-3.26-6.45-7.3-12.53-12.16-18.1l-8.18,7.15c10.97,12.56,18.02,28.1,20.34,44.52v38.75
			c-13.44-3.99-25.52-11.12-35.41-20.82c8.62-10.17,15.13-22.17,18.94-35l-10.41-3.09c-3.24,10.91-8.69,21.14-15.86,29.92
			c-1.49-1.89-2.91-3.85-4.26-5.88c-6-9.08-10.14-19.01-12.35-29.33c22.19-12.73,38.15-33.26,45-57.96l-10.47-2.9
			c-1.73,6.22-4.1,12.15-7.08,17.7c-6.01-9.29-13.47-17.38-22.24-24.1l-6.61,8.62c9.11,6.98,16.63,15.62,22.35,25.68l0.12-0.07
			c-6.14,8.38-13.81,15.6-22.74,21.33c-0.55-7.73-0.05-15.59,1.54-23.4l-10.64-2.17c-0.52,2.52-0.92,5.05-1.24,7.58
			c-7.9-2.81-15.26-6.73-21.99-11.69C97.05,185.93,106.75,163.39,124.12,145.54z M102.07,254.22c-4.19-10.38-6.54-21.32-7.07-32.34
			c6.69,4.17,13.87,7.49,21.45,9.92c-0.06,7.89,0.85,15.7,2.7,23.31C113.47,254.31,107.77,254.01,102.07,254.22z M117.49,280.11
			c-3.94-4.78-7.36-9.83-10.27-15.07c5.2,0.1,10.4,0.68,15.55,1.73c2.51,6.54,5.75,12.86,9.7,18.84
			c5.17,7.83,11.34,14.75,18.31,20.64C138.11,300.19,126.8,291.38,117.49,280.11z M255.53,285.61c3.95-5.99,7.19-12.3,9.7-18.84
			c5.15-1.06,10.34-1.63,15.55-1.73c-2.91,5.25-6.33,10.3-10.27,15.07c-9.31,11.28-20.62,20.09-33.29,26.14
			C244.19,300.35,250.36,293.43,255.53,285.61z"/>
		<path class="st0" d="M187.14,97.2c0.9,1.52,1.84,3.04,2.97,4.56c1.09,1.52,2.38,3.04,3.89,4.56c1.51-1.52,2.81-3.04,3.89-4.56
			c1.13-1.52,2.07-3.04,2.97-4.56c1.73-3.04,3.11-6.08,4.13-9.12c2.08-6.08,2.97-12.16,2.97-18.23c-0.03-6.08-0.92-12.16-3.01-18.23
			c-1.03-3.04-2.4-6.08-4.13-9.12c-0.89-1.52-1.83-3.04-2.96-4.56c-1.08-1.52-2.37-3.04-3.87-4.56c-1.5,1.52-2.79,3.04-3.87,4.56
			c-1.12,1.52-2.06,3.04-2.96,4.56c-1.72,3.04-3.1,6.08-4.13,9.12c-2.09,6.08-2.98,12.16-3.01,18.23c0,6.08,0.89,12.16,2.97,18.23
			C184.03,91.12,185.41,94.16,187.14,97.2z"/>
		<path class="st0" d="M148.49,74.86c1.84,3.14,4.29,5.93,7.53,8.26c3.33,2.27,7.13,4.27,12.91,5.1c2.09-5.46,2.2-9.75,1.84-13.76
			c-0.45-3.96-1.7-7.46-3.55-10.6c-1.86-3.13-4.31-5.92-7.55-8.24c-3.33-2.27-7.12-4.27-12.88-5.11c-2.07,5.44-2.17,9.73-1.81,13.74
			C145.41,68.21,146.66,71.7,148.49,74.86z"/>
		<path class="st0" d="M145.4,103.87c2.06,1.85,4.33,3.06,6.73,3.82c2.4,0.74,4.96,1.01,7.7,0.64c2.76-0.42,5.65-1.27,9.01-3.62
			c-1.45-3.83-3.37-6.16-5.42-8.06c-2.07-1.84-4.33-3.06-6.73-3.79c-2.41-0.72-4.96-0.99-7.71-0.62c-2.76,0.42-5.65,1.26-9.01,3.6
			C141.43,99.64,143.35,101.97,145.4,103.87z"/>
	</g>
</g>
</svg>
