<?xml version="1.0" encoding="UTF-8" standalone="no"?>
<svg
   version="1.1"
   id="svg2"
   xml:space="preserve"
   width="295.34534"
   height="88.109329"
   viewBox="0 0 295.34534 88.109329"
   sodipodi:docname="logitech.svg"
   inkscape:version="1.1.1 (3bf5ae0d25, 2021-09-20)"
   xmlns:inkscape="http://www.inkscape.org/namespaces/inkscape"
   xmlns:sodipodi="http://sodipodi.sourceforge.net/DTD/sodipodi-0.dtd"
   xmlns="http://www.w3.org/2000/svg"
   xmlns:svg="http://www.w3.org/2000/svg"
   xmlns:rdf="http://www.w3.org/1999/02/22-rdf-syntax-ns#"
   xmlns:cc="http://creativecommons.org/ns#"
   xmlns:dc="http://purl.org/dc/elements/1.1/"><metadata
     id="metadata8"><rdf:RDF><cc:Work
         rdf:about=""><dc:format>image/svg+xml</dc:format><dc:type
           rdf:resource="http://purl.org/dc/dcmitype/StillImage" /></cc:Work></rdf:RDF></metadata><defs
     id="defs6" /><sodipodi:namedview
     pagecolor="#ffffff"
     bordercolor="#666666"
     borderopacity="1"
     objecttolerance="10"
     gridtolerance="10"
     guidetolerance="10"
     inkscape:pageopacity="0"
     inkscape:pageshadow="2"
     inkscape:window-width="1920"
     inkscape:window-height="1170"
     id="namedview4"
     inkscape:pagecheckerboard="0"
     showgrid="false"
     fit-margin-top="0"
     fit-margin-left="0"
     fit-margin-right="0"
     fit-margin-bottom="0"
     inkscape:zoom="2.1894538"
     inkscape:cx="147.75375"
     inkscape:cy="-57.091865"
     inkscape:window-x="0"
     inkscape:window-y="0"
     inkscape:window-maximized="1"
     inkscape:current-layer="g12" /><g
     id="g10"
     inkscape:groupmode="layer"
     inkscape:label="ink_ext_XXXXXX"
     transform="matrix(1.3333333,0,0,-1.3333333,0,88.109331)"><g
       id="g12"
       transform="scale(0.1)"><path
         d="m 2187.44,575.309 c -15.71,0 -28.28,-12.571 -28.28,-27.649 0,-15.73 12.57,-28.301 28.28,-28.301 15.08,0 27.65,12.571 27.65,28.301 0,15.078 -12.57,27.649 -27.65,27.649 m 0,-52.168 c -13.84,0 -24.53,10.679 -24.53,24.519 0,13.192 10.69,23.879 24.53,23.879 13.19,0 23.9,-10.687 23.9,-23.879 0,-13.84 -10.71,-24.519 -23.9,-24.519 m 10.68,30.16 c 0,6.289 -4.4,8.801 -10.68,8.801 h -10.07 v -28.93 h 3.78 V 544.5 h 6.29 l 6.9,-11.328 h 4.4 l -7.53,11.957 c 4.4,0.641 6.91,3.152 6.91,8.172 m -16.97,-5.02 v 10.059 h 6.29 c 5.01,0 6.9,-1.879 6.9,-5.039 0,-3.129 -1.89,-5.02 -6.9,-5.02 z M 907.922,660.82 c -29.567,0 -52.824,-23.261 -52.824,-53.449 0,-29.539 23.257,-52.801 52.824,-52.801 30.808,0 54.066,23.262 54.066,52.801 0,30.188 -23.258,53.449 -54.066,53.449 m 199.298,-45.898 h -80.48 v -99.344 h -43.381 v -71.68 h 43.381 V 193.039 h 80.48 v 250.859 h 44.03 v 71.68 h -44.03 z m 590.4,-167.25 c 33.97,0 61.62,-17.594 82.99,-42.113 l 55.96,55.312 c -31.43,39.629 -81.1,64.77 -137.68,64.77 -97.45,0 -174.16,-74.192 -174.16,-171.02 0,-96.832 76.71,-171.019 174.16,-171.019 56.58,0 106.25,25.136 137.68,64.75 l -55.96,55.339 c -20.75,-23.89 -49.02,-42.121 -83.61,-42.121 -51.56,0 -91.17,40.231 -91.17,93.051 0,52.801 39.61,93.051 91.79,93.051 m 347.07,77.969 c -39.61,0 -73.55,-15.082 -97.45,-40.871 v 167.25 h -80.48 V 193.039 h 80.48 v 175.422 c 0,46.519 29.54,78.59 78.59,78.59 45.92,0 71.04,-28.301 71.04,-78.59 V 193.039 h 80.5 v 189.883 c 0,89.277 -55.95,142.719 -132.68,142.719 m -712.37,0 c -96.81,0 -170.38,-74.192 -170.38,-172.911 0,-97.449 67.26,-169.128 171.64,-169.128 57.85,0 109.41,21.367 147.12,61.617 l -54.07,53.441 c -26.41,-25.14 -54.71,-43.379 -91.16,-43.379 -44.03,0 -77.35,25.149 -88.66,67.27 h 250.87 v 19.5 c 0,110.019 -67.91,183.59 -165.36,183.59 m -87.39,-137.7 c 10.68,42.758 43.38,66.641 85.5,66.641 42.14,0 73.57,-23.254 83.63,-66.641 z M 662.082,78.5898 c -51.559,0 -92.43,40.2302 -92.43,92.4302 h -81.75 C 487.902,74.1914 564.605,0 662.082,0 759.535,0 836.238,74.1914 836.238,171.02 h -81.746 c 0,-52.2 -40.851,-92.4302 -92.41,-92.4302 M 948.793,193.039 v 322.539 h -80.48 V 193.039 Z m -868.3125,0 V 652.02 H 0 V 193.039 Z M 286.07,525.641 c -97.453,0 -174.156,-74.192 -174.156,-171.02 0,-96.832 76.703,-171.019 174.156,-171.019 97.473,0 174.176,74.187 174.176,171.019 0,96.828 -76.703,171.02 -174.176,171.02 m 0,-264.071 c -51.535,0 -92.41,40.852 -92.41,93.668 0,52.184 40.875,92.434 92.41,92.434 52.2,0 93.075,-40.25 93.075,-93.051 0,-52.82 -40.875,-93.051 -93.075,-93.051 m 547.035,189.879 v 64.129 H 719.926 c -18.238,6.293 -37.738,10.063 -57.844,10.063 -97.477,0 -174.18,-74.192 -174.18,-171.02 0,-96.832 76.703,-171.019 174.18,-171.019 97.453,0 174.156,74.187 174.156,171.019 0,32.699 -8.797,64.75 -26.414,88.66 z M 662.082,261.57 c -51.559,0 -92.43,40.852 -92.43,93.668 0,52.184 40.871,92.434 92.43,92.434 52.18,0 93.051,-40.25 93.051,-93.051 0,-52.82 -40.871,-93.051 -93.051,-93.051"
         style="fill:#ffffff;fill-opacity:1;fill-rule:nonzero;stroke:none"
         id="path16" /></g></g></svg>
