<svg xmlns="http://www.w3.org/2000/svg" viewBox="0 0 704.51 158.53">
  <path fill="#1b4e90" d="M0 0h158.53v158.53H0z"/>
  <path fill="#f7e500" d="M30.96 30.96h96.6v96.6h-96.6z"/>
  <path d="M113.37 71.74h-12.99V54.35H89.16v49.41h11.22v12.66H58.45v-12.66h11.23V54.35H58.45v17.39H45.46V41.7h67.9v30.04ZM238.08 111.08h14.46V47.44h-14.46v22.39H221.5V31.14h87.17v38.7h-16.16V47.45h-15.02v63.64h14.6v16.3h-54v-16.3ZM311.78 93.79c0-20.98 14.17-35.01 35.29-35.01s35.15 14.03 35.15 35.01-14.03 35.15-35.15 35.15-35.29-14.18-35.29-35.15Zm48.47-.43c0-11.34-4.96-18.14-13.32-18.14s-13.18 6.8-13.18 18.85 4.96 18.28 13.18 18.28c8.65 0 13.32-6.8 13.32-18.99ZM419.92 67.85c6.09-6.52 11.34-9.07 19.13-9.07 17.15 0 28.91 14.17 28.91 35.01s-11.48 34.58-28.63 34.58c-7.37 0-13.61-2.83-19.42-8.65v7.65h-33.03v-15.45h11.34V46.59h-11.34V31.14h33.03v36.71Zm13.18 8.22c-8.51 0-13.32 6.66-13.32 18s4.96 17.72 13.18 17.72S446 104.84 446 93.36s-4.68-17.29-12.9-17.29ZM478.74 111.93h10.2V46.59h-10.2V31.14h32.18v80.79h9.35v15.45h-41.53v-15.45ZM599.08 112.5c-3.26 5.1-4.96 6.8-9.78 10.06-6.8 4.39-13.61 6.38-22.82 6.38-23.1 0-37.7-13.18-37.7-33.88s15.31-36.29 36.43-36.29 34.72 15.02 34.72 37.7v1.84h-49.89c.57 7.65 2.41 11.06 7.66 14.17 2.69 1.7 5.95 2.55 9.21 2.55 5.67 0 9.36-1.84 15.59-7.94l16.59 5.39Zm-20.69-26.08c-1.14-8.36-6.52-13.47-14.32-13.47s-12.47 4.39-13.75 13.47h28.07ZM655.77 127.38h-47.06v-15.45h12.33v-36h-11.62V60.48h31.18v16.87h.28c2.98-11.06 11.91-18 23.25-18h3.26v20.27h-2.13c-9.78 0-15.73 2.84-19.28 9.36-2.27 4.11-3.55 9.5-3.55 14.74v8.22h13.33v15.45ZM704.51 39.99c0 7.48-6.07 13.55-13.55 13.55s-13.55-6.07-13.55-13.55 6.07-13.55 13.55-13.55 13.55 6.07 13.55 13.55Zm-25.43 0c0 6.57 5.3 11.88 11.88 11.88s11.91-5.3 11.91-11.88-5.34-11.91-11.91-11.91-11.88 5.34-11.88 11.91Zm12.31-6.97c3.01 0 4.83 1.42 4.83 3.78s-1.34 3.6-4.21 4v.07c1.67.62 2.29 1.2 3.27 3.2.55 1.09.8 1.63 1.49 3.2h-2.14c-.18-.36-.29-.65-.4-.83-2.07-4.58-2.91-5.34-6.14-5.34h-.8v6.17h-1.82V33.03h5.92Zm-1.78 6.57c3.3 0 4.54-.73 4.54-2.65s-1.05-2.47-4.25-2.47h-2.62v5.12h2.33Z"/>
</svg>
