<?xml version="1.0" encoding="UTF-8" standalone="no"?>
<!-- Created with Inkscape (http://www.inkscape.org/) -->

<svg
   version="1.1"
   id="svg2"
   xml:space="preserve"
   width="1122.52"
   height="793.70667"
   viewBox="0 0 1122.52 793.70667"
   sodipodi:docname="MRND21_LesBonsSirops_Logo-NH.eps"
   xmlns:inkscape="http://www.inkscape.org/namespaces/inkscape"
   xmlns:sodipodi="http://sodipodi.sourceforge.net/DTD/sodipodi-0.dtd"
   xmlns="http://www.w3.org/2000/svg"
   xmlns:svg="http://www.w3.org/2000/svg"><defs
     id="defs6" /><sodipodi:namedview
     id="namedview4"
     pagecolor="#ffffff"
     bordercolor="#666666"
     borderopacity="1.0"
     inkscape:pageshadow="2"
     inkscape:pageopacity="0.0"
     inkscape:pagecheckerboard="0" /><g
     id="g8"
     inkscape:groupmode="layer"
     inkscape:label="ink_ext_XXXXXX"
     transform="matrix(1.3333333,0,0,-1.3333333,0,793.70667)"><g
       id="g10"
       transform="scale(0.1)"><path
         d="m 3534.08,1733.57 c -114.14,0 -182.27,56.52 -182.27,151.31 0,94.74 68.13,151.27 182.27,151.27 116.49,0 188.78,-57.93 188.78,-151.27 0,-93.39 -72.29,-151.31 -188.78,-151.31 z m 0,365.01 c -155.85,0 -256.56,-83.88 -256.56,-213.7 0,-129.74 100.71,-213.64 256.56,-213.64 159.69,0 262.84,83.9 262.84,213.64 0,129.82 -103.15,213.7 -262.84,213.7"
         style="fill:#ffffff;fill-opacity:1;fill-rule:nonzero;stroke:none"
         id="path12" /><path
         d="m 5770.79,1751.09 h -184.48 v 270.18 h 184.48 c 76.55,0 158.31,-35.47 158.31,-135.03 0,-99.6 -81.76,-135.15 -158.31,-135.15 z m 0,331.94 h -258.56 v -393.78 h 258.56 c 143.28,0 232.33,75.42 232.33,196.99 0,128.78 -80.42,196.79 -232.33,196.79"
         style="fill:#ffffff;fill-opacity:1;fill-rule:nonzero;stroke:none"
         id="path14" /><path
         d="m 5331.63,1787.99 -326.56,295.03 h -85.37 v -393.78 h 72.4 v 310.77 l 343.46,-309.18 1.71,-1.59 h 68.51 v 393.78 h -74.15 v -295.03"
         style="fill:#ffffff;fill-opacity:1;fill-rule:nonzero;stroke:none"
         id="path16" /><path
         d="m 3954.35,1914.04 v 107.23 h 226.81 c 63.66,0 92.48,-25.94 92.48,-50.02 0,-49.8 -49.3,-57.21 -78.75,-57.21 z m 393.85,54.03 c 0,72.1 -62.48,114.97 -167.04,114.97 h -300.49 v -393.8 h 73.35 v 162.88 h 173.31 l 141.81,-162.88 H 4367 l -148.63,169.04 c 112.44,5.73 129.83,70.51 129.83,109.79"
         style="fill:#ffffff;fill-opacity:1;fill-rule:nonzero;stroke:none"
         id="path18" /><path
         d="m 2896.74,1789.29 v 293.59 h -98.96 L 2516.1,1689.25 h 83.96 l 222.54,305.08 v -305.08 h 88.96 l 210.12,304.13 v -304.13 h 74.19 v 393.63 h -97.74 l -201.39,-293.59"
         style="fill:#ffffff;fill-opacity:1;fill-rule:nonzero;stroke:none"
         id="path20" /><path
         d="m 4549.33,1855.83 84.69,157.74 82.43,-157.74 z m 47.44,227.2 -219.25,-393.74 h 81.53 l 56.81,104.73 h 232.94 l 54.58,-104.77 h 82.02 l -214.24,393.78 h -74.39"
         style="fill:#ffffff;fill-opacity:1;fill-rule:nonzero;stroke:none"
         id="path22" /><path
         d="m 5236.06,4123.36 23.55,-7.04 c 7.05,-2.1 13.46,-4.49 19.25,-7.16 5.77,-2.7 10.49,-5.79 14.15,-9.31 3.68,-3.5 6.16,-7.48 7.45,-11.98 1.29,-4.5 1.06,-9.72 -0.73,-15.7 -4.96,-16.62 -14.28,-27.82 -27.95,-33.64 -13.7,-5.8 -30.12,-5.85 -49.24,-0.15 l -28.99,8.66 z m 48.2,-340.56 c 5.22,-1.55 9.42,-3.54 12.54,-5.9 3.13,-2.39 5.55,-5 7.62,-7.53 4.05,-4.94 -0.29,-8.94 -3.36,-11 -4.51,-2.99 -13.55,-2.42 -19.19,-0.73 -10.06,3.01 -18.25,9.54 -24.56,19.62 -1.72,2.76 -3.3,5.89 -4.8,9.29 11.1,0.43 21.69,-0.75 31.75,-3.75 z m -267.05,290.61 c 3.56,-7.21 8.54,-13.47 14.96,-18.76 6.44,-5.29 14.06,-9.25 22.93,-11.9 7.85,-2.34 15.82,-3.04 23.9,-2.06 8.06,0.96 15.61,3.29 22.64,7 7.03,3.68 13.19,8.59 18.53,14.73 5.34,6.11 9.21,13.15 11.58,21.14 1.79,5.99 1.76,11.96 -0.09,17.94 -1.81,5.98 -5.66,9.82 -11.5,11.56 -4.23,1.27 -8.29,1.45 -12.17,0.58 -3.88,-0.9 -7.45,-2.55 -10.68,-4.95 -3.24,-2.42 -6.15,-5.36 -8.71,-8.82 -2.58,-3.46 -4.61,-7 -6.15,-10.66 -1.39,-3.2 -2.74,-6.4 -4.02,-9.63 -1.3,-3.23 -2.85,-6.03 -4.65,-8.4 -1.81,-2.36 -4,-4.06 -6.61,-5.07 -2.62,-1.05 -5.94,-0.96 -9.96,0.24 -5.04,1.51 -9.05,4.2 -12.05,8.13 -3,3.9 -5.2,8.31 -6.59,13.18 -1.4,4.87 -1.99,10.05 -1.78,15.55 0.21,5.48 1.01,10.55 2.39,15.2 3.38,11.29 8.08,20.62 14.11,27.99 6.04,7.37 12.98,12.96 20.8,16.77 7.83,3.83 16.34,5.92 25.56,6.32 9.21,0.37 18.67,-0.86 28.33,-3.74 l 12.08,-3.61 c 5.02,-1.5 10.4,-3.36 16.12,-5.53 5.7,-2.19 10.84,-4.82 15.42,-7.86 4.56,-3.05 8.06,-6.58 10.49,-10.56 2.43,-3.99 2.88,-8.52 1.37,-13.6 -0.33,-1.12 -0.62,-1.94 -0.89,-2.46 -0.28,-0.5 -0.67,-1.31 -1.2,-2.36 l -88.82,-157.66 c -3.73,-6.64 -7.69,-11.47 -11.9,-14.56 -4.21,-3.06 -8.33,-5.11 -12.35,-6.08 -4.01,-0.97 -7.66,-1.27 -10.95,-0.89 -3.29,0.39 -5.83,0.85 -7.64,1.39 l -8.4,-13.79 99.38,-29.65 7.18,14.15 c -1.75,0.75 -3.86,1.56 -6.34,2.43 -2.49,0.85 -4.82,2.09 -6.96,3.69 -2.15,1.62 -3.74,3.65 -4.75,6.15 -1.02,2.47 -0.94,5.68 0.26,9.67 0.92,3.1 2.21,5.96 3.89,8.61 l 44.81,78.55 19.33,-5.76 -3.55,-42.74 c -2.94,-34.83 -3.19,-65.69 -0.81,-92.58 2.4,-26.89 7.54,-50.06 15.43,-69.55 1.28,-3.14 2.75,-6.03 4.16,-8.98 -2.34,-0.69 -4.69,-1.33 -7,-2.11 -15.72,-5.31 -30.36,-12.06 -43.86,-20.19 -13.49,-8.16 -25.15,-16.56 -34.98,-25.22 l 10.98,19.17 -13.28,3.97 c -9.18,-3.54 -19.16,-6.11 -29.93,-7.72 -4.56,-0.56 -9.19,-1 -13.89,-1.29 -4.68,-0.3 -9.21,-0.39 -13.55,-0.29 l -7.1,-12.72 c 1.81,-0.54 3.73,-1.11 5.74,-1.71 2.01,-0.6 3.67,-1.47 5,-2.58 1.3,-1.12 2.23,-2.6 2.77,-4.45 0.54,-1.86 0.42,-4.1 -0.37,-6.77 -0.73,-2.43 -1.8,-4.87 -3.18,-7.36 l -41.72,-73.68 c -2.28,-3.91 -4.2,-6.75 -5.84,-8.56 -1.64,-1.8 -3.46,-2.95 -5.47,-3.44 -2,-0.48 -4.33,-0.52 -6.93,-0.1 -2.64,0.41 -5.95,0.87 -9.96,1.34 l -7.19,-13.05 76.11,-22.72 7.79,12.88 c -1.35,0.65 -2.94,1.36 -4.78,2.17 -1.86,0.78 -3.59,1.77 -5.19,2.98 -1.63,1.21 -2.87,2.55 -3.75,4.01 -0.88,1.48 -1,3.21 -0.42,5.2 0.53,1.77 1.25,3.47 2.19,5.12 0.93,1.65 1.87,3.31 2.79,4.97 l 28.46,50.13 c 3.71,6.6 9.35,13.72 16.9,21.37 7.53,7.65 16.37,15.07 26.54,22.29 10.15,7.22 21.28,13.98 33.35,20.27 12.07,6.3 24.43,11.35 37.09,15.17 4.68,1.41 9.32,2.42 13.98,3.43 5.03,-7.14 10.6,-13.66 16.84,-19.32 13.62,-12.41 30.2,-21.51 49.74,-27.33 9.06,-2.71 17.08,-3.93 24.05,-3.73 6.97,0.22 12.96,1.39 17.99,3.51 5.01,2.09 15.55,8.72 18.68,19.2 0.7,2.36 0.81,5.12 0.63,8.06 -0.01,0.15 -0.03,0.56 -0.06,1.06 -0.06,0.88 -0.12,2.01 -0.22,2.53 -0.74,4.44 -2.76,8.95 -6,13.54 -3.22,4.59 -7.84,8.98 -13.81,13.18 -5.99,4.18 -13.63,7.68 -22.88,10.44 -18.12,5.41 -35.92,7.47 -53.41,6.18 -3.62,-0.28 -7.17,-0.69 -10.71,-1.13 -0.83,3.66 -1.62,7.42 -2.28,11.49 -3.12,18.66 -4.67,41.86 -4.73,69.63 -0.06,27.76 1.31,60.63 4.09,98.64 l 1.35,14.43 c 11.07,-2.58 22.01,-3.43 32.79,-2.56 10.78,0.9 20.72,3.66 29.79,8.31 9.06,4.65 17.09,11.19 24.1,19.59 6.98,8.41 12.34,18.79 16.04,31.21 2.92,9.75 3.32,18.67 1.24,26.76 -2.08,8.1 -6.26,15.51 -12.6,22.22 -6.35,6.71 -14.52,12.7 -24.56,18.02 -10.05,5.29 -21.53,9.85 -34.4,13.69 l -38.66,11.53 c -9.68,2.89 -18.78,5.97 -27.35,9.25 -8.56,3.29 -17.02,6.52 -25.38,9.74 -8.36,3.22 -16.84,6.41 -25.43,9.58 -8.6,3.16 -17.73,6.19 -27.4,9.07 -13.09,3.9 -25.81,5.36 -38.17,4.34 -12.37,-1.01 -23.76,-4.3 -34.19,-9.89 -10.44,-5.55 -19.61,-13.31 -27.51,-23.28 -7.9,-9.92 -13.94,-21.87 -18.1,-35.83 -2.85,-9.52 -3.92,-18.69 -3.26,-27.43 0.69,-8.77 2.8,-16.77 6.35,-23.97"
         style="fill:#ffffff;fill-opacity:1;fill-rule:nonzero;stroke:none"
         id="path24" /><path
         d="m 5360.61,3968.07 c 4.31,3.43 8.66,6.27 13.09,8.58 4.4,2.31 8.75,3.83 13.05,4.61 4.29,0.76 8.43,0.54 12.47,-0.66 6.84,-2.04 11.72,-5.91 14.62,-11.58 2.91,-5.7 2.78,-13.14 -0.4,-22.32 -0.93,-2.39 -2.24,-4.22 -3.95,-5.53 -1.69,-1.29 -3.36,-1.69 -4.96,-1.22 l -56.19,16.76 c 3.87,4.14 7.96,7.92 12.27,11.36 z m -61.17,-3.83 c -9.08,-10.91 -16.03,-23.38 -20.85,-37.38 -3.39,-9.85 -4.74,-19.34 -4.06,-28.46 0.68,-9.13 3.05,-17.54 7.09,-25.28 4.06,-7.71 9.73,-14.46 17,-20.25 7.25,-5.79 15.91,-10.19 25.99,-13.2 9.86,-2.94 19.55,-4.08 29.07,-3.42 9.52,0.67 18.36,2.41 26.58,5.28 8.2,2.87 15.61,6.57 22.21,11.1 6.64,4.53 12.05,9.07 16.24,13.62 l -16.75,14.4 c -3.68,-3.5 -7.96,-6.86 -12.87,-10.1 -4.92,-3.23 -10.12,-5.95 -15.61,-8.18 -5.49,-2.24 -11.02,-3.71 -16.62,-4.46 -5.6,-0.73 -10.7,-0.42 -15.33,0.96 -4.65,1.38 -8.73,3.63 -12.31,6.75 -3.57,3.12 -6.28,7.05 -8.13,11.83 -1.88,4.77 -2.8,10.36 -2.75,16.75 0.04,6.37 1.45,13.49 4.23,21.36 2.52,6.96 5.97,14.13 10.37,21.51 l 106.03,-31.63 c 1.6,-0.47 3.1,0.33 4.51,2.44 1.39,2.12 2.76,5.03 4.08,8.75 2.57,7.9 4.13,16.06 4.66,24.46 0.54,8.4 -0.61,16.46 -3.47,24.19 -2.84,7.73 -7.67,14.72 -14.46,20.96 -6.81,6.26 -16.14,11.16 -28.02,14.69 -12.69,3.79 -25.57,4.69 -38.69,2.69 -13.08,-2 -25.45,-6.34 -37.07,-12.99 -11.65,-6.67 -22.01,-15.48 -31.07,-26.39"
         style="fill:#ffffff;fill-opacity:1;fill-rule:nonzero;stroke:none"
         id="path26" /><path
         d="m 5434.09,3843.57 c 0.86,-8.47 3.34,-16.01 7.38,-22.66 4.05,-6.63 9.53,-12.3 16.46,-17.03 6.92,-4.72 14.92,-8.43 23.98,-11.14 7.45,-2.22 15.2,-3.42 23.26,-3.61 8.06,-0.23 16.03,0.65 23.95,2.55 7.92,1.92 15.54,4.83 22.84,8.71 7.29,3.88 13.82,8.83 19.55,14.83 l -11.72,14.72 c -3.96,-2.93 -8.44,-5.68 -13.49,-8.26 -5.06,-2.6 -10.35,-4.71 -15.87,-6.31 -5.51,-1.62 -10.96,-2.58 -16.32,-2.91 -5.37,-0.33 -10.26,0.16 -14.68,1.48 -10.69,3.19 -17.25,9.14 -19.69,17.8 -2.47,8.71 -2.03,18.58 1.28,29.67 2.18,7.3 5.99,15.45 11.41,24.46 5.42,8.98 11.76,17.22 19.04,24.7 7.27,7.47 15.06,13.35 23.36,17.65 8.29,4.27 16.37,5.24 24.21,2.9 2.62,-0.78 4.57,-1.98 5.86,-3.58 1.28,-1.59 2.13,-3.49 2.57,-5.68 0.43,-2.22 0.61,-4.57 0.51,-7.1 -0.09,-2.52 -0.31,-5.08 -0.64,-7.66 -0.66,-5.16 0.39,-10.1 3.16,-14.81 2.75,-4.71 7.26,-8.01 13.51,-9.86 6.02,-1.81 12.05,-1.07 18.08,2.19 6.02,3.28 10.01,8.23 11.99,14.88 1.39,4.66 1.74,9.49 1.05,14.52 -0.7,5.03 -2.61,9.84 -5.75,14.37 -3.14,4.56 -7.57,8.79 -13.32,12.67 -5.74,3.88 -12.85,7.09 -21.31,9.61 -14.5,4.34 -29.04,5.18 -43.64,2.53 -14.61,-2.65 -28.2,-7.75 -40.77,-15.34 -12.57,-7.6 -23.53,-17.15 -32.91,-28.7 -9.37,-11.58 -16.1,-24.21 -20.2,-37.94 -2.97,-9.97 -4.02,-19.19 -3.14,-27.65"
         style="fill:#ffffff;fill-opacity:1;fill-rule:nonzero;stroke:none"
         id="path28" /><path
         d="m 5675.43,3874.15 c 4.31,3.41 8.68,6.27 13.09,8.58 4.41,2.3 8.77,3.83 13.06,4.6 4.28,0.76 8.44,0.55 12.47,-0.65 6.84,-2.05 11.72,-5.89 14.63,-11.59 2.91,-5.7 2.76,-13.13 -0.41,-22.32 -0.94,-2.38 -2.23,-4.22 -3.95,-5.52 -1.71,-1.3 -3.37,-1.7 -4.97,-1.22 l -56.17,16.76 c 3.85,4.13 7.95,7.93 12.25,11.36 z m -82.03,-41.21 c -3.38,-9.86 -4.72,-19.35 -4.04,-28.46 0.67,-9.13 3.05,-17.55 7.09,-25.28 4.05,-7.72 9.72,-14.47 16.99,-20.26 7.26,-5.78 15.92,-10.18 25.99,-13.19 9.86,-2.94 19.56,-4.07 29.09,-3.42 9.5,0.66 18.35,2.42 26.57,5.27 8.19,2.87 15.61,6.58 22.22,11.11 6.62,4.53 12.03,9.07 16.24,13.61 l -16.75,14.4 c -3.68,-3.48 -7.98,-6.85 -12.89,-10.09 -4.91,-3.24 -10.11,-5.96 -15.6,-8.19 -5.49,-2.23 -11.03,-3.71 -16.63,-4.45 -5.59,-0.73 -10.71,-0.43 -15.33,0.96 -4.65,1.37 -8.74,3.62 -12.3,6.75 -3.57,3.12 -6.28,7.05 -8.15,11.83 -1.85,4.78 -2.77,10.35 -2.73,16.75 0.04,6.37 1.45,13.49 4.24,21.36 2.5,6.95 5.96,14.13 10.36,21.5 l 106.02,-31.63 c 1.6,-0.47 3.11,0.34 4.51,2.44 1.39,2.12 2.76,5.03 4.09,8.75 2.57,7.9 4.14,16.07 4.66,24.47 0.53,8.39 -0.62,16.46 -3.47,24.18 -2.84,7.74 -7.68,14.72 -14.46,20.97 -6.81,6.25 -16.15,11.15 -28.01,14.69 -12.71,3.79 -25.59,4.69 -38.68,2.68 -13.11,-2 -25.46,-6.33 -37.09,-12.99 -11.65,-6.67 -22.02,-15.47 -31.08,-26.38 -9.06,-10.92 -16.01,-23.38 -20.86,-37.38"
         style="fill:#ffffff;fill-opacity:1;fill-rule:nonzero;stroke:none"
         id="path30" /><path
         d="m 5753.14,3757.78 c -2.78,-4.95 -4.84,-9.65 -6.16,-14.07 -2.97,-9.96 -2.46,-17.96 1.5,-23.96 3.98,-6.02 10.57,-10.39 19.75,-13.13 4.39,-1.31 8.88,-1.79 13.47,-1.48 4.59,0.35 8.95,1.19 13.09,2.53 4.13,1.34 7.98,3.06 11.57,5.18 3.59,2.09 6.69,4.24 9.31,6.38 l -2.85,8.1 c -1.88,-1.14 -3.75,-1.91 -5.63,-2.3 -1.67,-0.47 -3.51,-0.78 -5.53,-0.88 -1.99,-0.13 -4.02,0.1 -6.03,0.7 -3.22,0.96 -5.65,2.76 -7.27,5.42 -1.62,2.65 -1.67,6.49 -0.15,11.59 0.99,3.3 2.38,6.51 4.18,9.57 l 53.81,92.22 33.84,-10.1 10.97,19.14 -23.26,6.94 c -5.65,1.69 -7.66,5.18 -6.07,10.52 0.34,1.11 0.77,2.23 1.34,3.38 0.56,1.16 1.27,2.45 2.14,3.89 l 20.36,36.26 -12.39,3.7 c -9.07,-11.28 -19.91,-20.46 -32.56,-27.56 -6.87,-3.98 -13.81,-6.91 -20.8,-8.81 -6.97,-1.89 -13.24,-2.62 -18.77,-2.19 l -9.34,-17.1 17.68,-5.28 -56.2,-98.66"
         style="fill:#ffffff;fill-opacity:1;fill-rule:nonzero;stroke:none"
         id="path32" /><path
         d="m 5907.32,3827.21 -56.2,-98.66 c -2.79,-4.95 -4.84,-9.65 -6.16,-14.07 -2.97,-9.97 -2.47,-17.96 1.5,-23.97 3.98,-6.01 10.57,-10.38 19.75,-13.12 4.39,-1.31 8.89,-1.79 13.48,-1.48 4.59,0.35 8.95,1.19 13.08,2.53 4.13,1.34 7.98,3.06 11.57,5.18 3.58,2.09 6.69,4.24 9.32,6.38 l -2.87,8.09 c -1.87,-1.12 -3.75,-1.9 -5.61,-2.31 -1.68,-0.45 -3.53,-0.76 -5.53,-0.88 -2,-0.13 -4.03,0.11 -6.04,0.72 -3.23,0.96 -5.65,2.75 -7.26,5.42 -1.63,2.65 -1.68,6.49 -0.16,11.59 0.99,3.3 2.39,6.51 4.17,9.56 l 53.82,92.23 33.84,-10.1 10.97,19.14 -23.26,6.95 c -5.65,1.69 -7.66,5.17 -6.07,10.5 0.33,1.12 0.77,2.24 1.34,3.39 0.56,1.16 1.27,2.45 2.14,3.88 l 20.36,36.27 -12.38,3.69 c -9.09,-11.27 -19.92,-20.45 -32.56,-27.55 -6.89,-3.97 -13.82,-6.92 -20.81,-8.8 -6.97,-1.9 -13.24,-2.62 -18.76,-2.19 l -9.35,-17.11 17.68,-5.28"
         style="fill:#ffffff;fill-opacity:1;fill-rule:nonzero;stroke:none"
         id="path34" /><path
         d="m 6022.1,3770.72 c 4.31,3.44 8.68,6.28 13.08,8.58 4.41,2.31 8.77,3.83 13.07,4.6 4.26,0.76 8.43,0.56 12.47,-0.65 6.83,-2.03 11.72,-5.89 14.62,-11.58 2.9,-5.7 2.77,-13.14 -0.4,-22.33 -0.94,-2.37 -2.25,-4.21 -3.96,-5.53 -1.7,-1.28 -3.36,-1.68 -4.96,-1.2 l -56.19,16.75 c 3.87,4.14 7.97,7.93 12.27,11.36 z m -61.18,-3.83 c -9.07,-10.92 -16.01,-23.38 -20.85,-37.38 -3.38,-9.85 -4.72,-19.34 -4.05,-28.45 0.68,-9.13 3.04,-17.55 7.1,-25.29 4.05,-7.72 9.72,-14.46 16.99,-20.26 7.26,-5.78 15.92,-10.18 25.99,-13.19 9.86,-2.94 19.55,-4.07 29.07,-3.42 9.52,0.67 18.37,2.42 26.57,5.29 8.21,2.87 15.63,6.56 22.23,11.09 6.62,4.55 12.03,9.07 16.24,13.62 l -16.76,14.4 c -3.67,-3.49 -7.96,-6.85 -12.88,-10.09 -4.9,-3.23 -10.12,-5.96 -15.61,-8.18 -5.47,-2.24 -11.01,-3.72 -16.61,-4.47 -5.59,-0.72 -10.71,-0.42 -15.35,0.96 -4.64,1.39 -8.72,3.63 -12.29,6.76 -3.57,3.11 -6.27,7.05 -8.15,11.82 -1.86,4.78 -2.77,10.36 -2.72,16.76 0.03,6.37 1.43,13.49 4.23,21.35 2.51,6.96 5.96,14.13 10.37,21.51 l 106.01,-31.64 c 1.6,-0.47 3.11,0.34 4.51,2.45 1.39,2.12 2.77,5.02 4.1,8.74 2.55,7.91 4.13,16.07 4.65,24.48 0.54,8.39 -0.62,16.46 -3.46,24.19 -2.84,7.72 -7.68,14.71 -14.47,20.95 -6.8,6.25 -16.14,11.16 -28.02,14.7 -12.69,3.79 -25.57,4.68 -38.68,2.68 -13.09,-2.01 -25.45,-6.33 -37.08,-12.98 -11.66,-6.68 -22.02,-15.48 -31.08,-26.4"
         style="fill:#ffffff;fill-opacity:1;fill-rule:nonzero;stroke:none"
         id="path36" /><path
         d="m 4847.35,3753.58 c 2.59,8.62 6.41,18.71 11.48,30.21 5.09,11.5 11.13,23.15 18.16,34.93 7.02,11.79 14.86,23.19 23.52,34.23 8.67,11.03 17.91,20.47 27.71,28.29 9.77,7.81 20,13.44 30.68,16.88 10.68,3.46 21.46,3.58 32.33,0.32 15.91,-4.74 27.02,-13.06 33.34,-24.96 6.31,-11.91 6.41,-28.15 0.26,-48.76 -2.5,-8.42 -6.31,-18.2 -11.39,-29.33 -5.09,-11.15 -11.13,-22.48 -18.19,-34.03 -7.06,-11.5 -15.01,-22.72 -23.86,-33.57 -8.82,-10.88 -18.27,-20.12 -28.33,-27.74 -10.05,-7.62 -20.61,-13.02 -31.65,-16.25 -11.05,-3.22 -22.22,-3.14 -33.49,0.22 -8.86,2.65 -15.87,6.36 -21.01,11.16 -5.15,4.79 -8.8,10.22 -10.93,16.3 -2.14,6.05 -3.02,12.7 -2.6,19.93 0.4,7.23 1.73,14.64 3.97,22.17 z m -20.75,-70.71 c 9.52,-8.5 22.44,-15.19 38.75,-20.06 18.31,-5.47 37.61,-6.22 57.88,-2.24 20.25,3.96 39.6,11.64 58.01,23.02 18.42,11.41 34.88,26.14 49.39,44.27 14.5,18.08 25.19,38.64 32.07,61.7 4.81,16.17 7.2,31.31 7.14,45.45 -0.06,14.13 -2.51,26.85 -7.36,38.19 -4.83,11.35 -12.07,21.14 -21.65,29.44 -9.59,8.28 -21.43,14.53 -35.51,18.73 -20.36,6.08 -40.86,6.58 -61.57,1.54 -20.68,-5.03 -40.03,-14.04 -58.04,-26.99 -18.01,-12.98 -33.96,-29.08 -47.81,-48.34 -13.85,-19.27 -24.13,-40.08 -30.8,-62.46 -3.84,-12.85 -6.02,-25.51 -6.57,-38.02 -0.57,-12.49 1.27,-24.19 5.48,-35.11 4.21,-10.9 11.05,-20.61 20.59,-29.12"
         style="fill:#ffffff;fill-opacity:1;fill-rule:nonzero;stroke:none"
         id="path38" /><path
         d="m 5239.52,3678.92 -40.12,-70.55 c -2.27,-3.9 -4.22,-6.74 -5.85,-8.55 -1.63,-1.81 -3.46,-2.96 -5.47,-3.45 -2,-0.47 -4.33,-0.5 -6.93,-0.09 -2.63,0.42 -5.94,0.87 -9.96,1.34 l -7.18,-13.06 76.11,-22.71 7.78,12.88 c -1.34,0.65 -2.95,1.35 -4.78,2.16 -1.86,0.79 -3.58,1.78 -5.19,2.99 -1.62,1.2 -2.86,2.54 -3.74,4 -0.88,1.49 -1.01,3.22 -0.42,5.2 0.53,1.78 1.25,3.48 2.18,5.13 0.94,1.65 1.87,3.3 2.8,4.97 l 68.56,120.65 -13.28,3.96 c -9.17,-3.54 -19.16,-6.1 -29.94,-7.71 -4.56,-0.56 -9.17,-1.01 -13.88,-1.3 -4.7,-0.29 -9.21,-0.37 -13.56,-0.26 l -7.1,-12.75 c 1.82,-0.53 3.73,-1.09 5.75,-1.71 2.01,-0.59 3.67,-1.44 4.99,-2.56 1.32,-1.14 2.23,-2.61 2.78,-4.46 0.54,-1.85 0.42,-4.11 -0.36,-6.76 -0.74,-2.44 -1.8,-4.89 -3.19,-7.36"
         style="fill:#ffffff;fill-opacity:1;fill-rule:nonzero;stroke:none"
         id="path40" /><path
         d="m 5352.25,3503.09 c -1.19,-3.99 -3.71,-6.93 -7.56,-8.81 -3.85,-1.85 -8.32,-3.05 -13.41,-3.59 -5.08,-0.52 -10.53,-0.41 -16.34,0.35 -5.81,0.77 -11.22,1.92 -16.25,3.42 -13.3,3.97 -22.21,8.42 -26.75,13.4 -4.55,4.99 -5.83,10.78 -3.86,17.43 0.8,2.66 2.06,4.88 3.8,6.66 1.73,1.77 3.59,3.21 5.56,4.3 1.98,1.1 3.85,1.86 5.62,2.3 1.78,0.44 3.15,0.51 4.18,0.22 3.82,-1.16 9.54,-2.92 17.16,-5.32 7.63,-2.39 15.16,-5.23 22.61,-8.55 7.45,-3.31 13.81,-6.84 19.06,-10.57 5.24,-3.75 7.3,-7.49 6.18,-11.24 z m -17.12,123.43 c 2.24,7.51 5.39,14.76 9.45,21.76 4.06,6.99 8.59,13 13.6,18.01 5,5.03 10.33,8.75 16,11.18 5.65,2.4 11.19,2.8 16.62,1.18 7.06,-2.11 11.51,-5.72 13.38,-10.86 1.86,-5.15 1.84,-10.94 -0.07,-17.35 -2.25,-7.53 -5.45,-14.78 -9.61,-21.73 -4.17,-6.98 -8.91,-12.93 -14.2,-17.84 -5.33,-4.94 -10.96,-8.57 -16.9,-10.88 -5.96,-2.34 -11.87,-2.63 -17.7,-0.89 -5.04,1.49 -8.52,4.89 -10.45,10.18 -1.95,5.3 -1.97,11.02 -0.12,17.24 z m 46.96,-83.68 c -4.57,4.12 -9.83,7.52 -15.83,10.13 -5.98,2.65 -11.62,4.99 -16.91,7.05 -5.28,2.07 -10.54,3.87 -15.76,5.43 -5.21,1.56 -9.83,3.17 -13.79,4.84 -4,1.67 -7.01,3.48 -9.05,5.43 -2.05,1.91 -2.67,4.21 -1.89,6.86 0.62,2.03 1.61,3.22 3.06,3.64 1.44,0.41 3.16,0.48 5.17,0.25 2.02,-0.23 4.22,-0.76 6.61,-1.6 2.38,-0.84 4.87,-1.63 7.5,-2.41 13.88,-4.14 26.81,-5.47 38.76,-3.99 11.97,1.51 22.67,5.06 32.15,10.7 9.46,5.61 17.42,12.87 23.94,21.78 6.48,8.93 11.28,18.59 14.39,29.01 2.18,7.3 2.23,14.82 0.16,22.57 -2.07,7.73 -6.58,14.68 -13.52,20.84 2.34,2.69 4.95,5.16 7.82,7.44 2.88,2.29 6.01,2.91 9.43,1.89 2.23,-0.65 3.86,-1.64 4.91,-2.89 1.03,-1.3 2.01,-2.61 2.93,-3.96 0.91,-1.37 1.99,-2.66 3.28,-3.87 1.27,-1.23 3.13,-2.21 5.54,-2.92 5.04,-1.5 9.6,-1.07 13.72,1.33 4.11,2.39 7.03,6.46 8.75,12.22 1.52,5.1 0.96,9.84 -1.68,14.25 -2.62,4.41 -6.76,7.44 -12.4,9.12 -4.63,1.39 -9.16,1.47 -13.58,0.27 -4.42,-1.22 -8.73,-3.18 -12.93,-5.92 -4.22,-2.72 -8.33,-5.97 -12.28,-9.72 -3.97,-3.76 -7.87,-7.61 -11.68,-11.55 -4.24,2.72 -9.26,4.95 -15.1,6.7 -13.1,3.9 -25.29,4.95 -36.57,3.11 -11.29,-1.81 -21.49,-5.51 -30.62,-11.12 -9.14,-5.59 -16.86,-12.76 -23.19,-21.48 -6.33,-8.74 -10.95,-17.95 -13.86,-27.71 -2.37,-7.97 -3.13,-14.94 -2.26,-20.85 0.85,-5.93 1.94,-10.77 3.22,-14.54 -3.69,-0.59 -7.7,-1.39 -12.06,-2.37 -4.36,-1 -8.58,-2.5 -12.69,-4.52 -4.12,-2.04 -7.8,-4.62 -11.05,-7.77 -3.22,-3.12 -5.53,-7.01 -6.92,-11.67 -1.79,-5.98 -1.94,-11.25 -0.44,-15.78 1.49,-4.56 3.18,-7.7 5.08,-9.49 -1.9,-0.39 -4.16,-1.21 -6.84,-2.48 -2.67,-1.24 -5.37,-2.91 -8.07,-5 -2.71,-2.08 -5.23,-4.71 -7.6,-7.85 -2.37,-3.16 -4.18,-6.85 -5.43,-11.07 -1.59,-5.3 -1.42,-10.43 0.51,-15.34 1.92,-4.91 5.09,-9.48 9.53,-13.69 4.43,-4.22 9.91,-8.04 16.44,-11.42 6.54,-3.41 13.64,-6.25 21.26,-8.52 10.46,-3.13 21.47,-5.08 33.05,-5.88 11.58,-0.81 22.51,-0.14 32.77,1.98 10.25,2.14 19.29,5.96 27.06,11.48 7.76,5.52 13.08,13.03 15.92,22.55 2.58,8.66 2.87,15.84 0.87,21.62 -1.98,5.81 -5.26,10.75 -9.83,14.89"
         style="fill:#ffffff;fill-opacity:1;fill-rule:nonzero;stroke:none"
         id="path42" /><path
         d="m 5471.97,3510.05 c -1.61,1.21 -2.86,2.54 -3.74,4.01 -0.88,1.48 -1.02,3.22 -0.42,5.19 0.52,1.78 1.25,3.5 2.17,5.14 0.94,1.66 1.87,3.29 2.81,4.97 l 68.26,120.74 -13.3,3.97 c -9.16,-3.55 -19.14,-6.11 -29.93,-7.72 -4.54,-0.57 -9.17,-1 -13.87,-1.3 -4.69,-0.29 -9.21,-0.37 -13.58,-0.28 l -7.09,-12.72 c 1.83,-0.54 3.75,-1.12 5.76,-1.71 2,-0.6 3.68,-1.47 4.97,-2.58 1.32,-1.12 2.25,-2.6 2.79,-4.44 0.55,-1.87 0.42,-4.12 -0.37,-6.77 -0.73,-2.43 -1.79,-4.88 -3.18,-7.36 l -39.83,-70.64 c -2.25,-3.9 -4.23,-6.82 -5.89,-8.73 -1.67,-1.9 -3.5,-3.11 -5.51,-3.59 -2.01,-0.49 -4.3,-0.46 -6.89,0.05 -2.59,0.54 -5.89,1.05 -9.91,1.52 l -7.19,-13.07 76.12,-22.69 7.79,12.88 c -1.33,0.62 -2.94,1.34 -4.79,2.15 -1.85,0.8 -3.57,1.77 -5.18,2.98"
         style="fill:#ffffff;fill-opacity:1;fill-rule:nonzero;stroke:none"
         id="path44" /><path
         d="m 5531.41,3692.23 c 2.75,-2.15 5.94,-3.76 9.57,-4.85 7.25,-2.17 14.06,-1.77 20.42,1.15 6.34,2.92 10.49,7.6 12.41,14.03 1.91,6.43 1.02,12.61 -2.7,18.54 -3.72,5.93 -9.19,9.97 -16.44,12.14 -3.63,1.09 -7.2,1.47 -10.67,1.19 -3.49,-0.28 -6.69,-1.13 -9.64,-2.55 -2.95,-1.43 -5.53,-3.29 -7.77,-5.64 -2.23,-2.36 -3.81,-5.07 -4.74,-8.19 -0.93,-3.09 -1.09,-6.24 -0.52,-9.43 0.58,-3.18 1.72,-6.17 3.42,-8.97 1.69,-2.79 3.91,-5.27 6.66,-7.42"
         style="fill:#ffffff;fill-opacity:1;fill-rule:nonzero;stroke:none"
         id="path46" /><path
         d="m 5674.56,3398.6 c -4.63,1.39 -8.65,1.48 -12.07,0.34 -3.42,-1.16 -6.49,-3.01 -9.22,-5.57 -2.75,-2.54 -5.19,-5.43 -7.37,-8.67 -2.16,-3.2 -4.41,-6.16 -6.75,-8.83 -2.32,-2.67 -4.79,-4.72 -7.41,-6.11 -2.61,-1.38 -5.61,-1.58 -9.03,-0.55 -3.23,0.95 -5.74,2.5 -7.52,4.59 -1.79,2.09 -2.96,4.57 -3.55,7.38 -0.59,2.83 -0.7,5.77 -0.34,8.8 0.35,3.01 0.99,6.08 1.91,9.2 2.32,7.73 5.35,15.15 9.12,22.24 3.75,7.08 7.52,14.03 11.33,20.86 l 58.95,106.14 c 1.87,3.3 3.41,6.47 4.64,9.49 1.23,3.02 2.24,5.85 3.03,8.5 2.05,6.86 2.73,12.99 2.04,18.4 -0.7,5.39 -2.32,10.1 -4.85,14.1 -2.52,4.02 -5.9,7.37 -10.14,10.08 -4.23,2.71 -8.87,4.82 -13.91,6.32 -8.66,2.59 -17.64,3.33 -26.96,2.25 -9.32,-1.08 -18.25,-3.13 -26.82,-6.11 l 9.39,16.03 -13.28,3.95 c -9.18,-3.53 -19.16,-6.11 -29.94,-7.7 -4.56,-0.57 -9.19,-1.01 -13.88,-1.3 -4.7,-0.3 -9.21,-0.38 -13.56,-0.28 l -7.1,-12.73 3.64,-1.08 c 3.41,-1.02 6.21,-2.51 8.36,-4.49 2.15,-1.97 2.52,-5.27 1.15,-9.93 -0.73,-2.44 -1.79,-4.89 -3.19,-7.36 l -41.71,-73.69 c -2.28,-3.9 -4.22,-6.76 -5.84,-8.56 -1.65,-1.8 -3.47,-2.95 -5.47,-3.44 -2.01,-0.47 -4.33,-0.51 -6.95,-0.09 -2.6,0.42 -5.93,0.88 -9.97,1.34 l -7.17,-13.06 76.12,-22.71 7.79,12.88 c -1.35,0.63 -2.94,1.35 -4.78,2.15 -1.87,0.79 -3.59,1.79 -5.21,2.99 -1.6,1.21 -2.85,2.54 -3.73,4 -0.88,1.49 -1.02,3.23 -0.42,5.2 0.53,1.78 1.25,3.5 2.19,5.15 0.93,1.64 1.85,3.29 2.79,4.96 l 47,84.74 c 6.02,2.55 12.39,4.4 19.08,5.54 6.7,1.12 13.16,0.77 19.42,-1.09 4.83,-1.44 8.88,-4.23 12.14,-8.34 3.28,-4.09 3.85,-9.7 1.75,-16.79 -0.68,-2.22 -1.74,-4.68 -3.21,-7.37 l -58.1,-103.51 c -3.74,-6.62 -7.49,-13.08 -11.27,-19.45 -3.77,-6.34 -6.76,-13.17 -8.94,-20.49 -2.58,-8.62 -3.13,-16.6 -1.66,-23.92 1.47,-7.3 4.33,-13.78 8.62,-19.39 4.29,-5.64 9.59,-10.4 15.92,-14.35 6.31,-3.92 12.99,-6.94 20.04,-9.05 5.43,-1.61 11.59,-2.67 18.47,-3.17 6.87,-0.46 13.56,0.12 20.11,1.8 6.52,1.67 12.39,4.61 17.59,8.86 5.22,4.23 8.95,10.12 11.2,17.65 1.72,5.76 1.27,10.71 -1.32,14.84 -2.6,4.17 -6.32,6.97 -11.15,8.41"
         style="fill:#ffffff;fill-opacity:1;fill-rule:nonzero;stroke:none"
         id="path48" /><path
         d="m 5778.25,3468.62 c -7.34,-12.77 -14.6,-21.71 -21.83,-26.79 -7.2,-5.08 -15.96,-6.08 -26.22,-3.02 -8.26,2.47 -13.69,6.32 -16.29,11.56 -2.61,5.22 -2.88,11.28 -0.83,18.16 1.58,5.3 4.37,9.53 8.38,12.69 4.01,3.14 9.11,5.54 15.32,7.18 6.17,1.65 13.28,2.67 21.31,3.07 8.01,0.37 16.8,0.47 26.39,0.25 l 6.83,-0.23 z m 30.03,-54.73 c -2.51,0.39 -4.51,1.58 -5.99,3.59 -1.49,2.01 -2.11,4.91 -1.85,8.7 0.25,3.78 2.17,8.74 5.76,14.91 l 41.63,73.35 c 7.37,12.99 7.65,24.78 0.85,35.38 -6.81,10.6 -19.17,18.56 -37.1,23.92 -9.08,2.7 -17.91,3.94 -26.52,3.76 -8.62,-0.21 -16.48,-1.42 -23.61,-3.65 -7.14,-2.21 -13.16,-5.3 -18.06,-9.25 -4.93,-3.97 -8.1,-8.38 -9.56,-13.26 -1.19,-3.99 -0.97,-7.68 0.65,-11.05 1.63,-3.38 5.26,-5.91 10.9,-7.6 3.02,-0.9 5.98,-1.05 8.91,-0.48 2.9,0.58 5.75,1.65 8.53,3.24 2.77,1.58 5.54,3.36 8.32,5.3 2.76,1.95 5.56,3.95 8.36,6 4.22,3.09 8.42,5.62 12.64,7.65 4.21,1.99 8.64,2.3 13.27,0.91 5.24,-1.55 8.6,-4.8 10.1,-9.71 1.5,-4.9 -0.21,-11.56 -5.14,-19.99 l -6.39,-11.47 -17.79,0.95 c -15.56,0.8 -29.61,0.94 -42.14,0.46 -12.53,-0.48 -23.64,-2.24 -33.31,-5.27 -9.68,-3.02 -17.77,-7.73 -24.27,-14.1 -6.52,-6.38 -11.4,-15 -14.63,-25.84 -3.9,-13.08 -2.49,-24 4.22,-32.74 6.7,-8.77 17,-15.22 30.9,-19.37 6.03,-1.8 11.6,-2.84 16.66,-3.15 5.06,-0.31 9.59,-0.2 13.58,0.3 3.97,0.48 7.3,1.18 9.98,2.07 2.68,0.9 4.76,1.61 6.22,2.14 -0.18,-1.39 -0.07,-3 0.37,-4.83 0.45,-1.81 1.35,-3.77 2.7,-5.87 1.35,-2.08 3.43,-4.1 6.26,-6.01 2.82,-1.94 6.56,-3.59 11.18,-4.97 5.04,-1.5 10.36,-2.38 16.01,-2.61 5.63,-0.23 10.85,0.39 15.67,1.83 l 10.09,17.25 c -2.41,-0.71 -4.88,-0.9 -7.4,-0.49"
         style="fill:#ffffff;fill-opacity:1;fill-rule:nonzero;stroke:none"
         id="path50" /><path
         d="m 5887.28,3386.15 c -1.61,1.21 -2.86,2.54 -3.75,4 -0.86,1.49 -1.01,3.22 -0.41,5.2 0.53,1.78 1.26,3.49 2.18,5.14 0.93,1.64 1.86,3.29 2.8,4.96 l 118.66,210.28 -13.29,3.96 c -9.18,-3.53 -19.15,-6.1 -29.93,-7.71 -9.44,-1.52 -18.59,-2.04 -27.44,-1.56 l -7.09,-12.73 c 1.81,-0.56 3.72,-1.11 5.73,-1.73 2.02,-0.59 3.68,-1.44 5,-2.57 1.3,-1.13 2.24,-2.6 2.77,-4.45 0.54,-1.85 0.42,-4.11 -0.37,-6.77 -0.85,-2.87 -1.92,-5.32 -3.18,-7.35 l -90.21,-160.18 c -2.27,-3.89 -4.22,-6.75 -5.85,-8.55 -1.64,-1.81 -3.46,-2.95 -5.47,-3.45 -2.01,-0.47 -4.31,-0.5 -6.94,-0.09 -2.61,0.42 -5.94,0.88 -9.96,1.35 l -7.19,-13.06 76.13,-22.71 7.78,12.88 c -1.33,0.64 -2.93,1.35 -4.79,2.15 -1.83,0.79 -3.58,1.79 -5.18,2.99"
         style="fill:#ffffff;fill-opacity:1;fill-rule:nonzero;stroke:none"
         id="path52" /><path
         d="m 6064.62,3445.42 c -0.92,-2.39 -2.23,-4.22 -3.94,-5.53 -1.69,-1.29 -3.37,-1.7 -4.96,-1.22 l -56.19,16.77 c 3.86,4.13 7.95,7.92 12.26,11.35 4.31,3.42 8.67,6.27 13.09,8.57 4.41,2.31 8.77,3.84 13.05,4.62 4.29,0.76 8.44,0.53 12.47,-0.66 6.85,-2.05 11.73,-5.91 14.63,-11.58 2.91,-5.71 2.79,-13.15 -0.41,-22.32 z m 20.86,39.54 c -6.81,6.24 -16.15,11.15 -28.02,14.69 -12.69,3.78 -25.58,4.67 -38.68,2.67 -13.09,-2 -25.46,-6.32 -37.1,-12.98 -11.64,-6.68 -21.99,-15.47 -31.05,-26.39 -9.07,-10.91 -16.03,-23.38 -20.85,-37.37 -3.4,-9.85 -4.74,-19.34 -4.06,-28.46 0.67,-9.13 3.03,-17.54 7.09,-25.28 4.06,-7.72 9.73,-14.47 16.99,-20.25 7.25,-5.79 15.92,-10.19 25.98,-13.2 9.88,-2.93 19.58,-4.08 29.09,-3.43 9.52,0.68 18.37,2.42 26.58,5.29 8.19,2.86 15.6,6.56 22.22,11.1 6.63,4.53 12.04,9.07 16.24,13.62 l -16.76,14.4 c -3.67,-3.5 -7.97,-6.86 -12.89,-10.11 -4.89,-3.22 -10.1,-5.95 -15.59,-8.17 -5.5,-2.24 -11.03,-3.71 -16.63,-4.46 -5.59,-0.73 -10.7,-0.42 -15.33,0.96 -4.64,1.38 -8.74,3.63 -12.3,6.74 -3.57,3.13 -6.29,7.06 -8.14,11.84 -1.87,4.78 -2.78,10.36 -2.74,16.76 0.04,6.36 1.45,13.48 4.23,21.34 2.52,6.97 5.97,14.13 10.36,21.52 l 106.03,-31.63 c 1.6,-0.48 3.12,0.33 4.5,2.44 1.4,2.11 2.78,5.03 4.09,8.74 2.58,7.91 4.14,16.07 4.67,24.48 0.53,8.38 -0.61,16.46 -3.47,24.18 -2.85,7.71 -7.67,14.71 -14.46,20.96"
         style="fill:#ffffff;fill-opacity:1;fill-rule:nonzero;stroke:none"
         id="path54" /><path
         d="m 4745.12,3943.93 c 11.44,39.71 29.75,77.55 54.29,111.39 24.61,33.8 55.34,63.21 89.18,88.47 33.93,25.23 71.24,46.18 110.34,63.1 39.22,16.64 80.17,29.39 121.86,38.61 83.54,18.28 169.87,22.45 254.95,16.12 85.28,-5.85 169.15,-24.46 250.37,-49.66 80.96,-26.35 159.01,-61 232.14,-103.71 72.98,-42.81 141.16,-93.98 200.14,-154.03 58.7,-60.01 108.54,-129.59 138.23,-207.09 14.64,-38.66 24.93,-78.93 27.86,-119.77 2.81,-40.8 -1.55,-81.8 -12.76,-120.98 -11.63,-39.04 -30.43,-75.85 -54.97,-108.69 -24.68,-32.77 -55.28,-61.09 -88.65,-85.75 -33.61,-24.4 -70.37,-44.86 -108.87,-61.71 -38.64,-16.53 -78.82,-30.06 -120.02,-40.1 -165.18,-39.67 -342.38,-30.52 -506.57,18.15 -164.2,48.81 -317.34,138.5 -434.15,261.93 -29.06,30.93 -55.29,64.26 -78.78,99.18 l -16.76,26.71 c -5.06,9.2 -10.43,18.21 -15.23,27.52 -9.67,18.56 -18.73,37.44 -26.05,56.97 -14.66,38.96 -25.2,79.5 -28.32,120.72 -2.75,41.18 0.6,82.77 11.77,122.62 z m -16.41,-256.77 c 8.23,-20.86 18.2,-40.87 28.8,-60.44 5.46,-9.68 11.5,-19.01 17.22,-28.51 l 18.69,-27.45 c 25.71,-36 55.5,-68.6 87.16,-98.72 63.52,-60.23 135.79,-109.62 212.05,-150.08 38.28,-19.95 77.06,-38.89 117.15,-54.66 39.88,-16.19 80.44,-30.7 121.7,-42.92 82.43,-24.58 167.2,-41.71 253.25,-49.56 85.99,-7.98 173.53,-6.29 259.75,9.07 85.92,15.37 171.58,44.63 245.76,95.98 37.07,25.39 71.17,56.16 99.18,92.44 27.89,36.27 49.78,77.68 63.47,121.79 13.18,44.29 17.65,91.02 14.47,136.75 -3.33,45.8 -14.8,90.41 -31.66,132.2 -33.79,83.9 -88.01,156.53 -150.46,218.43 -62.53,62.21 -134.83,113.09 -211.22,154.98 -76.28,42.43 -158.21,73.27 -241.54,96.88 -83.57,23.02 -169.4,37.28 -255.78,42.09 -86.29,4.63 -173.39,0.42 -258.49,-17.01 -42.54,-8.59 -84.6,-20.3 -125.37,-36.01 -40.84,-15.5 -80.38,-35.32 -117.06,-60.07 -36.59,-24.78 -70.56,-54.45 -98.66,-89.71 -27.88,-35.27 -50.27,-75.64 -64.15,-119.11 -13.22,-43.6 -18.68,-89.74 -15.44,-135.11 3.15,-45.4 14.36,-89.74 31.18,-131.25"
         style="fill:#ffffff;fill-opacity:1;fill-rule:nonzero;stroke:none"
         id="path56" /><path
         d="m 2487,2912.91 -24.13,120.15 -157.34,-31.56 -144.83,721.38 -135.26,-27.15 168.91,-841.5 286.77,57.52 5.88,1.16"
         style="fill:#ffffff;fill-opacity:1;fill-rule:nonzero;stroke:none"
         id="path58" /><path
         d="m 2806.71,2977.12 5.88,1.16 -24.13,120.19 -153.84,-30.91 -56.1,279.61 145.65,29.23 -24.1,120.15 -145.68,-29.25 -40.45,201.53 151.51,30.42 -24.12,120.11 -286.78,-57.57 168.91,-841.5 283.25,56.83"
         style="fill:#ffffff;fill-opacity:1;fill-rule:nonzero;stroke:none"
         id="path60" /><path
         d="m 2730.01,3578.89 c 14.51,-72.22 81.75,-126.51 146.77,-179.01 59.23,-47.81 115.15,-92.95 125.98,-146.93 l 17.54,-87.42 c 8.46,-42.15 -3.91,-47.99 -22.31,-51.74 -19.07,-3.8 -33.22,-3.27 -41.68,38.88 l -37.45,186.54 -135.28,-27.15 39.53,-197.01 c 10.32,-51.36 36.46,-86.5 77.7,-104.46 41.02,-17.83 86.97,-14.1 118.26,-7.79 10.34,2.07 22.02,5.01 34.13,9.13 25.05,8.53 52.02,22.14 72.99,43.91 31.22,32.44 41.82,74.94 31.51,126.34 l -29.49,146.87 c -9.55,47.6 -81.95,108.57 -151.94,167.51 -52.65,44.33 -107.09,90.2 -112.13,115.3 l -20.6,102.56 c -8.45,42.19 4.45,48.11 23.46,51.95 11.82,2.37 19.25,1.45 24.85,-3.1 6.81,-5.51 11.92,-17.29 15.69,-36.01 l 34.17,-170.19 135.29,27.16 -36.28,180.69 c -8.8,43.81 -45.63,142.42 -197.13,112.03 -104.45,-21.04 -155.75,-87.97 -137.45,-179.18 l 23.87,-118.88"
         style="fill:#ffffff;fill-opacity:1;fill-rule:nonzero;stroke:none"
         id="path62" /><path
         d="m 3387.34,2625.59 c 11.94,-0.38 25.88,-8.15 43.92,-24.52 l 118.85,-107.79 c 18.05,-16.4 27.17,-29.52 28.69,-41.35 1.36,-10.44 -3.27,-20.8 -14.91,-33.68 l -12.76,-14.03 -208.58,189.17 12.73,14.07 c 11.67,12.87 21.55,18.45 32.06,18.13 z m -113.35,60.44 -15.16,-16.69 -179.55,162.86 15.13,16.7 c 10.08,11.09 18.73,15.67 28.09,14.81 10.54,-0.95 23.39,-8.62 40.47,-24.1 l 95.1,-86.24 c 35.91,-32.57 33.8,-47.68 15.92,-67.34 z m 75.91,170.3 -99.54,90.26 c -74.41,67.52 -154.68,64.82 -220.16,-7.38 l -123.81,-136.48 631.3,-572.63 4.43,-4.02 123.04,135.62 c 13.41,14.76 23.63,30.21 30.74,46.08 28.22,63.03 7.27,132.94 -60.98,194.84 l -99.5,90.25 c -65.55,59.5 -109.22,53.41 -169.21,12.2 30.08,58.62 34.3,103.83 -16.31,151.26"
         style="fill:#ffffff;fill-opacity:1;fill-rule:nonzero;stroke:none"
         id="path64" /><path
         d="m 3831.78,2697.06 c -8.5,-9.38 -15.25,-13.27 -22.59,-13.03 -8.74,0.3 -19.84,6.7 -34.01,19.53 l -424.4,384.91 c -31.87,28.95 -24.98,41.39 -11.99,55.77 12.61,13.9 24.03,21.49 55.85,-7.4 L 3819,2751.93 c 15.1,-13.68 22.62,-24.71 23.06,-33.75 0.28,-6.45 -2.91,-12.94 -10.28,-21.12 z m 82.92,-76.78 c 14.14,15.56 30.54,37.01 41.9,62.35 6.08,13.63 10.72,28.37 12.75,43.92 5.87,44.65 -10.86,85.16 -49.71,120.38 l -440.23,399.31 c -68.94,62.52 -153.09,52.44 -225.11,-26.98 -71.61,-78.82 -73.07,-163.26 -4.14,-225.78 l 440.23,-399.28 c 38.82,-35.22 80.72,-47.96 124.55,-37.91 43.61,10.01 78.33,40.32 99.76,63.99"
         style="fill:#ffffff;fill-opacity:1;fill-rule:nonzero;stroke:none"
         id="path66" /><path
         d="m 4120.78,2869.89 -458.92,416.25 c -1.37,1.17 -2.77,2.34 -4.14,3.5 52.59,-38.62 104.58,-75.6 164.15,-111.77 l 353.36,-240.29 4.3,-2.92 132.93,146.52 -635.77,576.66 -77.53,-85.48 323.14,-293.1 c 26.99,-24.47 55.18,-48.78 82.48,-72.27 22.75,-19.6 46,-39.63 68.84,-59.99 -104.18,78.88 -212.49,153.42 -322.88,222.15 l -208.78,140.18 -134.46,-148.26 635.78,-576.68 77.5,85.5"
         style="fill:#ffffff;fill-opacity:1;fill-rule:nonzero;stroke:none"
         id="path68" /><path
         d="m 3807.77,3605.89 89.78,-81.43 c 54.58,-49.51 140.95,-53.26 224.45,-56.87 75.99,-3.27 147.81,-6.36 188.59,-43.36 l 66.02,-59.89 c 31.84,-28.88 25.33,-40.96 12.79,-54.86 -8.5,-9.39 -15.26,-13.29 -22.6,-13.05 -8.73,0.31 -19.82,6.7 -34,19.53 l -140.96,127.84 -92.67,-102.22 148.8,-134.96 c 38.82,-35.21 80.73,-47.96 124.55,-37.9 43.65,10 78.36,40.29 99.8,63.97 14.1,15.55 30.54,36.99 41.87,62.35 6.11,13.61 10.74,28.37 12.78,43.92 5.84,44.66 -10.89,85.16 -49.71,120.38 l -110.94,100.63 c -35.98,32.64 -130.42,38.68 -221.77,44.52 -68.7,4.39 -139.71,8.93 -158.67,26.13 l -77.47,70.28 c -31.87,28.9 -25.07,41.36 -12,55.75 8.1,8.93 14.63,12.59 21.82,12.27 8.74,-0.4 19.86,-6.84 34,-19.66 l 128.59,-116.65 92.72,102.21 -136.52,123.83 c -38.85,35.23 -80.77,47.94 -124.64,37.76 -43.7,-10.13 -78.77,-40.79 -100.45,-64.73 -21.44,-23.65 -48.27,-61.1 -53.97,-105.53 -5.73,-44.61 11.01,-85.08 49.81,-120.26"
         style="fill:#ffffff;fill-opacity:1;fill-rule:nonzero;stroke:none"
         id="path70" /><path
         d="m 4510.85,2261.44 c 107.8,0.08 172.12,56.02 172.04,149.61 l -0.14,150.62 c -0.05,48.82 -59.41,123.22 -116.84,195.14 -43.17,54.11 -87.83,110.06 -87.86,135.81 l -0.1,105.17 c -0.04,43.22 13.83,46.6 33.4,46.63 12.12,-0.01 19.23,-2.38 23.89,-7.95 5.6,-6.78 8.34,-19.39 8.36,-38.6 l 0.16,-174.58 138.76,0.14 -0.17,185.32 c -0.03,52.75 -18.96,92.56 -56.18,118.31 -37.12,25.85 -83.63,31.01 -116.15,31 -32.11,-0.03 -78.12,-5.46 -115.02,-31.2 -37.09,-25.9 -55.87,-65.73 -55.81,-118.39 l 0.09,-121.94 c 0.08,-74.07 55.7,-140.86 109.47,-205.45 48.99,-58.8 95.25,-114.35 95.3,-169.72 l 0.06,-89.65 c 0.03,-43.24 -13.32,-46.63 -32.18,-46.65 -19.55,0.12 -33.41,3.41 -33.46,46.57 l -0.16,191.33 -138.77,-0.14 0.18,-202.03 c 0.06,-60.37 26.65,-104.99 74.24,-129.08 26.22,-13.27 58.84,-20.32 96.89,-20.27"
         style="fill:#ffffff;fill-opacity:1;fill-rule:nonzero;stroke:none"
         id="path72" /><path
         d="m 4732.29,2278.37 138.72,0.13 -0.77,863.17 -138.73,-0.13 0.78,-863.17"
         style="fill:#ffffff;fill-opacity:1;fill-rule:nonzero;stroke:none"
         id="path74" /><path
         d="m 5076.82,2789.19 h -17.87 l -0.21,239 23.88,0.01 c 14.21,0.03 24.3,-2.56 30.98,-7.53 7.26,-5.58 10.81,-14.8 10.81,-28.23 l 0.14,-154.22 c 0.03,-29.39 -8.07,-48.98 -47.73,-49.03 z m 63.92,-505.69 1.04,-4.75 138.7,0.1 -1.22,7.07 c -13.33,76.34 -14.91,154.56 -16.42,230.22 -0.81,39.39 -1.62,80.14 -4.14,119.34 -4.35,69.28 -49.75,94.06 -97.08,104.61 88.71,19.06 101.71,73 101.66,129.31 l -0.09,120.75 c -0.1,103.6 -54.08,151.78 -169.94,151.71 l -173.36,-0.16 0.75,-863.16 138.78,0.15 -0.38,394.62 c 24.93,0.36 41.25,-4.05 51.18,-13.46 9.91,-9.47 14.53,-25.32 14.55,-49.92 0.01,-17.09 -0.16,-35.07 -0.33,-53.56 -0.79,-89.6 -1.72,-191.12 16.3,-272.87"
         style="fill:#ffffff;fill-opacity:1;fill-rule:nonzero;stroke:none"
         id="path76" /><path
         d="m 5469.43,2374.63 c -19.51,0.11 -33.45,3.39 -33.46,46.57 l -0.52,576.16 c -0.02,19.25 2.74,31.88 8.41,38.59 4.77,5.64 12.24,8.06 24.97,8.06 7.81,-0.01 13.58,-0.99 17.91,-3.18 2.39,-1.21 4.35,-2.81 6,-4.78 5.6,-6.77 8.34,-19.4 8.36,-38.6 l 0.51,-576.16 c 0.03,-43.24 -13.33,-46.62 -32.18,-46.66 z m 170.94,36.01 -0.52,597.69 c -0.04,52.75 -18.96,92.55 -56.19,118.31 -37.07,25.75 -83.62,31.04 -116.14,30.99 -32.11,-0.02 -78.12,-5.46 -115.02,-31.2 -37.09,-25.9 -55.87,-65.73 -55.81,-118.39 l 0.53,-597.68 c 0.05,-52.69 18.91,-92.5 56.04,-118.31 5.62,-3.95 11.47,-7.41 17.44,-10.42 33.2,-16.8 70.44,-20.64 97.66,-20.6 155.37,0.16 172.05,104.67 172.01,149.61"
         style="fill:#ffffff;fill-opacity:1;fill-rule:nonzero;stroke:none"
         id="path78" /><path
         d="m 5821.25,2719.66 -0.28,309.54 16.71,0.02 c 19.51,0.01 31.45,-4.81 38.53,-15.9 7.23,-11.17 10.44,-29.47 10.47,-59.34 l 0.18,-202 c 0.02,-28.61 -25.73,-32 -65.61,-32.32 z m -0.44,423.18 -138.71,-0.15 0.77,-863.15 138.77,0.14 -0.31,326.34 46.6,0.07 c 51.06,0.04 90.47,15.31 117.11,45.44 26.97,30.46 40.6,75.94 40.55,135.2 l -0.17,184.09 c -0.12,120.69 -61.27,172.16 -204.61,172.02"
         style="fill:#ffffff;fill-opacity:1;fill-rule:nonzero;stroke:none"
         id="path80" /><path
         d="m 6391.59,2569.98 c -0.06,48.84 -59.44,123.2 -116.84,195.14 -43.18,54.09 -87.83,110.03 -87.87,135.78 l -0.09,105.17 c -0.02,19.25 2.74,31.89 8.41,38.59 4.75,5.63 12.24,8.04 24.97,8.06 12.13,-0.02 19.3,-2.43 23.9,-7.97 5.59,-6.77 8.34,-19.38 8.35,-38.58 l 0.16,-174.59 138.77,0.13 -0.17,185.32 c -0.04,52.77 -18.95,92.57 -56.2,118.31 -37.04,25.78 -83.6,31.04 -116.12,31 -32.11,-0.03 -78.12,-5.46 -115.02,-31.2 -37.09,-25.91 -55.87,-65.74 -55.82,-118.39 l 0.11,-121.94 c 0.07,-74.07 55.66,-140.85 109.45,-205.45 48.99,-58.79 95.24,-114.33 95.29,-169.7 l 0.07,-89.67 c 0.02,-19.2 -2.69,-31.82 -8.29,-38.62 -4.6,-5.57 -11.75,-7.97 -23.88,-8 -12.77,0.02 -20.21,2.41 -25.01,8 -5.67,6.73 -8.43,19.33 -8.47,38.54 l -0.16,191.34 -138.76,-0.15 0.19,-202.03 c 0.05,-52.69 18.89,-92.49 56.03,-118.32 5.63,-3.9 11.47,-7.35 17.44,-10.37 33.21,-16.81 70.42,-20.67 97.66,-20.62 155.39,0.14 172.06,104.65 172.02,149.59 l -0.12,150.63"
         style="fill:#ffffff;fill-opacity:1;fill-rule:nonzero;stroke:none"
         id="path82" /><path
         d="m 2400.14,2440.92 c 7.07,2.17 10.61,7.6 10.61,13.59 0,8.14 -5.98,14.94 -15.23,14.94 h -35.59 c -9.25,0 -15.24,-6.8 -15.24,-14.94 0,-5.99 3.56,-11.15 10.61,-13.59 3.53,-1.08 4.63,-2.99 4.63,-5.98 v -67.12 c 0,-3 -1.1,-4.88 -4.63,-5.98 -7.05,-2.45 -10.61,-7.6 -10.61,-13.58 0,-8.15 5.99,-14.95 15.24,-14.95 h 35.59 c 9.25,0 15.23,6.8 15.23,14.95 0,5.98 -3.54,11.41 -10.61,13.58 -3.52,1.1 -4.62,2.98 -4.62,5.98 v 67.12 c 0,2.99 1.1,4.9 4.62,5.98"
         style="fill:#ffffff;fill-opacity:1;fill-rule:nonzero;stroke:none"
         id="path84" /><path
         d="m 2488.35,2380.6 c 0,20.92 16.6,37.5 36.97,37.5 20.39,0 36.95,-16.58 36.95,-37.5 0,-19.84 -16.3,-36.68 -36.95,-36.68 -20.67,0 -36.97,16.84 -36.97,36.68 z m 36.97,114.68 c 13.86,0 24.47,-10.87 24.47,-24.47 0,-13.85 -10.61,-24.73 -24.47,-24.73 -13.85,0 -24.46,10.88 -24.46,24.73 0,13.6 10.61,24.47 24.46,24.47 z m 70.67,-115.24 c 0,20.93 -8.7,35.06 -18.76,46.21 l -7.07,7.87 c -2.46,3 -2.99,6.81 -1.1,10.06 l 3,5.15 c 4.08,7.07 8.16,16.05 8.16,28.26 0,29.91 -24.46,51.38 -54.9,51.38 -30.43,0 -54.9,-21.47 -54.9,-51.38 0,-12.21 4.08,-21.19 8.18,-28.26 l 2.97,-5.15 c 1.91,-3.25 1.35,-7.06 -1.1,-10.06 l -7.05,-7.87 c -10.06,-11.15 -18.76,-25.28 -18.76,-46.21 0,-39.39 30.45,-69.28 70.66,-69.28 40.21,0 70.67,29.89 70.67,69.28"
         style="fill:#ffffff;fill-opacity:1;fill-rule:nonzero;stroke:none"
         id="path86" /><path
         d="m 2710.45,2418.1 c 20.37,0 36.96,-16.58 36.96,-37.5 0,-19.84 -16.31,-36.68 -36.96,-36.68 -20.66,0 -36.96,16.84 -36.96,36.68 0,20.92 16.59,37.5 36.96,37.5 z m 0,77.18 c 13.87,0 24.46,-10.87 24.46,-24.47 0,-13.85 -10.59,-24.73 -24.46,-24.73 -13.84,0 -24.45,10.88 -24.45,24.73 0,13.6 10.61,24.47 24.45,24.47 z m -51.89,-69.03 c -10.06,-11.15 -18.76,-25.28 -18.76,-46.21 0,-39.39 30.43,-69.28 70.65,-69.28 40.22,0 70.65,29.89 70.65,69.28 0,20.93 -8.69,35.06 -18.74,46.21 l -7.06,7.87 c -2.46,3 -3,6.81 -1.11,10.06 l 3.01,5.15 c 4.07,7.07 8.16,16.05 8.16,28.26 0,29.91 -24.48,51.38 -54.91,51.38 -30.43,0 -54.89,-21.47 -54.89,-51.38 0,-12.21 4.07,-21.19 8.16,-28.26 l 2.98,-5.15 c 1.91,-3.25 1.36,-7.06 -1.09,-10.06 l -7.05,-7.87"
         style="fill:#ffffff;fill-opacity:1;fill-rule:nonzero;stroke:none"
         id="path88" /><path
         d="m 2888.35,2403.15 c -19.29,0 -35.05,15.76 -35.05,35.06 0,19.56 15.76,35.31 35.05,35.31 19.56,0 35.34,-15.75 35.34,-35.31 0,-19.3 -15.78,-35.06 -35.34,-35.06 z m 4.35,-47.55 c -1.08,-3.27 -2.17,-5.7 -2.17,-9.24 0,-8.7 6.24,-15.23 15.22,-15.23 6.52,0 11.13,3.54 14.39,8.98 l 4.62,7.89 c 20.66,35.31 36.42,62.49 36.42,88.85 0,43.48 -33.96,73.36 -72.28,73.36 -41.32,0 -72.83,-32.87 -72.83,-69.01 0,-35.88 25.83,-63.32 61.94,-63.32 6.27,0 11.96,1.08 14.42,1.63 4.89,1.08 7.34,-1.63 5.7,-6.52 l -5.43,-17.39"
         style="fill:#ffffff;fill-opacity:1;fill-rule:nonzero;stroke:none"
         id="path90" /></g></g></svg>
