<svg width="401" height="328" viewBox="0 0 401 328" fill="none" xmlns="http://www.w3.org/2000/svg">
<path d="M41.0959 235.402C41.2727 235.207 41.4886 235.052 41.7295 234.947C41.9703 234.841 42.2306 234.788 42.4935 234.79C43.069 234.801 43.6217 235.018 44.0507 235.402C46.5618 237.468 48.96 238.521 51.1362 238.521C54.3753 238.521 56.828 236.899 56.828 233.936C56.828 226.229 39.1415 228.128 39.1415 215.388C39.1415 209.54 43.7159 204.605 51.3036 204.605C54.573 204.528 57.8 205.357 60.6277 207.003C60.9366 207.187 61.1918 207.449 61.368 207.763C61.5442 208.077 61.6353 208.432 61.6321 208.792C61.6253 209.127 61.5285 209.454 61.3518 209.739L60.2929 211.583C60.1105 211.915 59.8444 212.192 59.5213 212.389C59.1982 212.585 58.8293 212.693 58.4514 212.702C58.1037 212.709 57.7594 212.633 57.447 212.48C55.7226 211.575 53.8142 211.078 51.8681 211.026C48.4617 211.026 46.4178 212.757 46.4178 215.314C46.4178 223.415 64.1042 220.846 64.1042 233.862C64.1042 240.454 58.358 244.926 51.0506 244.926C46.8071 244.926 43.35 243.756 39.4997 240.178C39.2718 239.977 39.0877 239.732 38.9591 239.457C38.8304 239.182 38.76 238.883 38.7522 238.579C38.7505 238.119 38.9311 237.678 39.2544 237.351L41.0959 235.402Z" fill="#575757"/>
<path d="M116.759 207.186C116.932 206.624 117.279 206.133 117.75 205.782C118.221 205.432 118.792 205.241 119.379 205.237H120.936C122.275 205.237 123.167 205.966 123.167 207.307C123.157 207.648 123.101 207.987 123 208.313L113.29 242.388C113.118 242.95 112.77 243.442 112.299 243.793C111.828 244.143 111.257 244.334 110.67 244.337H108.381C107.78 244.337 107.195 244.149 106.706 243.8C106.218 243.451 105.85 242.957 105.656 242.388L96.8922 216.07L88.2456 242.388C88.0696 242.959 87.7135 243.458 87.2306 243.81C86.7477 244.161 86.164 244.346 85.5671 244.337H83.2312C82.6388 244.328 82.0637 244.135 81.5844 243.787C81.1051 243.438 80.7448 242.949 80.5527 242.388L70.3878 208.305C70.3239 208.049 70.2861 207.788 70.2749 207.525C70.259 207.229 70.3035 206.934 70.4058 206.656C70.5081 206.378 70.6659 206.124 70.8697 205.909C71.0734 205.695 71.3188 205.524 71.5907 205.408C71.8626 205.291 72.1554 205.232 72.4511 205.233H75.1374C75.725 205.236 76.2964 205.426 76.7683 205.777C77.2403 206.128 77.5881 206.62 77.7614 207.182L85.0649 233.122L93.1548 207.194C93.3409 206.629 93.6996 206.137 94.1802 205.787C94.6608 205.437 95.2391 205.247 95.8333 205.245H98.4962C99.0929 205.236 99.6763 205.422 100.159 205.773C100.642 206.125 100.998 206.623 101.175 207.194L109.486 233.176L116.759 207.186Z" fill="#575757"/>
<path d="M139.966 242.275C139.958 242.821 139.737 243.343 139.351 243.728C138.965 244.114 138.444 244.334 137.898 244.341H135.173C134.628 244.334 134.108 244.114 133.722 243.728C133.337 243.342 133.117 242.821 133.11 242.275V207.299C133.117 206.753 133.337 206.231 133.722 205.844C134.107 205.458 134.628 205.237 135.173 205.229H137.898C138.444 205.237 138.965 205.458 139.351 205.844C139.737 206.231 139.958 206.753 139.966 207.299V242.275Z" fill="#575757"/>
<path d="M153.856 235.402C154.032 235.207 154.248 235.052 154.488 234.947C154.728 234.841 154.988 234.788 155.25 234.79C155.826 234.8 156.379 235.017 156.807 235.402C159.318 237.468 161.721 238.521 163.897 238.521C167.132 238.521 169.589 236.899 169.589 233.936C169.589 226.229 151.898 228.128 151.898 215.388C151.898 209.54 156.473 204.605 164.064 204.605C167.332 204.528 170.558 205.358 173.384 207.003C173.693 207.187 173.948 207.449 174.125 207.763C174.301 208.077 174.392 208.432 174.389 208.792C174.384 209.127 174.287 209.455 174.108 209.739L173.05 211.583C172.868 211.915 172.602 212.194 172.279 212.39C171.956 212.587 171.586 212.694 171.208 212.702C170.86 212.709 170.516 212.633 170.204 212.48C168.479 211.575 166.571 211.078 164.625 211.026C161.222 211.026 159.155 212.757 159.155 215.314C159.155 223.415 176.845 220.846 176.845 233.862C176.845 240.454 171.099 244.926 163.788 244.926C159.548 244.926 156.087 243.756 152.237 240.178C152.01 239.973 151.829 239.722 151.704 239.443C151.579 239.164 151.514 238.862 151.513 238.556C151.511 238.096 151.692 237.654 152.015 237.328L153.856 235.402Z" fill="#575757"/>
<path d="M186.995 235.402C187.172 235.207 187.388 235.052 187.628 234.947C187.869 234.841 188.13 234.788 188.392 234.79C188.968 234.801 189.521 235.018 189.95 235.402C192.461 237.468 194.859 238.521 197.035 238.521C200.274 238.521 202.727 236.899 202.727 233.936C202.727 226.229 185.04 228.128 185.04 215.388C185.04 209.54 189.615 204.605 197.203 204.605C200.472 204.528 203.699 205.357 206.527 207.003C206.835 207.187 207.091 207.449 207.267 207.763C207.443 208.077 207.534 208.432 207.531 208.792C207.524 209.127 207.427 209.454 207.251 209.739L206.192 211.583C206.009 211.915 205.743 212.192 205.42 212.389C205.097 212.585 204.728 212.693 204.35 212.702C204.003 212.709 203.658 212.633 203.346 212.48C201.621 211.581 199.714 211.089 197.771 211.041C194.364 211.041 192.301 212.772 192.301 215.329C192.301 223.43 209.991 220.861 209.991 233.878C209.991 240.47 204.241 244.941 196.934 244.941C192.69 244.941 189.233 243.772 185.383 240.193C185.156 239.99 184.974 239.741 184.848 239.463C184.722 239.185 184.655 238.884 184.651 238.579C184.649 238.119 184.83 237.678 185.153 237.351L186.995 235.402Z" fill="#575757"/>
<path d="M230.571 244.341C230.026 244.333 229.506 244.113 229.12 243.727C228.735 243.341 228.515 242.821 228.507 242.275V211.657H217.906C217.361 211.649 216.84 211.428 216.455 211.042C216.069 210.655 215.85 210.134 215.843 209.587V207.299C215.85 206.753 216.069 206.231 216.455 205.844C216.84 205.458 217.361 205.237 217.906 205.229H245.972C246.517 205.237 247.039 205.458 247.425 205.844C247.811 206.231 248.031 206.753 248.039 207.299V209.587C248.031 210.134 247.811 210.656 247.425 211.042C247.039 211.429 246.517 211.649 245.972 211.657H235.371V242.275C235.364 242.821 235.144 243.342 234.759 243.728C234.373 244.114 233.852 244.334 233.307 244.341H230.571Z" fill="#575757"/>
<path d="M279.951 242.275C279.943 242.821 279.722 243.343 279.336 243.728C278.95 244.114 278.429 244.334 277.884 244.341H258.858C258.313 244.334 257.792 244.114 257.407 243.728C257.021 243.342 256.802 242.821 256.795 242.275V207.299C256.802 206.753 257.021 206.231 257.407 205.844C257.792 205.458 258.313 205.237 258.858 205.229H277.327C277.872 205.237 278.393 205.458 278.778 205.844C279.164 206.231 279.383 206.753 279.39 207.299V209.587C279.383 210.134 279.164 210.655 278.778 211.042C278.393 211.428 277.872 211.649 277.327 211.657H263.654V221.38H275.653C276.198 221.387 276.72 221.607 277.106 221.993C277.492 222.378 277.712 222.9 277.72 223.446V225.738C277.711 226.284 277.49 226.805 277.104 227.191C276.719 227.576 276.198 227.796 275.653 227.804H263.654V237.917H277.884C278.429 237.925 278.949 238.145 279.335 238.531C279.721 238.916 279.942 239.437 279.951 239.983V242.275Z" fill="#575757"/>
<path d="M308.725 211.042C301.468 211.042 296.002 216.293 296.002 224.787C296.002 232.943 301.527 238.533 309.504 238.533C312.128 238.533 314.304 237.804 316.535 236.584C316.932 236.376 317.371 236.261 317.819 236.248C318.175 236.228 318.529 236.307 318.844 236.474C319.158 236.642 319.421 236.893 319.602 237.2L320.607 238.759C320.869 239.136 321.005 239.586 320.996 240.045C321.002 240.349 320.934 240.649 320.798 240.921C320.663 241.193 320.464 241.427 320.218 241.605C316.883 243.879 312.922 245.051 308.889 244.957C296.948 244.957 288.746 236.966 288.746 224.787C288.746 213.556 295.835 204.617 308.725 204.617C312.182 204.617 316.032 205.787 318.933 207.408C319.255 207.542 319.532 207.767 319.73 208.054C319.928 208.342 320.039 208.681 320.05 209.03C320.035 209.425 319.92 209.81 319.715 210.149L318.547 212.215C318.391 212.528 318.153 212.791 317.858 212.978C317.563 213.165 317.222 213.268 316.873 213.275C316.443 213.271 316.02 213.155 315.647 212.94C313.482 211.825 311.306 211.042 308.725 211.042Z" fill="#575757"/>
<path d="M362.248 242.275C362.24 242.821 362.019 243.343 361.633 243.728C361.247 244.114 360.726 244.334 360.181 244.341H357.506C356.961 244.334 356.439 244.114 356.053 243.728C355.667 243.343 355.447 242.821 355.439 242.275V227.637H337.585V242.275C337.577 242.821 337.356 243.343 336.97 243.728C336.584 244.114 336.063 244.334 335.518 244.341H332.792C332.247 244.334 331.727 244.114 331.341 243.728C330.956 243.342 330.736 242.821 330.729 242.275V207.299C330.736 206.753 330.956 206.231 331.341 205.844C331.726 205.458 332.247 205.237 332.792 205.229H335.518C336.063 205.237 336.584 205.458 336.97 205.844C337.356 206.231 337.577 206.753 337.585 207.299V221.212H355.443V207.299C355.451 206.753 355.671 206.231 356.057 205.844C356.443 205.458 356.964 205.237 357.51 205.229H360.184C360.73 205.237 361.251 205.458 361.637 205.844C362.023 206.231 362.244 206.753 362.252 207.299L362.248 242.275Z" fill="#575757"/>
<path d="M88.8801 263.728C89.6237 263.728 90.0481 264.118 90.3712 264.897L98.4105 284.416L106.236 264.897C106.594 264.044 107.014 263.728 107.661 263.728C107.844 263.717 108.028 263.744 108.2 263.808C108.373 263.871 108.531 263.969 108.664 264.096C108.797 264.223 108.903 264.375 108.975 264.545C109.047 264.714 109.083 264.897 109.082 265.081C109.065 265.288 109.018 265.491 108.941 265.685L99.8704 287.948C99.5862 288.658 99.158 289.087 98.3404 289.087C97.9952 289.081 97.6601 288.969 97.3812 288.765C97.1023 288.561 96.8934 288.276 96.7832 287.948L87.5253 265.868C87.4458 265.663 87.3986 265.448 87.3852 265.229C87.3764 265.03 87.409 264.831 87.4809 264.645C87.5529 264.459 87.6626 264.29 87.8032 264.149C87.9438 264.008 88.1121 263.898 88.2975 263.825C88.4828 263.753 88.6813 263.72 88.8801 263.728Z" fill="#575757"/>
<path d="M129.89 263.728C130.281 263.728 130.656 263.881 130.935 264.154C131.215 264.427 131.376 264.799 131.385 265.19V287.59C131.366 287.978 131.198 288.344 130.916 288.612C130.635 288.88 130.261 289.029 129.873 289.029C129.484 289.029 129.111 288.88 128.829 288.612C128.548 288.344 128.38 287.978 128.36 287.59V265.19C128.372 264.793 128.539 264.417 128.825 264.144C129.112 263.87 129.494 263.72 129.89 263.728Z" fill="#575757"/>
<path d="M167.704 285.987C168.069 286.006 168.412 286.165 168.663 286.43C168.915 286.695 169.055 287.047 169.055 287.412C169.055 287.778 168.915 288.129 168.663 288.394C168.412 288.659 168.069 288.818 167.704 288.837H155.289C154.893 288.835 154.514 288.677 154.234 288.396C153.954 288.116 153.796 287.736 153.794 287.34V265.19C153.814 264.801 153.982 264.435 154.263 264.167C154.545 263.899 154.918 263.75 155.307 263.75C155.695 263.75 156.068 263.899 156.35 264.167C156.631 264.435 156.799 264.801 156.819 265.19V285.987H167.704Z" fill="#575757"/>
<path d="M201.497 285.991C201.861 286.01 202.204 286.169 202.456 286.434C202.707 286.699 202.847 287.051 202.847 287.416C202.847 287.782 202.707 288.133 202.456 288.398C202.204 288.663 201.861 288.822 201.497 288.841H189.081C188.686 288.838 188.307 288.679 188.028 288.399C187.748 288.119 187.59 287.74 187.586 287.344V265.19C187.606 264.801 187.774 264.435 188.056 264.167C188.337 263.899 188.711 263.75 189.099 263.75C189.487 263.75 189.861 263.899 190.142 264.167C190.424 264.435 190.592 264.801 190.611 265.19V285.991H201.497Z" fill="#575757"/>
<path d="M235.429 281.286H224.081L221.239 288.088C220.916 288.868 220.46 289.086 219.884 289.086C219.698 289.096 219.511 289.067 219.337 289.001C219.163 288.936 219.004 288.834 218.87 288.704C218.737 288.574 218.631 288.417 218.561 288.244C218.491 288.071 218.458 287.885 218.463 287.699C218.476 287.478 218.523 287.261 218.603 287.055L228.137 264.936C228.27 264.58 228.508 264.273 228.82 264.057C229.132 263.841 229.502 263.726 229.881 263.728C230.255 263.73 230.619 263.847 230.924 264.063C231.229 264.279 231.46 264.584 231.587 264.936L241.086 286.95C241.155 287.144 241.19 287.348 241.191 287.554C241.201 287.752 241.171 287.95 241.102 288.136C241.033 288.322 240.927 288.492 240.79 288.635C240.654 288.778 240.489 288.892 240.307 288.97C240.125 289.048 239.929 289.087 239.731 289.086C239.421 289.084 239.119 288.987 238.866 288.809C238.612 288.63 238.418 288.379 238.31 288.088L235.429 281.286ZM229.772 267.786L225.291 278.436H234.246L229.772 267.786Z" fill="#575757"/>
<path d="M260.369 276.37C260.369 282.428 264.207 286.346 269.864 286.346C272.2 286.346 274.948 285.418 276.268 284.136V279.006H270.931C270.566 278.987 270.223 278.828 269.972 278.563C269.72 278.298 269.58 277.946 269.58 277.581C269.58 277.215 269.72 276.864 269.972 276.599C270.223 276.334 270.566 276.175 270.931 276.156H277.619C278.014 276.159 278.392 276.318 278.671 276.598C278.95 276.878 279.108 277.257 279.11 277.653V284.779C279.109 285.105 279.031 285.427 278.883 285.717C278.735 286.008 278.52 286.259 278.257 286.452C275.98 288.198 272.531 289.18 269.794 289.18C262.039 289.18 257.164 284.112 257.164 276.359C257.164 269.201 261.969 263.537 269.401 263.537C271.789 263.48 274.149 264.071 276.229 265.248C276.445 265.36 276.628 265.527 276.759 265.733C276.891 265.938 276.966 266.174 276.977 266.418C276.973 266.682 276.899 266.94 276.763 267.166C276.642 267.367 276.47 267.532 276.265 267.645C276.06 267.758 275.829 267.815 275.595 267.81C275.271 267.804 274.954 267.719 274.672 267.56C273.153 266.777 271.467 266.376 269.759 266.391C264.207 266.398 260.369 270.351 260.369 276.37Z" fill="#575757"/>
<path d="M312.229 285.988C312.593 286.007 312.937 286.165 313.188 286.43C313.439 286.695 313.579 287.047 313.579 287.412C313.579 287.778 313.439 288.129 313.188 288.395C312.937 288.66 312.593 288.818 312.229 288.837H300.705C300.309 288.836 299.929 288.678 299.649 288.398C299.369 288.117 299.211 287.737 299.21 287.34V265.4C299.215 265.006 299.375 264.63 299.655 264.353C299.934 264.076 300.312 263.92 300.705 263.919H311.871C312.248 263.919 312.609 264.069 312.876 264.336C313.142 264.603 313.292 264.964 313.292 265.342C313.292 265.719 313.142 266.081 312.876 266.348C312.609 266.615 312.248 266.765 311.871 266.765H302.235V274.815H310.8C311.165 274.834 311.508 274.992 311.759 275.258C312.01 275.523 312.151 275.874 312.151 276.24C312.151 276.605 312.01 276.957 311.759 277.222C311.508 277.487 311.165 277.645 310.8 277.665H302.235V285.999L312.229 285.988Z" fill="#575757"/>
<path d="M200.496 39.1123C174.751 39.1123 153.806 60.9431 153.806 87.7872C153.806 94.2 155.924 102.043 160.288 111.774C163.383 118.67 167.642 126.588 172.952 135.335C179.905 146.781 186.94 156.776 189.642 160.534C190.881 162.259 192.511 163.664 194.398 164.634C196.285 165.605 198.375 166.113 200.496 166.117C202.617 166.113 204.706 165.605 206.593 164.635C208.479 163.664 210.108 162.259 211.346 160.534C214.048 156.773 221.079 146.785 228.04 135.335C233.35 126.599 237.609 118.67 240.704 111.77C245.072 102.043 247.214 94.2 247.214 87.7872C247.214 60.947 226.245 39.1123 200.496 39.1123ZM226.452 90.5394C222.43 90.7928 219.094 87.448 219.055 83.4132C219.015 79.2237 217.563 75.1706 214.933 71.9115C212.304 68.6524 208.652 66.3786 204.57 65.459C200.488 64.5395 196.215 65.0282 192.446 66.8458C188.676 68.6635 185.63 71.7034 183.802 75.4723C182.436 78.2986 183.024 81.5069 185.126 82.77C188.287 84.6646 192.601 86.3097 197.171 88.0523C208.411 92.3405 222.399 97.6695 225.537 110.881C227.483 119.091 222.644 127.04 220.573 130.431L220.429 130.673C214.901 139.776 209.295 147.748 207.142 150.742C206.391 151.798 205.4 152.66 204.25 153.256C203.1 153.851 201.825 154.164 200.53 154.166C199.236 154.169 197.959 153.862 196.807 153.271C195.654 152.68 194.66 151.822 193.905 150.769C191.744 147.756 186.119 139.764 180.548 130.607C177.608 125.761 175.055 121.208 172.956 117.06C171.212 113.602 172.469 109.263 175.915 107.521C179.36 105.778 183.312 107.291 185.282 110.596L197.456 130.829C198.507 132.579 199.519 133.219 200.504 133.219C201.489 133.219 202.497 132.579 203.552 130.829L210.914 118.592C212.035 116.725 212.238 115.161 211.989 114.105C210.552 108.066 201.224 104.507 192.204 101.069C187.275 99.1899 182.179 97.2446 177.97 94.7224C169.592 89.7052 166.712 78.8171 171.27 69.383C174.478 62.7649 179.832 57.4317 186.459 54.2548C193.085 51.0779 200.591 50.245 207.751 51.8922C214.911 53.5395 221.301 57.5695 225.878 63.3238C230.455 69.0782 232.948 76.2167 232.949 83.5731C232.954 85.3433 232.285 87.0489 231.079 88.343C229.873 89.6371 228.219 90.4225 226.455 90.5394H226.452Z" fill="url(#paint0_linear_8_247)"/>
<defs>
<linearGradient id="paint0_linear_8_247" x1="162.721" y1="133.819" x2="238.38" y2="58.2573" gradientUnits="userSpaceOnUse">
<stop stop-color="#E20613"/>
<stop offset="1" stop-color="#981711"/>
</linearGradient>
</defs>
</svg>
