<svg xmlns="http://www.w3.org/2000/svg" viewBox="0 0 1074.71 810.7"><defs><style>.cls-1{fill:#69fff0;}.cls-2{fill:#7f5af0;}</style></defs><title>Fichier 3</title><g id="Calque_2" data-name="Calque 2"><g id="Calque_1-2" data-name="Calque 1"><path class="cls-1" d="M756.52,810.7H318.19A55.14,55.14,0,0,1,263,755.58V723.15H55.19A55.16,55.16,0,0,1,0,668V405.35a55.16,55.16,0,0,1,55.19-55.12H87.67V317.79a55.16,55.16,0,0,1,55.18-55.12h32.48V230.24a54.7,54.7,0,0,1,16.17-39,56.25,56.25,0,0,1,5.47-4.8,55.43,55.43,0,0,1-21.64-43.78V55.12A55.16,55.16,0,0,1,230.52,0h87.67a55.16,55.16,0,0,1,55.19,55.12V87.56h32.47A55.14,55.14,0,0,1,461,142.68v32.44H613.67V142.68a55.14,55.14,0,0,1,55.18-55.12h32.48V55.12A55.16,55.16,0,0,1,756.52,0h87.67a55.14,55.14,0,0,1,55.18,55.12v87.56a54.73,54.73,0,0,1-16.16,39,54,54,0,0,1-5.48,4.81,55.18,55.18,0,0,1,21.64,43.78v32.43h32.48A55.16,55.16,0,0,1,987,317.79v32.44h32.48a55.17,55.17,0,0,1,55.19,55.12V668a55.17,55.17,0,0,1-55.19,55.12H811.71v32.43a55.16,55.16,0,0,1-55.19,55.12ZM55.19,377.54a27.86,27.86,0,0,0-27.85,27.81V668a27.86,27.86,0,0,0,27.85,27.81H290.34v59.74a27.86,27.86,0,0,0,27.85,27.82H756.52a27.86,27.86,0,0,0,27.85-27.82V695.84h235.15A27.87,27.87,0,0,0,1047.37,668V405.35a27.87,27.87,0,0,0-27.85-27.81H959.7V317.79A27.86,27.86,0,0,0,931.85,290H872V230.24a27.86,27.86,0,0,0-27.84-27.82H784.37V170.49h59.82A27.86,27.86,0,0,0,872,142.68V55.12a27.85,27.85,0,0,0-27.84-27.81H756.52a27.86,27.86,0,0,0-27.85,27.81v59.74H668.85A27.86,27.86,0,0,0,641,142.68v59.74H433.7V142.68a27.86,27.86,0,0,0-27.85-27.82H346V55.12a27.86,27.86,0,0,0-27.85-27.81H230.52a27.86,27.86,0,0,0-27.85,27.81v87.56a27.87,27.87,0,0,0,27.85,27.81h59.82v31.93H230.52a27.87,27.87,0,0,0-27.85,27.82V290H142.85A27.86,27.86,0,0,0,115,317.79v59.75Z"/><path id="rect3076" class="cls-2" d="M230.52,55.12v87.56h87.67V55.12Zm87.67,87.56v87.56H230.52v87.55H142.85v87.56H55.19V668h87.66V492.91h87.67V668h87.67V580.47H756.52V668h87.67V492.91h87.66V668h87.67V405.35H931.85V317.79H844.19V230.24H756.52V142.68H668.85v87.56h-263V142.68Zm438.33,0h87.67V55.12H756.52Zm0,525.35H581.19v87.55H756.52Zm-438.33,0v87.55H493.52V668Zm-1.69-352h91v91h-91Zm350.67,0h91v91h-91Z"/></g></g></svg>