<svg xmlns="http://www.w3.org/2000/svg" viewBox="0 0 1624.41 937.5"><defs><style>.cls-1{fill:#69fff0;}.cls-2{fill:#7f5af0;}</style></defs><title>Fichier 4</title><g id="Calque_2" data-name="Calque 2"><g id="Calque_1-2" data-name="Calque 1"><path class="cls-1" d="M845.07,433.88a321.64,321.64,0,0,1-76.5-9q-36.9-9-60.75-23.4l34.2-77.4A218.54,218.54,0,0,0,792.19,345,195.75,195.75,0,0,0,846,352.88q15.28,0,24.07-2T882.87,345a12.21,12.21,0,0,0,4-9.22q0-8.55-9.45-13.5t-25-8.33q-15.53-3.37-34-7.2a315.76,315.76,0,0,1-37.13-10.12A144.7,144.7,0,0,1,747.19,280a77.9,77.9,0,0,1-25-27.23q-9.45-16.87-9.45-42.07a92.58,92.58,0,0,1,16.42-53.33q16.42-24.06,49-38.47t81.23-14.4a295.72,295.72,0,0,1,63,6.75q31,6.75,55.8,20.7l-31.95,76.95a241.24,241.24,0,0,0-45.23-17.55,163.94,163.94,0,0,0-42.52-5.85q-15.3,0-24.3,2.7t-12.83,7.2a14.94,14.94,0,0,0-3.82,9.9q0,8.1,9.45,12.82T852,226q15.53,3.15,34.2,6.75a277.58,277.58,0,0,1,37.13,9.9,145.92,145.92,0,0,1,34,16.65,78.51,78.51,0,0,1,25,27q9.45,16.65,9.45,41.4a91.8,91.8,0,0,1-16.43,52.87q-16.43,24.09-48.82,38.7T845.07,433.88Z"/><path class="cls-1" d="M1477.71,433.88a321.7,321.7,0,0,1-76.5-9q-36.9-9-60.75-23.4l34.2-77.4A218.62,218.62,0,0,0,1424.84,345a195.68,195.68,0,0,0,53.77,7.88q15.3,0,24.08-2t12.82-5.85a12.21,12.21,0,0,0,4-9.22q0-8.55-9.45-13.5t-25-8.33q-15.53-3.37-34-7.2A315.6,315.6,0,0,1,1414,296.63a144.7,144.7,0,0,1-34.2-16.65,77.92,77.92,0,0,1-25-27.23q-9.45-16.87-9.45-42.07a92.52,92.52,0,0,1,16.43-53.33q16.42-24.06,49.05-38.47t81.22-14.4a295.72,295.72,0,0,1,63,6.75q31,6.75,55.8,20.7l-32,76.95a241.17,241.17,0,0,0-45.22-17.55,164,164,0,0,0-42.53-5.85q-15.3,0-24.3,2.7t-12.82,7.2a15,15,0,0,0-3.83,9.9q0,8.1,9.45,12.82t25,7.88q15.52,3.15,34.2,6.75a277.44,277.44,0,0,1,37.12,9.9,146,146,0,0,1,34,16.65,78.48,78.48,0,0,1,25,27q9.45,16.65,9.45,41.4A91.79,91.79,0,0,1,1608,380.55q-16.44,24.09-48.83,38.7T1477.71,433.88Z"/><path class="cls-1" d="M1070.77,831.24H959.18l-.51-106.51-41.59,78.16H860.31l-41.37-74.56V831.24H707.32v-340h98.06l84.4,153.87,82-153.87h98.13Zm-86.71-25h61.64l-.74-290H986.77L890.1,697.68,790.57,516.24H732.32v290h61.62V631.75L875,777.89h27L983.2,625.4Z"/><path class="cls-1" d="M1241.23,831.24H1110v-340h131.2Zm-106.2-25h81.2v-290H1135Z"/><path class="cls-1" d="M1465.93,838.44c-26.56,0-51.57-4.27-74.32-12.7a177.56,177.56,0,0,1-60-36.56A167.51,167.51,0,0,1,1292,732.81c-9.34-21.57-14.08-45.65-14.08-71.57s4.74-50,14.08-71.56a167.61,167.61,0,0,1,39.61-56.37,177.78,177.78,0,0,1,60-36.56c22.75-8.43,47.76-12.71,74.32-12.71,32.55,0,61.91,5.83,87.28,17.32a165.47,165.47,0,0,1,64,50.59l7,9.2-85.57,76.38-8.24-10.36c-8.26-10.39-17.43-18.52-27.26-24.16-9.41-5.39-19.81-8-31.8-8a68.55,68.55,0,0,0-25.51,4.51,50.85,50.85,0,0,0-18.68,12.68A61.1,61.1,0,0,0,1414.65,633a89,89,0,0,0,0,56.59,61,61,0,0,0,12.48,20.76A50.79,50.79,0,0,0,1445.82,723a68.55,68.55,0,0,0,25.51,4.5c12,0,22.4-2.62,31.8-8,9.82-5.63,19-13.76,27.26-24.16l8.24-10.36,85.63,76.43-7.16,9.22a169.11,169.11,0,0,1-63.83,50.27C1527.88,832.53,1498.49,838.44,1465.93,838.44Zm0-329.4c-23.59,0-45.67,3.75-65.63,11.15a153,153,0,0,0-51.62,31.39,143,143,0,0,0-33.73,48c-8,18.42-12,39.16-12,61.63s4,43.22,12,61.64a142.67,142.67,0,0,0,33.73,48,152.73,152.73,0,0,0,51.62,31.4c20,7.39,42,11.14,65.63,11.14,28.94,0,54.81-5.14,76.91-15.28a145.36,145.36,0,0,0,47-34l-48.57-43.35a114.88,114.88,0,0,1-25.7,20.33c-13.1,7.52-28,11.33-44.24,11.33a93.21,93.21,0,0,1-34.79-6.29,76.24,76.24,0,0,1-27.67-18.82,85.9,85.9,0,0,1-17.67-29.18,113.76,113.76,0,0,1,0-73.91,85.93,85.93,0,0,1,17.67-29.18,76.28,76.28,0,0,1,27.67-18.82,93.21,93.21,0,0,1,34.79-6.3c16.24,0,31.12,3.82,44.24,11.33a115.79,115.79,0,0,1,25.7,20.34l48.64-43.41a141.33,141.33,0,0,0-47-34.12C1520.79,514.12,1494.89,509,1465.93,509Z"/><rect class="cls-1" x="626.72" y="48.44" width="23.24" height="839.48" transform="translate(1276.68 936.36) rotate(180)"/><path class="cls-2" d="M574.29,205,521.6,152.32l-52.75,52.75-52.69-52.69L363.4,205.14l52.69,52.69L257.83,416.09,205.14,363.4l-52.76,52.76,52.69,52.69L152.32,521.6,205,574.29l-52.76,52.76,52.69,52.69-52.75,52.75L310.26,890.56,363,837.81,257.63,732.43l52.76-52.76L415.77,785.05l52.75-52.75-52.69-52.69L603.48,492V175.82ZM310.48,576.29,255.7,521.5l54.78-54.78,54.79,54.78ZM466.72,310.48,521.5,255.7l54.79,54.78L521.5,365.27Z"/><rect class="cls-2" x="378.89" y="62.4" width="74.61" height="74.51" transform="translate(51.43 323.48) rotate(-45)"/><rect class="cls-2" x="62.36" y="378.93" width="74.61" height="74.51" transform="translate(-265.1 192.37) rotate(-45)"/><polygon class="cls-2" points="574.03 626.79 468.52 732.3 521.21 784.99 603.48 702.72 603.48 656.24 574.03 626.79"/><path class="cls-1" d="M603.48,736.19,538,801.72a23.72,23.72,0,0,1-33.5,0l-35.95-36L327,907.3a23.7,23.7,0,0,1-33.49,0L135.43,749.25a23.7,23.7,0,0,1,0-33.49l36-36-36-36a23.72,23.72,0,0,1,0-33.5l36-36-35.95-35.95a23.7,23.7,0,0,1,0-33.49l36-36-19.22-19.22-36,36a23.7,23.7,0,0,1-33.49,0L30.18,433a23.7,23.7,0,0,1,0-33.49L83,346.73a23.7,23.7,0,0,1,33.49,0l36,36,36-36a23.73,23.73,0,0,1,33.5,0l36,36L382.6,257.85l-36-36a23.73,23.73,0,0,1,0-33.5l36-36-36-35.95a23.7,23.7,0,0,1,0-33.49L399.49,30.2a23.7,23.7,0,0,1,33.49,0l52.69,52.69a23.7,23.7,0,0,1,0,33.49l-36,36,19.22,19.22,36-36a23.7,23.7,0,0,1,33.49,0l35.95,35.95,29.17-29.17V111.68a47.25,47.25,0,0,0-9.6,7.4l-19.55,19.55-19.52-19.52a46.56,46.56,0,0,0-33.18-13.73,48.72,48.72,0,0,0-6.18.4,48.72,48.72,0,0,0,.4-6.18,46.56,46.56,0,0,0-13.73-33.18L449.43,13.73a46.93,46.93,0,0,0-66.38,0L330.3,66.52a46.93,46.93,0,0,0,0,66.38l19.52,19.52L330.23,172a47,47,0,0,0,0,66.38l19.52,19.52-91.84,91.84-19.52-19.52a47,47,0,0,0-66.38,0l-19.55,19.55L132.9,330.26a46.93,46.93,0,0,0-66.38,0L13.77,383.05a46.93,46.93,0,0,0,0,66.38l52.69,52.69A46.56,46.56,0,0,0,99.6,515.85a48.72,48.72,0,0,0,6.18-.4,48.72,48.72,0,0,0-.4,6.18,46.56,46.56,0,0,0,13.73,33.18l19.52,19.52-19.55,19.55a46.93,46.93,0,0,0,0,66.38l19.52,19.52L119,699.32a46.93,46.93,0,0,0,0,66.38L277.05,923.77a46.93,46.93,0,0,0,66.38,0L468.48,798.68,488,818.2a47,47,0,0,0,66.38,0l49.1-49.11Z"/><polygon class="cls-1" points="1175.63 426.68 1175.63 213.26 1175.62 213.28 1115.77 111.68 1003.72 111.68 1122.52 311.18 1122.52 426.68 1175.63 426.68"/><polygon class="cls-1" points="1235.5 111.68 1175.65 213.28 1175.63 213.26 1175.62 213.28 1115.77 111.68 1003.72 111.68 1122.52 311.18 1122.52 426.68 1175.63 426.68 1228.75 426.68 1228.75 311.18 1347.55 111.68 1235.5 111.68"/></g></g></svg>