<?xml version="1.0" encoding="UTF-8"?>
<svg id="_レイヤー_1" data-name="レイヤー_1" xmlns="http://www.w3.org/2000/svg" xmlns:xlink="http://www.w3.org/1999/xlink" viewBox="0 0 8192 177.2">
  <defs>
    <style>
      .cls-1 {
        fill: none;
      }

      .cls-2 {
        fill: #fff;
      }

      .cls-3 {
        clip-path: url(#clippath);
      }
    </style>
    <clipPath id="clippath">
      <rect class="cls-1" x="0" y="10.46" width="8192" height="156.28"/>
    </clipPath>
  </defs>
  <g class="cls-3">
    <g>
      <g id="Calque_1-2">
        <path class="cls-2" d="M109.46,87.45l62.87-22.25-59.03,10.38c-3.95.7-7.95-.93-10.29-4.19L59.27,10.46l25.99,96.95-10.42-14.51c-2.71-3.77-7.58-5.31-11.96-3.75L0,111.39l59.03-10.38c3.95-.7,7.95.93,10.29,4.19l43.74,60.94-25.99-96.95,10.42,14.51c2.71,3.77,7.58,5.31,11.96,3.75h0Z"/>
      </g>
      <g id="Calque_1-2-2" data-name="Calque_1-2">
        <path class="cls-2" d="M291.7,87.45l62.87-22.25-59.03,10.38c-3.95.7-7.95-.93-10.29-4.19l-43.74-60.93,25.99,96.95-10.42-14.51c-2.71-3.77-7.58-5.31-11.96-3.75l-62.87,22.25,59.03-10.38c3.95-.7,7.95.93,10.29,4.19l43.74,60.94-25.99-96.95,10.42,14.51c2.71,3.77,7.58,5.31,11.96,3.75h0Z"/>
      </g>
      <g id="Calque_1-2-3" data-name="Calque_1-2">
        <path class="cls-2" d="M473.95,87.45l62.87-22.25-59.03,10.38c-3.95.7-7.95-.93-10.29-4.19l-43.74-60.93,25.99,96.95-10.42-14.51c-2.71-3.77-7.58-5.31-11.96-3.75l-62.87,22.25,59.03-10.38c3.95-.7,7.95.93,10.29,4.19l43.74,60.94-25.99-96.95,10.42,14.51c2.71,3.77,7.58,5.31,11.96,3.75h0Z"/>
      </g>
      <g id="Calque_1-2-4" data-name="Calque_1-2">
        <path class="cls-2" d="M656.19,87.45l62.87-22.25-59.03,10.38c-3.95.7-7.95-.93-10.29-4.19l-43.74-60.93,25.99,96.95-10.42-14.51c-2.71-3.77-7.58-5.31-11.96-3.75l-62.87,22.25,59.03-10.38c3.95-.7,7.95.93,10.29,4.19l43.74,60.94-25.99-96.95,10.42,14.51c2.71,3.77,7.58,5.31,11.96,3.75h0Z"/>
      </g>
      <g id="Calque_1-2-5" data-name="Calque_1-2">
        <path class="cls-2" d="M838.43,87.45l62.87-22.25-59.03,10.38c-3.95.7-7.95-.93-10.29-4.19l-43.74-60.93,25.99,96.95-10.42-14.51c-2.71-3.77-7.58-5.31-11.96-3.75l-62.87,22.25,59.03-10.38c3.95-.7,7.95.93,10.29,4.19l43.74,60.94-25.99-96.95,10.42,14.51c2.71,3.77,7.58,5.31,11.96,3.75h0Z"/>
      </g>
      <g id="Calque_1-2-6" data-name="Calque_1-2">
        <path class="cls-2" d="M1020.68,87.45l62.87-22.25-59.03,10.38c-3.95.7-7.95-.93-10.29-4.19l-43.74-60.93,25.99,96.95-10.42-14.51c-2.71-3.77-7.58-5.31-11.96-3.75l-62.87,22.25,59.03-10.38c3.95-.7,7.95.93,10.29,4.19l43.74,60.94-25.99-96.95,10.42,14.51c2.71,3.77,7.58,5.31,11.96,3.75h0Z"/>
      </g>
      <g id="Calque_1-2-7" data-name="Calque_1-2">
        <path class="cls-2" d="M1202.92,87.45l62.87-22.25-59.03,10.38c-3.95.7-7.95-.93-10.29-4.19l-43.74-60.93,25.99,96.95-10.42-14.51c-2.71-3.77-7.58-5.31-11.96-3.75l-62.87,22.25,59.03-10.38c3.95-.7,7.95.93,10.29,4.19l43.74,60.94-25.99-96.95,10.42,14.51c2.71,3.77,7.58,5.31,11.96,3.75h0Z"/>
      </g>
      <g id="Calque_1-2-8" data-name="Calque_1-2">
        <path class="cls-2" d="M1385.16,87.45l62.87-22.25-59.03,10.38c-3.95.7-7.95-.93-10.29-4.19l-43.74-60.93,25.99,96.95-10.42-14.51c-2.71-3.77-7.58-5.31-11.96-3.75l-62.87,22.25,59.03-10.38c3.95-.7,7.95.93,10.29,4.19l43.74,60.94-25.99-96.95,10.42,14.51c2.71,3.77,7.58,5.31,11.96,3.75h0Z"/>
      </g>
      <g id="Calque_1-2-9" data-name="Calque_1-2">
        <path class="cls-2" d="M1567.41,87.45l62.87-22.25-59.03,10.38c-3.95.7-7.95-.93-10.29-4.19l-43.74-60.93,25.99,96.95-10.42-14.51c-2.71-3.77-7.58-5.31-11.96-3.75l-62.87,22.25,59.03-10.38c3.95-.7,7.95.93,10.29,4.19l43.74,60.94-25.99-96.95,10.42,14.51c2.71,3.77,7.58,5.31,11.96,3.75h0Z"/>
      </g>
      <g id="Calque_1-2-10" data-name="Calque_1-2">
        <path class="cls-2" d="M1749.65,87.45l62.87-22.25-59.03,10.38c-3.95.7-7.95-.93-10.29-4.19l-43.74-60.93,25.99,96.95-10.42-14.51c-2.71-3.77-7.58-5.31-11.96-3.75l-62.87,22.25,59.03-10.38c3.95-.7,7.95.93,10.29,4.19l43.74,60.94-25.99-96.95,10.42,14.51c2.71,3.77,7.58,5.31,11.96,3.75h0Z"/>
      </g>
      <g id="Calque_1-2-11" data-name="Calque_1-2">
        <path class="cls-2" d="M1931.89,87.45l62.87-22.25-59.03,10.38c-3.95.7-7.95-.93-10.29-4.19l-43.74-60.93,25.99,96.95-10.42-14.51c-2.71-3.77-7.58-5.31-11.96-3.75l-62.87,22.25,59.03-10.38c3.95-.7,7.95.93,10.29,4.19l43.74,60.94-25.99-96.95,10.42,14.51c2.71,3.77,7.58,5.31,11.96,3.75h0Z"/>
      </g>
      <g id="Calque_1-2-12" data-name="Calque_1-2">
        <path class="cls-2" d="M2114.14,87.45l62.87-22.25-59.03,10.38c-3.95.7-7.95-.93-10.29-4.19l-43.74-60.93,25.99,96.95-10.42-14.51c-2.71-3.77-7.58-5.31-11.96-3.75l-62.87,22.25,59.03-10.38c3.95-.7,7.95.93,10.29,4.19l43.74,60.94-25.99-96.95,10.42,14.51c2.71,3.77,7.58,5.31,11.96,3.75h0Z"/>
      </g>
      <g id="Calque_1-2-13" data-name="Calque_1-2">
        <path class="cls-2" d="M2296.38,87.45l62.87-22.25-59.03,10.38c-3.95.7-7.95-.93-10.29-4.19l-43.74-60.93,25.99,96.95-10.42-14.51c-2.71-3.77-7.58-5.31-11.96-3.75l-62.87,22.25,59.03-10.38c3.95-.7,7.95.93,10.29,4.19l43.74,60.94-25.99-96.95,10.42,14.51c2.71,3.77,7.58,5.31,11.96,3.75h0Z"/>
      </g>
      <g id="Calque_1-2-14" data-name="Calque_1-2">
        <path class="cls-2" d="M2478.62,87.45l62.87-22.25-59.03,10.38c-3.95.7-7.95-.93-10.29-4.19l-43.74-60.93,25.99,96.95-10.42-14.51c-2.71-3.77-7.58-5.31-11.96-3.75l-62.87,22.25,59.03-10.38c3.95-.7,7.95.93,10.29,4.19l43.74,60.94-25.99-96.95,10.42,14.51c2.71,3.77,7.58,5.31,11.96,3.75h0Z"/>
      </g>
      <g id="Calque_1-2-15" data-name="Calque_1-2">
        <path class="cls-2" d="M2660.87,87.45l62.87-22.25-59.03,10.38c-3.95.7-7.95-.93-10.29-4.19l-43.74-60.93,25.99,96.95-10.42-14.51c-2.71-3.77-7.58-5.31-11.96-3.75l-62.87,22.25,59.03-10.38c3.95-.7,7.95.93,10.29,4.19l43.74,60.94-25.99-96.95,10.42,14.51c2.71,3.77,7.58,5.31,11.96,3.75h0Z"/>
      </g>
      <g id="Calque_1-2-16" data-name="Calque_1-2">
        <path class="cls-2" d="M2843.11,87.45l62.87-22.25-59.03,10.38c-3.95.7-7.95-.93-10.29-4.19l-43.74-60.93,25.99,96.95-10.42-14.51c-2.71-3.77-7.58-5.31-11.96-3.75l-62.87,22.25,59.03-10.38c3.95-.7,7.95.93,10.29,4.19l43.74,60.94-25.99-96.95,10.42,14.51c2.71,3.77,7.58,5.31,11.96,3.75h0Z"/>
      </g>
      <g id="Calque_1-2-17" data-name="Calque_1-2">
        <path class="cls-2" d="M3025.35,87.45l62.87-22.25-59.03,10.38c-3.95.7-7.95-.93-10.29-4.19l-43.74-60.93,25.99,96.95-10.42-14.51c-2.71-3.77-7.58-5.31-11.96-3.75l-62.87,22.25,59.03-10.38c3.95-.7,7.95.93,10.29,4.19l43.74,60.94-25.99-96.95,10.42,14.51c2.71,3.77,7.58,5.31,11.96,3.75h0Z"/>
      </g>
      <g id="Calque_1-2-18" data-name="Calque_1-2">
        <path class="cls-2" d="M3207.6,87.45l62.87-22.25-59.03,10.38c-3.95.7-7.95-.93-10.29-4.19l-43.74-60.93,25.99,96.95-10.42-14.51c-2.71-3.77-7.58-5.31-11.96-3.75l-62.87,22.25,59.03-10.38c3.95-.7,7.95.93,10.29,4.19l43.74,60.94-25.99-96.95,10.42,14.51c2.71,3.77,7.58,5.31,11.96,3.75h0Z"/>
      </g>
      <g id="Calque_1-2-19" data-name="Calque_1-2">
        <path class="cls-2" d="M3389.84,87.45l62.87-22.25-59.03,10.38c-3.95.7-7.95-.93-10.29-4.19l-43.74-60.93,25.99,96.95-10.42-14.51c-2.71-3.77-7.58-5.31-11.96-3.75l-62.87,22.25,59.03-10.38c3.95-.7,7.95.93,10.29,4.19l43.74,60.94-25.99-96.95,10.42,14.51c2.71,3.77,7.58,5.31,11.96,3.75h0Z"/>
      </g>
      <g id="Calque_1-2-20" data-name="Calque_1-2">
        <path class="cls-2" d="M3572.08,87.45l62.87-22.25-59.03,10.38c-3.95.7-7.95-.93-10.29-4.19l-43.74-60.93,25.99,96.95-10.42-14.51c-2.71-3.77-7.58-5.31-11.96-3.75l-62.87,22.25,59.03-10.38c3.95-.7,7.95.93,10.29,4.19l43.74,60.94-25.99-96.95,10.42,14.51c2.71,3.77,7.58,5.31,11.96,3.75h0Z"/>
      </g>
      <g id="Calque_1-2-21" data-name="Calque_1-2">
        <path class="cls-2" d="M3754.33,87.45l62.87-22.25-59.03,10.38c-3.95.7-7.95-.93-10.29-4.19l-43.74-60.93,25.99,96.95-10.42-14.51c-2.71-3.77-7.58-5.31-11.96-3.75l-62.87,22.25,59.03-10.38c3.95-.7,7.95.93,10.29,4.19l43.74,60.94-25.99-96.95,10.42,14.51c2.71,3.77,7.58,5.31,11.96,3.75h0Z"/>
      </g>
      <g id="Calque_1-2-22" data-name="Calque_1-2">
        <path class="cls-2" d="M3936.57,87.45l62.87-22.25-59.03,10.38c-3.95.7-7.95-.93-10.29-4.19l-43.74-60.93,25.99,96.95-10.42-14.51c-2.71-3.77-7.58-5.31-11.96-3.75l-62.87,22.25,59.03-10.38c3.95-.7,7.95.93,10.29,4.19l43.74,60.94-25.99-96.95,10.42,14.51c2.71,3.77,7.58,5.31,11.96,3.75h0Z"/>
      </g>
      <g id="Calque_1-2-23" data-name="Calque_1-2">
        <path class="cls-2" d="M4118.81,87.45l62.87-22.25-59.03,10.38c-3.95.7-7.95-.93-10.29-4.19l-43.74-60.93,25.99,96.95-10.42-14.51c-2.71-3.77-7.58-5.31-11.96-3.75l-62.87,22.25,59.03-10.38c3.95-.7,7.95.93,10.29,4.19l43.74,60.94-25.99-96.95,10.42,14.51c2.71,3.77,7.58,5.31,11.96,3.75h0Z"/>
      </g>
      <g id="Calque_1-2-24" data-name="Calque_1-2">
        <path class="cls-2" d="M4301.06,87.45l62.87-22.25-59.03,10.38c-3.95.7-7.95-.93-10.29-4.19l-43.74-60.93,25.99,96.95-10.42-14.51c-2.71-3.77-7.58-5.31-11.96-3.75l-62.87,22.25,59.03-10.38c3.95-.7,7.95.93,10.29,4.19l43.74,60.94-25.99-96.95,10.42,14.51c2.71,3.77,7.58,5.31,11.96,3.75h0Z"/>
      </g>
      <g id="Calque_1-2-25" data-name="Calque_1-2">
        <path class="cls-2" d="M4483.3,87.45l62.87-22.25-59.03,10.38c-3.95.7-7.95-.93-10.29-4.19l-43.74-60.93,25.99,96.95-10.42-14.51c-2.71-3.77-7.58-5.31-11.96-3.75l-62.87,22.25,59.03-10.38c3.95-.7,7.95.93,10.29,4.19l43.74,60.94-25.99-96.95,10.42,14.51c2.71,3.77,7.58,5.31,11.96,3.75h0Z"/>
      </g>
      <g id="Calque_1-2-26" data-name="Calque_1-2">
        <path class="cls-2" d="M4665.54,87.45l62.87-22.25-59.03,10.38c-3.95.7-7.95-.93-10.29-4.19l-43.74-60.93,25.99,96.95-10.42-14.51c-2.71-3.77-7.58-5.31-11.96-3.75l-62.87,22.25,59.03-10.38c3.95-.7,7.95.93,10.29,4.19l43.74,60.94-25.99-96.95,10.42,14.51c2.71,3.77,7.58,5.31,11.96,3.75h0Z"/>
      </g>
      <g id="Calque_1-2-27" data-name="Calque_1-2">
        <path class="cls-2" d="M4847.79,87.45l62.87-22.25-59.03,10.38c-3.95.7-7.95-.93-10.29-4.19l-43.74-60.93,25.99,96.95-10.42-14.51c-2.71-3.77-7.58-5.31-11.96-3.75l-62.87,22.25,59.03-10.38c3.95-.7,7.95.93,10.29,4.19l43.74,60.94-25.99-96.95,10.42,14.51c2.71,3.77,7.58,5.31,11.96,3.75h0Z"/>
      </g>
      <g id="Calque_1-2-28" data-name="Calque_1-2">
        <path class="cls-2" d="M5030.03,87.45l62.87-22.25-59.03,10.38c-3.95.7-7.95-.93-10.29-4.19l-43.74-60.93,25.99,96.95-10.42-14.51c-2.71-3.77-7.58-5.31-11.96-3.75l-62.87,22.25,59.03-10.38c3.95-.7,7.95.93,10.29,4.19l43.74,60.94-25.99-96.95,10.42,14.51c2.71,3.77,7.58,5.31,11.96,3.75h0Z"/>
      </g>
      <g id="Calque_1-2-29" data-name="Calque_1-2">
        <path class="cls-2" d="M5212.27,87.45l62.87-22.25-59.03,10.38c-3.95.7-7.95-.93-10.29-4.19l-43.74-60.93,25.99,96.95-10.42-14.51c-2.71-3.77-7.58-5.31-11.96-3.75l-62.87,22.25,59.03-10.38c3.95-.7,7.95.93,10.29,4.19l43.74,60.94-25.99-96.95,10.42,14.51c2.71,3.77,7.58,5.31,11.96,3.75h0Z"/>
      </g>
      <g id="Calque_1-2-30" data-name="Calque_1-2">
        <path class="cls-2" d="M5394.52,87.45l62.87-22.25-59.03,10.38c-3.95.7-7.95-.93-10.29-4.19l-43.74-60.93,25.99,96.95-10.42-14.51c-2.71-3.77-7.58-5.31-11.96-3.75l-62.87,22.25,59.03-10.38c3.95-.7,7.95.93,10.29,4.19l43.74,60.94-25.99-96.95,10.42,14.51c2.71,3.77,7.58,5.31,11.96,3.75h0Z"/>
      </g>
      <g id="Calque_1-2-31" data-name="Calque_1-2">
        <path class="cls-2" d="M5576.76,87.45l62.87-22.25-59.03,10.38c-3.95.7-7.95-.93-10.29-4.19l-43.74-60.93,25.99,96.95-10.42-14.51c-2.71-3.77-7.58-5.31-11.96-3.75l-62.87,22.25,59.03-10.38c3.95-.7,7.95.93,10.29,4.19l43.74,60.94-25.99-96.95,10.42,14.51c2.71,3.77,7.58,5.31,11.96,3.75h0Z"/>
      </g>
      <g id="Calque_1-2-32" data-name="Calque_1-2">
        <path class="cls-2" d="M5759,87.45l62.87-22.25-59.03,10.38c-3.95.7-7.95-.93-10.29-4.19l-43.74-60.93,25.99,96.95-10.42-14.51c-2.71-3.77-7.58-5.31-11.96-3.75l-62.87,22.25,59.03-10.38c3.95-.7,7.95.93,10.29,4.19l43.74,60.94-25.99-96.95,10.42,14.51c2.71,3.77,7.58,5.31,11.96,3.75h0Z"/>
      </g>
      <g id="Calque_1-2-33" data-name="Calque_1-2">
        <path class="cls-2" d="M5941.25,87.45l62.87-22.25-59.03,10.38c-3.95.7-7.95-.93-10.29-4.19l-43.74-60.93,25.99,96.95-10.42-14.51c-2.71-3.77-7.58-5.31-11.96-3.75l-62.87,22.25,59.03-10.38c3.95-.7,7.95.93,10.29,4.19l43.74,60.94-25.99-96.95,10.42,14.51c2.71,3.77,7.58,5.31,11.96,3.75h0Z"/>
      </g>
      <g id="Calque_1-2-34" data-name="Calque_1-2">
        <path class="cls-2" d="M6123.49,87.45l62.87-22.25-59.03,10.38c-3.95.7-7.95-.93-10.29-4.19l-43.74-60.93,25.99,96.95-10.42-14.51c-2.71-3.77-7.58-5.31-11.96-3.75l-62.87,22.25,59.03-10.38c3.95-.7,7.95.93,10.29,4.19l43.74,60.94-25.99-96.95,10.42,14.51c2.71,3.77,7.58,5.31,11.96,3.75h0Z"/>
      </g>
      <g id="Calque_1-2-35" data-name="Calque_1-2">
        <path class="cls-2" d="M6305.73,87.45l62.87-22.25-59.03,10.38c-3.95.7-7.95-.93-10.29-4.19l-43.74-60.93,25.99,96.95-10.42-14.51c-2.71-3.77-7.58-5.31-11.96-3.75l-62.87,22.25,59.03-10.38c3.95-.7,7.95.93,10.29,4.19l43.74,60.94-25.99-96.95,10.42,14.51c2.71,3.77,7.58,5.31,11.96,3.75h0Z"/>
      </g>
      <g id="Calque_1-2-36" data-name="Calque_1-2">
        <path class="cls-2" d="M6487.98,87.45l62.87-22.25-59.03,10.38c-3.95.7-7.95-.93-10.29-4.19l-43.74-60.93,25.99,96.95-10.42-14.51c-2.71-3.77-7.58-5.31-11.96-3.75l-62.87,22.25,59.03-10.38c3.95-.7,7.95.93,10.29,4.19l43.74,60.94-25.99-96.95,10.42,14.51c2.71,3.77,7.58,5.31,11.96,3.75h0Z"/>
      </g>
      <g id="Calque_1-2-37" data-name="Calque_1-2">
        <path class="cls-2" d="M6670.22,87.45l62.87-22.25-59.03,10.38c-3.95.7-7.95-.93-10.29-4.19l-43.74-60.93,25.99,96.95-10.42-14.51c-2.71-3.77-7.58-5.31-11.96-3.75l-62.87,22.25,59.03-10.38c3.95-.7,7.95.93,10.29,4.19l43.74,60.94-25.99-96.95,10.42,14.51c2.71,3.77,7.58,5.31,11.96,3.75h0Z"/>
      </g>
      <g id="Calque_1-2-38" data-name="Calque_1-2">
        <path class="cls-2" d="M6852.46,87.45l62.87-22.25-59.03,10.38c-3.95.7-7.95-.93-10.29-4.19l-43.74-60.93,25.99,96.95-10.42-14.51c-2.71-3.77-7.58-5.31-11.96-3.75l-62.87,22.25,59.03-10.38c3.95-.7,7.95.93,10.29,4.19l43.74,60.94-25.99-96.95,10.42,14.51c2.71,3.77,7.58,5.31,11.96,3.75h0Z"/>
      </g>
      <g id="Calque_1-2-39" data-name="Calque_1-2">
        <path class="cls-2" d="M7034.71,87.45l62.87-22.25-59.03,10.38c-3.95.7-7.95-.93-10.29-4.19l-43.74-60.93,25.99,96.95-10.42-14.51c-2.71-3.77-7.58-5.31-11.96-3.75l-62.87,22.25,59.03-10.38c3.95-.7,7.95.93,10.29,4.19l43.74,60.94-25.99-96.95,10.42,14.51c2.71,3.77,7.58,5.31,11.96,3.75h0Z"/>
      </g>
      <g id="Calque_1-2-40" data-name="Calque_1-2">
        <path class="cls-2" d="M7216.95,87.45l62.87-22.25-59.03,10.38c-3.95.7-7.95-.93-10.29-4.19l-43.74-60.93,25.99,96.95-10.42-14.51c-2.71-3.77-7.58-5.31-11.96-3.75l-62.87,22.25,59.03-10.38c3.95-.7,7.95.93,10.29,4.19l43.74,60.94-25.99-96.95,10.42,14.51c2.71,3.77,7.58,5.31,11.96,3.75h0Z"/>
      </g>
      <g id="Calque_1-2-41" data-name="Calque_1-2">
        <path class="cls-2" d="M7399.19,87.45l62.87-22.25-59.03,10.38c-3.95.7-7.95-.93-10.29-4.19l-43.74-60.93,25.99,96.95-10.42-14.51c-2.71-3.77-7.58-5.31-11.96-3.75l-62.87,22.25,59.03-10.38c3.95-.7,7.95.93,10.29,4.19l43.74,60.94-25.99-96.95,10.42,14.51c2.71,3.77,7.58,5.31,11.96,3.75h0Z"/>
      </g>
      <g id="Calque_1-2-42" data-name="Calque_1-2">
        <path class="cls-2" d="M7581.44,87.45l62.87-22.25-59.03,10.38c-3.95.7-7.95-.93-10.29-4.19l-43.74-60.93,25.99,96.95-10.42-14.51c-2.71-3.77-7.58-5.31-11.96-3.75l-62.87,22.25,59.03-10.38c3.95-.7,7.95.93,10.29,4.19l43.74,60.94-25.99-96.95,10.42,14.51c2.71,3.77,7.58,5.31,11.96,3.75h0Z"/>
      </g>
      <g id="Calque_1-2-43" data-name="Calque_1-2">
        <path class="cls-2" d="M7763.68,87.45l62.87-22.25-59.03,10.38c-3.95.7-7.95-.93-10.29-4.19l-43.74-60.93,25.99,96.95-10.42-14.51c-2.71-3.77-7.58-5.31-11.96-3.75l-62.87,22.25,59.03-10.38c3.95-.7,7.95.93,10.29,4.19l43.74,60.94-25.99-96.95,10.42,14.51c2.71,3.77,7.58,5.31,11.96,3.75h0Z"/>
      </g>
      <g id="Calque_1-2-44" data-name="Calque_1-2">
        <path class="cls-2" d="M7945.92,87.45l62.87-22.25-59.03,10.38c-3.95.7-7.95-.93-10.29-4.19l-43.74-60.93,25.99,96.95-10.42-14.51c-2.71-3.77-7.58-5.31-11.96-3.75l-62.87,22.25,59.03-10.38c3.95-.7,7.95.93,10.29,4.19l43.74,60.94-25.99-96.95,10.42,14.51c2.71,3.77,7.58,5.31,11.96,3.75h0Z"/>
      </g>
      <g id="Calque_1-2-45" data-name="Calque_1-2">
        <path class="cls-2" d="M8128.17,87.45l62.87-22.25-59.03,10.38c-3.95.7-7.95-.93-10.29-4.19l-43.74-60.93,25.99,96.95-10.42-14.51c-2.71-3.77-7.58-5.31-11.96-3.75l-62.87,22.25,59.03-10.38c3.95-.7,7.95.93,10.29,4.19l43.74,60.94-25.99-96.95,10.42,14.51c2.71,3.77,7.58,5.31,11.96,3.75h0Z"/>
      </g>
    </g>
  </g>
</svg>