<svg xmlns="http://www.w3.org/2000/svg" viewBox="0 0 15262.19 177.2"><defs><style>.cls-1{fill:#69fff0;}</style></defs><title>SYSMIC - Band graphique longue</title><g id="Calque_2" data-name="Calque 2"><g id="Calque_1-2" data-name="Calque 1"><path class="cls-1" d="M68.63,171a160.73,160.73,0,0,1-38.25-4.5Q11.92,162,0,154.75l17.1-38.7a109.22,109.22,0,0,0,25.09,10.46,97.79,97.79,0,0,0,26.89,3.94,56.39,56.39,0,0,0,12-1,13.82,13.82,0,0,0,6.42-2.93,6.1,6.1,0,0,0,2-4.61q0-4.28-4.72-6.75A50.34,50.34,0,0,0,72.34,111q-7.77-1.69-17-3.6a159.77,159.77,0,0,1-18.56-5.06A72.18,72.18,0,0,1,19.69,94,38.94,38.94,0,0,1,7.2,80.39q-4.73-8.44-4.72-21a46.22,46.22,0,0,1,8.21-26.66q8.21-12,24.52-19.24t40.62-7.2a147.93,147.93,0,0,1,31.5,3.38A99.63,99.63,0,0,1,135.23,20l-16,38.47a120.68,120.68,0,0,0-22.61-8.77,82,82,0,0,0-21.26-2.93A43.69,43.69,0,0,0,63.23,48.1c-3,.9-5.14,2.1-6.42,3.6a7.5,7.5,0,0,0-1.91,4.95q0,4.05,4.73,6.41A51,51,0,0,0,72.11,67q7.77,1.57,17.1,3.38a138.86,138.86,0,0,1,18.57,5,73,73,0,0,1,17,8.32,39.21,39.21,0,0,1,12.49,13.5q4.73,8.32,4.73,20.7a45.91,45.91,0,0,1-8.22,26.44q-8.2,12-24.41,19.35T68.63,171Z"/><path class="cls-1" d="M385,171a160.85,160.85,0,0,1-38.25-4.5q-18.45-4.5-30.38-11.7l17.1-38.7a109.4,109.4,0,0,0,25.09,10.46,97.9,97.9,0,0,0,26.89,3.94,56.5,56.5,0,0,0,12-1,13.83,13.83,0,0,0,6.41-2.93,6.1,6.1,0,0,0,2-4.61q0-4.28-4.72-6.75A50.19,50.19,0,0,0,388.66,111q-7.76-1.69-17-3.6a159.77,159.77,0,0,1-18.56-5.06A72.36,72.36,0,0,1,336,94a39,39,0,0,1-12.49-13.61q-4.72-8.44-4.72-21A46.22,46.22,0,0,1,327,32.69q8.21-12,24.53-19.24t40.61-7.2a147.86,147.86,0,0,1,31.5,3.38A99.51,99.51,0,0,1,451.55,20l-16,38.47A120.68,120.68,0,0,0,413,49.68a82,82,0,0,0-21.26-2.93,43.78,43.78,0,0,0-12.15,1.35q-4.5,1.35-6.41,3.6a7.46,7.46,0,0,0-1.92,4.95q0,4.05,4.73,6.41A50.91,50.91,0,0,0,388.44,67q7.76,1.57,17.1,3.38a138.72,138.72,0,0,1,18.56,5,73.08,73.08,0,0,1,17,8.32,39.28,39.28,0,0,1,12.48,13.5q4.73,8.32,4.73,20.7a46,46,0,0,1-8.21,26.44q-8.22,12-24.42,19.35T385,171Z"/><path class="cls-1" d="M659.2,173.6H603.4l-.25-53.26-20.79,39.09H554l-20.69-37.29V173.6H477.47V3.6h49l42.2,76.93,41-76.93h49.06Zm-43.36-12.5h30.83l-.37-145H617.2l-48.34,90.72L519.1,16.1H490v145h30.81V73.85l40.55,73.08h13.52l40.56-76.25Z"/><path class="cls-1" d="M744.43,173.6h-65.6V3.6h65.6Zm-53.1-12.5h40.6V16.1h-40.6Z"/><path class="cls-1" d="M856.78,177.2a106.76,106.76,0,0,1-37.16-6.35,88.76,88.76,0,0,1-30-18.28,83.84,83.84,0,0,1-19.81-28.19,89.48,89.48,0,0,1-7-35.78,89.48,89.48,0,0,1,7-35.78,83.84,83.84,0,0,1,19.81-28.19,89.07,89.07,0,0,1,30-18.28A106.76,106.76,0,0,1,856.78,0c16.27,0,31,2.91,43.64,8.66a82.67,82.67,0,0,1,32,25.29l3.52,4.6L893.13,76.74,889,71.56a48.61,48.61,0,0,0-13.63-12.08,31.18,31.18,0,0,0-15.9-4,34.1,34.1,0,0,0-12.75,2.25,25.4,25.4,0,0,0-9.35,6.34,30.76,30.76,0,0,0-6.24,10.38,41,41,0,0,0-2.31,14.15,41,41,0,0,0,2.31,14.15,30.6,30.6,0,0,0,6.24,10.38,25.37,25.37,0,0,0,9.34,6.34,34.18,34.18,0,0,0,12.76,2.26,31.16,31.16,0,0,0,15.9-4A48.59,48.59,0,0,0,889,105.64l4.12-5.18,42.81,38.21-3.57,4.61a84.57,84.57,0,0,1-31.92,25.14C887.75,174.25,873.06,177.2,856.78,177.2Zm0-164.7A94.41,94.41,0,0,0,824,18.07a76.48,76.48,0,0,0-25.8,15.7,71.41,71.41,0,0,0-16.87,24,77.09,77.09,0,0,0-6,30.82,77.09,77.09,0,0,0,6,30.82,71.21,71.21,0,0,0,16.87,24,76.48,76.48,0,0,0,25.8,15.7,94.41,94.41,0,0,0,32.82,5.57c14.47,0,27.41-2.57,38.45-7.64a72.87,72.87,0,0,0,23.51-17l-24.29-21.68a57.72,57.72,0,0,1-12.85,10.17,43.82,43.82,0,0,1-22.12,5.67,46.65,46.65,0,0,1-17.4-3.15,38.23,38.23,0,0,1-13.83-9.41,42.88,42.88,0,0,1-8.83-14.59,53.19,53.19,0,0,1-3.09-18.48,53.23,53.23,0,0,1,3.09-18.48,42.88,42.88,0,0,1,8.83-14.59,38.19,38.19,0,0,1,13.83-9.41A46.65,46.65,0,0,1,859.48,43a43.87,43.87,0,0,1,22.12,5.66,57.49,57.49,0,0,1,12.85,10.17L918.77,37.1A70.75,70.75,0,0,0,895.26,20C884.21,15,871.26,12.5,856.78,12.5Z"/><polygon class="cls-1" points="263.84 9.85 233.91 60.65 233.91 60.64 233.9 60.65 203.97 9.85 147.95 9.85 207.35 109.6 207.35 167.35 233.91 167.35 260.46 167.35 260.46 109.6 319.87 9.85 263.84 9.85"/><path class="cls-1" d="M1023.7,171a160.73,160.73,0,0,1-38.25-4.5Q967,162,955.07,154.75l17.1-38.7a109.22,109.22,0,0,0,25.09,10.46,97.85,97.85,0,0,0,26.89,3.94,56.39,56.39,0,0,0,12-1,13.82,13.82,0,0,0,6.42-2.93,6.1,6.1,0,0,0,2-4.61q0-4.28-4.72-6.75a50.34,50.34,0,0,0-12.49-4.16q-7.77-1.69-17-3.6a159.77,159.77,0,0,1-18.56-5.06A72.18,72.18,0,0,1,974.76,94a38.94,38.94,0,0,1-12.49-13.61q-4.72-8.44-4.72-21a46.22,46.22,0,0,1,8.21-26.66q8.21-12,24.52-19.24t40.62-7.2a147.86,147.86,0,0,1,31.5,3.38A99.51,99.51,0,0,1,1090.3,20l-16,38.47a120.68,120.68,0,0,0-22.61-8.77,82,82,0,0,0-21.26-2.93,43.78,43.78,0,0,0-12.15,1.35c-3,.9-5.14,2.1-6.42,3.6a7.5,7.5,0,0,0-1.91,4.95q0,4.05,4.73,6.41A51,51,0,0,0,1027.18,67q7.77,1.57,17.1,3.38a138.86,138.86,0,0,1,18.57,5,73,73,0,0,1,17,8.32,39.21,39.21,0,0,1,12.49,13.5q4.73,8.32,4.73,20.7a45.91,45.91,0,0,1-8.22,26.44q-8.2,12-24.41,19.35T1023.7,171Z"/><path class="cls-1" d="M1340,171a160.85,160.85,0,0,1-38.25-4.5q-18.45-4.5-30.38-11.7l17.1-38.7a109.4,109.4,0,0,0,25.09,10.46,97.9,97.9,0,0,0,26.89,3.94,56.5,56.5,0,0,0,12-1,13.83,13.83,0,0,0,6.41-2.93,6.1,6.1,0,0,0,2-4.61q0-4.28-4.72-6.75a50.19,50.19,0,0,0-12.49-4.16q-7.76-1.69-17-3.6a159.77,159.77,0,0,1-18.56-5.06,72.55,72.55,0,0,1-17.1-8.33,39,39,0,0,1-12.49-13.61q-4.72-8.44-4.72-21a46.22,46.22,0,0,1,8.21-26.66q8.22-12,24.53-19.24t40.61-7.2a147.86,147.86,0,0,1,31.5,3.38A99.51,99.51,0,0,1,1406.62,20l-16,38.47A120.42,120.42,0,0,0,1368,49.68a82,82,0,0,0-21.26-2.93,43.78,43.78,0,0,0-12.15,1.35q-4.5,1.35-6.41,3.6a7.46,7.46,0,0,0-1.92,4.95q0,4.05,4.73,6.41A50.91,50.91,0,0,0,1343.51,67q7.76,1.57,17.1,3.38a138.72,138.72,0,0,1,18.56,5,73.08,73.08,0,0,1,17,8.32,39.28,39.28,0,0,1,12.48,13.5q4.72,8.32,4.73,20.7a46,46,0,0,1-8.21,26.44q-8.22,12-24.42,19.35T1340,171Z"/><path class="cls-1" d="M1614.27,173.6h-55.8l-.25-53.26-20.79,39.09H1509l-20.69-37.29V173.6h-55.81V3.6h49l42.2,76.93,41-76.93h49.06Zm-43.36-12.5h30.83l-.37-145h-29.1l-48.34,90.72L1474.17,16.1H1445v145h30.81V73.85l40.55,73.08h13.52l40.56-76.25Z"/><path class="cls-1" d="M1699.5,173.6h-65.6V3.6h65.6Zm-53.1-12.5H1687V16.1h-40.6Z"/><path class="cls-1" d="M1811.85,177.2a106.76,106.76,0,0,1-37.16-6.35,88.76,88.76,0,0,1-30-18.28,83.84,83.84,0,0,1-19.81-28.19,89.48,89.48,0,0,1-7-35.78,89.48,89.48,0,0,1,7-35.78,83.84,83.84,0,0,1,19.81-28.19,89.07,89.07,0,0,1,30-18.28A106.76,106.76,0,0,1,1811.85,0c16.27,0,31,2.91,43.64,8.66a82.67,82.67,0,0,1,32,25.29l3.52,4.6L1848.2,76.74l-4.12-5.18a48.61,48.61,0,0,0-13.63-12.08,31.18,31.18,0,0,0-15.9-4,34.1,34.1,0,0,0-12.75,2.25,25.4,25.4,0,0,0-9.35,6.34,30.76,30.76,0,0,0-6.24,10.38,41,41,0,0,0-2.31,14.15,41,41,0,0,0,2.31,14.15,30.76,30.76,0,0,0,6.24,10.38,25.32,25.32,0,0,0,9.35,6.34,34.13,34.13,0,0,0,12.75,2.26,31.16,31.16,0,0,0,15.9-4,48.46,48.46,0,0,0,13.63-12.08l4.12-5.18L1891,138.67l-3.57,4.61a84.57,84.57,0,0,1-31.92,25.14C1842.82,174.25,1828.13,177.2,1811.85,177.2Zm0-164.7A94.45,94.45,0,0,0,1779,18.07a76.48,76.48,0,0,0-25.8,15.7,71.55,71.55,0,0,0-16.87,24,77.09,77.09,0,0,0-6,30.82,77.09,77.09,0,0,0,6,30.82,71.35,71.35,0,0,0,16.87,24,76.48,76.48,0,0,0,25.8,15.7,94.45,94.45,0,0,0,32.82,5.57c14.47,0,27.41-2.57,38.46-7.64a72.93,72.93,0,0,0,23.5-17l-24.29-21.68a57.72,57.72,0,0,1-12.85,10.17,43.82,43.82,0,0,1-22.12,5.67,46.65,46.65,0,0,1-17.4-3.15,38.31,38.31,0,0,1-13.83-9.41,42.88,42.88,0,0,1-8.83-14.59,53.19,53.19,0,0,1-3.09-18.48,53.23,53.23,0,0,1,3.09-18.48,42.88,42.88,0,0,1,8.83-14.59,38.27,38.27,0,0,1,13.83-9.41,46.65,46.65,0,0,1,17.4-3.14,43.87,43.87,0,0,1,22.12,5.66,57.49,57.49,0,0,1,12.85,10.17l24.32-21.71A70.75,70.75,0,0,0,1850.33,20C1839.28,15,1826.33,12.5,1811.85,12.5Z"/><polygon class="cls-1" points="1218.91 9.85 1188.99 60.65 1188.98 60.64 1188.97 60.65 1159.05 9.85 1103.02 9.85 1162.42 109.6 1162.42 167.35 1188.98 167.35 1215.54 167.35 1215.54 109.6 1274.94 9.85 1218.91 9.85"/><path class="cls-1" d="M1978.75,171a160.73,160.73,0,0,1-38.25-4.5q-18.46-4.5-30.38-11.7l17.1-38.7a109.22,109.22,0,0,0,25.09,10.46,97.79,97.79,0,0,0,26.89,3.94,56.39,56.39,0,0,0,12-1,13.82,13.82,0,0,0,6.42-2.93,6.1,6.1,0,0,0,2-4.61q0-4.28-4.72-6.75a50.34,50.34,0,0,0-12.49-4.16q-7.77-1.69-17-3.6a159.77,159.77,0,0,1-18.56-5.06,72.18,72.18,0,0,1-17.1-8.33,38.94,38.94,0,0,1-12.49-13.61q-4.72-8.44-4.72-21a46.22,46.22,0,0,1,8.21-26.66q8.2-12,24.52-19.24T1986,6.25a147.93,147.93,0,0,1,31.5,3.38A99.63,99.63,0,0,1,2045.35,20l-16,38.47a120.68,120.68,0,0,0-22.61-8.77,82,82,0,0,0-21.26-2.93,43.69,43.69,0,0,0-12.15,1.35c-3,.9-5.14,2.1-6.42,3.6a7.5,7.5,0,0,0-1.91,4.95q0,4.05,4.73,6.41A51,51,0,0,0,1982.23,67q7.77,1.57,17.1,3.38a138.86,138.86,0,0,1,18.57,5,73,73,0,0,1,17,8.32,39.21,39.21,0,0,1,12.49,13.5q4.73,8.32,4.73,20.7a45.91,45.91,0,0,1-8.22,26.44q-8.2,12-24.41,19.35T1978.75,171Z"/><path class="cls-1" d="M2295.07,171a160.85,160.85,0,0,1-38.25-4.5q-18.45-4.5-30.38-11.7l17.1-38.7a109.4,109.4,0,0,0,25.09,10.46,97.9,97.9,0,0,0,26.89,3.94,56.5,56.5,0,0,0,12-1,13.83,13.83,0,0,0,6.41-2.93,6.1,6.1,0,0,0,2-4.61q0-4.28-4.72-6.75a50.19,50.19,0,0,0-12.49-4.16q-7.76-1.69-17-3.6a159.77,159.77,0,0,1-18.56-5.06,72.36,72.36,0,0,1-17.1-8.33,39,39,0,0,1-12.49-13.61q-4.72-8.44-4.72-21a46.22,46.22,0,0,1,8.21-26.66q8.22-12,24.53-19.24t40.61-7.2a147.86,147.86,0,0,1,31.5,3.38A99.51,99.51,0,0,1,2361.67,20l-16,38.47a120.42,120.42,0,0,0-22.61-8.77,82,82,0,0,0-21.26-2.93,43.78,43.78,0,0,0-12.15,1.35q-4.5,1.35-6.41,3.6a7.46,7.46,0,0,0-1.92,4.95q0,4.05,4.73,6.41A50.91,50.91,0,0,0,2298.56,67q7.76,1.57,17.1,3.38a138.72,138.72,0,0,1,18.56,5,73.08,73.08,0,0,1,17,8.32,39.28,39.28,0,0,1,12.48,13.5q4.72,8.32,4.73,20.7a46,46,0,0,1-8.21,26.44q-8.22,12-24.42,19.35T2295.07,171Z"/><path class="cls-1" d="M2569.32,173.6h-55.8l-.25-53.26-20.79,39.09h-28.39l-20.69-37.29V173.6h-55.81V3.6h49l42.2,76.93,41-76.93h49.06ZM2526,161.1h30.83l-.37-145h-29.1L2479,106.82,2429.22,16.1h-29.13v145h30.81V73.85l40.55,73.08H2485l40.56-76.25Z"/><path class="cls-1" d="M2654.55,173.6H2589V3.6h65.6Zm-53.1-12.5h40.6V16.1h-40.6Z"/><path class="cls-1" d="M2766.9,177.2a106.76,106.76,0,0,1-37.16-6.35,88.76,88.76,0,0,1-30-18.28,83.84,83.84,0,0,1-19.81-28.19,89.48,89.48,0,0,1-7-35.78,89.48,89.48,0,0,1,7-35.78,83.84,83.84,0,0,1,19.81-28.19,89.07,89.07,0,0,1,30-18.28A106.76,106.76,0,0,1,2766.9,0c16.27,0,31,2.91,43.64,8.66a82.67,82.67,0,0,1,32,25.29l3.52,4.6-42.78,38.19-4.12-5.18a48.61,48.61,0,0,0-13.63-12.08,31.18,31.18,0,0,0-15.9-4,34.1,34.1,0,0,0-12.75,2.25,25.4,25.4,0,0,0-9.35,6.34,30.76,30.76,0,0,0-6.24,10.38A41,41,0,0,0,2739,88.6a41,41,0,0,0,2.31,14.15,30.6,30.6,0,0,0,6.24,10.38,25.32,25.32,0,0,0,9.35,6.34,34.09,34.09,0,0,0,12.75,2.26,31.16,31.16,0,0,0,15.9-4,48.46,48.46,0,0,0,13.63-12.08l4.12-5.18,42.81,38.21-3.57,4.61a84.57,84.57,0,0,1-31.92,25.14C2797.87,174.25,2783.18,177.2,2766.9,177.2Zm0-164.7a94.45,94.45,0,0,0-32.82,5.57,76.48,76.48,0,0,0-25.8,15.7,71.55,71.55,0,0,0-16.87,24,77.09,77.09,0,0,0-6,30.82,77.09,77.09,0,0,0,6,30.82,71.35,71.35,0,0,0,16.87,24,76.48,76.48,0,0,0,25.8,15.7,94.45,94.45,0,0,0,32.82,5.57c14.47,0,27.41-2.57,38.45-7.64a72.87,72.87,0,0,0,23.51-17l-24.29-21.68a57.72,57.72,0,0,1-12.85,10.17,43.82,43.82,0,0,1-22.12,5.67,46.65,46.65,0,0,1-17.4-3.15,38.31,38.31,0,0,1-13.83-9.41,42.88,42.88,0,0,1-8.83-14.59,53.19,53.19,0,0,1-3.09-18.48,53.23,53.23,0,0,1,3.09-18.48,42.88,42.88,0,0,1,8.83-14.59,38.27,38.27,0,0,1,13.83-9.41A46.65,46.65,0,0,1,2769.6,43a43.87,43.87,0,0,1,22.12,5.66,57.49,57.49,0,0,1,12.85,10.17l24.32-21.71A70.75,70.75,0,0,0,2805.38,20C2794.33,15,2781.38,12.5,2766.9,12.5Z"/><polygon class="cls-1" points="2173.96 9.85 2144.04 60.65 2144.03 60.64 2144.02 60.65 2114.1 9.85 2058.07 9.85 2117.47 109.6 2117.47 167.35 2144.03 167.35 2170.59 167.35 2170.59 109.6 2229.99 9.85 2173.96 9.85"/><path class="cls-1" d="M2933.82,171a160.79,160.79,0,0,1-38.25-4.5q-18.45-4.5-30.38-11.7l17.1-38.7a109.22,109.22,0,0,0,25.09,10.46,97.85,97.85,0,0,0,26.89,3.94,56.39,56.39,0,0,0,12-1,13.82,13.82,0,0,0,6.42-2.93,6.1,6.1,0,0,0,2-4.61q0-4.28-4.72-6.75a50.34,50.34,0,0,0-12.49-4.16q-7.77-1.69-17-3.6a159.77,159.77,0,0,1-18.56-5.06,72.18,72.18,0,0,1-17.1-8.33,38.94,38.94,0,0,1-12.49-13.61q-4.72-8.44-4.72-21a46.22,46.22,0,0,1,8.21-26.66q8.2-12,24.52-19.24T2941,6.25a147.86,147.86,0,0,1,31.5,3.38A99.51,99.51,0,0,1,3000.42,20l-16,38.47a120.68,120.68,0,0,0-22.61-8.77,82,82,0,0,0-21.26-2.93,43.78,43.78,0,0,0-12.15,1.35c-3,.9-5.14,2.1-6.42,3.6a7.5,7.5,0,0,0-1.91,4.95q0,4.05,4.73,6.41A51,51,0,0,0,2937.3,67q7.77,1.57,17.1,3.38a138.86,138.86,0,0,1,18.57,5,72.82,72.82,0,0,1,17,8.32,39.21,39.21,0,0,1,12.49,13.5q4.72,8.32,4.73,20.7a45.91,45.91,0,0,1-8.22,26.44q-8.2,12-24.41,19.35T2933.82,171Z"/><path class="cls-1" d="M3250.14,171a160.85,160.85,0,0,1-38.25-4.5q-18.45-4.5-30.38-11.7l17.1-38.7a109.4,109.4,0,0,0,25.09,10.46,97.9,97.9,0,0,0,26.89,3.94,56.5,56.5,0,0,0,12-1,13.83,13.83,0,0,0,6.41-2.93,6.1,6.1,0,0,0,2-4.61q0-4.28-4.72-6.75a50.19,50.19,0,0,0-12.49-4.16q-7.76-1.69-17-3.6a159.77,159.77,0,0,1-18.56-5.06A72.55,72.55,0,0,1,3201.2,94a39,39,0,0,1-12.49-13.61q-4.73-8.44-4.72-21a46.29,46.29,0,0,1,8.21-26.66q8.22-12,24.53-19.24t40.61-7.2a147.86,147.86,0,0,1,31.5,3.38A99.51,99.51,0,0,1,3316.74,20l-16,38.47a120.42,120.42,0,0,0-22.61-8.77,82,82,0,0,0-21.26-2.93,43.78,43.78,0,0,0-12.15,1.35q-4.5,1.35-6.41,3.6a7.45,7.45,0,0,0-1.91,4.95q0,4.05,4.72,6.41A50.91,50.91,0,0,0,3253.63,67q7.76,1.57,17.1,3.38a138.72,138.72,0,0,1,18.56,5,73.08,73.08,0,0,1,17,8.32,39.28,39.28,0,0,1,12.48,13.5q4.74,8.32,4.73,20.7a46,46,0,0,1-8.21,26.44q-8.22,12-24.42,19.35T3250.14,171Z"/><path class="cls-1" d="M3524.39,173.6h-55.8l-.25-53.26-20.79,39.09h-28.39l-20.69-37.29V173.6h-55.8V3.6h49l42.21,76.93,41-76.93H3524ZM3481,161.1h30.82l-.37-145h-29.1l-48.34,90.72L3384.29,16.1h-29.12v145H3386V73.85l40.55,73.08H3440l40.56-76.25Z"/><path class="cls-1" d="M3609.62,173.6H3544V3.6h65.6Zm-53.1-12.5h40.6V16.1h-40.6Z"/><path class="cls-1" d="M3722,177.2a106.76,106.76,0,0,1-37.16-6.35,88.76,88.76,0,0,1-30-18.28A83.84,83.84,0,0,1,3635,124.38a89.48,89.48,0,0,1-7-35.78,89.48,89.48,0,0,1,7-35.78,83.84,83.84,0,0,1,19.81-28.19,89.07,89.07,0,0,1,30-18.28A106.76,106.76,0,0,1,3722,0c16.27,0,31,2.91,43.64,8.66a82.7,82.7,0,0,1,32,25.29l3.51,4.6-42.78,38.19-4.12-5.18a48.61,48.61,0,0,0-13.63-12.08,31.15,31.15,0,0,0-15.9-4,34.13,34.13,0,0,0-12.75,2.25,25.4,25.4,0,0,0-9.35,6.34,30.76,30.76,0,0,0-6.24,10.38A41,41,0,0,0,3694,88.6a41,41,0,0,0,2.31,14.15,30.76,30.76,0,0,0,6.24,10.38,25.4,25.4,0,0,0,9.35,6.34,34.13,34.13,0,0,0,12.75,2.26,31.16,31.16,0,0,0,15.9-4,48.46,48.46,0,0,0,13.63-12.08l4.12-5.18,42.82,38.21-3.58,4.61a84.57,84.57,0,0,1-31.92,25.14C3753,174.25,3738.25,177.2,3722,177.2Zm0-164.7a94.45,94.45,0,0,0-32.82,5.57,76.48,76.48,0,0,0-25.8,15.7,71.55,71.55,0,0,0-16.87,24,77.09,77.09,0,0,0-6,30.82,77.09,77.09,0,0,0,6,30.82,71.35,71.35,0,0,0,16.87,24,76.48,76.48,0,0,0,25.8,15.7A94.45,94.45,0,0,0,3722,164.7c14.47,0,27.41-2.57,38.46-7.64a72.93,72.93,0,0,0,23.5-17l-24.29-21.68a57.72,57.72,0,0,1-12.85,10.17,43.82,43.82,0,0,1-22.12,5.67,46.69,46.69,0,0,1-17.4-3.15,38.31,38.31,0,0,1-13.83-9.41,42.88,42.88,0,0,1-8.83-14.59,53.19,53.19,0,0,1-3.09-18.48,53.23,53.23,0,0,1,3.09-18.48,42.88,42.88,0,0,1,8.83-14.59,38.27,38.27,0,0,1,13.83-9.41,46.65,46.65,0,0,1,17.4-3.14,43.87,43.87,0,0,1,22.12,5.66,57.49,57.49,0,0,1,12.85,10.17L3784,37.1A70.82,70.82,0,0,0,3760.46,20C3749.4,15,3736.45,12.5,3722,12.5Z"/><polygon class="cls-1" points="3129.03 9.85 3099.11 60.65 3099.1 60.64 3099.09 60.65 3069.17 9.85 3013.14 9.85 3072.54 109.6 3072.54 167.35 3099.1 167.35 3125.66 167.35 3125.66 109.6 3185.06 9.85 3129.03 9.85"/><path class="cls-1" d="M3889,171a160.85,160.85,0,0,1-38.25-4.5q-18.45-4.5-30.37-11.7l17.1-38.7a109.14,109.14,0,0,0,25.08,10.46,97.9,97.9,0,0,0,26.89,3.94,56.5,56.5,0,0,0,12-1,13.83,13.83,0,0,0,6.41-2.93,6.11,6.11,0,0,0,2-4.61q0-4.28-4.73-6.75a50.19,50.19,0,0,0-12.49-4.16q-7.76-1.69-17-3.6a159.92,159.92,0,0,1-18.57-5.06,72.55,72.55,0,0,1-17.1-8.33,39,39,0,0,1-12.48-13.61q-4.72-8.44-4.73-21a46.29,46.29,0,0,1,8.21-26.66q8.22-12,24.53-19.24t40.61-7.2a147.86,147.86,0,0,1,31.5,3.38A99.51,99.51,0,0,1,3955.62,20l-16,38.47A120.5,120.5,0,0,0,3917,49.68a81.92,81.92,0,0,0-21.26-2.93,43.78,43.78,0,0,0-12.15,1.35q-4.5,1.35-6.41,3.6a7.45,7.45,0,0,0-1.91,4.95q0,4.05,4.72,6.41A50.91,50.91,0,0,0,3892.51,67q7.75,1.57,17.1,3.38a138.72,138.72,0,0,1,18.56,5,73.08,73.08,0,0,1,17,8.32,39.3,39.3,0,0,1,12.49,13.5q4.72,8.32,4.72,20.7a46,46,0,0,1-8.21,26.44q-8.22,12-24.41,19.35T3889,171Z"/><path class="cls-1" d="M4205.34,171a160.85,160.85,0,0,1-38.25-4.5q-18.45-4.5-30.37-11.7l17.1-38.7a109.22,109.22,0,0,0,25.09,10.46,97.78,97.78,0,0,0,26.88,3.94,56.43,56.43,0,0,0,12-1,13.78,13.78,0,0,0,6.41-2.93,6.11,6.11,0,0,0,2-4.61q0-4.28-4.73-6.75a50.25,50.25,0,0,0-12.48-4.16q-7.77-1.69-17-3.6a159.77,159.77,0,0,1-18.56-5.06,72.18,72.18,0,0,1-17.1-8.33,38.94,38.94,0,0,1-12.49-13.61q-4.72-8.44-4.73-21a46.23,46.23,0,0,1,8.22-26.66q8.2-12,24.52-19.24t40.61-7.2A147.86,147.86,0,0,1,4244,9.63,99.51,99.51,0,0,1,4271.94,20l-16,38.47a120.68,120.68,0,0,0-22.61-8.77,82.05,82.05,0,0,0-21.27-2.93,43.78,43.78,0,0,0-12.15,1.35q-4.5,1.35-6.41,3.6a7.5,7.5,0,0,0-1.91,4.95q0,4.05,4.72,6.41A51.05,51.05,0,0,0,4208.83,67q7.77,1.57,17.1,3.38a138.72,138.72,0,0,1,18.56,5,72.89,72.89,0,0,1,17,8.32A39.21,39.21,0,0,1,4274,97.15q4.72,8.32,4.72,20.7a46,46,0,0,1-8.21,26.44q-8.22,12-24.41,19.35T4205.34,171Z"/><path class="cls-1" d="M4479.59,173.6H4423.8l-.26-53.26-20.79,39.09h-28.38l-20.69-37.29V173.6h-55.81V3.6h49l42.2,76.93,41-76.93h49.07Zm-43.35-12.5h30.82l-.37-145H4437.6l-48.34,90.72L4339.5,16.1h-29.13v145h30.81V73.85l40.55,73.08h13.51l40.57-76.25Z"/><path class="cls-1" d="M4564.83,173.6h-65.6V3.6h65.6Zm-53.1-12.5h40.6V16.1h-40.6Z"/><path class="cls-1" d="M4677.17,177.2a106.67,106.67,0,0,1-37.15-6.35,88.7,88.7,0,0,1-30-18.28,84,84,0,0,1-19.81-28.19,89.48,89.48,0,0,1-7-35.78,89.48,89.48,0,0,1,7-35.78A84,84,0,0,1,4610,24.63a89,89,0,0,1,30-18.28A106.67,106.67,0,0,1,4677.17,0c16.28,0,31,2.91,43.65,8.66a82.74,82.74,0,0,1,32,25.29l3.52,4.6-42.78,38.19-4.12-5.18a48.75,48.75,0,0,0-13.63-12.08,31.21,31.21,0,0,0-15.91-4,34.17,34.17,0,0,0-12.75,2.25,25.37,25.37,0,0,0-9.34,6.34,30.44,30.44,0,0,0-6.24,10.38,40.74,40.74,0,0,0-2.31,14.15,40.74,40.74,0,0,0,2.31,14.15,30.44,30.44,0,0,0,6.24,10.38,25.28,25.28,0,0,0,9.34,6.34,34.17,34.17,0,0,0,12.75,2.26,31.19,31.19,0,0,0,15.91-4,48.59,48.59,0,0,0,13.63-12.08l4.12-5.18,42.81,38.21-3.58,4.61a84.49,84.49,0,0,1-31.92,25.14C4708.15,174.25,4693.46,177.2,4677.17,177.2Zm0-164.7a94.35,94.35,0,0,0-32.81,5.57,76.52,76.52,0,0,0-25.81,15.7,71.52,71.52,0,0,0-16.86,24,77.09,77.09,0,0,0-6,30.82,77.26,77.26,0,0,0,6,30.82,71.49,71.49,0,0,0,16.87,24,76.62,76.62,0,0,0,25.81,15.7,94.35,94.35,0,0,0,32.81,5.57c14.47,0,27.41-2.57,38.46-7.64a72.83,72.83,0,0,0,23.5-17l-24.28-21.68A58,58,0,0,1,4702,128.56a43.89,43.89,0,0,1-22.13,5.67,46.6,46.6,0,0,1-17.39-3.15,38.35,38.35,0,0,1-13.84-9.41,43.19,43.19,0,0,1-8.83-14.59,53.19,53.19,0,0,1-3.08-18.48,53.23,53.23,0,0,1,3.08-18.48,43.06,43.06,0,0,1,8.84-14.59,38.19,38.19,0,0,1,13.83-9.41A46.6,46.6,0,0,1,4679.87,43,43.91,43.91,0,0,1,4702,48.64a57.72,57.72,0,0,1,12.85,10.17l24.31-21.71A70.71,70.71,0,0,0,4715.66,20C4704.61,15,4691.66,12.5,4677.17,12.5Z"/><polygon class="cls-1" points="4084.24 9.85 4054.31 60.65 4054.3 60.64 4054.3 60.65 4024.37 9.85 3968.35 9.85 4027.75 109.6 4027.75 167.35 4054.3 167.35 4080.86 167.35 4080.86 109.6 4140.26 9.85 4084.24 9.85"/><path class="cls-1" d="M4844.09,171a160.85,160.85,0,0,1-38.25-4.5q-18.45-4.5-30.37-11.7l17.1-38.7a109.32,109.32,0,0,0,25.08,10.46,97.9,97.9,0,0,0,26.89,3.94,56.5,56.5,0,0,0,12-1,13.83,13.83,0,0,0,6.41-2.93,6.11,6.11,0,0,0,2-4.61q0-4.28-4.73-6.75A50.19,50.19,0,0,0,4847.8,111q-7.76-1.69-17-3.6a159.92,159.92,0,0,1-18.57-5.06,72.55,72.55,0,0,1-17.1-8.33,39,39,0,0,1-12.48-13.61q-4.72-8.44-4.73-21a46.29,46.29,0,0,1,8.21-26.66q8.22-12,24.53-19.24t40.61-7.2a147.86,147.86,0,0,1,31.5,3.38A99.51,99.51,0,0,1,4910.69,20l-16,38.47a120.5,120.5,0,0,0-22.62-8.77,81.92,81.92,0,0,0-21.26-2.93,43.78,43.78,0,0,0-12.15,1.35q-4.5,1.35-6.41,3.6a7.45,7.45,0,0,0-1.91,4.95q0,4.05,4.72,6.41A50.91,50.91,0,0,0,4847.58,67q7.76,1.57,17.1,3.38a138.72,138.72,0,0,1,18.56,5,73.08,73.08,0,0,1,17,8.32,39.3,39.3,0,0,1,12.49,13.5q4.72,8.32,4.72,20.7a46,46,0,0,1-8.21,26.44q-8.22,12-24.41,19.35T4844.09,171Z"/><path class="cls-1" d="M5160.41,171a160.85,160.85,0,0,1-38.25-4.5q-18.45-4.5-30.37-11.7l17.1-38.7A109.22,109.22,0,0,0,5134,126.51a97.78,97.78,0,0,0,26.88,3.94,56.43,56.43,0,0,0,12-1,13.82,13.82,0,0,0,6.42-2.93,6.13,6.13,0,0,0,2-4.61q0-4.28-4.73-6.75a50.1,50.1,0,0,0-12.48-4.16q-7.77-1.69-17-3.6a159.77,159.77,0,0,1-18.56-5.06,72.18,72.18,0,0,1-17.1-8.33A38.94,38.94,0,0,1,5099,80.39q-4.72-8.44-4.73-21a46.23,46.23,0,0,1,8.22-26.66q8.2-12,24.52-19.24t40.61-7.2a147.86,147.86,0,0,1,31.5,3.38A99.4,99.4,0,0,1,5227,20l-16,38.47a120.68,120.68,0,0,0-22.61-8.77,82.05,82.05,0,0,0-21.27-2.93A43.78,43.78,0,0,0,5155,48.1c-3,.9-5.13,2.1-6.41,3.6a7.5,7.5,0,0,0-1.91,4.95q0,4.05,4.72,6.41A51.19,51.19,0,0,0,5163.9,67q7.77,1.57,17.1,3.38a138.86,138.86,0,0,1,18.57,5,73,73,0,0,1,17,8.32A39.21,39.21,0,0,1,5229,97.15q4.72,8.32,4.72,20.7a45.9,45.9,0,0,1-8.21,26.44q-8.22,12-24.41,19.35T5160.41,171Z"/><path class="cls-1" d="M5434.67,173.6h-55.8l-.25-53.26-20.8,39.09h-28.38l-20.69-37.29V173.6h-55.81V3.6h49l42.2,76.93,41-76.93h49.06Zm-43.36-12.5h30.82l-.37-145h-29.09l-48.34,90.72L5294.57,16.1h-29.13v145h30.81V73.85l40.55,73.08h13.51l40.57-76.25Z"/><path class="cls-1" d="M5519.9,173.6h-65.6V3.6h65.6Zm-53.1-12.5h40.6V16.1h-40.6Z"/><path class="cls-1" d="M5632.25,177.2a106.72,106.72,0,0,1-37.16-6.35,88.8,88.8,0,0,1-30-18.28,84,84,0,0,1-19.81-28.19,89.48,89.48,0,0,1-7-35.78,89.31,89.31,0,0,1,7-35.78,83.81,83.81,0,0,1,19.8-28.19,89,89,0,0,1,30-18.28A106.72,106.72,0,0,1,5632.25,0c16.27,0,30.95,2.91,43.64,8.66a82.74,82.74,0,0,1,32,25.29l3.52,4.6L5668.6,76.74l-4.12-5.18a48.61,48.61,0,0,0-13.63-12.08,31.2,31.2,0,0,0-15.9-4,34.19,34.19,0,0,0-12.76,2.25,25.37,25.37,0,0,0-9.34,6.34,30.44,30.44,0,0,0-6.24,10.38,40.74,40.74,0,0,0-2.31,14.15,40.74,40.74,0,0,0,2.31,14.15,30.44,30.44,0,0,0,6.24,10.38,25.37,25.37,0,0,0,9.34,6.34,34.18,34.18,0,0,0,12.76,2.26,31.16,31.16,0,0,0,15.9-4,48.59,48.59,0,0,0,13.63-12.08l4.12-5.18,42.81,38.21-3.58,4.61a84.46,84.46,0,0,1-31.91,25.14C5663.22,174.25,5648.53,177.2,5632.25,177.2Zm0-164.7a94.37,94.37,0,0,0-32.82,5.57,76.62,76.62,0,0,0-25.81,15.7,71.52,71.52,0,0,0-16.86,24,77.09,77.09,0,0,0-6,30.82,77.09,77.09,0,0,0,6,30.82,71.32,71.32,0,0,0,16.86,24,76.62,76.62,0,0,0,25.81,15.7,94.37,94.37,0,0,0,32.82,5.57c14.47,0,27.4-2.57,38.45-7.64a72.83,72.83,0,0,0,23.5-17l-24.28-21.68a58,58,0,0,1-12.85,10.17,43.88,43.88,0,0,1-22.12,5.67,46.62,46.62,0,0,1-17.4-3.15,38.23,38.23,0,0,1-13.83-9.41,43.06,43.06,0,0,1-8.84-14.59,53.19,53.19,0,0,1-3.08-18.48,53.23,53.23,0,0,1,3.08-18.48,43.06,43.06,0,0,1,8.84-14.59,38.19,38.19,0,0,1,13.83-9.41A46.61,46.61,0,0,1,5635,43a43.87,43.87,0,0,1,22.12,5.66,57.72,57.72,0,0,1,12.85,10.17l24.32-21.71A70.75,70.75,0,0,0,5670.73,20C5659.68,15,5646.73,12.5,5632.25,12.5Z"/><polygon class="cls-1" points="5039.31 9.85 5009.38 60.65 5009.38 60.64 5009.37 60.65 4979.44 9.85 4923.42 9.85 4982.82 109.6 4982.82 167.35 5009.38 167.35 5035.93 167.35 5035.93 109.6 5095.33 9.85 5039.31 9.85"/><path class="cls-1" d="M5799.14,171a160.85,160.85,0,0,1-38.25-4.5q-18.45-4.5-30.37-11.7l17.1-38.7a109.32,109.32,0,0,0,25.08,10.46,97.9,97.9,0,0,0,26.89,3.94,56.5,56.5,0,0,0,12-1,13.83,13.83,0,0,0,6.41-2.93,6.11,6.11,0,0,0,2-4.61q0-4.28-4.73-6.75a50.19,50.19,0,0,0-12.49-4.16q-7.76-1.69-17-3.6a159.92,159.92,0,0,1-18.57-5.06A72.55,72.55,0,0,1,5750.2,94a39,39,0,0,1-12.48-13.61q-4.73-8.44-4.73-21a46.29,46.29,0,0,1,8.21-26.66q8.22-12,24.53-19.24t40.61-7.2a147.86,147.86,0,0,1,31.5,3.38A99.51,99.51,0,0,1,5865.74,20l-16,38.47a120.5,120.5,0,0,0-22.62-8.77,81.92,81.92,0,0,0-21.26-2.93,43.78,43.78,0,0,0-12.15,1.35q-4.5,1.35-6.41,3.6a7.45,7.45,0,0,0-1.91,4.95q0,4.05,4.72,6.41A50.91,50.91,0,0,0,5802.63,67q7.76,1.57,17.1,3.38a138.72,138.72,0,0,1,18.56,5,73.08,73.08,0,0,1,17,8.32,39.3,39.3,0,0,1,12.49,13.5q4.72,8.32,4.72,20.7a46,46,0,0,1-8.21,26.44q-8.22,12-24.41,19.35T5799.14,171Z"/><path class="cls-1" d="M6115.46,171a160.85,160.85,0,0,1-38.25-4.5q-18.45-4.5-30.37-11.7l17.1-38.7A109.22,109.22,0,0,0,6089,126.51a97.78,97.78,0,0,0,26.88,3.94,56.43,56.43,0,0,0,12-1,13.78,13.78,0,0,0,6.41-2.93,6.11,6.11,0,0,0,2-4.61q0-4.28-4.73-6.75a50.25,50.25,0,0,0-12.48-4.16q-7.77-1.69-17-3.6a159.77,159.77,0,0,1-18.56-5.06,72.18,72.18,0,0,1-17.1-8.33A38.94,38.94,0,0,1,6054,80.39q-4.72-8.44-4.73-21a46.23,46.23,0,0,1,8.22-26.66q8.21-12,24.52-19.24t40.61-7.2a147.86,147.86,0,0,1,31.5,3.38A99.51,99.51,0,0,1,6182.06,20l-16,38.47a120.68,120.68,0,0,0-22.61-8.77,82.05,82.05,0,0,0-21.27-2.93,43.78,43.78,0,0,0-12.15,1.35q-4.5,1.35-6.41,3.6a7.5,7.5,0,0,0-1.91,4.95q0,4.05,4.72,6.41A51.05,51.05,0,0,0,6119,67q7.77,1.57,17.1,3.38a138.72,138.72,0,0,1,18.56,5,72.89,72.89,0,0,1,17,8.32,39.21,39.21,0,0,1,12.49,13.5q4.72,8.32,4.72,20.7a45.9,45.9,0,0,1-8.21,26.44q-8.22,12-24.41,19.35T6115.46,171Z"/><path class="cls-1" d="M6389.71,173.6h-55.79l-.25-53.26-20.8,39.09h-28.38l-20.69-37.29V173.6H6208V3.6h49l42.2,76.93,41-76.93h49.06Zm-43.35-12.5h30.82l-.37-145h-29.09l-48.34,90.72L6249.62,16.1h-29.13v145h30.81V73.85l40.55,73.08h13.51l40.57-76.25Z"/><path class="cls-1" d="M6475,173.6h-65.6V3.6H6475Zm-53.1-12.5h40.6V16.1h-40.6Z"/><path class="cls-1" d="M6587.3,177.2a106.68,106.68,0,0,1-37.16-6.35,88.7,88.7,0,0,1-30-18.28,84,84,0,0,1-19.81-28.19,89.48,89.48,0,0,1-7-35.78,89.48,89.48,0,0,1,7-35.78,84,84,0,0,1,19.81-28.19,89,89,0,0,1,30-18.28A106.68,106.68,0,0,1,6587.3,0c16.27,0,30.95,2.91,43.64,8.66a82.74,82.74,0,0,1,32,25.29l3.52,4.6-42.78,38.19-4.12-5.18a48.61,48.61,0,0,0-13.63-12.08,31.2,31.2,0,0,0-15.9-4,34.19,34.19,0,0,0-12.76,2.25,25.37,25.37,0,0,0-9.34,6.34,30.44,30.44,0,0,0-6.24,10.38,40.74,40.74,0,0,0-2.31,14.15,40.74,40.74,0,0,0,2.31,14.15,30.44,30.44,0,0,0,6.24,10.38,25.37,25.37,0,0,0,9.34,6.34,34.18,34.18,0,0,0,12.76,2.26,31.18,31.18,0,0,0,15.9-4,48.59,48.59,0,0,0,13.63-12.08l4.12-5.18,42.81,38.21-3.58,4.61A84.46,84.46,0,0,1,6631,168.42C6618.27,174.25,6603.58,177.2,6587.3,177.2Zm0-164.7a94.37,94.37,0,0,0-32.82,5.57,76.52,76.52,0,0,0-25.81,15.7,71.52,71.52,0,0,0-16.86,24,77.09,77.09,0,0,0-6,30.82,77.09,77.09,0,0,0,6,30.82,71.32,71.32,0,0,0,16.86,24,76.62,76.62,0,0,0,25.81,15.7,94.37,94.37,0,0,0,32.82,5.57c14.46,0,27.4-2.57,38.45-7.64a72.83,72.83,0,0,0,23.5-17L6625,118.39a58,58,0,0,1-12.85,10.17,43.88,43.88,0,0,1-22.12,5.67,46.62,46.62,0,0,1-17.4-3.15,38.35,38.35,0,0,1-13.84-9.41,43.19,43.19,0,0,1-8.83-14.59,53.19,53.19,0,0,1-3.08-18.48,53.23,53.23,0,0,1,3.08-18.48,43.06,43.06,0,0,1,8.84-14.59,38.19,38.19,0,0,1,13.83-9.41A46.61,46.61,0,0,1,6590,43a43.89,43.89,0,0,1,22.12,5.66A57.72,57.72,0,0,1,6625,58.81l24.32-21.71A70.86,70.86,0,0,0,6625.78,20C6614.73,15,6601.78,12.5,6587.3,12.5Z"/><polygon class="cls-1" points="5994.36 9.85 5964.43 60.65 5964.42 60.64 5964.42 60.65 5934.49 9.85 5878.47 9.85 5937.87 109.6 5937.87 167.35 5964.42 167.35 5990.98 167.35 5990.98 109.6 6050.38 9.85 5994.36 9.85"/><path class="cls-1" d="M6754.21,171a160.85,160.85,0,0,1-38.25-4.5q-18.45-4.5-30.37-11.7l17.1-38.7a109.22,109.22,0,0,0,25.09,10.46,97.78,97.78,0,0,0,26.88,3.94,56.43,56.43,0,0,0,12-1,13.78,13.78,0,0,0,6.41-2.93,6.11,6.11,0,0,0,2-4.61q0-4.28-4.73-6.75a50.25,50.25,0,0,0-12.48-4.16q-7.77-1.69-17-3.6a159.77,159.77,0,0,1-18.56-5.06,72.18,72.18,0,0,1-17.1-8.33,38.94,38.94,0,0,1-12.49-13.61q-4.72-8.44-4.73-21a46.23,46.23,0,0,1,8.22-26.66q8.21-12,24.52-19.24t40.61-7.2a147.86,147.86,0,0,1,31.5,3.38A99.51,99.51,0,0,1,6820.81,20l-16,38.47a120.68,120.68,0,0,0-22.61-8.77A82.05,82.05,0,0,0,6761,46.75a43.78,43.78,0,0,0-12.15,1.35q-4.5,1.35-6.41,3.6a7.45,7.45,0,0,0-1.91,4.95q0,4.05,4.72,6.41A51.05,51.05,0,0,0,6757.7,67q7.77,1.57,17.1,3.38a138.72,138.72,0,0,1,18.56,5,72.89,72.89,0,0,1,17,8.32,39.21,39.21,0,0,1,12.49,13.5q4.72,8.32,4.72,20.7a46,46,0,0,1-8.21,26.44q-8.22,12-24.41,19.35T6754.21,171Z"/><path class="cls-1" d="M7070.54,171a160.73,160.73,0,0,1-38.25-4.5q-18.47-4.5-30.38-11.7l17.1-38.7a109.22,109.22,0,0,0,25.09,10.46,97.79,97.79,0,0,0,26.89,3.94,56.39,56.39,0,0,0,12-1,13.82,13.82,0,0,0,6.42-2.93,6.1,6.1,0,0,0,2-4.61q0-4.28-4.72-6.75a50.34,50.34,0,0,0-12.49-4.16q-7.77-1.69-17-3.6a159.77,159.77,0,0,1-18.56-5.06A72.18,72.18,0,0,1,7021.6,94a38.94,38.94,0,0,1-12.49-13.61q-4.72-8.44-4.72-21a46.22,46.22,0,0,1,8.21-26.66q8.2-12,24.52-19.24t40.62-7.2a147.93,147.93,0,0,1,31.5,3.38A99.63,99.63,0,0,1,7137.14,20l-16,38.47a120.68,120.68,0,0,0-22.61-8.77,82,82,0,0,0-21.26-2.93,43.69,43.69,0,0,0-12.15,1.35c-3,.9-5.14,2.1-6.42,3.6a7.5,7.5,0,0,0-1.91,4.95q0,4.05,4.73,6.41A51,51,0,0,0,7074,67q7.77,1.57,17.1,3.38a138.86,138.86,0,0,1,18.57,5,73,73,0,0,1,17,8.32,39.21,39.21,0,0,1,12.49,13.5q4.73,8.32,4.73,20.7a45.91,45.91,0,0,1-8.22,26.44q-8.2,12-24.41,19.35T7070.54,171Z"/><path class="cls-1" d="M7344.79,173.6H7289l-.25-53.26-20.8,39.09h-28.38l-20.69-37.29V173.6h-55.81V3.6h49l42.2,76.93,41-76.93h49.06Zm-43.36-12.5h30.82l-.37-145h-29.09l-48.34,90.72L7204.69,16.1h-29.13v145h30.81V73.85l40.55,73.08h13.51L7301,70.68Z"/><path class="cls-1" d="M7430,173.6h-65.6V3.6H7430Zm-53.1-12.5h40.6V16.1h-40.6Z"/><path class="cls-1" d="M7542.37,177.2a106.72,106.72,0,0,1-37.16-6.35,88.8,88.8,0,0,1-30-18.28,83.81,83.81,0,0,1-19.8-28.19,89.48,89.48,0,0,1-7-35.78,89.48,89.48,0,0,1,7-35.78,83.81,83.81,0,0,1,19.8-28.19,89,89,0,0,1,30-18.28A106.72,106.72,0,0,1,7542.37,0c16.27,0,30.95,2.91,43.64,8.66A82.74,82.74,0,0,1,7618,34l3.52,4.6-42.78,38.19-4.12-5.18A48.61,48.61,0,0,0,7561,59.48a31.2,31.2,0,0,0-15.9-4,34.19,34.19,0,0,0-12.76,2.25,25.37,25.37,0,0,0-9.34,6.34,30.44,30.44,0,0,0-6.24,10.38,41,41,0,0,0-2.31,14.15,40.74,40.74,0,0,0,2.31,14.15,30.44,30.44,0,0,0,6.24,10.38,25.37,25.37,0,0,0,9.34,6.34,34.18,34.18,0,0,0,12.76,2.26,31.16,31.16,0,0,0,15.9-4,48.59,48.59,0,0,0,13.63-12.08l4.12-5.18,42.81,38.21-3.58,4.61A84.46,84.46,0,0,1,7586,168.42C7573.34,174.25,7558.65,177.2,7542.37,177.2Zm0-164.7a94.37,94.37,0,0,0-32.82,5.57,76.62,76.62,0,0,0-25.81,15.7,71.52,71.52,0,0,0-16.86,24,77.09,77.09,0,0,0-6,30.82,77.09,77.09,0,0,0,6,30.82,71.32,71.32,0,0,0,16.86,24,76.62,76.62,0,0,0,25.81,15.7,94.37,94.37,0,0,0,32.82,5.57c14.47,0,27.4-2.57,38.45-7.64a72.72,72.72,0,0,0,23.5-17L7580,118.39a57.72,57.72,0,0,1-12.85,10.17,43.85,43.85,0,0,1-22.12,5.67,46.62,46.62,0,0,1-17.4-3.15,38.23,38.23,0,0,1-13.83-9.41,43.06,43.06,0,0,1-8.84-14.59,53.43,53.43,0,0,1-3.08-18.48A53.47,53.47,0,0,1,7505,70.12a43.06,43.06,0,0,1,8.84-14.59,38.19,38.19,0,0,1,13.83-9.41,46.61,46.61,0,0,1,17.4-3.14,43.87,43.87,0,0,1,22.12,5.66A57.72,57.72,0,0,1,7580,58.81l24.32-21.71A70.75,70.75,0,0,0,7580.85,20C7569.8,15,7556.85,12.5,7542.37,12.5Z"/><polygon class="cls-1" points="6949.43 9.85 6919.5 60.65 6919.49 60.64 6919.49 60.65 6889.56 9.85 6833.54 9.85 6892.94 109.6 6892.94 167.35 6919.49 167.35 6946.05 167.35 6946.05 109.6 7005.45 9.85 6949.43 9.85"/><path class="cls-1" d="M7709.28,171a160.85,160.85,0,0,1-38.25-4.5q-18.45-4.5-30.37-11.7l17.1-38.7a109.22,109.22,0,0,0,25.09,10.46,97.78,97.78,0,0,0,26.88,3.94,56.43,56.43,0,0,0,12-1,13.78,13.78,0,0,0,6.41-2.93,6.11,6.11,0,0,0,2-4.61q0-4.28-4.73-6.75A50.25,50.25,0,0,0,7713,111q-7.77-1.69-17-3.6a159.77,159.77,0,0,1-18.56-5.06,72.18,72.18,0,0,1-17.1-8.33,38.94,38.94,0,0,1-12.49-13.61q-4.72-8.44-4.73-21a46.23,46.23,0,0,1,8.22-26.66q8.2-12,24.52-19.24t40.61-7.2A147.86,147.86,0,0,1,7748,9.63,99.51,99.51,0,0,1,7775.88,20l-16,38.47a120.68,120.68,0,0,0-22.61-8.77A82.05,82.05,0,0,0,7716,46.75a43.78,43.78,0,0,0-12.15,1.35q-4.5,1.35-6.41,3.6a7.5,7.5,0,0,0-1.91,4.95q0,4.05,4.72,6.41A51.05,51.05,0,0,0,7712.77,67q7.77,1.57,17.1,3.38a138.72,138.72,0,0,1,18.56,5,72.89,72.89,0,0,1,17,8.32,39.21,39.21,0,0,1,12.49,13.5q4.73,8.32,4.72,20.7a45.9,45.9,0,0,1-8.21,26.44q-8.22,12-24.41,19.35T7709.28,171Z"/><path class="cls-1" d="M8025.61,171a160.79,160.79,0,0,1-38.25-4.5q-18.45-4.5-30.38-11.7l17.1-38.7a109.22,109.22,0,0,0,25.09,10.46,97.85,97.85,0,0,0,26.89,3.94,56.39,56.39,0,0,0,12-1,13.82,13.82,0,0,0,6.42-2.93,6.1,6.1,0,0,0,2-4.61q0-4.28-4.72-6.75a50.34,50.34,0,0,0-12.49-4.16q-7.77-1.69-17-3.6a159.77,159.77,0,0,1-18.56-5.06,72.18,72.18,0,0,1-17.1-8.33,38.94,38.94,0,0,1-12.49-13.61q-4.73-8.44-4.72-21a46.22,46.22,0,0,1,8.21-26.66q8.2-12,24.52-19.24t40.62-7.2a147.86,147.86,0,0,1,31.5,3.38A99.51,99.51,0,0,1,8092.21,20l-16,38.47a120.68,120.68,0,0,0-22.61-8.77,82,82,0,0,0-21.26-2.93,43.78,43.78,0,0,0-12.15,1.35c-3,.9-5.14,2.1-6.42,3.6a7.5,7.5,0,0,0-1.91,4.95q0,4.05,4.73,6.41A51,51,0,0,0,8029.09,67q7.77,1.57,17.1,3.38a138.86,138.86,0,0,1,18.57,5,72.82,72.82,0,0,1,17,8.32,39.21,39.21,0,0,1,12.49,13.5q4.73,8.32,4.73,20.7a45.91,45.91,0,0,1-8.22,26.44q-8.2,12-24.41,19.35T8025.61,171Z"/><path class="cls-1" d="M8299.86,173.6h-55.8l-.25-53.26L8223,159.43h-28.38l-20.69-37.29V173.6h-55.81V3.6h49l42.2,76.93,41-76.93h49.06Zm-43.36-12.5h30.82l-.37-145h-29.09l-48.34,90.72L8159.76,16.1h-29.13v145h30.81V73.85L8202,146.93h13.52l40.56-76.25Z"/><path class="cls-1" d="M8385.09,173.6h-65.6V3.6h65.6ZM8332,161.1h40.6V16.1H8332Z"/><path class="cls-1" d="M8497.44,177.2a106.76,106.76,0,0,1-37.16-6.35,88.76,88.76,0,0,1-30-18.28,83.7,83.7,0,0,1-19.81-28.19,89.48,89.48,0,0,1-7-35.78,89.48,89.48,0,0,1,7-35.78,83.7,83.7,0,0,1,19.81-28.19,89.07,89.07,0,0,1,30-18.28A106.76,106.76,0,0,1,8497.44,0c16.27,0,30.95,2.91,43.64,8.66a82.74,82.74,0,0,1,32,25.29l3.52,4.6-42.78,38.19-4.12-5.18A48.61,48.61,0,0,0,8516,59.48a31.2,31.2,0,0,0-15.9-4,34.19,34.19,0,0,0-12.76,2.25,25.45,25.45,0,0,0-9.34,6.34,30.44,30.44,0,0,0-6.24,10.38,41,41,0,0,0-2.31,14.15,41,41,0,0,0,2.31,14.15,30.44,30.44,0,0,0,6.24,10.38,25.37,25.37,0,0,0,9.34,6.34,34.18,34.18,0,0,0,12.76,2.26,31.16,31.16,0,0,0,15.9-4,48.59,48.59,0,0,0,13.63-12.08l4.12-5.18,42.81,38.21-3.57,4.61a84.57,84.57,0,0,1-31.92,25.14C8528.41,174.25,8513.72,177.2,8497.44,177.2Zm0-164.7a94.37,94.37,0,0,0-32.82,5.57,76.62,76.62,0,0,0-25.81,15.7,71.52,71.52,0,0,0-16.86,24,77.09,77.09,0,0,0-6,30.82,77.09,77.09,0,0,0,6,30.82,71.32,71.32,0,0,0,16.86,24,76.62,76.62,0,0,0,25.81,15.7,94.37,94.37,0,0,0,32.82,5.57c14.47,0,27.41-2.57,38.45-7.64a72.87,72.87,0,0,0,23.51-17l-24.29-21.68a57.72,57.72,0,0,1-12.85,10.17,43.85,43.85,0,0,1-22.12,5.67,46.65,46.65,0,0,1-17.4-3.15,38.23,38.23,0,0,1-13.83-9.41,43.06,43.06,0,0,1-8.84-14.59A53.43,53.43,0,0,1,8457,88.6a53.47,53.47,0,0,1,3.08-18.48,43.06,43.06,0,0,1,8.84-14.59,38.19,38.19,0,0,1,13.83-9.41,46.61,46.61,0,0,1,17.4-3.14,43.87,43.87,0,0,1,22.12,5.66,57.72,57.72,0,0,1,12.85,10.17l24.32-21.71A70.75,70.75,0,0,0,8535.92,20C8524.87,15,8511.92,12.5,8497.44,12.5Z"/><polygon class="cls-1" points="7904.5 9.85 7874.57 60.65 7874.57 60.64 7874.56 60.65 7844.63 9.85 7788.61 9.85 7848.01 109.6 7848.01 167.35 7874.57 167.35 7901.12 167.35 7901.12 109.6 7960.52 9.85 7904.5 9.85"/><path class="cls-1" d="M8664.36,171a160.73,160.73,0,0,1-38.25-4.5q-18.47-4.5-30.38-11.7l17.1-38.7a109.22,109.22,0,0,0,25.09,10.46,97.79,97.79,0,0,0,26.89,3.94,56.39,56.39,0,0,0,12-1,13.82,13.82,0,0,0,6.42-2.93,6.1,6.1,0,0,0,2-4.61q0-4.28-4.72-6.75a50.34,50.34,0,0,0-12.49-4.16q-7.77-1.69-17-3.6a159.77,159.77,0,0,1-18.56-5.06,72.18,72.18,0,0,1-17.1-8.33,38.94,38.94,0,0,1-12.49-13.61q-4.72-8.44-4.72-21a46.22,46.22,0,0,1,8.21-26.66q8.2-12,24.52-19.24t40.62-7.2a147.93,147.93,0,0,1,31.5,3.38A99.63,99.63,0,0,1,8731,20l-16,38.47a120.68,120.68,0,0,0-22.61-8.77,82,82,0,0,0-21.26-2.93A43.69,43.69,0,0,0,8659,48.1c-3,.9-5.14,2.1-6.42,3.6a7.5,7.5,0,0,0-1.91,4.95q0,4.05,4.73,6.41A51,51,0,0,0,8667.84,67q7.77,1.57,17.1,3.38a138.86,138.86,0,0,1,18.57,5,73,73,0,0,1,17,8.32A39.21,39.21,0,0,1,8733,97.15q4.72,8.32,4.73,20.7a45.91,45.91,0,0,1-8.22,26.44q-8.2,12-24.41,19.35T8664.36,171Z"/><path class="cls-1" d="M8980.68,171a160.85,160.85,0,0,1-38.25-4.5q-18.45-4.5-30.38-11.7l17.1-38.7a109.4,109.4,0,0,0,25.09,10.46,97.9,97.9,0,0,0,26.89,3.94,56.5,56.5,0,0,0,12-1,13.83,13.83,0,0,0,6.41-2.93,6.1,6.1,0,0,0,2-4.61q0-4.28-4.72-6.75a50.19,50.19,0,0,0-12.49-4.16q-7.76-1.69-17-3.6a159.77,159.77,0,0,1-18.56-5.06,72.36,72.36,0,0,1-17.1-8.33,39,39,0,0,1-12.49-13.61q-4.72-8.44-4.72-21a46.22,46.22,0,0,1,8.21-26.66q8.2-12,24.53-19.24t40.61-7.2a147.86,147.86,0,0,1,31.5,3.38A99.51,99.51,0,0,1,9047.28,20l-16,38.47a120.68,120.68,0,0,0-22.61-8.77,82,82,0,0,0-21.26-2.93,43.78,43.78,0,0,0-12.15,1.35q-4.5,1.35-6.41,3.6a7.46,7.46,0,0,0-1.92,4.95q0,4.05,4.73,6.41A50.91,50.91,0,0,0,8984.17,67q7.75,1.57,17.1,3.38a138.72,138.72,0,0,1,18.56,5,73.08,73.08,0,0,1,17,8.32,39.28,39.28,0,0,1,12.48,13.5q4.73,8.32,4.73,20.7a46,46,0,0,1-8.21,26.44q-8.22,12-24.42,19.35T8980.68,171Z"/><path class="cls-1" d="M9254.93,173.6h-55.8l-.25-53.26-20.79,39.09H9149.7L9129,122.14V173.6H9073.2V3.6h49l42.2,76.93,41-76.93h49.06Zm-43.36-12.5h30.83l-.37-145h-29.1l-48.34,90.72L9114.83,16.1H9085.7v145h30.81V73.85l40.55,73.08h13.52l40.56-76.25Z"/><path class="cls-1" d="M9340.16,173.6h-65.6V3.6h65.6Zm-53.1-12.5h40.6V16.1h-40.6Z"/><path class="cls-1" d="M9452.51,177.2a106.76,106.76,0,0,1-37.16-6.35,88.76,88.76,0,0,1-30-18.28,83.84,83.84,0,0,1-19.81-28.19,89.48,89.48,0,0,1-7-35.78,89.48,89.48,0,0,1,7-35.78,83.84,83.84,0,0,1,19.81-28.19,89.07,89.07,0,0,1,30-18.28A106.76,106.76,0,0,1,9452.51,0c16.27,0,31,2.91,43.64,8.66a82.67,82.67,0,0,1,32,25.29l3.52,4.6-42.78,38.19-4.12-5.18a48.61,48.61,0,0,0-13.63-12.08,31.18,31.18,0,0,0-15.9-4,34.1,34.1,0,0,0-12.75,2.25,25.4,25.4,0,0,0-9.35,6.34,30.76,30.76,0,0,0-6.24,10.38,41,41,0,0,0-2.31,14.15,41,41,0,0,0,2.31,14.15,30.6,30.6,0,0,0,6.24,10.38,25.37,25.37,0,0,0,9.34,6.34,34.18,34.18,0,0,0,12.76,2.26,31.16,31.16,0,0,0,15.9-4,48.59,48.59,0,0,0,13.63-12.08l4.12-5.18,42.81,38.21-3.57,4.61a84.57,84.57,0,0,1-31.92,25.14C9483.48,174.25,9468.79,177.2,9452.51,177.2Zm0-164.7a94.41,94.41,0,0,0-32.82,5.57,76.48,76.48,0,0,0-25.8,15.7,71.55,71.55,0,0,0-16.87,24,77.09,77.09,0,0,0-6,30.82,77.09,77.09,0,0,0,6,30.82,71.35,71.35,0,0,0,16.87,24,76.48,76.48,0,0,0,25.8,15.7,94.41,94.41,0,0,0,32.82,5.57c14.47,0,27.41-2.57,38.45-7.64a72.87,72.87,0,0,0,23.51-17l-24.29-21.68a57.72,57.72,0,0,1-12.85,10.17,43.82,43.82,0,0,1-22.12,5.67,46.65,46.65,0,0,1-17.4-3.15,38.23,38.23,0,0,1-13.83-9.41,42.88,42.88,0,0,1-8.83-14.59,53.19,53.19,0,0,1-3.09-18.48,53.23,53.23,0,0,1,3.09-18.48A42.88,42.88,0,0,1,9424,55.53a38.19,38.19,0,0,1,13.83-9.41,46.65,46.65,0,0,1,17.4-3.14,43.87,43.87,0,0,1,22.12,5.66,57.49,57.49,0,0,1,12.85,10.17L9514.5,37.1A70.75,70.75,0,0,0,9491,20C9479.94,15,9467,12.5,9452.51,12.5Z"/><polygon class="cls-1" points="8859.57 9.85 8829.65 60.65 8829.64 60.64 8829.63 60.65 8799.7 9.85 8743.68 9.85 8803.08 109.6 8803.08 167.35 8829.64 167.35 8856.19 167.35 8856.19 109.6 8915.59 9.85 8859.57 9.85"/><path class="cls-1" d="M9619.4,171a160.85,160.85,0,0,1-38.25-4.5q-18.45-4.5-30.37-11.7l17.1-38.7A109.22,109.22,0,0,0,9593,126.51a97.78,97.78,0,0,0,26.88,3.94,56.43,56.43,0,0,0,12-1,13.78,13.78,0,0,0,6.41-2.93,6.11,6.11,0,0,0,2-4.61q0-4.28-4.73-6.75a50.25,50.25,0,0,0-12.48-4.16q-7.77-1.69-17-3.6a159.77,159.77,0,0,1-18.56-5.06,72.18,72.18,0,0,1-17.1-8.33A38.94,38.94,0,0,1,9558,80.39q-4.72-8.44-4.73-21a46.23,46.23,0,0,1,8.22-26.66q8.21-12,24.52-19.24t40.61-7.2a147.86,147.86,0,0,1,31.5,3.38A99.51,99.51,0,0,1,9686,20l-16,38.47a120.68,120.68,0,0,0-22.61-8.77,82.05,82.05,0,0,0-21.27-2.93A43.78,43.78,0,0,0,9614,48.1c-3,.9-5.13,2.1-6.41,3.6a7.5,7.5,0,0,0-1.91,4.95q0,4.05,4.72,6.41A51.05,51.05,0,0,0,9622.89,67q7.77,1.57,17.1,3.38a138.32,138.32,0,0,1,18.56,5,72.89,72.89,0,0,1,17,8.32A39.21,39.21,0,0,1,9688,97.15q4.73,8.32,4.72,20.7a45.9,45.9,0,0,1-8.21,26.44q-8.22,12-24.41,19.35T9619.4,171Z"/><path class="cls-1" d="M9935.73,171a160.85,160.85,0,0,1-38.25-4.5q-18.45-4.5-30.38-11.7l17.1-38.7a109.4,109.4,0,0,0,25.09,10.46,97.85,97.85,0,0,0,26.89,3.94,56.5,56.5,0,0,0,12-1,13.83,13.83,0,0,0,6.41-2.93,6.1,6.1,0,0,0,2-4.61q0-4.28-4.72-6.75a50.19,50.19,0,0,0-12.49-4.16q-7.77-1.69-17-3.6a159.77,159.77,0,0,1-18.56-5.06,72.36,72.36,0,0,1-17.1-8.33,39,39,0,0,1-12.49-13.61q-4.72-8.44-4.72-21a46.22,46.22,0,0,1,8.21-26.66q8.2-12,24.53-19.24t40.61-7.2a147.86,147.86,0,0,1,31.5,3.38,99.51,99.51,0,0,1,27.9,10.35l-16,38.47a120.68,120.68,0,0,0-22.61-8.77,82,82,0,0,0-21.26-2.93,43.78,43.78,0,0,0-12.15,1.35q-4.5,1.35-6.42,3.6a7.5,7.5,0,0,0-1.91,4.95q0,4.05,4.73,6.41A50.91,50.91,0,0,0,9939.22,67q7.75,1.57,17.1,3.38a138.72,138.72,0,0,1,18.56,5,73.08,73.08,0,0,1,17,8.32,39.28,39.28,0,0,1,12.48,13.5q4.73,8.32,4.73,20.7a46,46,0,0,1-8.21,26.44q-8.22,12-24.42,19.35T9935.73,171Z"/><path class="cls-1" d="M10210,173.6h-55.8l-.25-53.26-20.8,39.09h-28.38l-20.69-37.29V173.6h-55.81V3.6h49l42.2,76.93,41-76.93h49.06Zm-43.36-12.5h30.83l-.37-145H10168l-48.34,90.72-49.76-90.72h-29.13v145h30.81V73.85l40.55,73.08h13.52l40.56-76.25Z"/><path class="cls-1" d="M10295.21,173.6h-65.6V3.6h65.6Zm-53.1-12.5h40.6V16.1h-40.6Z"/><path class="cls-1" d="M10407.56,177.2a106.76,106.76,0,0,1-37.16-6.35,88.76,88.76,0,0,1-30-18.28,83.7,83.7,0,0,1-19.81-28.19,89.48,89.48,0,0,1-7-35.78,89.48,89.48,0,0,1,7-35.78,83.7,83.7,0,0,1,19.81-28.19,89.07,89.07,0,0,1,30-18.28A106.76,106.76,0,0,1,10407.56,0c16.27,0,31,2.91,43.64,8.66a82.67,82.67,0,0,1,32,25.29l3.52,4.6-42.78,38.19-4.12-5.18a48.61,48.61,0,0,0-13.63-12.08,31.2,31.2,0,0,0-15.9-4,34.19,34.19,0,0,0-12.76,2.25,25.45,25.45,0,0,0-9.34,6.34,30.6,30.6,0,0,0-6.24,10.38,41,41,0,0,0-2.31,14.15,41,41,0,0,0,2.31,14.15,30.6,30.6,0,0,0,6.24,10.38,25.37,25.37,0,0,0,9.34,6.34,34.18,34.18,0,0,0,12.76,2.26,31.16,31.16,0,0,0,15.9-4,48.59,48.59,0,0,0,13.63-12.08l4.12-5.18,42.81,38.21-3.57,4.61a84.57,84.57,0,0,1-31.92,25.14C10438.53,174.25,10423.84,177.2,10407.56,177.2Zm0-164.7a94.41,94.41,0,0,0-32.82,5.57,76.62,76.62,0,0,0-25.81,15.7,71.52,71.52,0,0,0-16.86,24,77.09,77.09,0,0,0-6,30.82,77.09,77.09,0,0,0,6,30.82,71.32,71.32,0,0,0,16.86,24,76.62,76.62,0,0,0,25.81,15.7,94.41,94.41,0,0,0,32.82,5.57c14.47,0,27.41-2.57,38.45-7.64a72.87,72.87,0,0,0,23.51-17l-24.29-21.68a57.72,57.72,0,0,1-12.85,10.17,43.85,43.85,0,0,1-22.12,5.67,46.65,46.65,0,0,1-17.4-3.15,38.23,38.23,0,0,1-13.83-9.41,42.88,42.88,0,0,1-8.83-14.59,53.19,53.19,0,0,1-3.09-18.48,53.23,53.23,0,0,1,3.09-18.48,42.88,42.88,0,0,1,8.83-14.59,38.19,38.19,0,0,1,13.83-9.41,46.65,46.65,0,0,1,17.4-3.14,43.87,43.87,0,0,1,22.12,5.66,57.49,57.49,0,0,1,12.85,10.17l24.32-21.71A70.75,70.75,0,0,0,10446,20C10435,15,10422,12.5,10407.56,12.5Z"/><polygon class="cls-1" points="9814.62 9.85 9784.69 60.65 9784.69 60.64 9784.68 60.65 9754.75 9.85 9698.73 9.85 9758.13 109.6 9758.13 167.35 9784.69 167.35 9811.25 167.35 9811.25 109.6 9870.65 9.85 9814.62 9.85"/><path class="cls-1" d="M10574.48,171a160.73,160.73,0,0,1-38.25-4.5q-18.47-4.5-30.38-11.7l17.1-38.7a109.22,109.22,0,0,0,25.09,10.46,97.79,97.79,0,0,0,26.89,3.94,56.39,56.39,0,0,0,12-1,13.82,13.82,0,0,0,6.42-2.93,6.1,6.1,0,0,0,2-4.61q0-4.28-4.72-6.75a50.34,50.34,0,0,0-12.49-4.16q-7.77-1.69-17-3.6a159.77,159.77,0,0,1-18.56-5.06,72.18,72.18,0,0,1-17.1-8.33,38.94,38.94,0,0,1-12.49-13.61q-4.72-8.44-4.72-21a46.22,46.22,0,0,1,8.21-26.66q8.2-12,24.52-19.24t40.62-7.2a147.93,147.93,0,0,1,31.5,3.38,99.63,99.63,0,0,1,27.9,10.35l-16,38.47a120.68,120.68,0,0,0-22.61-8.77,82,82,0,0,0-21.26-2.93,43.69,43.69,0,0,0-12.15,1.35c-3,.9-5.14,2.1-6.42,3.6a7.5,7.5,0,0,0-1.91,4.95q0,4.05,4.73,6.41A51,51,0,0,0,10578,67q7.77,1.57,17.1,3.38a138.86,138.86,0,0,1,18.57,5,73,73,0,0,1,17,8.32,39.21,39.21,0,0,1,12.49,13.5q4.73,8.32,4.73,20.7a45.91,45.91,0,0,1-8.22,26.44q-8.21,12-24.41,19.35T10574.48,171Z"/><path class="cls-1" d="M10890.8,171a160.85,160.85,0,0,1-38.25-4.5q-18.45-4.5-30.38-11.7l17.1-38.7a109.4,109.4,0,0,0,25.09,10.46,97.9,97.9,0,0,0,26.89,3.94,56.5,56.5,0,0,0,12-1,13.83,13.83,0,0,0,6.41-2.93,6.1,6.1,0,0,0,2-4.61q0-4.28-4.72-6.75a50.19,50.19,0,0,0-12.49-4.16q-7.75-1.69-17-3.6a159.77,159.77,0,0,1-18.56-5.06,72.55,72.55,0,0,1-17.1-8.33,39,39,0,0,1-12.49-13.61q-4.73-8.44-4.72-21a46.22,46.22,0,0,1,8.21-26.66q8.22-12,24.53-19.24t40.61-7.2a147.86,147.86,0,0,1,31.5,3.38A99.51,99.51,0,0,1,10957.4,20l-16,38.47a120.42,120.42,0,0,0-22.61-8.77,82,82,0,0,0-21.26-2.93,43.78,43.78,0,0,0-12.15,1.35q-4.5,1.35-6.41,3.6a7.46,7.46,0,0,0-1.92,4.95q0,4.05,4.73,6.41a50.91,50.91,0,0,0,12.49,3.94q7.75,1.57,17.1,3.38a138.72,138.72,0,0,1,18.56,5,73.08,73.08,0,0,1,17,8.32,39.28,39.28,0,0,1,12.48,13.5q4.73,8.32,4.73,20.7a46,46,0,0,1-8.21,26.44q-8.22,12-24.42,19.35T10890.8,171Z"/><path class="cls-1" d="M11165.05,173.6h-55.8l-.25-53.26-20.79,39.09h-28.39l-20.69-37.29V173.6h-55.81V3.6h49l42.2,76.93,41-76.93h49.06Zm-43.36-12.5h30.83l-.37-145h-29.1l-48.34,90.72L11025,16.1h-29.13v145h30.81V73.85l40.55,73.08h13.52l40.56-76.25Z"/><path class="cls-1" d="M11250.28,173.6h-65.6V3.6h65.6Zm-53.1-12.5h40.6V16.1h-40.6Z"/><path class="cls-1" d="M11362.63,177.2a106.76,106.76,0,0,1-37.16-6.35,88.76,88.76,0,0,1-30-18.28,83.84,83.84,0,0,1-19.81-28.19,89.48,89.48,0,0,1-7-35.78,89.48,89.48,0,0,1,7-35.78,83.84,83.84,0,0,1,19.81-28.19,89.07,89.07,0,0,1,30-18.28A106.76,106.76,0,0,1,11362.63,0c16.27,0,31,2.91,43.64,8.66a82.67,82.67,0,0,1,32,25.29l3.52,4.6L11399,76.74l-4.12-5.18a48.61,48.61,0,0,0-13.63-12.08,31.18,31.18,0,0,0-15.9-4,34.1,34.1,0,0,0-12.75,2.25,25.4,25.4,0,0,0-9.35,6.34,30.76,30.76,0,0,0-6.24,10.38,41,41,0,0,0-2.31,14.15,41,41,0,0,0,2.31,14.15,30.6,30.6,0,0,0,6.24,10.38,25.32,25.32,0,0,0,9.35,6.34,34.09,34.09,0,0,0,12.75,2.26,31.16,31.16,0,0,0,15.9-4,48.46,48.46,0,0,0,13.63-12.08l4.12-5.18,42.81,38.21-3.57,4.61a84.57,84.57,0,0,1-31.92,25.14C11393.6,174.25,11378.91,177.2,11362.63,177.2Zm0-164.7a94.45,94.45,0,0,0-32.82,5.57,76.48,76.48,0,0,0-25.8,15.7,71.55,71.55,0,0,0-16.87,24,77.09,77.09,0,0,0-6,30.82,77.09,77.09,0,0,0,6,30.82,71.35,71.35,0,0,0,16.87,24,76.48,76.48,0,0,0,25.8,15.7,94.45,94.45,0,0,0,32.82,5.57c14.47,0,27.41-2.57,38.45-7.64a72.87,72.87,0,0,0,23.51-17l-24.29-21.68a57.72,57.72,0,0,1-12.85,10.17,43.82,43.82,0,0,1-22.12,5.67,46.65,46.65,0,0,1-17.4-3.15,38.31,38.31,0,0,1-13.83-9.41,42.88,42.88,0,0,1-8.83-14.59,53.19,53.19,0,0,1-3.09-18.48,53.23,53.23,0,0,1,3.09-18.48,42.88,42.88,0,0,1,8.83-14.59,38.27,38.27,0,0,1,13.83-9.41,46.65,46.65,0,0,1,17.4-3.14,43.87,43.87,0,0,1,22.12,5.66,57.49,57.49,0,0,1,12.85,10.17l24.32-21.71A70.75,70.75,0,0,0,11401.11,20C11390.06,15,11377.11,12.5,11362.63,12.5Z"/><polygon class="cls-1" points="10769.69 9.85 10739.77 60.65 10739.76 60.64 10739.75 60.65 10709.83 9.85 10653.8 9.85 10713.2 109.6 10713.2 167.35 10739.76 167.35 10766.32 167.35 10766.32 109.6 10825.72 9.85 10769.69 9.85"/><path class="cls-1" d="M11529.68,171a160.85,160.85,0,0,1-38.25-4.5q-18.45-4.5-30.38-11.7l17.1-38.7a109.4,109.4,0,0,0,25.09,10.46,97.9,97.9,0,0,0,26.89,3.94,56.5,56.5,0,0,0,12-1,13.83,13.83,0,0,0,6.41-2.93,6.11,6.11,0,0,0,2-4.61q0-4.28-4.73-6.75a50.19,50.19,0,0,0-12.49-4.16q-7.76-1.69-17-3.6a159.77,159.77,0,0,1-18.56-5.06,72.55,72.55,0,0,1-17.1-8.33,39,39,0,0,1-12.49-13.61q-4.71-8.44-4.72-21a46.29,46.29,0,0,1,8.21-26.66q8.22-12,24.53-19.24t40.61-7.2a147.86,147.86,0,0,1,31.5,3.38,99.51,99.51,0,0,1,27.9,10.35l-16,38.47a120.42,120.42,0,0,0-22.61-8.77,81.92,81.92,0,0,0-21.26-2.93,43.78,43.78,0,0,0-12.15,1.35q-4.5,1.35-6.41,3.6a7.45,7.45,0,0,0-1.91,4.95q0,4.05,4.72,6.41a50.91,50.91,0,0,0,12.49,3.94q7.75,1.57,17.1,3.38a138.72,138.72,0,0,1,18.56,5,73.08,73.08,0,0,1,17,8.32,39.28,39.28,0,0,1,12.48,13.5q4.74,8.32,4.73,20.7a46,46,0,0,1-8.21,26.44q-8.22,12-24.42,19.35T11529.68,171Z"/><path class="cls-1" d="M11846,171a160.85,160.85,0,0,1-38.25-4.5q-18.45-4.5-30.37-11.7l17.1-38.7a109.32,109.32,0,0,0,25.08,10.46,97.9,97.9,0,0,0,26.89,3.94,56.5,56.5,0,0,0,12-1,13.78,13.78,0,0,0,6.41-2.93,6.11,6.11,0,0,0,2-4.61q0-4.28-4.73-6.75a50.25,50.25,0,0,0-12.48-4.16q-7.77-1.69-17-3.6a159.77,159.77,0,0,1-18.56-5.06,72.44,72.44,0,0,1-17.11-8.33,39,39,0,0,1-12.48-13.61q-4.73-8.44-4.73-21a46.29,46.29,0,0,1,8.21-26.66q8.22-12,24.53-19.24t40.61-7.2a147.86,147.86,0,0,1,31.5,3.38A99.51,99.51,0,0,1,11912.6,20l-16,38.47a120.68,120.68,0,0,0-22.61-8.77,82.05,82.05,0,0,0-21.27-2.93,43.78,43.78,0,0,0-12.15,1.35q-4.5,1.35-6.41,3.6a7.45,7.45,0,0,0-1.91,4.95q0,4.05,4.72,6.41a50.91,50.91,0,0,0,12.49,3.94q7.77,1.57,17.1,3.38a138.72,138.72,0,0,1,18.56,5,72.89,72.89,0,0,1,17,8.32,39.3,39.3,0,0,1,12.49,13.5q4.73,8.32,4.72,20.7a46,46,0,0,1-8.21,26.44q-8.22,12-24.41,19.35T11846,171Z"/><path class="cls-1" d="M12120.25,173.6h-55.79l-.26-53.26-20.79,39.09H12015l-20.69-37.29V173.6h-55.81V3.6h49l42.2,76.93,41-76.93h49.07Zm-43.35-12.5h30.82l-.37-145h-29.09l-48.34,90.72-49.76-90.72H11951v145h30.81V73.85l40.55,73.08h13.51l40.57-76.25Z"/><path class="cls-1" d="M12205.49,173.6h-65.6V3.6h65.6Zm-53.1-12.5h40.6V16.1h-40.6Z"/><path class="cls-1" d="M12317.83,177.2a106.76,106.76,0,0,1-37.16-6.35,88.76,88.76,0,0,1-30-18.28,84,84,0,0,1-19.81-28.19,89.48,89.48,0,0,1-7-35.78,89.48,89.48,0,0,1,7-35.78,84,84,0,0,1,19.81-28.19,89.07,89.07,0,0,1,30-18.28A106.76,106.76,0,0,1,12317.83,0c16.28,0,31,2.91,43.64,8.66a82.7,82.7,0,0,1,32,25.29l3.52,4.6-42.79,38.19-4.11-5.18a48.75,48.75,0,0,0-13.63-12.08,31.21,31.21,0,0,0-15.91-4,34.17,34.17,0,0,0-12.75,2.25,25.37,25.37,0,0,0-9.34,6.34,30.44,30.44,0,0,0-6.24,10.38,40.73,40.73,0,0,0-2.32,14.15,40.73,40.73,0,0,0,2.32,14.15,30.58,30.58,0,0,0,6.23,10.38,25.4,25.4,0,0,0,9.35,6.34,34.17,34.17,0,0,0,12.75,2.26,31.22,31.22,0,0,0,15.91-4,48.73,48.73,0,0,0,13.63-12.08l4.11-5.18,42.82,38.21-3.58,4.61a84.57,84.57,0,0,1-31.92,25.14C12348.81,174.25,12334.12,177.2,12317.83,177.2Zm0-164.7a94.35,94.35,0,0,0-32.81,5.57,76.52,76.52,0,0,0-25.81,15.7,71.55,71.55,0,0,0-16.87,24,77.26,77.26,0,0,0-6,30.82,77.26,77.26,0,0,0,6,30.82,71.35,71.35,0,0,0,16.87,24,76.52,76.52,0,0,0,25.81,15.7,94.35,94.35,0,0,0,32.81,5.57c14.47,0,27.41-2.57,38.46-7.64a72.83,72.83,0,0,0,23.5-17l-24.28-21.68a57.77,57.77,0,0,1-12.86,10.17,43.82,43.82,0,0,1-22.12,5.67,46.6,46.6,0,0,1-17.39-3.15,38.26,38.26,0,0,1-13.84-9.41,43,43,0,0,1-8.83-14.59,53.19,53.19,0,0,1-3.09-18.48,53.23,53.23,0,0,1,3.09-18.48,42.9,42.9,0,0,1,8.84-14.59,38.19,38.19,0,0,1,13.83-9.41,46.6,46.6,0,0,1,17.39-3.14,43.84,43.84,0,0,1,22.12,5.66,57.54,57.54,0,0,1,12.86,10.17l24.31-21.71a70.71,70.71,0,0,0-23.5-17.06C12345.26,15,12332.32,12.5,12317.83,12.5Z"/><polygon class="cls-1" points="11724.9 9.85 11694.97 60.65 11694.96 60.64 11694.95 60.65 11665.03 9.85 11609 9.85 11668.41 109.6 11668.41 167.35 11694.96 167.35 11721.52 167.35 11721.52 109.6 11780.92 9.85 11724.9 9.85"/><path class="cls-1" d="M12484.75,171a160.85,160.85,0,0,1-38.25-4.5q-18.45-4.5-30.37-11.7l17.1-38.7a109.32,109.32,0,0,0,25.08,10.46,97.9,97.9,0,0,0,26.89,3.94,56.5,56.5,0,0,0,12-1,13.83,13.83,0,0,0,6.41-2.93,6.11,6.11,0,0,0,2-4.61q0-4.28-4.73-6.75a50.19,50.19,0,0,0-12.49-4.16q-7.75-1.69-17-3.6a159.92,159.92,0,0,1-18.57-5.06,72.55,72.55,0,0,1-17.1-8.33,39,39,0,0,1-12.48-13.61q-4.73-8.44-4.73-21a46.29,46.29,0,0,1,8.21-26.66q8.22-12,24.53-19.24t40.61-7.2a147.86,147.86,0,0,1,31.5,3.38,99.51,99.51,0,0,1,27.9,10.35l-16,38.47a120.5,120.5,0,0,0-22.62-8.77,81.92,81.92,0,0,0-21.26-2.93,43.78,43.78,0,0,0-12.15,1.35q-4.5,1.35-6.41,3.6a7.45,7.45,0,0,0-1.91,4.95q0,4.05,4.72,6.41a50.91,50.91,0,0,0,12.49,3.94q7.75,1.57,17.1,3.38a138.72,138.72,0,0,1,18.56,5,73.08,73.08,0,0,1,17,8.32,39.3,39.3,0,0,1,12.49,13.5q4.73,8.32,4.72,20.7a46,46,0,0,1-8.21,26.44q-8.22,12-24.41,19.35T12484.75,171Z"/><path class="cls-1" d="M12801.07,171a160.85,160.85,0,0,1-38.25-4.5q-18.45-4.5-30.37-11.7l17.1-38.7a109.22,109.22,0,0,0,25.09,10.46,97.78,97.78,0,0,0,26.88,3.94,56.43,56.43,0,0,0,12-1,13.78,13.78,0,0,0,6.41-2.93,6.11,6.11,0,0,0,2-4.61q0-4.28-4.73-6.75a50.25,50.25,0,0,0-12.48-4.16q-7.77-1.69-17-3.6a159.77,159.77,0,0,1-18.56-5.06,72.18,72.18,0,0,1-17.1-8.33,38.94,38.94,0,0,1-12.49-13.61q-4.73-8.44-4.73-21a46.23,46.23,0,0,1,8.22-26.66q8.21-12,24.52-19.24t40.61-7.2a147.86,147.86,0,0,1,31.5,3.38,99.51,99.51,0,0,1,27.9,10.35l-16,38.47a120.68,120.68,0,0,0-22.61-8.77,82.05,82.05,0,0,0-21.27-2.93,43.78,43.78,0,0,0-12.15,1.35q-4.5,1.35-6.41,3.6a7.5,7.5,0,0,0-1.91,4.95q0,4.05,4.72,6.41a51.05,51.05,0,0,0,12.49,3.94q7.77,1.57,17.1,3.38a138.72,138.72,0,0,1,18.56,5,72.89,72.89,0,0,1,17,8.32,39.21,39.21,0,0,1,12.49,13.5q4.72,8.32,4.72,20.7a46,46,0,0,1-8.21,26.44q-8.22,12-24.41,19.35T12801.07,171Z"/><path class="cls-1" d="M13075.32,173.6h-55.79l-.26-53.26-20.79,39.09h-28.38l-20.69-37.29V173.6h-55.81V3.6h49l42.2,76.93,41-76.93h49.07ZM13032,161.1h30.82l-.37-145h-29.09L12985,106.82l-49.76-90.72h-29.13v145h30.81V73.85l40.55,73.08H12991l40.57-76.25Z"/><path class="cls-1" d="M13160.56,173.6H13095V3.6h65.6Zm-53.1-12.5h40.6V16.1h-40.6Z"/><path class="cls-1" d="M13272.9,177.2a106.67,106.67,0,0,1-37.15-6.35,88.7,88.7,0,0,1-30-18.28,84,84,0,0,1-19.81-28.19,89.48,89.48,0,0,1-7-35.78,89.48,89.48,0,0,1,7-35.78,84,84,0,0,1,19.81-28.19,89,89,0,0,1,30-18.28A106.67,106.67,0,0,1,13272.9,0c16.28,0,31,2.91,43.65,8.66a82.74,82.74,0,0,1,32,25.29l3.52,4.6-42.78,38.19-4.12-5.18a48.75,48.75,0,0,0-13.63-12.08,31.21,31.21,0,0,0-15.91-4,34.17,34.17,0,0,0-12.75,2.25,25.37,25.37,0,0,0-9.34,6.34,30.44,30.44,0,0,0-6.24,10.38A40.74,40.74,0,0,0,13245,88.6a40.74,40.74,0,0,0,2.31,14.15,30.44,30.44,0,0,0,6.24,10.38,25.28,25.28,0,0,0,9.34,6.34,34.17,34.17,0,0,0,12.75,2.26,31.19,31.19,0,0,0,15.91-4,48.59,48.59,0,0,0,13.63-12.08l4.12-5.18,42.81,38.21-3.58,4.61a84.49,84.49,0,0,1-31.92,25.14C13303.88,174.25,13289.19,177.2,13272.9,177.2Zm0-164.7a94.35,94.35,0,0,0-32.81,5.57,76.52,76.52,0,0,0-25.81,15.7,71.52,71.52,0,0,0-16.86,24,77.09,77.09,0,0,0-6,30.82,77.09,77.09,0,0,0,6,30.82,71.32,71.32,0,0,0,16.86,24,76.62,76.62,0,0,0,25.81,15.7,94.35,94.35,0,0,0,32.81,5.57c14.47,0,27.41-2.57,38.46-7.64a72.83,72.83,0,0,0,23.5-17l-24.28-21.68a58,58,0,0,1-12.85,10.17,43.89,43.89,0,0,1-22.13,5.67,46.6,46.6,0,0,1-17.39-3.15,38.35,38.35,0,0,1-13.84-9.41,43.19,43.19,0,0,1-8.83-14.59,53.19,53.19,0,0,1-3.08-18.48,53.23,53.23,0,0,1,3.08-18.48,43.06,43.06,0,0,1,8.84-14.59,38.19,38.19,0,0,1,13.83-9.41A46.6,46.6,0,0,1,13275.6,43a43.91,43.91,0,0,1,22.13,5.66,57.72,57.72,0,0,1,12.85,10.17l24.32-21.71A70.86,70.86,0,0,0,13311.39,20C13300.34,15,13287.39,12.5,13272.9,12.5Z"/><polygon class="cls-1" points="12679.97 9.85 12650.04 60.65 12650.03 60.64 12650.03 60.65 12620.1 9.85 12564.08 9.85 12623.48 109.6 12623.48 167.35 12650.03 167.35 12676.59 167.35 12676.59 109.6 12735.99 9.85 12679.97 9.85"/><path class="cls-1" d="M13439.8,171a160.85,160.85,0,0,1-38.25-4.5q-18.45-4.5-30.37-11.7l17.1-38.7a109.14,109.14,0,0,0,25.08,10.46,97.9,97.9,0,0,0,26.89,3.94,56.5,56.5,0,0,0,12-1,13.83,13.83,0,0,0,6.41-2.93,6.11,6.11,0,0,0,2-4.61q0-4.28-4.73-6.75a50.19,50.19,0,0,0-12.49-4.16q-7.75-1.69-17-3.6a159.92,159.92,0,0,1-18.57-5.06,72.55,72.55,0,0,1-17.1-8.33,39,39,0,0,1-12.48-13.61q-4.73-8.44-4.73-21a46.29,46.29,0,0,1,8.21-26.66q8.22-12,24.53-19.24t40.61-7.2a147.86,147.86,0,0,1,31.5,3.38A99.51,99.51,0,0,1,13506.4,20l-16,38.47a120.76,120.76,0,0,0-22.62-8.77,81.92,81.92,0,0,0-21.26-2.93,43.78,43.78,0,0,0-12.15,1.35q-4.5,1.35-6.41,3.6a7.45,7.45,0,0,0-1.91,4.95q0,4.05,4.72,6.41a50.91,50.91,0,0,0,12.49,3.94q7.75,1.57,17.1,3.38a138.72,138.72,0,0,1,18.56,5,73.08,73.08,0,0,1,17,8.32,39.3,39.3,0,0,1,12.49,13.5q4.72,8.32,4.72,20.7a46,46,0,0,1-8.21,26.44q-8.22,12-24.41,19.35T13439.8,171Z"/><path class="cls-1" d="M13756.12,171a160.85,160.85,0,0,1-38.25-4.5q-18.45-4.5-30.37-11.7l17.1-38.7a109.22,109.22,0,0,0,25.09,10.46,97.78,97.78,0,0,0,26.88,3.94,56.43,56.43,0,0,0,12-1,13.78,13.78,0,0,0,6.41-2.93,6.11,6.11,0,0,0,2-4.61q0-4.28-4.73-6.75a50.25,50.25,0,0,0-12.48-4.16q-7.77-1.69-17-3.6a159.77,159.77,0,0,1-18.56-5.06,72.18,72.18,0,0,1-17.1-8.33,38.94,38.94,0,0,1-12.49-13.61q-4.73-8.44-4.73-21a46.23,46.23,0,0,1,8.22-26.66q8.2-12,24.52-19.24t40.61-7.2a147.86,147.86,0,0,1,31.5,3.38,99.51,99.51,0,0,1,27.9,10.35l-16,38.47a120.68,120.68,0,0,0-22.61-8.77,82.05,82.05,0,0,0-21.27-2.93,43.78,43.78,0,0,0-12.15,1.35q-4.5,1.35-6.41,3.6a7.45,7.45,0,0,0-1.91,4.95q0,4.05,4.72,6.41a51.05,51.05,0,0,0,12.49,3.94q7.77,1.57,17.1,3.38a138.72,138.72,0,0,1,18.56,5,72.89,72.89,0,0,1,17,8.32,39.21,39.21,0,0,1,12.49,13.5q4.72,8.32,4.72,20.7a46,46,0,0,1-8.21,26.44q-8.22,12-24.41,19.35T13756.12,171Z"/><path class="cls-1" d="M14030.37,173.6h-55.79l-.26-53.26-20.79,39.09h-28.38l-20.69-37.29V173.6h-55.81V3.6h49l42.2,76.93,41-76.93h49.07ZM13987,161.1h30.82l-.37-145h-29.09L13940,106.82l-49.76-90.72h-29.13v145H13892V73.85l40.55,73.08H13946l40.57-76.25Z"/><path class="cls-1" d="M14115.61,173.6H14050V3.6h65.6Zm-53.1-12.5h40.6V16.1h-40.6Z"/><path class="cls-1" d="M14228,177.2a106.67,106.67,0,0,1-37.15-6.35,88.7,88.7,0,0,1-30-18.28,84,84,0,0,1-19.81-28.19,89.48,89.48,0,0,1-7-35.78,89.48,89.48,0,0,1,7-35.78,84,84,0,0,1,19.81-28.19,89.07,89.07,0,0,1,30-18.28A106.76,106.76,0,0,1,14228,0c16.28,0,31,2.91,43.64,8.66a82.7,82.7,0,0,1,32,25.29l3.52,4.6-42.79,38.19-4.11-5.18a48.75,48.75,0,0,0-13.63-12.08,31.21,31.21,0,0,0-15.91-4,34.17,34.17,0,0,0-12.75,2.25,25.37,25.37,0,0,0-9.34,6.34,30.44,30.44,0,0,0-6.24,10.38A40.73,40.73,0,0,0,14200,88.6a40.73,40.73,0,0,0,2.32,14.15,30.44,30.44,0,0,0,6.24,10.38,25.28,25.28,0,0,0,9.34,6.34,34.17,34.17,0,0,0,12.75,2.26,31.22,31.22,0,0,0,15.91-4,48.59,48.59,0,0,0,13.63-12.08l4.11-5.18,42.82,38.21-3.58,4.61a84.49,84.49,0,0,1-31.92,25.14C14258.93,174.25,14244.24,177.2,14228,177.2Zm0-164.7a94.35,94.35,0,0,0-32.81,5.57,76.52,76.52,0,0,0-25.81,15.7,71.52,71.52,0,0,0-16.86,24,77.09,77.09,0,0,0-6,30.82,77.26,77.26,0,0,0,6,30.82,71.35,71.35,0,0,0,16.87,24,76.52,76.52,0,0,0,25.81,15.7,94.35,94.35,0,0,0,32.81,5.57c14.47,0,27.41-2.57,38.46-7.64a72.83,72.83,0,0,0,23.5-17l-24.28-21.68a57.77,57.77,0,0,1-12.86,10.17,43.82,43.82,0,0,1-22.12,5.67,46.6,46.6,0,0,1-17.39-3.15,38.26,38.26,0,0,1-13.84-9.41,43.19,43.19,0,0,1-8.83-14.59,53.19,53.19,0,0,1-3.09-18.48,53.23,53.23,0,0,1,3.09-18.48,43.06,43.06,0,0,1,8.84-14.59,38.19,38.19,0,0,1,13.83-9.41,46.6,46.6,0,0,1,17.39-3.14,43.84,43.84,0,0,1,22.12,5.66,57.54,57.54,0,0,1,12.86,10.17l24.31-21.71a70.71,70.71,0,0,0-23.5-17.06C14255.38,15,14242.44,12.5,14228,12.5Z"/><polygon class="cls-1" points="13635.01 9.85 13605.09 60.65 13605.08 60.64 13605.08 60.65 13575.15 9.85 13519.13 9.85 13578.53 109.6 13578.53 167.35 13605.08 167.35 13631.64 167.35 13631.64 109.6 13691.04 9.85 13635.01 9.85"/><path class="cls-1" d="M14394.87,171a160.85,160.85,0,0,1-38.25-4.5q-18.45-4.5-30.37-11.7l17.1-38.7a109.32,109.32,0,0,0,25.08,10.46,97.9,97.9,0,0,0,26.89,3.94,56.5,56.5,0,0,0,12-1,13.83,13.83,0,0,0,6.41-2.93,6.11,6.11,0,0,0,2-4.61q0-4.28-4.73-6.75a50.19,50.19,0,0,0-12.49-4.16q-7.75-1.69-17-3.6a159.92,159.92,0,0,1-18.57-5.06,72.55,72.55,0,0,1-17.1-8.33,39,39,0,0,1-12.48-13.61q-4.73-8.44-4.73-21a46.29,46.29,0,0,1,8.21-26.66q8.22-12,24.53-19.24t40.61-7.2a147.86,147.86,0,0,1,31.5,3.38,99.51,99.51,0,0,1,27.9,10.35l-16,38.47a120.5,120.5,0,0,0-22.62-8.77,81.92,81.92,0,0,0-21.26-2.93,43.78,43.78,0,0,0-12.15,1.35q-4.5,1.35-6.41,3.6a7.45,7.45,0,0,0-1.91,4.95q0,4.05,4.72,6.41a50.91,50.91,0,0,0,12.49,3.94q7.76,1.57,17.1,3.38a138.72,138.72,0,0,1,18.56,5,73.08,73.08,0,0,1,17,8.32,39.3,39.3,0,0,1,12.49,13.5q4.72,8.32,4.72,20.7a46,46,0,0,1-8.21,26.44q-8.22,12-24.41,19.35T14394.87,171Z"/><path class="cls-1" d="M14711.19,171a160.85,160.85,0,0,1-38.25-4.5q-18.45-4.5-30.37-11.7l17.1-38.7a109.22,109.22,0,0,0,25.09,10.46,97.78,97.78,0,0,0,26.88,3.94,56.43,56.43,0,0,0,12-1,13.78,13.78,0,0,0,6.41-2.93,6.11,6.11,0,0,0,2-4.61q0-4.28-4.73-6.75a50.25,50.25,0,0,0-12.48-4.16q-7.77-1.69-17-3.6a159.77,159.77,0,0,1-18.56-5.06,72.18,72.18,0,0,1-17.1-8.33,38.94,38.94,0,0,1-12.49-13.61q-4.72-8.44-4.73-21a46.23,46.23,0,0,1,8.22-26.66q8.2-12,24.52-19.24t40.61-7.2a147.86,147.86,0,0,1,31.5,3.38,99.51,99.51,0,0,1,27.9,10.35l-16,38.47a120.68,120.68,0,0,0-22.61-8.77,82.05,82.05,0,0,0-21.27-2.93,43.78,43.78,0,0,0-12.15,1.35q-4.5,1.35-6.41,3.6a7.5,7.5,0,0,0-1.91,4.95q0,4.05,4.72,6.41a51.05,51.05,0,0,0,12.49,3.94q7.77,1.57,17.1,3.38a138.72,138.72,0,0,1,18.56,5,72.89,72.89,0,0,1,17,8.32,39.21,39.21,0,0,1,12.49,13.5q4.72,8.32,4.72,20.7a45.9,45.9,0,0,1-8.21,26.44q-8.22,12-24.41,19.35T14711.19,171Z"/><path class="cls-1" d="M14985.44,173.6h-55.79l-.25-53.26-20.8,39.09h-28.38l-20.69-37.29V173.6h-55.81V3.6h49l42.2,76.93,41-76.93H14985Zm-43.35-12.5h30.82l-.37-145h-29.09l-48.34,90.72-49.76-90.72h-29.13v145H14847V73.85l40.55,73.08h13.51l40.57-76.25Z"/><path class="cls-1" d="M15070.68,173.6h-65.6V3.6h65.6Zm-53.1-12.5h40.6V16.1h-40.6Z"/><path class="cls-1" d="M15183,177.2a106.68,106.68,0,0,1-37.16-6.35,88.7,88.7,0,0,1-30-18.28,84,84,0,0,1-19.81-28.19,89.48,89.48,0,0,1-7-35.78,89.31,89.31,0,0,1,7-35.78,83.81,83.81,0,0,1,19.8-28.19,89,89,0,0,1,30-18.28A106.68,106.68,0,0,1,15183,0c16.27,0,30.95,2.91,43.64,8.66a82.74,82.74,0,0,1,32,25.29l3.52,4.6-42.78,38.19-4.12-5.18a48.61,48.61,0,0,0-13.63-12.08,31.2,31.2,0,0,0-15.9-4,34.19,34.19,0,0,0-12.76,2.25,25.37,25.37,0,0,0-9.34,6.34,30.44,30.44,0,0,0-6.24,10.38,40.74,40.74,0,0,0-2.31,14.15,40.74,40.74,0,0,0,2.31,14.15,30.44,30.44,0,0,0,6.24,10.38,25.37,25.37,0,0,0,9.34,6.34,34.18,34.18,0,0,0,12.76,2.26,31.18,31.18,0,0,0,15.9-4,48.59,48.59,0,0,0,13.63-12.08l4.12-5.18,42.81,38.21-3.58,4.61a84.46,84.46,0,0,1-31.91,25.14C15214,174.25,15199.31,177.2,15183,177.2Zm0-164.7a94.37,94.37,0,0,0-32.82,5.57,76.52,76.52,0,0,0-25.81,15.7,71.52,71.52,0,0,0-16.86,24,77.09,77.09,0,0,0-6,30.82,77.09,77.09,0,0,0,6,30.82,71.32,71.32,0,0,0,16.86,24,76.62,76.62,0,0,0,25.81,15.7,94.37,94.37,0,0,0,32.82,5.57c14.46,0,27.4-2.57,38.45-7.64a72.83,72.83,0,0,0,23.5-17l-24.28-21.68a58,58,0,0,1-12.85,10.17,43.88,43.88,0,0,1-22.12,5.67,46.62,46.62,0,0,1-17.4-3.15,38.35,38.35,0,0,1-13.84-9.41,43.19,43.19,0,0,1-8.83-14.59,53.19,53.19,0,0,1-3.08-18.48,53.23,53.23,0,0,1,3.08-18.48,43.06,43.06,0,0,1,8.84-14.59,38.19,38.19,0,0,1,13.83-9.41,46.61,46.61,0,0,1,17.4-3.14,43.89,43.89,0,0,1,22.12,5.66,57.72,57.72,0,0,1,12.85,10.17L15245,37.1A70.86,70.86,0,0,0,15221.51,20C15210.46,15,15197.51,12.5,15183,12.5Z"/><polygon class="cls-1" points="14590.09 9.85 14560.16 60.65 14560.15 60.64 14560.15 60.65 14530.22 9.85 14474.2 9.85 14533.6 109.6 14533.6 167.35 14560.15 167.35 14586.71 167.35 14586.71 109.6 14646.11 9.85 14590.09 9.85"/></g></g></svg>