<?xml version="1.0" encoding="UTF-8"?>
<svg id="Calque_2" data-name="Calque 2" xmlns="http://www.w3.org/2000/svg" viewBox="0 0 474.41 144">
  <defs>
    <style>
      .cls-1 {
        stroke-width: 0px;
      }
    </style>
  </defs>
  <g id="Calque_1-2" data-name="Calque 1">
    <path class="cls-1" d="m101.25,71.22l58.16-20.58-54.61,9.6c-3.65.64-7.35-.87-9.52-3.88L54.82,0l24.03,89.67-9.63-13.42c-2.51-3.49-7.02-4.91-11.07-3.47L0,93.36l54.61-9.6c3.65-.64,7.35.87,9.52,3.88l40.46,56.36-24.03-89.67,9.63,13.42c2.51,3.49,7.02,4.91,11.07,3.47Z"/>
    <g>
      <path class="cls-1" d="m178.93,85.16c.64,1.21,1.49,2.18,2.55,2.93,1.06.75,2.3,1.3,3.73,1.66,1.43.36,2.9.54,4.43.54,1.03,0,2.14-.08,3.32-.25,1.18-.17,2.29-.49,3.32-.98,1.03-.48,1.89-1.14,2.58-1.99.69-.84,1.03-1.92,1.03-3.22,0-1.4-.46-2.53-1.37-3.4-.91-.87-2.1-1.59-3.58-2.17-1.48-.58-3.15-1.08-5.02-1.52-1.87-.43-3.76-.92-5.68-1.45-1.97-.48-3.89-1.07-5.76-1.77-1.87-.7-3.54-1.6-5.02-2.71-1.48-1.11-2.67-2.49-3.58-4.16-.91-1.66-1.37-3.67-1.37-6.04,0-2.65.58-4.95,1.73-6.9,1.16-1.95,2.67-3.58,4.54-4.88,1.87-1.3,3.99-2.27,6.35-2.89,2.36-.63,4.72-.94,7.09-.94,2.75,0,5.4.3,7.93.9,2.53.6,4.78,1.58,6.75,2.93,1.97,1.35,3.53,3.07,4.69,5.17,1.16,2.1,1.73,4.64,1.73,7.63h-11.22c-.1-1.54-.43-2.82-1-3.83-.57-1.01-1.32-1.81-2.25-2.39-.93-.58-2.01-.99-3.21-1.23-1.21-.24-2.52-.36-3.95-.36-.94,0-1.87.1-2.8.29-.94.19-1.78.53-2.55,1.01-.76.48-1.39,1.08-1.88,1.81-.49.72-.74,1.64-.74,2.75,0,1.01.2,1.83.59,2.46.39.63,1.17,1.2,2.32,1.73,1.16.53,2.75,1.06,4.8,1.59,2.04.53,4.71,1.2,8.01,2.02.98.19,2.35.54,4.1,1.05,1.75.51,3.48,1.31,5.2,2.42,1.72,1.11,3.21,2.59,4.46,4.45,1.25,1.86,1.88,4.23,1.88,7.12,0,2.36-.47,4.55-1.4,6.58-.94,2.02-2.32,3.77-4.17,5.24-1.85,1.47-4.13,2.61-6.86,3.43-2.73.82-5.89,1.23-9.48,1.23-2.9,0-5.72-.35-8.45-1.05-2.73-.7-5.14-1.8-7.23-3.29-2.09-1.49-3.75-3.4-4.98-5.71-1.23-2.31-1.82-5.06-1.77-8.24h11.22c0,1.73.32,3.21.96,4.41Z"/>
      <path class="cls-1" d="m218.38,45.04h12.99l12.33,21.25,12.25-21.25h12.92l-19.56,33.16v20.65h-11.59v-20.95l-19.34-32.86Z"/>
      <path class="cls-1" d="m286.57,85.12c.64,1.21,1.49,2.18,2.55,2.93,1.06.75,2.3,1.3,3.73,1.66,1.43.36,2.9.54,4.43.54,1.03,0,2.14-.08,3.32-.25,1.18-.17,2.29-.49,3.32-.98,1.03-.48,1.89-1.14,2.58-1.99.69-.84,1.03-1.92,1.03-3.22,0-1.4-.46-2.53-1.37-3.4-.91-.87-2.1-1.59-3.58-2.17-1.48-.58-3.15-1.08-5.02-1.52-1.87-.43-3.76-.92-5.68-1.45-1.97-.48-3.89-1.07-5.76-1.77-1.87-.7-3.54-1.6-5.02-2.71-1.48-1.11-2.67-2.49-3.58-4.16-.91-1.66-1.37-3.67-1.37-6.04,0-2.65.58-4.95,1.73-6.9,1.16-1.95,2.67-3.58,4.54-4.88,1.87-1.3,3.99-2.27,6.35-2.89,2.36-.63,4.72-.94,7.09-.94,2.75,0,5.4.3,7.93.9,2.53.6,4.78,1.58,6.75,2.93,1.97,1.35,3.53,3.07,4.69,5.17,1.16,2.1,1.73,4.64,1.73,7.63h-11.22c-.1-1.54-.43-2.82-1-3.83-.57-1.01-1.32-1.81-2.25-2.39-.93-.58-2.01-.99-3.21-1.23-1.21-.24-2.52-.36-3.95-.36-.94,0-1.87.1-2.8.29-.94.19-1.78.53-2.55,1.01-.76.48-1.39,1.08-1.88,1.81-.49.72-.74,1.64-.74,2.75,0,1.01.2,1.83.59,2.46.39.63,1.17,1.2,2.32,1.73,1.16.53,2.75,1.06,4.8,1.59,2.04.53,4.71,1.2,8.01,2.02.98.19,2.35.54,4.1,1.05,1.75.51,3.48,1.31,5.2,2.42,1.72,1.11,3.21,2.59,4.46,4.45,1.25,1.86,1.88,4.23,1.88,7.12,0,2.36-.47,4.55-1.4,6.58-.94,2.02-2.32,3.77-4.17,5.24-1.85,1.47-4.13,2.61-6.86,3.43-2.73.82-5.89,1.23-9.48,1.23-2.9,0-5.72-.35-8.45-1.05-2.73-.7-5.14-1.8-7.23-3.29-2.09-1.49-3.75-3.4-4.98-5.71-1.23-2.31-1.82-5.06-1.77-8.24h11.22c0,1.73.32,3.21.96,4.41Z"/>
      <path class="cls-1" d="m346.35,45l12.32,37.13h.15l11.66-37.13h16.31v54h-10.85v-38.27h-.15l-12.92,38.27h-8.93l-12.92-37.89h-.15v37.89h-10.85v-54h16.31Z"/>
      <path class="cls-1" d="m413,45v54h-11.59v-54h11.59Z"/>
      <path class="cls-1" d="m461.42,60c-.69-1.08-1.55-2.04-2.58-2.86s-2.2-1.46-3.51-1.92c-1.31-.46-2.67-.69-4.1-.69-2.61,0-4.82.49-6.64,1.48-1.82.99-3.3,2.31-4.43,3.98-1.13,1.66-1.96,3.55-2.47,5.67s-.78,4.31-.78,6.58.26,4.28.78,6.33c.52,2.05,1.34,3.89,2.47,5.53,1.13,1.64,2.61,2.95,4.43,3.94,1.82.99,4.03,1.48,6.64,1.48,3.54,0,6.31-1.06,8.3-3.18,1.99-2.12,3.21-4.92,3.65-8.39h11.22c-.3,3.23-1.06,6.14-2.29,8.75s-2.85,4.82-4.87,6.65c-2.02,1.83-4.38,3.23-7.09,4.19-2.71.96-5.68,1.45-8.93,1.45-4.04,0-7.66-.69-10.89-2.06-3.22-1.37-5.94-3.26-8.16-5.67-2.21-2.41-3.91-5.24-5.09-8.49-1.18-3.25-1.77-6.76-1.77-10.52s.59-7.43,1.77-10.73c1.18-3.3,2.88-6.18,5.09-8.64s4.93-4.38,8.16-5.78c3.22-1.4,6.85-2.1,10.89-2.1,2.9,0,5.65.41,8.23,1.23s4.9,2.01,6.94,3.58c2.04,1.57,3.73,3.51,5.06,5.82,1.33,2.31,2.16,4.96,2.51,7.95h-11.22c-.2-1.3-.64-2.49-1.33-3.58Z"/>
    </g>
  </g>
</svg>