<?xml version="1.0" encoding="utf-8"?>
<!-- Generator: Adobe Illustrator 25.2.0, SVG Export Plug-In . SVG Version: 6.00 Build 0)  -->
<svg version="1.1" id="Calque_1" xmlns="http://www.w3.org/2000/svg" xmlns:xlink="http://www.w3.org/1999/xlink" x="0px" y="0px"
	 viewBox="0 0 595.3 841.9" style="enable-background:new 0 0 595.3 841.9;" xml:space="preserve">
<style type="text/css">
	.st0{fill:#FFFFFF;}
</style>
<g>
	<g>
		<path class="st0" d="M3252.5,496.4c0,627.6,0,1255.2,0,1882.7c-1141.2,0-2282.5,0-3423.7,0c0.5-0.9,0.8-2.1,1.5-2.5
			c9-5.2,14.3-13.4,18.7-22.4c1.6-3.3,3-6.6,4.5-9.9c11-24.7,22-49.4,33-74.1c19.6-44.2,39.3-88.3,58.9-132.5
			c2.5-5.7,4.7-11.5,6.6-17.5c2.5-7.8,1.5-15.5-1.8-22.8c-3.6-8.1-9.9-13.2-18.6-15.2c-6.2-1.4-12.3-1.2-18.6-0.4
			c-10.6,1.3-18.5,6.6-23.8,15.7c-2.9,4.9-5.3,10.1-7.5,15.4c-9.5,23.1-18.8,46.2-28.2,69.3c-1.8,4.3-3.5,8.7-5.4,13
			c-0.6,1.4-1.2,2.9-2.2,4.1c-0.5,0.7-1.7,1-2.7,1.2c-0.3,0.1-0.9-0.4-1.1-0.8c-1.5-3.3-3.1-6.6-4.4-9.9
			c-7.3-18.9-14.6-37.8-21.9-56.7c-3-7.8-6-15.5-9-23.3c-2.3-5.8-5-11.4-8.8-16.4c-4.6-6-10.6-9.8-18.1-11.3
			c-8.3-1.6-16.6-1.3-24.8,0.6c-14.5,3.4-24.3,14.9-23.2,30.7c0.3,3.6,0.9,7.2,2,10.7c1.6,4.9,3.6,9.7,5.7,14.5
			c19.5,44.8,39.1,89.6,58.6,134.3c1.7,3.8,3.8,7.4,3.9,12.4c-1.9,4.2-3.9,9-6.1,13.7c-4.8,10.4-9.5,20.8-14.4,31.1
			c-2.5,5.2-4.1,10.7-4.6,16.4c-0.8,9.7,1.8,18.6,8.9,25.6c2.6,2.5,5.5,4.7,8.2,7c-311.1,0-622.1,0-933.2,0c0-825.3,0-1650.6,0-2476
			c2.8,1.4,5.1,3.2,6.6,6.3c4.6,9.3,9.2,18.7,14.3,27.7c29.3,52.8,61.1,104,94.8,154.1c4.9,7.3,10.2,14.4,15.5,21.5
			c1.9,2.5,4.1,4.7,6.3,6.8c1.6,1.5,3.8,2,5.8,1.1c7.6-3.3,15.3-6.4,22.8-10.1c22.8-11.3,44.9-24.1,67-36.8
			c31.1-17.8,62.3-35.6,93.6-53.2c9.5-5.4,19.3-10.1,29-15.1c2.9-1.5,5-0.9,6.6,1.7c1.7,2.6,3.4,5.3,4.9,8
			c18.1,31,36.2,62,54.1,93.1c10.4,18,20.4,36.2,30.3,54.6c6.4,11.9,12.2,24.1,18,36.3c2.4,5.1,4.1,10.7,5.9,16.1
			c0.7,2.2-0.1,4.3-1.6,5.7c-3.6,3-7.2,6-11.2,8.4c-18,11.4-36,22.8-54.3,33.8c-29,17.4-58.2,34.3-87.2,51.8
			c-14.7,8.9-28.9,18.4-43.2,27.9c-7.8,5.2-9,7.6-5.6,17c1.7,4.9,3.8,9.7,6.1,14.4c5.2,10.8,10.3,21.6,16,32.1
			c11.5,21,23.5,41.7,35.2,62.6c11.4,20.4,22.7,40.9,33.7,61.6c4.9,9.2,9.3,18.6,13.3,28.2c5.4,12.5,5.1,13.9-6,22.1
			c-12.1,8.9-24.5,17.7-37.2,25.7c-21.5,13.6-43.5,26.6-65.2,39.9c-24.8,15.2-49.6,30.5-74.3,45.9c-4.8,3-9.5,6.4-14,9.9
			c-3.1,2.4-4.4,5.9-3.9,9.7c0.7,5.7,2.2,11.2,4.4,16.5c4.2,10.7,9.6,20.7,15.6,30.5c31.4,51.6,60.8,104.2,89.4,157.3
			c3.2,5.9,7.5,11.3,8.8,18.1c-4.1,6.7-11.6,8.4-17.8,11.8c-63.2,35-126.7,69.6-189.2,105.9c-4,2.4-8.1,4.6-12.1,7.2
			c-1.2,0.8-1.9,2.3-3.1,3.8c2.2,4.2,4.3,8.3,6.7,12.3c117.1,203.8,234.3,407.6,351.5,611.4c6,10.4,12.5,20.4,19.3,30.2
			c3.8,5.6,8.4,10.5,12.9,15.6c1.7,1.9,3.7,3.7,6,4.9c1.7,0.9,4.1,1.5,5.9,1c4.5-1.3,8.9-2.9,13.1-5c9.8-4.8,19.6-9.6,29.2-14.9
			c46-25.4,90.8-52.8,134.2-82.4c7.3-5,14.5-10.2,21.6-15.4c3.7-2.8,7.2-5.9,10.8-8.9c3.6-3,4.6-7,3-11.2
			c-2.3-5.8-4.8-11.5-7.5-17.2c-10.3-21.6-22.1-42.5-34.1-63.1c-15.7-27-31.5-53.9-47.2-80.9c-48.7-84.2-98.3-167.8-143.2-254.2
			c-1.9-3.7-3.8-7.4-5.3-11.3c-2.1-5.3-1.1-10.5,2.6-14.6c3.4-3.9,7.2-7.6,11.4-10.5c9.8-6.8,19.8-13.4,30.2-19.4
			c26.5-15.4,53.2-30.6,79.9-45.7c14.9-8.4,30-16.7,45.1-24.8c7.3-3.9,14.9-7.3,22.6-10.6c3.8-1.6,7.9-2.7,11.9-3.4
			c6.2-1.1,11.3,1.1,14.7,6.5c1.7,2.6,3.2,5.3,4.8,8.1c29.9,52.4,59.7,104.9,89.8,157.1c46.2,80.2,92.7,160.3,139.1,240.4
			c2.1,3.6,4.1,7.2,6.4,10.7c5.2,8,10.5,10,20,7.2c6-1.8,11.9-3.9,17.5-6.6c10.3-4.9,20.6-10,30.5-15.6c20.4-11.4,40.6-23.2,61-34.7
			c18.1-10.2,36.3-20.3,54.7-30.1c8.7-4.6,17.8-8.6,26.8-12.5c4.3-1.9,8.7-3.6,13.2-4.6c16.5-3.7,19.4-1,26.5,9.6
			c7,10.3,13.8,20.8,20,31.6c14.4,25.3,28.5,50.8,42.5,76.3c12.2,22.4,24.5,44.7,38.3,66.2c3.6,5.7,7.6,11.2,11.6,16.6
			c3.4,4.5,5.8,5.1,10.7,2.8c6.6-3.1,13.1-6.3,19.5-9.8c32.4-17.8,64.8-35.4,96.9-53.6c86.5-48.8,172.5-98.5,257.7-149.5
			c15.2-9.1,30.2-18.5,45.2-27.8c4.4-2.7,8.7-5.8,12.9-8.7c5.2-3.6,7.2-8.8,6.6-14.9c-0.3-3.1-0.7-6.2-1.7-9.2
			c-1.9-5.9-3.9-11.9-6.5-17.5c-4.5-9.9-9.2-19.8-14.3-29.5c-24.5-45.9-50.3-91.1-77.9-135.2c-5-7.9-10.3-15.7-15.5-23.4
			c-1.1-1.7-2.6-3.3-4.2-4.5c-1.1-0.8-3-1.1-4.4-0.8c-2,0.4-3.9,1.5-5.7,2.4c-11.5,6.1-23,12.2-34.3,18.5
			c-86.5,47.8-172.3,96.8-257.9,146.1c-45,26-90.2,51.8-134.4,79.3c-2.6,1.6-5.3,3.2-8.1,4.6c-1.8,0.9-3.9,1.5-5.9,2
			c-2.9,0.7-6.8-0.7-8.3-3.1c-1.4-2.2-2.6-4.5-3.8-6.8c-5.4-10.7-10.4-21.6-16.2-32c-13-23.1-26.3-46.1-39.6-69
			c-11.2-19.3-22.8-38.5-33.9-57.9c-6.2-10.8-12.1-21.8-18.1-32.8c-1.5-2.7-2.8-5.6-3.7-8.6c-0.4-1.2,0.3-3.2,1.2-4.1
			c2.2-2.2,4.7-4.1,7.3-5.8c8.2-5.5,16.5-10.9,24.9-16.1c40.1-25.2,80.8-49.2,121.8-73C278.6,896.6,515.3,759.6,752,622.6
			c50.9-29.4,101.6-59,153.2-87.1c26.9-14.7,53.8-29.5,81.6-42.4c18.4-8.5,17-9.4,28.2,7.8c11.6,17.9,22.9,36,33.9,54.3
			c12.6,20.9,24.7,42.2,37.2,63.2c10.4,17.4,21.3,34.6,32,51.7c3.6,5.7,7.5,11.2,11.5,16.7c4.8,6.6,7.3,7.4,14.5,5.1
			c5.4-1.8,10.9-3.6,16.1-5.9c25.4-10.7,50-23.2,73.6-37.5c4.4-2.7,8.7-5.7,12.9-8.7c3.1-2.2,4-4.9,2.7-8.1
			c-1.9-4.8-3.8-9.7-6.2-14.3c-5.8-11.1-11.9-21.9-17.8-32.9c-6.6-12.4-13.3-24.7-19.5-37.3c-2.8-5.6-4.8-11.5-6.8-17.4
			c-1.2-3.6-0.4-7.4,2.4-10.1c4-4,8.2-8,12.6-11.6c8.6-6.8,18.3-11.9,27.8-17.2c10.4-5.8,20.8-11.8,31-18c4.8-3,9.2-6.7,13.7-10.3
			c2.7-2.1,3.5-5.2,2.7-8.4c-1.1-4-2.3-8-4-11.8c-4.4-10-8.9-19.9-13.7-29.7c-17.1-35.1-35.8-69.3-54.9-103.3
			c-25-44.4-50.2-88.7-75.1-133.2c-8.7-15.4-16.9-31.1-25.3-46.6c-1.5-2.7-2.7-5.6-3.8-8.5c-0.3-0.8,0-2.2,0.6-2.9
			c1.3-1.6,2.6-3.3,4.3-4.4c7.7-5.3,15.3-10.8,23.3-15.7c47.7-29.7,96.6-57.3,145.7-84.5c5-2.8,10.2-5.1,15.4-7.5
			c3.3-1.5,6.7-2.8,10.2-4c1.9-0.7,4-1.2,6-1.5c7.3-1.3,13.5,0.8,17.7,7c2.6,3.9,4.9,8,7.1,12.1c6.3,11.9,12.4,24,18.9,35.9
			c4,7.3,8.2,14.5,12.5,21.6c2.7,4.4,6,8.6,10.2,11.7c5.3,4,11.1,5.7,17.6,3.8c4.5-1.4,8.9-2.9,13.1-4.9c5.2-2.4,10.3-5,15.3-7.8
			c24-13.5,48-27,72-40.6c2.3-1.3,4.4-2.7,6.6-4.1c2.2-1.5,2.8-4.2,1.3-6.8c-1.2-2.3-2.6-4.5-3.9-6.8c-4-6.7-7.9-13.4-12-20.1
			c-12.7-20.9-25-42-40.1-61.3c-1.9-2.4-3.3-5.3-4.6-8.1c-1.3-3-0.9-6.1,0.5-9.1c1.8-3.8,4.6-7,8-9.4c6.4-4.4,12.8-8.9,19.6-12.8
			c9.9-5.7,20.2-10.7,30.2-16.2c6.8-3.7,13.7-7.4,20.3-11.7c4.3-2.8,8.3-6.3,11.9-9.9c3.8-3.8,5.5-8.7,5.5-14.2
			c0.1-5.3-0.4-10.4-2.5-15.3c-3.1-7.2-5.9-14.5-9.5-21.4c-6.3-12-12.9-23.8-19.7-35.5c-27.5-47.2-55.1-94.3-82.7-141.4
			c-2.1-3.6-4.5-7-6.9-10.3c-0.5-0.7-2.1-1.3-2.7-1c-4.2,2.1-8.3,4.3-12.3,6.6c-64.9,37.3-129.8,74.7-194.7,112
			c-4.1,2.3-8.1,4.6-12.3,6.8c-2.6,1.4-5.3,0.8-6.8-1.5c-2-3-4-6.1-6-9.1c-23.2-36.4-45-73.7-66-111.4c-6.3-11.4-12.6-22.8-19-34
			c-8.3-14.4-16.9-28.7-27-42c-3.1-4.1-6.6-8.1-10.1-11.8c-2.3-2.4-5.4-3.1-8.6-2c-3.4,1.2-6.9,2.5-10.1,4.1
			c-9.3,4.6-18.7,9.1-27.8,14.1c-27.8,15.3-55.5,30.7-83.2,46.2c-23.2,12.9-46.3,25.8-70.3,37.1c-5.6,2.7-11.3,5.4-17.1,7.7
			c-9.7,3.9-11.2,3.4-16.8-4.8c-4.4-6.4-8.7-13-12.7-19.7c-11.3-18.7-22.5-37.5-33.5-56.3c-11.6-19.8-22.6-39.8-34.4-59.4
			c-10.2-16.9-20.9-33.6-31.6-50.2c-3.4-5.2-7.5-10-11.4-14.8c-1.7-2.1-4.5-2.7-7.1-1.5c-6.6,3.1-13.3,5.9-19.7,9.4
			c-25.9,14.3-51.8,28.8-77.6,43.4c-30.8,17.4-61.4,35.2-92.1,52.7c-6.3,3.6-12.8,6.9-19.3,10.1c-3.4,1.7-6.3,1.2-8.3-1.6
			c-4-5.5-8-10.9-11.6-16.6c-16-25.5-32.3-51-47.8-76.9c-18.2-30.3-36.2-60.8-53.1-91.8c-13.8-25.2-15.5-20,9.6-36.5
			c23-15.2,46.7-29.3,70.3-43.5c35.7-21.3,71.7-42.3,107.5-63.4c4.5-2.6,8.9-5.4,13.3-8.2c3.8-2.4,4.5-4.8,2.4-9.3
			c-3.3-7.1-6.6-14.1-10.2-21.1c-18.5-36.1-38.4-71.5-58.7-106.6c-11.7-20.3-23.8-40.3-35.8-60.4c-3.7-6.2-7.7-12.3-11.7-18.4
			c-2-3-4.1-6-6.3-8.9c-2.8-3.6-5.5-4.6-9.5-2.8c-10.5,4.6-21,9.1-31.2,14.3c-51.1,25.8-100.9,53.8-149.6,83.9
			c-6.2,3.8-12.3,7.8-18.4,11.8c-3.5,2.3-6.7,4.9-10.2,7.2c-7,4.6-9,11.1-7.2,19c1.1,4.5,2.2,9.1,4.2,13.3c3.7,8,7.8,15.9,12.2,23.5
			c5.7,9.9,11.9,19.5,17.8,29.4c16.7,28.2,33.4,56.4,49.8,84.8c7.8,13.5,14.8,27.5,21.9,41.4c2.6,5.1,4.5,10.5,6.5,15.8
			c0.7,2,0.2,4.3-1.4,5.8c-3,2.9-6,5.8-9.4,8.1c-9,6.2-17.9,12.5-27.3,18.1c-18.3,11-36.8,21.5-55.2,32.3c-26,15.3-52,30.6-77.9,46
			c-13.9,8.3-26.6,18.2-39.3,28.2c-1.6,1.2-2.7,3-4.3,4.7c2.1,4,3.9,7.7,6,11.3c13.9,24.4,28.1,48.6,41.9,73.1
			c16.8,29.9,33.5,59.9,50,90c5.2,9.6,9.9,19.5,14.7,29.3c1.6,3.3,2.7,6.7,3.8,10.2c0.7,2.1,0,4.4-1.4,5.8
			c-3.6,3.7-7.3,7.5-11.5,10.4c-11.9,8.4-23.8,16.9-36.1,24.5c-18.2,11.2-36.7,21.7-55.2,32.4C3.8-158.9-130-81.7-263.9-4.7
			c-37,21.3-74.2,42-111.4,62.9c-9.1,5.1-18.4,9.7-27.7,14.3c-4.2,2.1-8.6,3.7-13,5.3c-3.1,1.1-6.4-0.1-8.2-2.9
			c-3.1-4.8-6.2-9.6-9-14.6c-21.3-37-42.3-74.1-63.7-110.9c-12.8-22-26.1-43.8-39.3-65.6c-2.7-4.4-5.8-8.6-8.9-12.8
			c-1.7-2.3-4.4-3.1-7-2.2c-5.4,1.8-10.9,3.6-15.9,6.2c-19.1,9.5-38.2,18.9-57,29c-29.7,16-59.1,32.8-88.8,48.9
			c-13.7,7.5-27.7,14.3-41.7,21.3c-4.2,2.1-8.6,3.7-13,5.2c-2,0.7-4.3,0.2-5.8-1.4c-3.6-3.8-7.3-7.5-10.2-11.7
			c-9-12.8-17.8-25.6-26.3-38.7c-19.3-29.7-36.6-60.5-54.3-91.2c-12.5-21.6-24.9-43.3-37.5-64.8c-1.3-2.2-2.9-4.3-4.6-6.2
			c-0.5-0.6-2-1-2.7-0.7c-2.4,1-4.7,2.3-6.9,3.6c-49.4,28.9-98.7,57.8-148,86.8c-23.3,13.7-46.6,27.5-68,44.2
			c-1.8,1.4-3.8,1.4-5.9,1c0-304.9,0-609.9,0-914.8c1463.7,0,2927.5,0,4391.2,0c0,421.5,0,843,0,1264.5c-1.4-4.4-2.7-8.8-3-13.5
			c-0.8-11.4-2.1-22.8-2.7-34.2c-0.9-17.2-2.4-34.2-5.2-51.2c-0.9-5.6-1.6-11.3-1.9-17.1c-1.7-26-7.8-51.4-10.3-77.3
			c-0.2-2.6-1.1-5.1-1.5-7.6c-1.4-8.2-2.7-16.4-4.2-24.6c-3.4-18.4-6.7-36.8-10.5-55.2c-3.6-17.3-8.2-34.4-11.7-51.7
			c-1.9-9.2-5.1-18.1-6.7-27.2c-2.6-14.4-7.9-28-10.8-42.3c-1.9-9.7-5.1-19.1-8-28.5c-3.9-12.9-8.1-25.8-12.2-38.6
			c-6-18.8-12-37.6-18.2-56.4c-2.6-7.9-5.4-15.7-8.4-23.5c-3.7-9.7-7.9-19.2-11.3-29.1c-5.5-16.3-12.3-32-18.7-47.9
			c-8.6-21.2-18.3-41.9-27.5-62.8c-10.7-24.3-22.2-48.1-34.2-71.8c-20-39.4-41.4-78-63.9-116.1c-39.5-66.8-83.6-130.4-130.8-192
			c-6.3-8.3-13.1-16.2-19.3-24.5c-17.3-22.9-36.3-44.2-54.9-65.9c-25.7-30.1-53.2-58.4-80.5-87c-9.7-10.1-10.7-10.1-21,0.2
			c-47.8,47.8-95.6,95.7-143.4,143.5c-2.2,2.2-4.4,4.4-6.5,6.8c-2.4,2.7-2.4,7.3,0,10.1c2.7,3.2,5.6,6.1,8.5,9.2
			c17.5,18.5,35.2,36.9,52.4,55.6c9.2,9.9,17.5,20.6,26.5,30.7c26.4,29.5,50.4,60.9,74,92.6c21.4,28.8,41.9,58.3,61.3,88.5
			c26.7,41.6,51.6,84.2,75.1,127.7c5.7,10.5,10.9,21.2,16.3,31.9c8.1,16.3,16.8,32.3,24,49c11.8,27.7,25.3,54.7,35.7,83
			c5.9,16.1,12.5,31.9,18.8,47.9c2.6,6.8,5.3,13.6,7.5,20.5c6.1,18.8,11.8,37.7,18.1,56.4c5.5,16.3,10.6,32.6,14.4,49.3
			c0.6,2.5,1.5,5,2.2,7.5c3.6,12.5,7.2,25,10.7,37.5c0.4,1.5,0.6,3.1,1,4.6c3.3,15.2,6.5,30.5,9.9,45.7c0.7,3,1.7,6,2.5,9
			c1,4,1.9,8.1,2.8,12.2c1.5,7.1,3,14.3,4.2,21.4c3.8,21.5,7.5,43,11.3,64.5c0.2,1,0.2,2.1,0.4,3.1c3.4,24.7,7.3,49.4,9.2,74.3
			c0.2,3.1,0.9,6.2,1.3,9.3c0.8,6.7,1.8,13.4,2.3,20.2c2.5,35.8,4.8,71.6,5.7,107.5c0.3,11.4,0.7,22.9,0.9,34.3
			c0.2,9.4,0.4,18.7,0.1,28.1c-1,33.3-2.1,66.6-3.7,99.8c-1.7,35.9-6.4,71.5-9.9,107.2c-0.2,1.6-0.4,3.1-0.7,4.6
			c-1.8,13.4-3.6,26.8-5.4,40.2c-0.6,4.1-1.2,8.2-2,12.3c-4,21.5-8.2,42.9-12,64.4c-1.6,9.2-3.1,18.4-6,27.4
			c-1.1,3.5-1.5,7.1-2.3,10.7c-3.4,15.2-6.7,30.5-10.1,45.7c-0.6,2.5-1.6,5-2.3,7.4c-0.9,3-1.7,6-2.6,9c-3.5,13-6.9,26.1-10.6,39.1
			c-4.2,14.5-8.6,28.9-13.1,43.2c-2,6.4-4.6,12.7-6.7,19.1c-3.6,10.9-6.9,21.8-10.6,32.6c-2.6,7.9-5.5,15.7-8.5,23.5
			c-3.6,9.2-7.6,18.2-11.1,27.5c-7.2,19-14.4,37.8-22.8,56.3c-12.9,28.4-25,57.1-39.4,84.8c-8.6,16.6-16.5,33.6-25.7,49.9
			c-18.9,33.5-37.4,67.3-58.5,99.5c-10.3,15.7-19.8,31.8-30.6,47.1c-22.1,31.5-44.4,62.9-68.1,93.2
			c-33.7,43.1-69.3,84.4-106.7,124.2c-8.2,8.7-16.6,17.3-24.8,25.9c-1.4,1.5-2.8,3.1-3.8,4.9c-1.1,1.9-1.3,4.1,0,5.9
			c2.1,2.9,4.4,5.7,7,8.3c47,47.2,94,94.3,141.1,141.4c2.2,2.2,4.6,4.2,7.1,6.1c2.9,2.2,7.4,1.9,10-0.7c8-8.1,16.1-16.3,24-24.6
			c42.8-45.5,84.1-92.2,122.7-141.3c32.1-40.9,62.7-83,91.6-126.2c23.4-35,45.4-70.9,66.6-107.4c16.2-27.9,31.5-56.2,46.1-84.9
			c14.1-27.8,27.6-55.9,40.5-84.3c12-26.5,23.1-53.4,34.5-80.2c3-7.2,5.8-14.5,8.5-21.8c6.3-17.1,12.4-34.2,18.5-51.3
			c2.8-7.8,5.5-15.7,8.2-23.6c3.7-10.8,7.6-21.6,11-32.5c3.9-12.4,7.4-24.9,11.1-37.3c3.7-12.4,7.6-24.8,11.3-37.3
			c0.7-2.5,1.1-5.1,1.7-7.6c1.2-4.5,2.4-9,3.6-13.6c1.2-4.5,2.4-9,3.6-13.6c1.3-5,2.5-10.1,3.8-15.1c1.3-5,2.7-10.1,3.7-15.1
			c3.2-15.8,8-31.2,10.4-47.2c0.4-2.6,1.4-5,2-7.5c0.9-4.1,1.9-8.1,2.6-12.2c3-19.5,8.2-38.7,10.4-58.4c0.4-3.6,1.5-7.1,2.2-10.7
			c0.8-4.1,1.5-8.2,2.2-12.3c2.2-14.4,4.3-28.8,6.3-43.2c0.9-6.7,1.6-13.4,2.4-20.1c1.3-11.4,2.4-22.8,4-34.1
			c1.6-11.9,2.8-23.8,3.5-35.7c0.8-13,2.1-25.9,3-38.9C3249.9,504.2,3251.1,500.3,3252.5,496.4z M2766.5,379.3
			c-0.7-42.4-0.4-81.4-5.4-120.2c-0.2-1.5-0.3-3.1-0.4-4.7c-1.1-23.9-3.3-47.7-7.6-71.3c-0.4-2-0.6-4.1-0.8-6.2
			c-1.1-14.5-2.9-29-6.5-43.2c-1-4-1.2-8.2-2-12.3c-3.1-17.4-6.3-34.8-9.5-52.2c-0.4-2-1.1-4-1.6-6c-1.5-6.6-3-13.2-4.5-19.7
			c-1.1-4.6-2.1-9.1-3.2-13.7c-1.2-5.1-2.4-10.1-3.7-15.1c-1.4-5.5-2.9-11-4.4-16.6c-1-3.5-2.1-7-3.1-10.5
			c-3.4-12.5-6.4-25.2-10.2-37.6c-4.7-15.4-9.9-30.7-14.9-46c-2.8-8.4-5.5-16.8-8.6-25.1c-7.1-19-14-38-21.8-56.7
			c-10.4-24.9-21.2-49.7-32.7-74.1c-15.5-32.9-32.1-65.3-50.2-96.9c-22.7-39.7-47-78.5-73.1-116.1c-20.8-29.9-42.7-59-65.5-87.3
			c-28.1-34.9-58.2-67.9-89.1-100.3c-1.1-1.1-2.3-2.1-3.5-3.1c-2.2-1.7-6.6-1.8-8.8,0.1c-3.9,3.4-7.7,6.9-11.5,10.6
			c-28,27.2-55.8,54.5-83.8,81.7c-18.3,17.8-36.6,35.4-54.9,53.2c-3,2.9-5.8,6-8.5,9.1c-1.9,2.2-1.9,6.5,0,8.8
			c2.7,3.2,5.4,6.3,8.3,9.3c25,25.1,48.2,51.7,70.6,79.2c16.4,20.2,32.2,40.8,47.3,62c17.8,25,34.8,50.6,50.7,76.8
			c17.3,28.4,33.2,57.6,48.1,87.4c14.9,29.8,28.3,60.1,41.1,90.8c2.2,5.3,3.6,10.9,5.9,16.1c11,24.7,18.2,50.8,27.2,76.3
			c2.9,8.3,5.4,16.8,7.7,25.4c4,14.5,7.9,29.1,11.5,43.7c4.1,16.6,7.9,33.4,11.8,50.1c0.4,1.5,0.5,3.1,0.7,4.6
			c1.2,6.1,2.4,12.2,3.5,18.4c3.4,20,6.8,40,10.1,60c0.6,3.6,0.7,7.2,1.1,10.9c1.2,10.9,2.5,21.7,3.7,32.6
			c0.7,6.7,1.7,13.4,2.1,20.2c1.1,19.7,2.2,39.5,2.9,59.2c1.1,30.2,0.8,60.3,0.1,90.5c-0.7,30.7-2.5,61.3-6.7,91.8
			c-0.8,5.7-1.1,11.4-1.8,17.1c-1.4,10.8-2.8,21.7-4.4,32.5c-0.9,6.7-2.1,13.4-3.2,20c-0.9,5.6-1.6,11.4-2.9,16.9
			c-4,17.2-5.4,35-11.1,51.8c-0.5,1.5-0.5,3.1-0.9,4.6c-3.4,14.2-6.5,28.4-10.2,42.5c-3.5,13-7.6,25.9-11.5,38.8
			c-3.6,11.9-7.3,23.8-11.1,35.7c-2.5,7.9-5.1,15.8-8,23.6c-4.7,12.7-9.7,25.2-14.6,37.8c-2.8,7.3-5.6,14.6-8.8,21.7
			c-11.5,25-22.5,50.2-35,74.8c-16.5,32.5-34.4,64.1-53.6,95c-26.1,42-54.9,82.1-86.1,120.5c-24,29.4-49,58-76,84.7
			c-3,2.9-5.8,5.9-8.7,9c-2.3,2.5-2.4,6.2-0.4,8.5c2,2.3,4.2,4.6,6.4,6.8c9.7,9.5,19.3,18.9,29,28.3
			c39.2,38.1,78.3,76.1,117.5,114.2c1.1,1.1,2.2,2.2,3.4,3.2c5.2,4.7,9.7,4.5,15-0.7c2.2-2.2,4.3-4.5,6.5-6.8
			c6.1-6.4,12-12.9,18.2-19.3c39.7-41.3,75.8-85.7,110-131.6c25.5-34.2,49.1-69.7,71.2-106.2c24.9-40.9,47.7-82.9,68.5-126
			c7.5-15.4,14.7-31,21.5-46.7c6.5-15.3,13.8-30.2,19.2-46c2.8-8.3,6.5-16.4,9.7-24.6c6.3-16,11.9-32.1,17.4-48.4
			c3.8-11.3,6.9-22.9,10.9-34.1c5.2-14.2,8.3-28.9,12.7-43.4c1.5-5,2.8-10,4.2-15c1.1-4,2.5-8,3.3-12c2.9-13.7,7.6-27.1,9.3-41.1
			c0.4-3.1,1.7-6,2.4-9c1.2-5.1,2.4-10.1,3.5-15.2c1.4-6.6,2.8-13.2,4-19.9c3.6-20,7.1-39.9,10.6-59.9c0.2-1,0.3-2.1,0.4-3.1
			c3.6-33.6,9.3-67,10.7-100.8c0.1-3.6,0.7-7.3,1-10.9c1-11.4,2.4-22.8,2.7-34.2C2765.9,422.7,2766.1,399.3,2766.5,379.3z
			 M2279.1,372.8c-0.6-18.7-0.5-37.5-1.9-56.1c-1.8-24.9-4.7-49.7-7.3-74.6c-0.6-5.7-1.8-11.3-2.8-16.9c-1.2-7.2-2.3-14.4-3.6-21.5
			c-1.4-7.7-2.9-15.3-4.4-23c-0.9-4.6-1.9-9.2-2.9-13.7c-1-4.6-1.5-9.3-2.9-13.7c-4.1-13.4-5.8-27.5-10.9-40.7
			c-0.9-2.4-1.1-5.1-1.7-7.6c-0.7-3-1.3-6.1-2.4-9c-6.8-19.1-12-38.7-19.6-57.5c-2.5-6.3-5.1-12.5-7.3-18.9
			c-7.2-21.2-16.8-41.4-26.3-61.6c-11.3-24-23.6-47.5-36.9-70.4c-12.6-21.6-25.6-42.8-39.9-63.3c-11.3-16.2-23.1-32.1-35.1-47.7
			c-21.8-28.5-45.4-55.6-70.6-81.2c-1.5-1.5-3.1-2.8-4.7-4.1c-2.5-2.1-6.3-2.2-8.6-0.2c-2.8,2.4-5.4,4.9-8,7.4
			c-45.2,45.2-90.5,90.5-135.7,135.8c-3.3,3.3-6.6,6.7-9.7,10.2c-2.8,3.1-3,6.9-0.5,9.9c1.9,2.4,4,4.8,6.2,7
			c26.1,27,49.6,56.1,71.2,86.7c16.8,23.8,32.1,48.6,45.8,74.3c12.5,23.4,23.9,47.3,33.8,71.9c7.9,19.8,15.1,39.8,21.4,60.2
			c3.1,9.9,5.5,20.1,8.5,30c5,15.9,7.1,32.5,11.5,48.5c0.4,1.5,0.5,3.1,0.7,4.6c1.5,9.2,3,18.5,4.4,27.7c1,6.2,2.1,12.3,2.6,18.5
			c1.9,23.9,3.8,47.7,5.1,71.6c0.7,13.5,0.7,27.1,0,40.6c-1,20.8-2.7,41.5-4.1,62.3c-0.8,12-2.7,23.8-4.8,35.5
			c-3,16.9-5.1,33.9-9.8,50.5c-0.7,2.5-0.9,5.1-1.4,7.7c-0.7,3-1.3,6.1-2.2,9.1c-3.8,13-7.5,26-11.4,38.9c-2.1,7-4.9,13.7-6.9,20.7
			c-4.9,17-11.8,33.3-18.8,49.5c-10.7,24.8-22.7,49-36.1,72.6c-16.5,29-34.7,56.8-54.7,83.4c-17.5,23.3-36.3,45.6-56.6,66.5
			c-1.1,1.1-2.2,2.2-3.2,3.4c-4.1,4.7-4.1,8.9,0.3,13.8c1.7,2,3.6,3.8,5.4,5.6c47.4,47.5,94.9,94.9,142.3,142.4
			c1.1,1.1,2.2,2.2,3.4,3.2c3.6,3.3,7.1,3.1,10.9-0.6c1.5-1.4,3-2.9,4.4-4.5c14.5-15.7,28.9-31.4,42.5-47.8
			c27.6-33.3,53.2-67.9,76.5-104.3c20.5-32,39.2-65,55.9-99.1c12.4-25.2,23.5-50.9,33.8-77.1c7-17.9,13.5-36,19.5-54.3
			c7.1-21.7,13.9-43.6,18.5-66c1.5-7.1,4-14,5.3-21.2c3.3-17.4,8.1-34.5,9.7-52.1c0.2-2.1,0.9-4.1,1.2-6.1
			c1.6-10.3,3.2-20.5,4.6-30.9c0.9-6.7,1.2-13.5,2.1-20.2C2277.4,442.5,2279.2,407.7,2279.1,372.8z M1085.7,867.9
			c-0.2-1.3-0.1-2.4-0.5-3.4c-1.8-4.3-3.5-8.7-5.6-12.8c-13.9-26.3-30.1-51-49.1-73.9c-2.6-3.2-5.6-6.1-8.5-9.1
			c-1.1-1.1-2.4-2.1-3.8-2.7c-1.4-0.6-3.2-1.1-4.5-0.7c-3.4,1.1-6.8,2.6-10,4.3c-15.1,8.1-30.2,16.2-45.1,24.7
			c-62.3,35.5-123.9,72.3-184.8,110.1c-23.4,14.5-46.5,29.5-69.6,44.4c-4.4,2.8-8.4,6-12.5,9.3c-2.2,1.8-2.7,4.4-1.8,7.1
			c0.8,2.5,1.8,4.9,2.9,7.2c3.8,8,7.6,15.9,11.7,23.8c28.5,54.9,59,108.7,91.2,161.5c4.1,6.7,8.2,13.2,12.6,19.7
			c5.8,8.6,7.4,9.4,16.5,5c12.2-5.9,24.2-12,36-18.6c44.8-25.3,88.5-52.5,131.1-81.3c9.9-6.7,19.6-13.7,29.2-20.8
			c4.2-3.1,8-6.6,11.8-10.2c1.9-1.9,2.5-4.4,1.9-7.2c-1.2-5.7-3.6-10.8-6-16c-6.2-13.2-13.8-25.6-21.5-37.9
			c-6.1-9.7-12-19.5-17.7-29.4c-2.3-4-4-8.4-5.9-12.7c-1-2.3,0-5.8,1.8-7.1c2.6-1.8,5.2-3.5,7.9-5.1c13.8-8.2,27.8-16.3,41.6-24.6
			c8.5-5.1,16.9-10.2,25-15.8c5.9-4.1,11.5-8.9,16.8-13.9c3-2.8,5.2-6.4,7.6-9.8C1085.1,870.7,1085.3,869.1,1085.7,867.9z
			 M-938.5,2146.2c0,32.8,0,65.6,0,98.3c0,5.7,0.1,11.4,0,17.2c-0.1,5.3,0.8,10.4,2.3,15.4c4.2,13.8,13.5,21.8,27.6,24.3
			c6.7,1.2,13.5,1.1,20.2,0.1c14.2-2.2,23.6-10,27.8-23.9c1.8-6,2.4-12.2,2.4-18.5c-0.1-17.2-0.1-34.3,0-51.5
			c0-3.6,0.4-7.2,0.6-10.8c0.1-1.8,1.7-2.9,3-3.2c3-0.5,6.2-0.7,9.3-0.7c16.6-0.1,33.3,0.1,49.9-0.1c8.3-0.1,16.6-0.4,24.9-1
			c12.5-1,24.6-4.3,36-9.6c25-11.7,41.1-31.1,48.3-57.8c4-14.8,4.3-29.9,3.1-44.9c-3.3-41.9-28.6-70.4-64.7-81.1
			c-14-4.2-28.4-6-43.1-6c-34.3,0-68.7,0-103,0c-2.1,0-4.2-0.2-6.2,0.1c-4.6,0.7-9.3,1.2-13.8,2.5c-11.9,3.5-19.3,11.6-22.7,23.5
			c-1.9,6.6-2.1,13.3-2.1,20.1C-938.5,2074.4-938.5,2110.3-938.5,2146.2z M925.7,2274.4c3.1,1.4,3.7,3.9,4.7,6.4
			c5.4,13.6,16,20,30.1,20.8c4.6,0.3,9.4,0.1,14-0.3c13.9-1.4,26-11.3,28.1-26.9c1-7.2,1.4-14.5,1.4-21.7c0.1-39.5,0.1-79,0.1-118.5
			c0-32.7,0.1-65.5-0.1-98.2c0-6.7-0.5-13.5-1.5-20.2c-2-13.3-11.6-23.9-27-26.4c-6.1-1-12.5-0.9-18.6-0.3
			c-16.3,1.6-27.6,13-29.5,29.3c-0.6,5.1-0.6,10.4-0.6,15.6c-0.1,19.8,0,39.5,0,59.3c0,3.1-0.1,6.2-0.4,9.3c-0.1,0.7-1.1,1.5-1.9,2
			c-0.3,0.2-1.1,0.1-1.4-0.2c-1.3-0.9-2.5-1.8-3.6-2.8c-11.6-11.2-25.5-17.9-41.3-20.3c-35.9-5.4-65.7,5.6-87.6,35.1
			c-10.4,14-16.1,30.2-18.9,47.3c-2.9,18.1-3,36.2-0.1,54.4c3,18.8,9.5,36.1,21.1,51.4c11.7,15.5,27,25.8,45.7,30.7
			c13.2,3.4,26.6,4.2,40.2,1.7c15.8-2.9,29.6-9.3,41.1-20.6C921.7,2278.8,923.7,2276.5,925.7,2274.4z M1438.9,2146.4
			c0,35.9,0,71.8,0,107.7c0,5.7-0.1,11.5,0.7,17.1c2.3,16.8,14,28.3,30.8,30.3c5.1,0.6,10.4,0.6,15.5,0.3
			c19-1.1,30.1-13.7,31.7-30.5c0.5-5.2,0.7-10.4,0.8-15.6c0.1-19.3,0-38.5,0-57.8c0-4.2,0-8.3,0.1-12.5c0.2-6.8,1.8-8.5,8.1-8.7
			c4.2-0.1,8.3-0.1,12.5-0.1c23.9,0,47.8,0,71.8,0c4.7,0,9.4-0.1,14-0.8c11-1.8,18.7-9.7,20.7-20.6c0.9-5.2,1-10.3,0.5-15.5
			c-1.5-14.8-12.9-22.6-23.3-23.3c-5.2-0.4-10.4-0.5-15.6-0.6c-23.9-0.1-47.8,0-71.8-0.1c-4.1,0-8.3-0.3-12.4-0.5
			c-1.7-0.1-3.8-2.4-4-4.2c-0.2-1.5-0.4-3.1-0.5-4.6c0-14,0-28.1,0-42.1c0-1.6,0.2-3.1,0.3-4.7c0.2-2.9,2.2-5.1,4.8-5.2
			c4.2-0.1,8.3-0.2,12.5-0.2c26.5,0,53,0,79.6,0c4.2,0,8.3-0.1,12.5-0.1c4.2-0.1,8.2-1.2,12.1-2.8c7.3-2.9,11.9-8.3,14.1-15.7
			c2.4-8.1,2.5-16.5,0.2-24.7c-2.1-7.4-6.7-13-14-15.7c-3.9-1.4-8-2.3-12.1-2.8c-3.6-0.5-7.3-0.2-10.9-0.2c-43.7,0-87.4,0-131.1,0
			c-3.1,0-6.3-0.1-9.4,0.1c-3.1,0.2-6.2,0.6-9.2,1.3c-17.2,4-27,15.1-28.6,32.5c-0.5,5.2-0.4,10.4-0.4,15.6
			C1438.8,2076.7,1438.9,2111.5,1438.9,2146.4z M1188.2,2275.5c3,2.9,3.5,6.7,5.3,9.8c4.9,8.7,12.3,13.9,22,15.8
			c7.7,1.5,15.5,1.5,23.3,0c11-2.2,18.7-8.6,22.6-19.3c2.4-6.4,3-13.1,3-19.9c0-46.8,0-93.6,0-140.4c0-2.1,0.1-4.2-0.2-6.2
			c-0.7-4.1-1.3-8.2-2.5-12.2c-3.4-10.8-11.1-17.4-21.8-20.3c-9.2-2.5-18.6-2.5-27.8-0.2c-11.4,2.8-19.2,9.9-22.8,21.3
			c-2.1,6.5-2.5,13.2-2.5,20c0,23.9,0,47.8,0,71.8c0,4.7-0.1,9.4-0.3,14c-0.2,5.3-1.8,10.3-4.2,14.9c-5.8,11.6-15.3,18.5-28.2,19.4
			c-17.5,1.2-25.8-7.1-28.5-20.3c-0.6-3-1-6.2-1.1-9.3c-0.2-3.6-0.1-7.3-0.1-10.9c0-26,0-52,0-78c0-5.2,0-10.4-0.7-15.6
			c-2-15.2-12.1-25.3-27.3-27.9c-7.8-1.4-15.6-1.3-23.2,0.4c-12.8,2.9-21,10.7-24.2,23.6c-1.5,6.1-1.9,12.3-1.9,18.6
			c0.1,28.6-0.1,57.2,0.1,85.8c0.1,9.3,1,18.7,2.2,28c1.3,9.8,4.2,19.3,8.7,28.2c7.9,15.6,20.1,26.3,36.7,31.7
			c13,4.2,26.4,6.1,40,4.9c15.9-1.4,30.5-6.5,42.4-17.6c2.7-2.5,5-5.3,7.6-7.8C1185.8,2276.8,1187.1,2276.2,1188.2,2275.5z
			 M-369.6,2274.2c3.4,3.3,3.8,7.6,5.7,11.1c4.7,8.9,11.9,14.2,21.8,16c6.2,1.1,12.4,1.2,18.6,0.3c12.5-1.9,20.6-9,24.7-20.9
			c2-6,2.7-12.1,2.7-18.4c0-30.1-0.1-60.3,0-90.4c0-9.4-1.3-18.7-3.4-27.8c-6.3-28-22.8-47.3-50.4-56.4c-6.9-2.3-14-3.9-21.1-5.1
			c-18.6-3.2-37.1-3.1-55.9-0.6c-14.5,1.9-28.6,5.3-42.3,10.3c-4.3,1.6-8.6,3.7-12.5,6.3c-9.7,6.4-16.2,20.6-10.8,34.5
			c3.7,9.8,12.6,17.6,25.5,16.2c3.6-0.4,7.1-1.4,10.6-2.4c3-0.8,5.9-2,8.8-3c10.8-3.9,22.1-5.8,33.5-7.1c9.9-1.2,19.7-0.6,29.3,2.4
			c5.7,1.8,10.2,5.4,12.6,10.9c2.3,5.3,3.1,11,2.2,16.8c-0.3,1.7-1.4,3-2.8,3.3c-2.5,0.5-5.1,0.7-7.7,0.7c-16.6-0.2-33.2,1-49.8,2.2
			c-9.4,0.7-18.6,2.2-27.7,4.1c-9.7,2-19,5.2-27.6,10.4c-10.2,6.2-17,14.9-20.5,26.5c-2.3,7.6-2.5,15.4-2.3,23.1
			c0.3,12.9,4.6,24.4,12.1,34.8c7.5,10.3,17.4,17.7,28.9,23.1c10,4.7,20.7,6.8,31.5,8.2c10.5,1.4,20.8,0.6,30.9-2.2
			c11.3-3,21.1-8.8,28.5-18C-374.2,2280-372,2277.2-369.6,2274.2z M2885.8,2214.7C2885.8,2214.7,2885.8,2214.7,2885.8,2214.7
			c0-9.9,0.2-19.8,0-29.6c-0.2-9.9-0.7-19.7-1.4-29.6c-0.6-8.9-3.1-17.4-6.3-25.6c-6.8-17.2-18.6-29.8-35.1-38
			c-8.9-4.4-18.3-7.3-28.1-9c-34-5.9-67.2-3.1-99.8,8.4c-3.9,1.4-7.8,2.9-11.5,4.8c-7.1,3.9-12,9.8-14.6,17.5
			c-5.9,17,6.6,40,29.8,34.8c4-0.9,8-2.2,11.9-3.6c11.3-4.1,23-6.5,34.8-8.1c10.4-1.4,20.7-1.1,30.9,1.9c8.3,2.4,13.1,8.1,15.3,16.1
			c0.5,2,0.6,4.1,0.8,6.2c0.6,7.7-0.8,9.4-8.2,9.6c-6.2,0.1-12.5,0-18.7,0.2c-19.7,0.7-39.4,1.6-58.9,5.5
			c-11.3,2.3-22.1,5.7-31.9,12c-11.1,7.2-17.6,17.4-20,30.3c-0.6,3.6-1.2,7.2-1.3,10.8c-0.7,19.1,4.9,35.8,18.5,49.6
			c5.1,5.2,11,9.5,17.4,13c16.9,9.2,35.2,12.6,54.2,11.1c19-1.5,35.1-9,45.9-25.6c0.5-0.8,1.3-1.7,2.2-2c0.7-0.3,2.3-0.1,2.5,0.4
			c0.9,1.8,1.4,3.9,2.2,5.8c5.2,12.9,15,19.5,28.7,20.2c3.6,0.2,7.3,0.1,10.9-0.1c17.2-1.2,26.6-13.7,28.3-26.4
			c0.8-6.2,1.2-12.4,1.3-18.6C2886,2242.8,2885.8,2228.8,2885.8,2214.7z M1815,2207.4c16.6,0,33.2,0,49.9,0c3.6,0,7.3,0.1,10.9-0.2
			c13.2-1,16.2-8.5,16.4-16.8c0.4-15.8-1.7-31.2-7.1-45.9c-12.7-34.6-37.6-55-73.6-62.2c-17.1-3.4-34.2-3.4-51,0.5
			c-41.3,9.6-69.1,34.2-81.2,75.4c-5,17.2-5.3,34.9-2.9,52.5c4.2,30.5,18.8,54.6,44.6,71.7c10.5,6.9,21.9,11.9,34,15.1
			c26.5,7,53.4,7.8,80.3,2.4c11.2-2.2,22.1-5.7,32.6-10.4c13.5-6,20-18.2,18-32.8c-1.4-10.1-10.3-22.9-26-21.7
			c-3.1,0.2-6.2,0.9-9.1,1.7c-3.5,1-6.9,2.4-10.3,3.5c-17.1,5.3-34.5,7.3-52.3,4.9c-7.3-1-14.2-3.2-20.4-7.2
			c-9.8-6.2-15.5-15.1-17.2-26.6c-0.2-1.3,1.2-3.4,2.4-3.5c3.1-0.2,6.2-0.5,9.3-0.5C1779.7,2207.4,1797.3,2207.4,1815,2207.4z
			 M2157.1,2184.6c0.1,0,0.2,0,0.2,0c0,9.4,0.2,18.7,0,28.1c-0.2,10,1,19.8,3.1,29.4c6.4,28.9,23.5,48,52.3,56.3
			c7.6,2.2,15.3,2.9,23,4.1c14.6,2.3,29,0.3,43.4-2.3c2.5-0.5,5-1.4,7.4-2.3c6.7-2.5,11.4-7,14.1-13.7c4.6-11.5,4.2-23.4,2.1-35.3
			c-1.1-5.9-6.4-10-12.4-10c-4.6,0-9.3,0.5-13.9,1.4c-7.3,1.3-14.4,1.5-21.6-0.4c-11.4-3-17.8-10.1-19.3-21.7
			c-0.5-3.6-0.5-7.3-0.5-10.9c0-17.7,0-35.4,0-53.1c0-1.6,0-3.1,0.1-4.7c0-1,0.2-2.1,0.3-3.1c0.2-1.9,2.1-4,4-4.1
			c9.9-0.2,19.7-0.3,29.6-0.5c4.7-0.1,9.3-0.3,13.8-1.9c7.9-2.9,13.1-8,15.6-16.1c2-6.7,2.2-13.3,0.4-20
			c-2.9-10.4-10.1-16.9-20.9-18.2c-4.6-0.5-9.3-0.5-14-0.5c-7.8-0.1-15.6-0.1-23.4-0.3c-2.8-0.1-5.1-2.1-5.1-4.8
			c-0.2-7.3-0.3-14.6-0.3-21.8c0-5.8-0.8-11.4-2.7-16.9c-4.1-11.9-12.6-18.8-24.8-21.2c-7.2-1.4-14.5-1.4-21.7-0.1
			c-12.8,2.3-21.7,9.3-25.8,22c-1.6,5-2.5,10.1-2.5,15.3c0,6.2,0,12.5-0.1,18.7c0,1.5-0.2,3.1-0.4,4.6c-0.2,1.9-2.2,3.9-4.1,4
			c-5.7,0.3-11.4,0.3-17.1,0.9c-10.7,1.2-18.2,7.8-21,18.2c-1.7,6.2-1.7,12.4-0.1,18.5c2.4,9.3,8.2,15.5,17.6,18.1
			c3,0.8,6.1,1.1,9.2,1.4c3.6,0.3,7.3,0.2,10.9,0.3c2.8,0.1,4.7,2.1,4.8,5.1C2157.2,2159.6,2157.1,2172.1,2157.1,2184.6z
			 M487.1,2185.8c0,0,0.1,0,0.1,0c0,11.4-0.1,22.9,0,34.3c0.1,11,2.1,21.7,5.6,32.1c7.3,21.7,21.7,36.3,43.1,44
			c16.9,6,34.4,8,52.2,7c6.2-0.4,12.4-1.4,18.5-2.6c4-0.8,8.1-2.1,11.8-3.8c4.9-2.2,8.7-5.8,10.8-10.8c5.2-12.4,6.1-25.2,2.4-38.1
			c-1.6-5.4-6-8.7-11.4-9.1c-5.3-0.4-10.3,0.5-15.4,1.6c-7.8,1.7-15.5,1.1-23.1-1.3c-9.4-3-14.6-9.6-16.3-19
			c-0.7-4.1-0.9-8.3-0.9-12.4c-0.1-18.2-0.1-36.4,0-54.6c0-2.6,0.2-5.2,0.8-7.7c0.3-1.2,1.9-2.5,3.1-2.9c1.9-0.6,4.1-0.5,6.2-0.5
			c8.8-0.1,17.7-0.1,26.5-0.1c4.7,0,9.3-0.9,13.6-2.9c7.1-3.3,11.7-8.6,13.2-16.3c0.8-4.1,1.2-8.3,1-12.4
			c-0.9-15.3-9.5-23.8-24.6-24.9c-4.7-0.3-9.4-0.2-14-0.3c-6.8-0.1-13.5-0.1-20.3-0.3c-2.8-0.1-5.2-2.2-5.2-4.7
			c-0.2-6.2-0.3-12.5-0.3-18.7c0-5.8-0.6-11.4-2-17c-3.3-13.6-13.1-22.6-27.1-24.4c-5.6-0.7-11.4-0.6-17.1-0.3
			c-13.6,0.7-28.9,9.5-30.9,31.4c-0.5,5.2-0.2,10.4-0.3,15.6c-0.1,4.7-0.3,9.3-0.5,14c-0.1,1.9-2.1,3.8-4.1,4
			c-1.5,0.2-3.1,0.3-4.6,0.4c-4.7,0.2-9.4,0.1-14,0.8c-10.9,1.6-19,9.9-20.1,20.8c-0.5,4.6-0.6,9.4,0.1,14
			c1.3,8.8,6.2,15.2,14.6,18.7c3.9,1.6,7.9,2.4,12.1,2.5c4.1,0.1,8.3,0.4,12.4,0.6c1.8,0.1,2.9,1.5,3.3,2.9c0.6,2,0.6,4.1,0.6,6.2
			C487.1,2162.9,487.1,2174.4,487.1,2185.8z M2007.8,2303.6c11.5,0.6,22.9-1,34.1-3c14.4-2.6,28-7.7,40.1-16.3
			c11.3-8.1,19.8-18.5,23.9-31.9c3.9-12.6,4.9-25.4,1.6-38.5c-2.6-10.5-7.7-19.2-15.9-26.2c-6-5.1-12.9-8.7-20.2-11.5
			c-7.8-3-16-4.4-24.2-5.9c-13.8-2.5-27.7-4.5-41.5-7c-4-0.7-8.1-2-11.8-3.8c-4-1.9-6-5.7-6.1-10.2c-0.2-5.1,2-9.1,6.1-11.9
			c3.9-2.7,8.3-4.4,13-4.8c10.9-0.9,21.8-1.3,32.5,1.6c6.5,1.8,13,3.8,19.4,5.7c4,1.2,7.8,2.9,11.8,3.9c6.8,1.7,13.4,0.7,19.4-3.2
			c13.9-9,17.6-36.1-1.2-45.9c-7.4-3.9-15-7.1-23.1-9.2c-26.6-6.8-53.4-7.8-80.3-2.3c-14.9,3.1-28.8,8.8-40.9,18.3
			c-11.4,8.9-19.5,20-23.3,34.1c-2.2,8.2-2.2,16.5-1.6,24.8c1.1,14.2,7.1,25.9,17.9,35.2c6,5.1,12.8,8.9,20.1,11.6
			c8.3,3.1,17,4.8,25.7,6.2c13.3,2.1,26.7,4.3,40,6.4c4.2,0.6,8.1,2,11.7,4.1c5.5,3.2,7.4,10.7,4.4,16.4c-1.8,3.4-4.4,5.8-7.8,7.3
			c-4.3,1.9-8.8,3.1-13.6,3.2c-9.4,0.3-18.7,0.1-28-1.4c-11.8-2-23.3-5.1-34.7-8.7c-3.9-1.3-7.9-2.6-12-3.1
			c-7.7-1-14.3,1.5-19.6,7.3c-11.3,12.2-9.2,31.6,4.4,41c2.1,1.5,4.5,2.7,6.8,3.8c7.5,3.6,15.4,6.3,23.5,8.2
			C1974.6,2301.7,1991.2,2302.7,2007.8,2303.6z M338.5,2303.6c11,0.5,21.8-1.1,32.6-2.9c15-2.6,29-7.9,41.4-17.1
			c13.1-9.6,21.7-22.3,24.8-38.3c1.6-8.7,1.8-17.5,0.7-26.4c-1.8-13.6-8.1-24.5-18.9-32.8c-5.8-4.5-12.3-7.7-19.2-10.1
			c-8.4-2.9-17.1-4.5-25.8-5.9c-13.3-2.2-26.6-4.4-39.9-6.8c-3.5-0.6-7.1-1.8-10.2-3.5c-2.1-1.1-4-3.3-5.2-5.5
			c-3-5.5-0.9-12.7,4.5-16.5c4.4-3.1,9.2-4.8,14.5-5.2c11.4-0.9,22.8-1,34,2.4c5.9,1.8,11.9,3.6,17.8,5.5c4,1.2,7.8,2.8,11.9,3.7
			c10.8,2.3,20.9-2.5,26.2-12.3c1-1.8,1.9-3.7,2.5-5.7c3.4-11.5,0.8-25.1-12.5-31.8c-7-3.5-14.1-6.7-21.7-8.6
			c-27.1-7-54.4-8-81.8-2.1c-14.3,3.1-27.8,8.7-39.5,17.7c-18.2,14-26.9,32.5-25.6,55.6c0.1,2.1,0.4,4.1,0.6,6.2
			c1.4,13,7.3,23.7,17.1,32.3c5.9,5.2,12.7,9,20,11.8c8.3,3.2,16.9,4.9,25.7,6.3c13.3,2.2,26.6,4.4,40,6.4c4.2,0.6,8.1,1.9,11.8,3.9
			c5,2.7,7.3,9.2,5.5,14.8c-1.2,3.7-3.5,6.4-6.8,8.2c-4.6,2.6-9.6,3.9-14.9,4.1c-9.4,0.4-18.7,0.2-28-1.3c-11.8-2-23.3-5.1-34.7-8.7
			c-4-1.2-7.9-2.6-12-3.2c-8.3-1.2-15.3,1.7-20.9,8c-9.3,10.4-9,30.7,4.8,40c2.6,1.7,5.3,3.3,8.1,4.5c7.6,3.4,15.4,6.1,23.6,7.9
			C305.3,2301.8,321.9,2302.9,338.5,2303.6z M2546.3,2201.4c-2.8-0.4-4-2-4.8-4c-4.3-11.1-8.7-22.3-13-33.4
			c-6.4-16.5-12.7-33-19.2-49.4c-2.6-6.8-5.4-13.5-9.5-19.6c-4.9-7.2-11.6-11.6-20.3-13.1c-8.4-1.4-16.7-1.2-24.7,1.1
			c-11.3,3.2-19.2,10.3-21,22.6c-0.5,3.5-0.6,7.2-0.2,10.8c0.6,6.3,2.7,12.1,5.2,17.9c19.6,44.7,39.1,89.5,58.8,134.2
			c2.1,4.7,4.5,9.4,7.3,13.8c13.2,20.6,36.3,23.7,56.5,16.6c8.7-3,15-9.3,19.6-17.1c2.9-4.9,5.3-10.1,7.6-15.3
			c19.3-43.2,38.5-86.4,57.8-129.6c1.7-3.8,3.2-7.7,4.8-11.5c2.7-6.4,3.1-13.1,2.3-19.9c-1.4-11.8-10.1-21.2-21.8-23.4
			c-5.1-1-10.3-1-15.5-0.6c-12.5,1-21.5,7.2-27.2,18.1c-2.7,5-4.9,10.3-7.1,15.6c-10.4,25.5-20.7,51-31.1,76.5
			C2549.2,2195,2547.6,2198.3,2546.3,2201.4z M59.7,2119.6c0-17.7,0-35.4,0-53.1c0-12.5,0-25,0-37.5c0-5.7-0.5-11.4-2.2-16.9
			c-4.1-13.4-13.5-20.8-26.8-23c-6.1-1-12.5-1-18.6-0.2c-14.2,1.8-23.7,9.6-27.8,23.7c-1.9,6.6-2.1,13.3-2.1,20.1
			c0,41.6,0,83.2,0,124.9c0,18.7,0.1,37.5,0,56.2c-0.1,10.5,1.3,20.8,3.2,31c1.3,7.2,3.7,14.1,6.8,20.7
			c7.6,15.8,19.6,26.7,36.2,32.3c12.4,4.2,25.4,5.7,38.4,5.2c6.7-0.3,13.5-1.2,20.1-2.4c14.1-2.6,22-11.4,22.9-25.6
			c0.4-6.7-0.1-13.5-0.3-20.3c0-1.5-0.5-3.1-0.9-4.6c-2-7.2-7.9-11.2-15.3-10.3c-2.6,0.3-5.1,1.1-7.7,1.3
			c-11.6,1.1-20.3-4.5-23.9-15.6c-0.9-2.9-1.5-6.1-1.8-9.1c-0.3-4.1-0.2-8.3-0.2-12.5C59.6,2175.8,59.7,2147.7,59.7,2119.6z
			 M2929.5,2126.2c0,27-0.1,54.1,0.1,81.1c0.1,9.3,0.7,18.7,1.4,28c0.8,9.9,3.5,19.4,7.6,28.5c7.6,17.1,20.3,28.6,38.2,34.3
			c19.3,6.2,38.9,5.9,58.6,2.1c3-0.6,6-1.9,8.7-3.3c5.8-3,9.8-7.8,11.5-14.1c3.1-11.3,2.6-22.7-0.2-34c-1.4-5.4-7.4-9.7-13-9.2
			c-3.6,0.3-7.2,1.2-10.8,1.5c-10.6,0.8-19.5-5.3-22.5-15.4c-1.5-5-2.4-10.1-2.4-15.4c0-7.8,0-15.6,0-23.4c0-51,0-101.9,0-152.9
			c0-5.2,0-10.4-0.6-15.6c-1.8-16.2-13.2-27.7-29.4-29.6c-5.1-0.6-10.4-0.5-15.6-0.2c-12.6,0.6-27.9,8.9-30.5,28.3
			c-0.8,6.2-1.1,12.4-1.1,18.7C2929.5,2065.8,2929.5,2096,2929.5,2126.2z M-650,2125.9c0,27-0.1,54.1,0.1,81.1
			c0.1,9.3,0.6,18.7,1.3,28c0.8,9.9,3.5,19.4,7.5,28.5c7.6,17.1,20.2,28.7,38.1,34.4c19.8,6.4,39.9,6,60.1,1.9
			c2-0.4,3.9-1.3,5.8-2.2c7.1-3.3,11.5-8.7,13.4-16.2c2.7-10.9,2.2-21.7-0.5-32.4c-1.4-5.6-7.2-9.8-12.8-9.4
			c-3.1,0.2-6.1,1.1-9.2,1.3c-2.6,0.2-5.3,0.4-7.7-0.2c-8.3-1.7-13.9-6.7-16.5-14.8c-2.4-7.5-2.5-15.3-2.5-23.2
			c0-55.7,0-111.3,0-167c0-5.7,0-11.5-0.6-17.1c-1.7-16.3-13-27.9-29.2-29.7c-5.6-0.7-11.5-0.7-17.1-0.1
			c-15.8,1.6-26.8,12.2-29.1,27.9c-0.9,6.1-1,12.4-1,18.7C-650.1,2065.6-650,2095.8-650,2125.9z M1037.8,1436
			c-1.7,0.3-3.3,0.3-4.7,0.9c-6.2,2.8-12.3,5.5-18.3,8.6c-23,12.2-45.1,25.7-66.6,40.4c-4.3,2.9-8.4,6.1-12.6,9.2
			c-2.1,1.6-4,3.4-5.8,5.2c-1.9,2-2.7,4.5-1.8,7.1c0.8,2.5,1.7,4.9,2.8,7.3c12.9,27.3,27.5,53.6,45.3,78.1c3.1,4.2,6.6,8,10,12
			c3.1,3.6,7.2,4.4,11.3,2.8c6.3-2.3,12.6-4.9,18.6-7.8c20.1-9.9,39.2-21.5,57.6-34.1c6.4-4.4,12.6-9.2,18.7-14
			c2-1.6,3.8-3.5,5.5-5.5c1.7-2.1,2.5-4.7,1.6-7.3c-1.6-4.9-3.3-9.8-5.5-14.5c-9-19.4-19.5-37.9-30.7-56c-4.9-8-10.2-15.7-15.4-23.4
			c-1.7-2.6-3.8-4.9-6-7.1C1040.9,1436.9,1039.2,1436.6,1037.8,1436z M1250.6,925.7c-1.2,0.2-2.8,0.2-4.2,0.7
			c-4.9,1.8-9.8,3.5-14.4,5.7c-25.6,12.7-49.7,28.1-72.4,45.5c-2.5,1.9-4.8,3.9-7.2,6c-8.7,7.9-9.4,10.3-5.4,21.8
			c1.4,3.9,3,7.7,4.6,11.6c6.1,14.9,13.2,29.4,21.2,43.4c5.1,9,10.6,17.8,16.3,26.5c2.2,3.5,5.1,6.6,7.9,9.6
			c1.4,1.5,3.6,2.3,5.7,1.5c3.9-1.4,7.8-2.8,11.5-4.7c30.4-14.8,59.5-31.8,87.4-50.8c2.6-1.7,4.9-3.8,7.3-5.8
			c2.6-2.2,3.8-5.2,3.1-8.3c-1.2-5-2.5-10.1-4.6-14.8c-11.2-25.8-24.9-50.2-41.1-73.2c-2.7-3.8-5.8-7.3-8.8-10.9
			c-1-1.1-2.4-2-3.7-2.8C1253,926.3,1251.9,926.1,1250.6,925.7z M2325.8,2191.3C2325.8,2191.3,2325.8,2191.3,2325.8,2191.3
			c0,8.3,0,16.6,0,24.9c0,14.6,0.1,29.1,0,43.7c0,6.8,0.8,13.5,3.2,19.9c4.5,12.2,13.2,19.6,26.2,21.7c5.7,0.9,11.4,0.9,17.1,0.2
			c15-1.9,24.5-10.3,28.8-24.7c1.8-6.1,2.4-12.2,2.4-18.5c0-44.7,0-89.4,0-134.1c0-1.6,0.2-3.2-0.1-4.7c-0.9-5.1-1.3-10.4-3-15.2
			c-4.2-12.3-12.8-19.9-25.7-22.3c-6.2-1.2-12.4-1.4-18.6-0.4c-14.3,2.3-23.4,10.3-27.7,24c-2.1,6.6-2.5,13.2-2.5,20
			C2325.8,2147.6,2325.8,2169.5,2325.8,2191.3z M210.3,2192.9c0-21.8,0.1-43.6,0-65.5c0-5.7-0.1-11.5-1-17.1
			c-2.6-15.6-13.5-26.1-28.9-28.5c-5.2-0.8-10.3-0.8-15.5-0.3c-17.7,1.7-28.1,14.6-30.2,28.8c-0.8,5.1-1,10.3-1.2,15.5
			c-0.2,5.7-0.1,11.4-0.1,17.1c0,36.4-0.1,72.7,0.1,109.1c0,7.2,0.3,14.6,1.4,21.7c1.8,10.8,7.4,19.3,17.5,24.3
			c2.8,1.4,5.8,2.4,8.8,3c5.6,1.2,11.3,1.1,17.1,0.7c18.6-1.5,29.6-14.8,31.5-31.1c0.6-5.1,0.7-10.4,0.7-15.6
			C210.4,2234.5,210.3,2213.7,210.3,2192.9z M169.7,1976.1c-6.3-0.2-14,0.8-21.2,4.1c-8.9,4.1-15,10.7-17.9,20.3
			c-2.3,7.7-2.4,15.3-0.5,23c3.1,12.8,11.3,20.7,23.7,24.3c12.2,3.6,24.7,3.5,36.8-0.3c12.3-3.8,20.3-11.9,22.8-25
			c1.2-6.2,1.3-12.3,0.1-18.5c-2.2-12.4-9.3-20.4-20.9-24.9C185.7,1976.5,178.5,1976.1,169.7,1976.1z M2362.2,1976.1
			c-6.1-0.4-13.7,0.7-20.9,4c-11.2,5.1-17.9,13.8-19.1,26.3c-0.4,4.1-0.4,8.3-0.1,12.4c1.2,14.5,10,25,24.1,29.1
			c12.3,3.5,24.6,3.3,36.8-0.2c13.3-3.8,22.1-14.3,23.5-27.9c0.4-4.1,0.5-8.3,0.1-12.4c-1.4-13.6-8.3-23.1-21.2-28
			C2378.5,1976.6,2371.3,1976,2362.2,1976.1z"/>
		<path d="M-1138.7-99.9c2.1,0.4,4.1,0.4,5.9-1c21.4-16.7,44.6-30.5,68-44.2c49.3-29,98.7-57.9,148-86.8c2.2-1.3,4.5-2.6,6.9-3.6
			c0.7-0.3,2.2,0.1,2.7,0.7c1.7,1.9,3.3,4,4.6,6.2c12.5,21.6,25,43.2,37.5,64.8c17.6,30.7,35,61.5,54.3,91.2
			c8.5,13.1,17.4,25.9,26.3,38.7c3,4.2,6.7,7.9,10.2,11.7c1.5,1.6,3.8,2.1,5.8,1.4c4.4-1.5,8.8-3.1,13-5.2c14-6.9,28-13.8,41.7-21.3
			c29.7-16.2,59.1-32.9,88.8-48.9c18.8-10.1,37.9-19.5,57-29c5.1-2.5,10.5-4.4,15.9-6.2c2.6-0.9,5.2-0.1,7,2.2
			c3.1,4.2,6.2,8.4,8.9,12.8c13.2,21.8,26.5,43.6,39.3,65.6c21.4,36.9,42.5,74,63.7,110.9c2.8,5,5.9,9.8,9,14.6
			c1.8,2.8,5.1,4,8.2,2.9c4.4-1.6,8.8-3.2,13-5.3c9.3-4.6,18.7-9.2,27.7-14.3c37.2-20.8,74.4-41.6,111.4-62.9
			C-130-81.7,3.8-158.9,137.6-236.1c18.5-10.6,37-21.2,55.2-32.4c12.4-7.6,24.3-16.1,36.1-24.5c4.2-3,7.9-6.8,11.5-10.4
			c1.4-1.4,2.1-3.7,1.4-5.8c-1.2-3.4-2.3-6.9-3.8-10.2c-4.8-9.8-9.4-19.7-14.7-29.3c-16.5-30.1-33.1-60.1-50-90
			c-13.8-24.5-27.9-48.7-41.9-73.1c-2-3.6-3.9-7.3-6-11.3c1.5-1.7,2.7-3.5,4.3-4.7c12.7-10,25.4-19.9,39.3-28.2
			c25.9-15.4,51.9-30.7,77.9-46c18.4-10.8,36.9-21.3,55.2-32.3c9.3-5.6,18.3-11.9,27.3-18.1c3.4-2.4,6.4-5.3,9.4-8.1
			c1.6-1.5,2.1-3.8,1.4-5.8c-2-5.4-3.9-10.8-6.5-15.8c-7.1-13.9-14.1-27.8-21.9-41.4c-16.3-28.4-33.1-56.5-49.8-84.8
			c-5.8-9.8-12.1-19.4-17.8-29.4c-4.4-7.7-8.4-15.5-12.2-23.5c-1.9-4.2-3.1-8.8-4.2-13.3c-1.9-7.8,0.2-14.4,7.2-19
			c3.5-2.3,6.7-4.9,10.2-7.2c6.1-4,12.2-8,18.4-11.8c48.7-30.1,98.6-58,149.6-83.9c10.2-5.2,20.7-9.7,31.2-14.3
			c4-1.8,6.8-0.8,9.5,2.8c2.2,2.9,4.3,5.9,6.3,8.9c4,6.1,8,12.2,11.7,18.4c12,20.1,24.1,40.2,35.8,60.4
			c20.3,35.1,40.2,70.5,58.7,106.6c3.6,6.9,6.9,14,10.2,21.1c2.1,4.5,1.4,6.9-2.4,9.3c-4.4,2.8-8.8,5.5-13.3,8.2
			c-35.8,21.1-71.8,42-107.5,63.4c-23.7,14.1-47.3,28.3-70.3,43.5c-25,16.5-23.4,11.3-9.6,36.5c17,31,35,61.5,53.1,91.8
			c15.5,25.9,31.7,51.3,47.8,76.9c3.6,5.7,7.6,11.1,11.6,16.6c2,2.8,4.9,3.4,8.3,1.6c6.5-3.3,13-6.5,19.3-10.1
			c30.7-17.5,61.3-35.2,92.1-52.7c25.8-14.6,51.7-29,77.6-43.4c6.4-3.5,13.1-6.4,19.7-9.4c2.5-1.2,5.4-0.6,7.1,1.5
			c3.9,4.8,8,9.6,11.4,14.8c10.7,16.6,21.4,33.2,31.6,50.2c11.8,19.6,22.8,39.7,34.4,59.4c11,18.9,22.2,37.6,33.5,56.3
			c4,6.7,8.3,13.2,12.7,19.7c5.6,8.3,7.1,8.7,16.8,4.8c5.8-2.3,11.4-5,17.1-7.7c24-11.3,47.2-24.2,70.3-37.1
			c27.7-15.5,55.4-30.9,83.2-46.2c9.1-5,18.5-9.5,27.8-14.1c3.3-1.6,6.7-2.9,10.1-4.1c3.2-1.1,6.3-0.4,8.6,2
			c3.6,3.8,7,7.7,10.1,11.8c10.1,13.3,18.7,27.6,27,42c6.5,11.3,12.7,22.7,19,34c21,37.7,42.8,75,66,111.4c2,3.1,3.9,6.1,6,9.1
			c1.5,2.3,4.3,2.9,6.8,1.5c4.1-2.2,8.2-4.5,12.3-6.8c64.9-37.3,129.8-74.7,194.7-112c4.1-2.3,8.2-4.6,12.3-6.6
			c0.6-0.3,2.2,0.3,2.7,1c2.4,3.3,4.8,6.7,6.9,10.3c27.6,47.1,55.2,94.3,82.7,141.4c6.8,11.7,13.4,23.5,19.7,35.5
			c3.6,6.9,6.4,14.2,9.5,21.4c2.1,4.9,2.6,10,2.5,15.3c-0.1,5.4-1.7,10.4-5.5,14.2c-3.7,3.6-7.6,7.1-11.9,9.9
			c-6.5,4.2-13.4,7.9-20.3,11.7c-10,5.5-20.3,10.5-30.2,16.2c-6.8,3.9-13.2,8.3-19.6,12.8c-3.4,2.4-6.2,5.6-8,9.4
			c-1.4,2.9-1.8,6.1-0.5,9.1c1.3,2.8,2.7,5.7,4.6,8.1c15.1,19.3,27.4,40.4,40.1,61.3c4.1,6.7,8,13.4,12,20.1
			c1.3,2.2,2.6,4.5,3.9,6.8c1.5,2.7,0.9,5.4-1.3,6.8c-2.2,1.4-4.4,2.8-6.6,4.1c-24,13.6-48,27.1-72,40.6c-5,2.8-10.1,5.5-15.3,7.8
			c-4.2,1.9-8.7,3.5-13.1,4.9c-6.5,2-12.3,0.2-17.6-3.8c-4.2-3.2-7.5-7.3-10.2-11.7c-4.3-7.1-8.6-14.3-12.5-21.6
			c-6.4-11.9-12.5-24-18.9-35.9c-2.2-4.1-4.4-8.2-7.1-12.1c-4.2-6.2-10.4-8.3-17.7-7c-2,0.4-4.1,0.9-6,1.5c-3.4,1.2-6.8,2.5-10.2,4
			c-5.2,2.4-10.4,4.8-15.4,7.5c-49.1,27.2-98,54.8-145.7,84.5c-7.9,4.9-15.6,10.4-23.3,15.7c-1.7,1.2-3.1,2.8-4.3,4.4
			c-0.5,0.7-0.9,2.1-0.6,2.9c1.1,2.9,2.3,5.8,3.8,8.5c8.4,15.6,16.6,31.2,25.3,46.6c25,44.4,50.1,88.8,75.1,133.2
			c19.1,34,37.8,68.3,54.9,103.3c4.8,9.8,9.3,19.8,13.7,29.7c1.7,3.8,2.9,7.8,4,11.8c0.9,3.2,0,6.3-2.7,8.4
			c-4.5,3.5-8.9,7.3-13.7,10.3c-10.2,6.3-20.6,12.2-31,18c-9.5,5.3-19.2,10.4-27.8,17.2c-4.5,3.5-8.6,7.5-12.6,11.6
			c-2.8,2.8-3.6,6.5-2.4,10.1c2,5.9,4,11.9,6.8,17.4c6.3,12.6,12.9,24.9,19.5,37.3c5.9,11,12,21.9,17.8,32.9
			c2.4,4.6,4.3,9.5,6.2,14.3c1.3,3.2,0.3,5.9-2.7,8.1c-4.2,3-8.5,6-12.9,8.7c-23.6,14.3-48.1,26.8-73.6,37.5
			c-5.3,2.2-10.7,4.1-16.1,5.9c-7.3,2.4-9.7,1.5-14.5-5.1c-4-5.5-7.9-11-11.5-16.7c-10.8-17.2-21.6-34.3-32-51.7
			c-12.6-21-24.6-42.2-37.2-63.2c-11-18.3-22.2-36.4-33.9-54.3c-11.2-17.2-9.8-16.3-28.2-7.8c-27.9,12.9-54.7,27.7-81.6,42.4
			c-51.6,28.1-102.4,57.7-153.2,87.1c-236.7,137-473.4,274.1-710.1,411.1c-41,23.7-81.7,47.8-121.8,73c-8.4,5.3-16.6,10.7-24.9,16.1
			c-2.6,1.7-5.1,3.6-7.3,5.8c-0.9,0.9-1.6,3-1.2,4.1c0.9,3,2.2,5.8,3.7,8.6c5.9,11,11.8,22,18.1,32.8c11.2,19.4,22.7,38.5,33.9,57.9
			c13.3,22.9,26.6,45.9,39.6,69c5.8,10.4,10.8,21.3,16.2,32c1.2,2.3,2.4,4.6,3.8,6.8c1.5,2.4,5.4,3.8,8.3,3.1c2-0.5,4-1.1,5.9-2
			c2.8-1.4,5.5-3,8.1-4.6c44.1-27.5,89.3-53.3,134.4-79.3c85.6-49.4,171.4-98.3,257.9-146.1c11.4-6.3,22.9-12.4,34.3-18.5
			c1.8-1,3.7-2,5.7-2.4c1.4-0.3,3.2,0,4.4,0.8c1.7,1.1,3.1,2.8,4.2,4.5c5.3,7.7,10.6,15.5,15.5,23.4c27.6,44.1,53.3,89.3,77.9,135.2
			c5.1,9.6,9.8,19.5,14.3,29.5c2.6,5.7,4.6,11.6,6.5,17.5c1,2.9,1.4,6.1,1.7,9.2c0.6,6.1-1.4,11.3-6.6,14.9c-4.3,3-8.5,6-12.9,8.7
			c-15,9.3-30,18.7-45.2,27.8c-85.2,51.1-171.2,100.7-257.7,149.5c-32.1,18.1-64.6,35.8-96.9,53.6c-6.4,3.5-12.9,6.7-19.5,9.8
			c-4.9,2.3-7.3,1.7-10.7-2.8c-4.1-5.4-8-10.9-11.6-16.6c-13.8-21.5-26-43.8-38.3-66.2c-14-25.5-28.1-51-42.5-76.3
			c-6.2-10.8-13-21.3-20-31.6c-7.1-10.6-10-13.3-26.5-9.6c-4.5,1-9,2.8-13.2,4.6c-9,4-18.1,7.9-26.8,12.5
			c-18.4,9.8-36.5,19.9-54.7,30.1c-20.4,11.5-40.6,23.3-61,34.7c-10,5.6-20.2,10.7-30.5,15.6c-5.6,2.7-11.5,4.8-17.5,6.6
			c-9.5,2.8-14.8,0.8-20-7.2c-2.3-3.5-4.3-7.1-6.4-10.7c-46.4-80.1-92.9-160.2-139.1-240.4c-30.1-52.3-59.9-104.7-89.8-157.1
			c-1.5-2.7-3.1-5.4-4.8-8.1c-3.5-5.4-8.5-7.6-14.7-6.5c-4.1,0.7-8.2,1.8-11.9,3.4c-7.6,3.3-15.2,6.7-22.6,10.6
			c-15.1,8.1-30.2,16.3-45.1,24.8c-26.7,15.1-53.4,30.2-79.9,45.7c-10.3,6-20.3,12.6-30.2,19.4c-4.2,2.9-8,6.7-11.4,10.5
			c-3.7,4.1-4.7,9.3-2.6,14.6c1.5,3.9,3.4,7.6,5.3,11.3c44.9,86.3,94.5,170,143.2,254.2c15.6,27,31.5,53.9,47.2,80.9
			c12,20.7,23.8,41.5,34.1,63.1c2.7,5.6,5.2,11.3,7.5,17.2c1.7,4.3,0.7,8.2-3,11.2c-3.6,3-7.1,6.2-10.8,8.9
			c-7.1,5.3-14.3,10.5-21.6,15.4c-43.5,29.6-88.2,57-134.2,82.4c-9.6,5.3-19.4,10.1-29.2,14.9c-4.2,2-8.6,3.7-13.1,5
			c-1.8,0.5-4.2-0.1-5.9-1c-2.2-1.2-4.3-3-6-4.9c-4.5-5.1-9.1-10.1-12.9-15.6c-6.7-9.9-13.3-19.9-19.3-30.2
			c-117.2-203.8-234.4-407.6-351.5-611.4c-2.3-4-4.4-8.2-6.7-12.3c1.2-1.5,1.9-3,3.1-3.8c3.9-2.5,8-4.8,12.1-7.2
			c62.5-36.4,126-70.9,189.2-105.9c6.2-3.4,13.7-5.1,17.8-11.8c-1.3-6.8-5.6-12.2-8.8-18.1c-28.6-53.1-58.1-105.8-89.4-157.3
			c-6-9.8-11.4-19.8-15.6-30.5c-2.1-5.4-3.7-10.8-4.4-16.5c-0.5-3.8,0.8-7.3,3.9-9.7c4.6-3.5,9.2-6.8,14-9.9
			c24.7-15.4,49.5-30.6,74.3-45.9c21.7-13.3,43.7-26.3,65.2-39.9c12.7-8,25.1-16.8,37.2-25.7c11.1-8.2,11.4-9.5,6-22.1
			c-4.1-9.6-8.5-19-13.3-28.2c-11-20.6-22.3-41.1-33.7-61.6c-11.6-20.9-23.7-41.6-35.2-62.6c-5.8-10.5-10.8-21.3-16-32.1
			c-2.3-4.7-4.3-9.5-6.1-14.4c-3.3-9.4-2.2-11.8,5.6-17c14.3-9.5,28.6-19.1,43.2-27.9c28.9-17.5,58.2-34.4,87.2-51.8
			c18.3-11,36.3-22.4,54.3-33.8c3.9-2.5,7.6-5.4,11.2-8.4c1.6-1.3,2.4-3.5,1.6-5.7c-1.9-5.4-3.5-10.9-5.9-16.1
			c-5.8-12.2-11.6-24.4-18-36.3c-9.8-18.3-19.9-36.5-30.3-54.6c-17.9-31.1-36-62.1-54.1-93.1c-1.6-2.7-3.2-5.3-4.9-8
			c-1.7-2.6-3.7-3.2-6.6-1.7c-9.7,5-19.5,9.8-29,15.1c-31.3,17.6-62.4,35.3-93.6,53.2c-22.1,12.7-44.1,25.5-67,36.8
			c-7.4,3.7-15.1,6.8-22.8,10.1c-2,0.9-4.2,0.3-5.8-1.1c-2.3-2.1-4.5-4.4-6.3-6.8c-5.3-7.1-10.6-14.2-15.5-21.5
			c-33.7-50.1-65.5-101.4-94.8-154.1c-5.1-9.1-9.7-18.4-14.3-27.7c-1.5-3.1-3.8-4.8-6.6-6.3C-1138.7-97.9-1138.7-98.9-1138.7-99.9z
			 M397.6-77.4c3.9,10.6,8.7,19.3,13.3,28c29.4,55.5,59.9,110.5,91.6,164.8c4.2,7.2,8.6,14.2,13,21.3c1.4,2.1,3.2,4,4.7,5.7
			c5.9-0.7,10.1-3.9,14.6-6.5c64.9-37.2,129.7-74.5,194.5-111.8c2.2-1.3,4.4-2.8,6.5-4.2c1.6-1.1,2.1-3.7,1.2-5.6
			c-0.9-1.9-1.9-3.7-2.9-5.5c-22.9-39.6-45.7-79.2-68.8-118.6c-12.6-21.5-25.8-42.7-40.2-63.1c-3.6-5.1-7.4-10-11.3-14.9
			c-3.4-4.2-6.2-4.9-10.9-2.7c-7.5,3.5-15,7.1-22.4,10.9c-50.7,26.2-100.9,53.5-150.5,81.8c-8.6,4.9-17,10-25.4,15.1
			C402.3-81.4,400.4-79.6,397.6-77.4z M-292.2,333c-2.9,0.7-6.1,1-8.9,2.1c-10.5,4.4-21.1,8.9-31.3,13.8
			c-46.8,22.7-92.3,47.8-136.5,75.1c-8,4.9-15.7,10.2-23.4,15.5c-3.4,2.3-6.5,5.1-9.6,7.9c-2,1.8-3,4.4-1.7,7.1
			c3.8,8,7.4,16.1,11.6,23.8c25.4,47.1,52.8,93.1,81.2,138.5c5,7.9,10.4,15.6,16,23c3.1,4.1,6.8,7.9,10.6,11.3
			c5.5,5,12.1,5.9,18.9,3c4.8-2.1,9.4-4.5,13.9-7.1c40.7-23.1,81.4-46,121.9-69.4c15.3-8.8,30.1-18.5,45-28
			c4.4-2.8,8.4-6.1,12.5-9.2c2.1-1.6,2.7-4.5,1.5-7.1c-3.6-7.5-7-15.1-11-22.4c-28.8-52.4-59.1-103.9-91.1-154.4
			c-3.6-5.7-7.5-11.3-11.3-16.8c-1.2-1.7-2.4-3.4-4-4.8C-288.9,334.1-290.5,333.8-292.2,333z"/>
		<path d="M3252.5,496.4c-1.4,3.9-2.7,7.8-3,12c-0.9,13-2.2,25.9-3,38.9c-0.7,12-1.8,23.8-3.5,35.7c-1.6,11.3-2.7,22.7-4,34.1
			c-0.8,6.7-1.5,13.4-2.4,20.1c-2,14.4-4.2,28.8-6.3,43.2c-0.6,4.1-1.4,8.2-2.2,12.3c-0.7,3.6-1.8,7.1-2.2,10.7
			c-2.2,19.7-7.5,38.8-10.4,58.4c-0.6,4.1-1.6,8.2-2.6,12.2c-0.6,2.5-1.6,5-2,7.5c-2.4,16-7.2,31.4-10.4,47.2
			c-1,5.1-2.4,10.1-3.7,15.1c-1.3,5-2.5,10.1-3.8,15.1c-1.2,4.5-2.4,9-3.6,13.6c-1.2,4.5-2.5,9-3.6,13.6c-0.6,2.5-1,5.1-1.7,7.6
			c-3.7,12.4-7.6,24.9-11.3,37.3c-3.7,12.4-7.2,25-11.1,37.3c-3.4,10.9-7.3,21.7-11,32.5c-2.7,7.9-5.4,15.7-8.2,23.6
			c-6.1,17.1-12.3,34.2-18.5,51.3c-2.7,7.3-5.5,14.6-8.5,21.8c-11.3,26.8-22.4,53.7-34.5,80.2c-12.9,28.4-26.4,56.5-40.5,84.3
			c-14.6,28.7-30,57.1-46.1,84.9c-21.1,36.4-43.1,72.3-66.6,107.4c-28.9,43.3-59.5,85.3-91.6,126.2
			c-38.6,49.2-79.9,95.8-122.7,141.3c-7.8,8.3-15.9,16.5-24,24.6c-2.7,2.7-7.1,3-10,0.7c-2.5-1.9-4.9-3.9-7.1-6.1
			c-47.1-47.1-94.1-94.2-141.1-141.4c-2.5-2.6-4.9-5.4-7-8.3c-1.3-1.8-1.1-4.1,0-5.9c1.1-1.8,2.4-3.4,3.8-4.9
			c8.2-8.7,16.6-17.2,24.8-25.9c37.4-39.8,73-81.1,106.7-124.2c23.7-30.4,46-61.7,68.1-93.2c10.7-15.3,20.3-31.4,30.6-47.1
			c21.1-32.2,39.6-66,58.5-99.5c9.2-16.3,17.1-33.3,25.7-49.9c14.3-27.7,26.5-56.4,39.4-84.8c8.4-18.5,15.6-37.4,22.8-56.3
			c3.5-9.2,7.5-18.3,11.1-27.5c3-7.7,5.8-15.6,8.5-23.5c3.6-10.8,7-21.8,10.6-32.6c2.1-6.4,4.7-12.7,6.7-19.1
			c4.5-14.4,9-28.8,13.1-43.2c3.7-13,7.1-26.1,10.6-39.1c0.8-3,1.7-6,2.6-9c0.7-2.5,1.8-4.9,2.3-7.4c3.4-15.2,6.8-30.4,10.1-45.7
			c0.8-3.6,1.2-7.2,2.3-10.7c2.8-9,4.4-18.2,6-27.4c3.8-21.5,8-42.9,12-64.4c0.8-4.1,1.4-8.2,2-12.3c1.8-13.4,3.6-26.8,5.4-40.2
			c0.2-1.5,0.5-3.1,0.7-4.6c3.5-35.7,8.2-71.3,9.9-107.2c1.6-33.3,2.7-66.5,3.7-99.8c0.3-9.4,0.1-18.7-0.1-28.1
			c-0.2-11.4-0.6-22.9-0.9-34.3c-0.8-35.9-3.2-71.7-5.7-107.5c-0.5-6.7-1.5-13.4-2.3-20.2c-0.4-3.1-1.1-6.2-1.3-9.3
			c-1.9-24.9-5.8-49.6-9.2-74.3c-0.1-1-0.2-2.1-0.4-3.1c-3.7-21.5-7.4-43-11.3-64.5c-1.3-7.2-2.8-14.3-4.2-21.4
			c-0.8-4.1-1.8-8.1-2.8-12.2c-0.7-3-1.8-6-2.5-9c-3.3-15.2-6.6-30.5-9.9-45.7c-0.3-1.5-0.5-3.1-1-4.6c-3.6-12.5-7.1-25-10.7-37.5
			c-0.7-2.5-1.6-4.9-2.2-7.5c-3.9-16.7-8.9-33.1-14.4-49.3c-6.4-18.7-12-37.6-18.1-56.4c-2.3-6.9-4.9-13.7-7.5-20.5
			c-6.2-16-12.9-31.8-18.8-47.9c-10.4-28.4-23.8-55.3-35.7-83c-7.1-16.7-15.9-32.7-24-49c-5.3-10.7-10.6-21.4-16.3-31.9
			c-23.6-43.4-48.4-86.1-75.1-127.7c-19.4-30.2-39.9-59.7-61.3-88.5c-23.6-31.7-47.6-63.1-74-92.6c-9-10.1-17.4-20.8-26.5-30.7
			c-17.3-18.7-34.9-37.1-52.4-55.6c-2.9-3-5.8-6-8.5-9.2c-2.4-2.8-2.3-7.4,0-10.1c2.1-2.3,4.3-4.6,6.5-6.8
			c47.8-47.8,95.6-95.7,143.4-143.5c10.3-10.3,11.3-10.3,21-0.2c27.3,28.6,54.9,56.9,80.5,87c18.6,21.8,37.7,43.1,54.9,65.9
			c6.3,8.3,13,16.2,19.3,24.5c47.2,61.5,91.3,125.2,130.8,192c22.5,38.1,43.8,76.7,63.9,116.1c12,23.6,23.5,47.5,34.2,71.8
			c9.2,20.9,18.9,41.6,27.5,62.8c6.4,15.9,13.2,31.6,18.7,47.9c3.3,9.8,7.6,19.3,11.3,29.1c2.9,7.8,5.8,15.6,8.4,23.5
			c6.2,18.8,12.2,37.6,18.2,56.4c4.1,12.9,8.3,25.7,12.2,38.6c2.9,9.4,6,18.9,8,28.5c2.9,14.3,8.2,27.9,10.8,42.3
			c1.6,9.2,4.8,18,6.7,27.2c3.6,17.3,8.1,34.4,11.7,51.7c3.8,18.3,7.1,36.8,10.5,55.2c1.5,8.2,2.8,16.4,4.2,24.6
			c0.4,2.6,1.3,5.1,1.5,7.6c2.5,25.9,8.6,51.3,10.3,77.3c0.4,5.7,1,11.4,1.9,17.1c2.7,17,4.3,34.1,5.2,51.2
			c0.6,11.4,1.9,22.8,2.7,34.2c0.3,4.7,1.6,9.1,3,13.5C3252.5,332,3252.5,414.2,3252.5,496.4z"/>
		<path d="M-205.5,2379.2c-2.8-2.3-5.7-4.5-8.2-7c-7.1-7-9.7-15.9-8.9-25.6c0.4-5.7,2.1-11.2,4.6-16.4c4.9-10.3,9.6-20.7,14.4-31.1
			c2.2-4.7,4.2-9.5,6.1-13.7c-0.1-5-2.3-8.6-3.9-12.4c-19.6-44.8-39.1-89.5-58.6-134.3c-2.1-4.8-4.1-9.6-5.7-14.5
			c-1.1-3.4-1.7-7.1-2-10.7c-1.1-15.8,8.7-27.2,23.2-30.7c8.1-1.9,16.4-2.3,24.8-0.6c7.5,1.5,13.5,5.2,18.1,11.3
			c3.8,5,6.5,10.6,8.8,16.4c3.1,7.7,6,15.5,9,23.3c7.3,18.9,14.5,37.8,21.9,56.7c1.3,3.4,2.9,6.6,4.4,9.9c0.2,0.4,0.8,0.8,1.1,0.8
			c0.9-0.3,2.1-0.5,2.7-1.2c0.9-1.2,1.6-2.7,2.2-4.1c1.8-4.3,3.6-8.6,5.4-13c9.4-23.1,18.7-46.3,28.2-69.3
			c2.2-5.3,4.6-10.5,7.5-15.4c5.3-9.1,13.2-14.4,23.8-15.7c6.3-0.8,12.4-1,18.6,0.4c8.7,2,14.9,7.1,18.6,15.2
			c3.3,7.3,4.2,15.1,1.8,22.8c-1.9,5.9-4.1,11.8-6.6,17.5c-19.6,44.2-39.2,88.4-58.9,132.5c-11,24.7-22,49.4-33,74.1
			c-1.5,3.3-2.9,6.7-4.5,9.9c-4.4,9-9.7,17.2-18.7,22.4c-0.7,0.4-1,1.7-1.5,2.5C-182.6,2379.2-194,2379.2-205.5,2379.2z"/>
		<path d="M2766.5,379.3c-0.4,20-0.6,43.4-1.3,66.8c-0.4,11.4-1.8,22.8-2.7,34.2c-0.3,3.6-0.8,7.2-1,10.9
			c-1.4,33.8-7.1,67.2-10.7,100.8c-0.1,1-0.2,2.1-0.4,3.1c-3.5,20-7,39.9-10.6,59.9c-1.2,6.7-2.6,13.3-4,19.9
			c-1.1,5.1-2.2,10.2-3.5,15.2c-0.7,3-2,6-2.4,9c-1.7,14-6.4,27.3-9.3,41.1c-0.8,4.1-2.2,8-3.3,12c-1.4,5-2.7,10-4.2,15
			c-4.3,14.4-7.5,29.2-12.7,43.4c-4.1,11.2-7.2,22.8-10.9,34.1c-5.4,16.3-11.1,32.4-17.4,48.4c-3.2,8.2-6.9,16.3-9.7,24.6
			c-5.4,15.8-12.6,30.8-19.2,46c-6.7,15.8-14,31.3-21.5,46.7c-20.8,43.1-43.6,85.1-68.5,126c-22.2,36.4-45.8,72-71.2,106.2
			c-34.2,45.9-70.2,90.3-110,131.6c-6.1,6.4-12.1,12.9-18.2,19.3c-2.1,2.3-4.2,4.6-6.5,6.8c-5.3,5.2-9.7,5.4-15,0.7
			c-1.2-1-2.3-2.1-3.4-3.2c-39.2-38.1-78.3-76.1-117.5-114.2c-9.7-9.4-19.4-18.9-29-28.3c-2.2-2.2-4.4-4.4-6.4-6.8
			c-2.1-2.4-1.9-6.1,0.4-8.5c2.8-3.1,5.7-6.1,8.7-9c27-26.8,52-55.3,76-84.7c31.2-38.3,60-78.4,86.1-120.5
			c19.2-30.9,37.1-62.6,53.6-95c12.5-24.6,23.5-49.8,35-74.8c3.2-7.1,6-14.4,8.8-21.7c4.9-12.6,9.9-25.2,14.6-37.8
			c2.9-7.8,5.5-15.7,8-23.6c3.8-11.9,7.5-23.8,11.1-35.7c3.9-12.9,8-25.8,11.5-38.8c3.7-14.1,6.8-28.3,10.2-42.5
			c0.4-1.5,0.4-3.1,0.9-4.6c5.7-16.9,7-34.6,11.1-51.8c1.3-5.6,2-11.3,2.9-16.9c1.1-6.7,2.2-13.3,3.2-20c1.5-10.8,3-21.6,4.4-32.5
			c0.7-5.7,1.1-11.4,1.8-17.1c4.2-30.5,6-61.1,6.7-91.8c0.7-30.2,1-60.3-0.1-90.5c-0.7-19.8-1.8-39.5-2.9-59.2
			c-0.4-6.7-1.4-13.5-2.1-20.2c-1.2-10.9-2.4-21.7-3.7-32.6c-0.4-3.6-0.6-7.3-1.1-10.9c-3.3-20-6.7-40-10.1-60
			c-1.1-6.2-2.3-12.3-3.5-18.4c-0.3-1.5-0.4-3.1-0.7-4.6c-3.9-16.7-7.7-33.4-11.8-50.1c-3.6-14.6-7.5-29.2-11.5-43.7
			c-2.3-8.5-4.8-17-7.7-25.4c-9-25.4-16.2-51.6-27.2-76.3c-2.3-5.2-3.7-10.8-5.9-16.1c-12.8-30.7-26.2-61.1-41.1-90.8
			c-14.9-29.8-30.9-59-48.1-87.4c-15.9-26.2-32.9-51.8-50.7-76.8c-15.1-21.2-30.9-41.9-47.3-62c-22.3-27.4-45.6-54.1-70.6-79.2
			c-2.9-2.9-5.7-6.1-8.3-9.3c-1.9-2.2-1.9-6.5,0-8.8c2.7-3.2,5.5-6.2,8.5-9.1c18.3-17.8,36.6-35.4,54.9-53.2
			c28-27.2,55.9-54.5,83.8-81.7c3.7-3.6,7.5-7.1,11.5-10.6c2.2-1.9,6.6-1.8,8.8-0.1c1.2,1,2.4,2,3.5,3.1
			c30.9,32.3,61,65.4,89.1,100.3c22.8,28.3,44.7,57.4,65.5,87.3c26.1,37.6,50.4,76.3,73.1,116.1c18.1,31.6,34.7,64,50.2,96.9
			c11.5,24.4,22.3,49.2,32.7,74.1c7.8,18.7,14.7,37.7,21.8,56.7c3.1,8.3,5.8,16.7,8.6,25.1c5.1,15.3,10.3,30.5,14.9,46
			c3.8,12.4,6.8,25.1,10.2,37.6c1,3.5,2.1,7,3.1,10.5c1.5,5.5,3,11,4.4,16.6c1.3,5,2.5,10.1,3.7,15.1c1.1,4.5,2.1,9.1,3.2,13.7
			c1.5,6.6,3,13.2,4.5,19.7c0.5,2,1.2,4,1.6,6c3.2,17.4,6.4,34.8,9.5,52.2c0.7,4.1,1,8.3,2,12.3c3.6,14.2,5.4,28.6,6.5,43.2
			c0.2,2.1,0.4,4.2,0.8,6.2c4.3,23.6,6.5,47.4,7.6,71.3c0.1,1.6,0.2,3.1,0.4,4.7C2766.1,297.8,2765.8,336.9,2766.5,379.3z"/>
		<path d="M2279.1,372.8c0.1,34.9-1.6,69.7-6,104.3c-0.9,6.7-1.2,13.5-2.1,20.2c-1.4,10.3-3,20.6-4.6,30.9c-0.3,2.1-1,4.1-1.2,6.1
			c-1.7,17.7-6.4,34.8-9.7,52.1c-1.4,7.1-3.9,14-5.3,21.2c-4.6,22.5-11.4,44.3-18.5,66c-5.9,18.2-12.5,36.3-19.5,54.3
			c-10.2,26.2-21.4,51.9-33.8,77.1c-16.7,34.1-35.4,67.1-55.9,99.1c-23.3,36.4-49,71-76.5,104.3c-13.6,16.4-28,32.2-42.5,47.8
			c-1.4,1.5-2.9,3-4.4,4.5c-3.8,3.7-7.3,3.8-10.9,0.6c-1.2-1.1-2.3-2.1-3.4-3.2c-47.4-47.5-94.9-94.9-142.3-142.4
			c-1.8-1.8-3.7-3.7-5.4-5.6c-4.4-5-4.4-9.1-0.3-13.8c1-1.2,2.1-2.3,3.2-3.4c20.3-21,39.1-43.2,56.6-66.5
			c20-26.7,38.2-54.5,54.7-83.4c13.4-23.5,25.3-47.8,36.1-72.6c7-16.2,13.9-32.5,18.8-49.5c2-7,4.8-13.7,6.9-20.7
			c3.9-12.9,7.7-25.9,11.4-38.9c0.9-3,1.6-6,2.2-9.1c0.5-2.5,0.7-5.2,1.4-7.7c4.7-16.6,6.8-33.6,9.8-50.5c2.1-11.8,4-23.6,4.8-35.5
			c1.4-20.8,3.2-41.5,4.1-62.3c0.6-13.5,0.7-27.1,0-40.6c-1.3-23.9-3.2-47.8-5.1-71.6c-0.5-6.2-1.7-12.4-2.6-18.5
			c-1.4-9.2-3-18.5-4.4-27.7c-0.2-1.5-0.3-3.1-0.7-4.6c-4.4-16-6.6-32.6-11.5-48.5c-3.1-9.9-5.5-20-8.5-30
			c-6.3-20.4-13.5-40.4-21.4-60.2c-9.9-24.6-21.3-48.6-33.8-71.9c-13.8-25.7-29-50.5-45.8-74.3c-21.6-30.6-45.1-59.8-71.2-86.7
			c-2.2-2.2-4.2-4.6-6.2-7c-2.5-3.1-2.3-6.8,0.5-9.9c3.1-3.5,6.4-6.9,9.7-10.2c45.2-45.3,90.4-90.5,135.7-135.8c2.6-2.6,5.2-5,8-7.4
			c2.4-2,6.1-1.9,8.6,0.2c1.6,1.3,3.2,2.7,4.7,4.1c25.2,25.6,48.8,52.7,70.6,81.2c12,15.7,23.8,31.5,35.1,47.7
			c14.3,20.5,27.4,41.7,39.9,63.3c13.3,22.9,25.7,46.4,36.9,70.4c9.5,20.2,19,40.4,26.3,61.6c2.2,6.4,4.8,12.6,7.3,18.9
			c7.6,18.8,12.8,38.4,19.6,57.5c1,2.9,1.6,6,2.4,9c0.6,2.5,0.8,5.2,1.7,7.6c5.1,13.2,6.9,27.2,10.9,40.7c1.4,4.5,1.9,9.1,2.9,13.7
			c1,4.6,2,9.1,2.9,13.7c1.5,7.6,3,15.3,4.4,23c1.3,7.2,2.4,14.4,3.6,21.5c0.9,5.6,2.2,11.3,2.8,16.9c2.6,24.8,5.5,49.7,7.3,74.6
			C2278.5,335.3,2278.5,354.1,2279.1,372.8z"/>
		<path d="M1085.7,867.9c-0.4,1.2-0.7,2.8-1.5,4.1c-2.4,3.4-4.6,7-7.6,9.8c-5.3,4.9-10.9,9.7-16.8,13.9c-8.1,5.6-16.6,10.7-25,15.8
			c-13.8,8.3-27.7,16.4-41.6,24.6c-2.7,1.6-5.3,3.3-7.9,5.1c-1.8,1.3-2.8,4.7-1.8,7.1c1.8,4.3,3.6,8.7,5.9,12.7
			c5.7,9.9,11.6,19.7,17.7,29.4c7.8,12.3,15.3,24.7,21.5,37.9c2.4,5.2,4.9,10.4,6,16c0.6,2.8,0,5.3-1.9,7.2
			c-3.8,3.6-7.6,7.1-11.8,10.2c-9.6,7.1-19.3,14.1-29.2,20.8c-42.6,28.8-86.3,56-131.1,81.3c-11.7,6.6-23.8,12.8-36,18.6
			c-9,4.4-10.7,3.6-16.5-5c-4.3-6.5-8.5-13.1-12.6-19.7c-32.2-52.8-62.7-106.6-91.2-161.5c-4.1-7.8-7.9-15.8-11.7-23.8
			c-1.1-2.3-2.1-4.8-2.9-7.2c-0.9-2.7-0.4-5.3,1.8-7.1c4.1-3.2,8.1-6.5,12.5-9.3c23.2-14.9,46.2-29.9,69.6-44.4
			c60.9-37.8,122.5-74.6,184.8-110.1c14.9-8.5,30-16.5,45.1-24.7c3.2-1.7,6.5-3.2,10-4.3c1.3-0.4,3.1,0.1,4.5,0.7
			c1.4,0.6,2.7,1.6,3.8,2.7c2.9,3,5.9,5.9,8.5,9.1c18.9,22.9,35.2,47.7,49.1,73.9c2.2,4.1,3.8,8.5,5.6,12.8
			C1085.6,865.5,1085.6,866.6,1085.7,867.9z"/>
		<path d="M-938.5,2146.2c0-35.9,0-71.8,0-107.7c0-6.8,0.2-13.5,2.1-20.1c3.4-12,10.8-20,22.7-23.5c4.4-1.3,9.1-1.8,13.8-2.5
			c2-0.3,4.2-0.1,6.2-0.1c34.3,0,68.7,0,103,0c14.7,0,29.1,1.8,43.1,6c36.1,10.8,61.3,39.3,64.7,81.1c1.2,15.1,0.9,30.1-3.1,44.9
			c-7.3,26.7-23.3,46.1-48.3,57.8c-11.4,5.3-23.4,8.6-36,9.6c-8.3,0.7-16.6,1-24.9,1c-16.6,0.2-33.3,0-49.9,0.1
			c-3.1,0-6.3,0.1-9.3,0.7c-1.4,0.2-2.9,1.3-3,3.2c-0.3,3.6-0.6,7.2-0.6,10.8c-0.1,17.2-0.1,34.3,0,51.5c0,6.3-0.6,12.4-2.4,18.5
			c-4.2,13.9-13.6,21.7-27.8,23.9c-6.7,1-13.5,1.1-20.2-0.1c-14.1-2.5-23.4-10.5-27.6-24.3c-1.5-5-2.4-10.1-2.3-15.4
			c0.1-5.7,0-11.4,0-17.2C-938.5,2211.8-938.5,2179-938.5,2146.2z M-858,2092.1C-858,2092.1-858,2092.1-858,2092.1
			c-0.1,10.9-0.2,21.8-0.1,32.8c0,3.9,1.1,6.9,6.4,6.9c16.6,0,33.3,0.3,49.9-0.1c6.2-0.1,12.5-1.3,18.4-3.1
			c13.6-4.1,22.1-13.3,24.5-27.5c1.2-6.7,1-13.4-0.7-20.1c-2.9-11.5-10-19.1-21-23.3c-6.4-2.5-13-3.6-19.8-3.7
			c-16.6-0.1-33.3-0.1-49.9-0.1c-1,0-2.1,0.2-3.1,0.3c-2.7,0.2-4.6,2.2-4.6,5.2C-858,2070.3-858,2081.2-858,2092.1z"/>
		<path d="M925.7,2274.4c-2,2.1-4,4.4-6.2,6.6c-11.5,11.3-25.3,17.8-41.1,20.6c-13.6,2.5-27,1.7-40.2-1.7
			c-18.7-4.8-34-15.2-45.7-30.7c-11.6-15.3-18.1-32.6-21.1-51.4c-2.9-18.1-2.7-36.3,0.1-54.4c2.7-17.2,8.4-33.3,18.9-47.3
			c22-29.5,51.7-40.4,87.6-35.1c15.8,2.4,29.7,9.1,41.3,20.3c1.1,1.1,2.4,1.9,3.6,2.8c0.4,0.3,1.1,0.4,1.4,0.2
			c0.7-0.6,1.8-1.3,1.9-2c0.3-3.1,0.4-6.2,0.4-9.3c0-19.8,0-39.5,0-59.3c0-5.2,0-10.4,0.6-15.6c1.9-16.3,13.2-27.7,29.5-29.3
			c6.2-0.6,12.5-0.7,18.6,0.3c15.4,2.5,25,13.2,27,26.4c1,6.6,1.4,13.4,1.5,20.2c0.1,32.7,0.1,65.5,0.1,98.2
			c0,39.5,0.1,79-0.1,118.5c0,7.3-0.4,14.6-1.4,21.7c-2.1,15.6-14.1,25.6-28.1,26.9c-4.6,0.5-9.3,0.6-14,0.3
			c-14.2-0.9-24.7-7.2-30.1-20.8C929.5,2278.4,928.8,2275.8,925.7,2274.4z M927.4,2192.4c0-13.1-0.7-19-3.3-27.5
			c-4.9-15.9-15.3-25.8-32-27.7c-15-1.7-27.8,3.2-36,16.5c-2.7,4.3-4.9,9.3-6,14.2c-1.6,7-2.5,14.3-2.8,21.5
			c-0.4,11.5,0.9,22.8,5.3,33.6c10.4,24.8,36.7,26.6,52.1,19.2c10-4.8,15.8-13.3,19.1-23.4C926.7,2209.7,927.8,2200.4,927.4,2192.4z
			"/>
		<path d="M1438.9,2146.4c0-34.9,0-69.7,0-104.6c0-5.2-0.1-10.4,0.4-15.6c1.6-17.4,11.4-28.6,28.6-32.5c3-0.7,6.1-1.1,9.2-1.3
			c3.1-0.2,6.2-0.1,9.4-0.1c43.7,0,87.4,0,131.1,0c3.6,0,7.3-0.2,10.9,0.2c4.1,0.6,8.2,1.4,12.1,2.8c7.3,2.7,11.9,8.3,14,15.7
			c2.3,8.2,2.2,16.5-0.2,24.7c-2.2,7.3-6.8,12.8-14.1,15.7c-3.9,1.6-7.9,2.7-12.1,2.8c-4.2,0.1-8.3,0.1-12.5,0.1
			c-26.5,0-53,0-79.6,0c-4.2,0-8.3,0.1-12.5,0.2c-2.5,0.1-4.5,2.3-4.8,5.2c-0.1,1.6-0.3,3.1-0.3,4.7c0,14,0,28.1,0,42.1
			c0,1.5,0.3,3.1,0.5,4.6c0.2,1.8,2.3,4.1,4,4.2c4.1,0.2,8.3,0.5,12.4,0.5c23.9,0.1,47.8,0,71.8,0.1c5.2,0,10.4,0.2,15.6,0.6
			c10.4,0.8,21.8,8.5,23.3,23.3c0.5,5.2,0.5,10.4-0.5,15.5c-2,10.9-9.7,18.8-20.7,20.6c-4.6,0.7-9.3,0.8-14,0.8
			c-23.9,0.1-47.8,0-71.8,0c-4.2,0-8.3,0-12.5,0.1c-6.3,0.2-7.9,1.9-8.1,8.7c-0.1,4.2-0.1,8.3-0.1,12.5c0,19.3,0,38.5,0,57.8
			c0,5.2-0.3,10.4-0.8,15.6c-1.6,16.8-12.8,29.4-31.7,30.5c-5.2,0.3-10.4,0.3-15.5-0.3c-16.8-2-28.5-13.5-30.8-30.3
			c-0.8-5.6-0.7-11.4-0.7-17.1C1438.8,2218.2,1438.9,2182.3,1438.9,2146.4z"/>
		<path d="M1188.2,2275.5c-1.1,0.7-2.5,1.4-3.4,2.3c-2.6,2.5-4.9,5.4-7.6,7.8c-11.9,11.1-26.5,16.2-42.4,17.6
			c-13.6,1.2-27-0.6-40-4.9c-16.7-5.4-28.8-16.2-36.7-31.7c-4.5-8.9-7.5-18.3-8.7-28.2c-1.2-9.3-2.1-18.6-2.2-28
			c-0.3-28.6-0.1-57.2-0.1-85.8c0-6.3,0.3-12.5,1.9-18.6c3.2-12.9,11.4-20.7,24.2-23.6c7.7-1.7,15.4-1.8,23.2-0.4
			c15.2,2.7,25.3,12.7,27.3,27.9c0.7,5.1,0.7,10.4,0.7,15.6c0.1,26,0,52,0,78c0,3.6-0.1,7.3,0.1,10.9c0.2,3.1,0.5,6.2,1.1,9.3
			c2.7,13.2,11,21.6,28.5,20.3c12.9-0.9,22.4-7.8,28.2-19.4c2.3-4.6,4-9.6,4.2-14.9c0.1-4.7,0.3-9.4,0.3-14c0-23.9,0-47.8,0-71.8
			c0-6.8,0.4-13.5,2.5-20c3.6-11.4,11.4-18.4,22.8-21.3c9.2-2.3,18.6-2.3,27.8,0.2c10.7,2.9,18.4,9.5,21.8,20.3
			c1.2,3.9,1.8,8.1,2.5,12.2c0.3,2,0.2,4.2,0.2,6.2c0,46.8,0,93.6,0,140.4c0,6.8-0.6,13.5-3,19.9c-4,10.7-11.6,17-22.6,19.3
			c-7.7,1.6-15.5,1.6-23.3,0c-9.7-1.9-17.2-7.1-22-15.8C1191.8,2282.2,1191.2,2278.4,1188.2,2275.5z"/>
		<path d="M-369.6,2274.2c-2.3,3-4.5,5.8-6.8,8.6c-7.5,9.2-17.2,14.9-28.5,18c-10.1,2.7-20.4,3.5-30.9,2.2
			c-10.9-1.4-21.5-3.5-31.5-8.2c-11.5-5.4-21.4-12.8-28.9-23.1c-7.5-10.4-11.8-21.9-12.1-34.8c-0.2-7.8,0-15.5,2.3-23.1
			c3.5-11.5,10.3-20.2,20.5-26.5c8.5-5.2,17.9-8.4,27.6-10.4c9.1-1.9,18.3-3.5,27.7-4.1c16.6-1.2,33.2-2.4,49.8-2.2
			c2.6,0,5.2-0.2,7.7-0.7c1.5-0.3,2.6-1.6,2.8-3.3c0.9-5.8,0.1-11.5-2.2-16.8c-2.4-5.5-6.8-9-12.6-10.9c-9.6-3.1-19.4-3.6-29.3-2.4
			c-11.4,1.3-22.6,3.2-33.5,7.1c-2.9,1.1-5.8,2.2-8.8,3c-3.5,1-7,2-10.6,2.4c-12.9,1.5-21.8-6.4-25.5-16.2
			c-5.3-13.9,1.2-28.1,10.8-34.5c3.9-2.6,8.1-4.7,12.5-6.3c13.7-5,27.7-8.4,42.3-10.3c18.7-2.4,37.3-2.6,55.9,0.6
			c7.1,1.2,14.3,2.9,21.1,5.1c27.6,9.1,44,28.4,50.4,56.4c2.1,9.1,3.4,18.4,3.4,27.8c-0.1,30.1,0,60.3,0,90.4
			c0,6.3-0.7,12.4-2.7,18.4c-4,12-12.2,19-24.7,20.9c-6.2,1-12.4,0.9-18.6-0.3c-9.8-1.8-17.1-7.1-21.8-16
			C-365.8,2281.8-366.2,2277.5-369.6,2274.2z M-369.5,2215.8c0-0.2,0-0.7,0-1.2c0.1-4.5-1.9-7-6.2-7c-8.3,0-16.6-0.2-24.8,0.3
			c-5.6,0.4-11.3,1.5-16.8,2.9c-3.4,0.9-6.8,2.5-9.8,4.4c-5.2,3.2-7.7,8.4-7.9,14.4c-0.3,8.9,5.4,17.8,13.7,20.7
			c16.9,6.1,37.1,1.1,47.2-16.3C-371,2228.5-370,2222.4-369.5,2215.8z"/>
		<path d="M2885.8,2214.7c0,14,0.1,28.1-0.1,42.1c-0.1,6.2-0.5,12.5-1.3,18.6c-1.7,12.7-11.2,25.2-28.3,26.4
			c-3.6,0.2-7.3,0.3-10.9,0.1c-13.7-0.8-23.5-7.3-28.7-20.2c-0.8-1.9-1.2-4-2.2-5.8c-0.2-0.5-1.8-0.7-2.5-0.4
			c-0.9,0.3-1.7,1.2-2.2,2c-10.8,16.6-26.9,24.1-45.9,25.6c-19,1.5-37.2-1.9-54.2-11.1c-6.4-3.5-12.3-7.8-17.4-13
			c-13.5-13.8-19.2-30.5-18.5-49.6c0.1-3.6,0.7-7.2,1.3-10.8c2.3-12.9,8.9-23.1,20-30.3c9.8-6.3,20.6-9.7,31.9-12
			c19.4-3.9,39.1-4.8,58.9-5.5c6.2-0.2,12.5-0.1,18.7-0.2c7.4-0.2,8.8-1.8,8.2-9.6c-0.2-2.1-0.3-4.2-0.8-6.2
			c-2.2-8.1-7-13.7-15.3-16.1c-10.2-3-20.5-3.3-30.9-1.9c-11.9,1.6-23.5,4-34.8,8.1c-3.9,1.4-7.9,2.7-11.9,3.6
			c-23.2,5.2-35.6-17.8-29.8-34.8c2.7-7.7,7.5-13.7,14.6-17.5c3.6-2,7.5-3.5,11.5-4.8c32.5-11.5,65.8-14.3,99.8-8.4
			c9.7,1.7,19.2,4.6,28.1,9c16.6,8.2,28.3,20.8,35.1,38c3.3,8.2,5.8,16.7,6.3,25.6c0.6,9.8,1.1,19.7,1.4,29.6
			C2886,2195,2885.8,2204.9,2885.8,2214.7C2885.8,2214.7,2885.8,2214.7,2885.8,2214.7z M2795.5,2207.7c-9.9-0.5-19.7,0-29.3,2.8
			c-3.9,1.1-7.8,2.8-11.3,4.8c-4.2,2.4-6.8,6.4-7.6,11.3c-1.7,10.7,4.7,21.1,14.9,24.3c2.5,0.8,5,1.3,7.6,1.6
			c28.9,3.3,46-21.1,42.4-41.1c-0.3-1.8-2.1-3.6-4.3-3.6C2803.8,2207.7,2799.6,2207.7,2795.5,2207.7z"/>
		<path d="M1815,2207.4c-17.7,0-35.3,0-53,0c-3.1,0-6.2,0.3-9.3,0.5c-1.2,0.1-2.6,2.2-2.4,3.5c1.7,11.5,7.4,20.4,17.2,26.6
			c6.2,3.9,13.1,6.2,20.4,7.2c17.8,2.4,35.2,0.4,52.3-4.9c3.5-1.1,6.8-2.5,10.3-3.5c3-0.8,6.1-1.5,9.1-1.7
			c15.7-1.2,24.7,11.6,26,21.7c2,14.7-4.5,26.8-18,32.8c-10.5,4.7-21.4,8.2-32.6,10.4c-26.9,5.4-53.7,4.6-80.3-2.4
			c-12.1-3.2-23.5-8.2-34-15.1c-25.8-17.1-40.4-41.2-44.6-71.7c-2.4-17.7-2.2-35.3,2.9-52.5c12.1-41.2,39.9-65.8,81.2-75.4
			c16.9-3.9,34-3.9,51-0.5c36.1,7.1,60.9,27.6,73.6,62.2c5.4,14.8,7.4,30.2,7.1,45.9c-0.2,8.3-3.2,15.8-16.4,16.8
			c-3.6,0.3-7.3,0.2-10.9,0.2C1848.2,2207.4,1831.6,2207.4,1815,2207.4z M1788.4,2170.6C1788.4,2170.6,1788.4,2170.6,1788.4,2170.6
			c9.9,0,19.7,0.1,29.6,0c2.6,0,5.1-0.4,7.7-0.7c1.2-0.1,2.7-2.2,2.5-3.4c-0.5-3.1-0.8-6.2-1.6-9.2c-3.7-15.2-13.4-24.1-28.8-26.7
			c-24.3-4.2-45.7,12.1-48.2,36.8c-0.1,0.7,0.9,2,1.6,2.2c1.9,0.6,4,1,6.1,1C1767.6,2170.6,1778,2170.6,1788.4,2170.6z"/>
		<path d="M2157.1,2184.6c0-12.5,0-25,0-37.4c0-2.9-2-4.9-4.8-5.1c-3.6-0.2-7.3-0.1-10.9-0.3c-3.1-0.2-6.2-0.5-9.2-1.4
			c-9.3-2.6-15.2-8.8-17.6-18.1c-1.6-6.1-1.6-12.4,0.1-18.5c2.8-10.3,10.3-17,21-18.2c5.7-0.6,11.4-0.6,17.1-0.9
			c1.9-0.1,3.9-2.1,4.1-4c0.2-1.5,0.4-3.1,0.4-4.6c0.1-6.2,0.1-12.5,0.1-18.7c0-5.3,0.8-10.3,2.5-15.3c4.1-12.6,13-19.7,25.8-22
			c7.2-1.3,14.5-1.3,21.7,0.1c12.2,2.4,20.6,9.3,24.8,21.2c1.9,5.5,2.7,11.1,2.7,16.9c0,7.3,0.1,14.6,0.3,21.8
			c0.1,2.7,2.3,4.7,5.1,4.8c7.8,0.2,15.6,0.2,23.4,0.3c4.7,0.1,9.4,0,14,0.5c10.8,1.2,18,7.7,20.9,18.2c1.9,6.7,1.6,13.3-0.4,20
			c-2.5,8.1-7.7,13.3-15.6,16.1c-4.5,1.7-9.1,1.8-13.8,1.9c-9.9,0.2-19.7,0.3-29.6,0.5c-1.9,0-3.8,2.1-4,4.1c-0.1,1-0.3,2.1-0.3,3.1
			c-0.1,1.6-0.1,3.1-0.1,4.7c0,17.7,0,35.4,0,53.1c0,3.6,0,7.3,0.5,10.9c1.5,11.6,8,18.7,19.3,21.7c7.2,1.9,14.3,1.8,21.6,0.4
			c4.6-0.8,9.3-1.3,13.9-1.4c6-0.1,11.3,4.1,12.4,10c2.2,11.9,2.5,23.8-2.1,35.3c-2.6,6.7-7.4,11.2-14.1,13.7
			c-2.4,0.9-4.9,1.9-7.4,2.3c-14.4,2.6-28.8,4.6-43.4,2.3c-7.7-1.2-15.4-2-23-4.1c-28.8-8.3-45.9-27.3-52.3-56.3
			c-2.1-9.6-3.4-19.5-3.1-29.4c0.2-9.4,0-18.7,0-28.1C2157.3,2184.6,2157.2,2184.6,2157.1,2184.6z"/>
		<path d="M487.1,2185.8c0-11.4,0-22.9,0-34.3c0-2.1-0.1-4.2-0.6-6.2c-0.4-1.4-1.4-2.8-3.3-2.9c-4.1-0.2-8.3-0.5-12.4-0.6
			c-4.2-0.1-8.2-0.9-12.1-2.5c-8.5-3.5-13.3-9.9-14.6-18.7c-0.7-4.6-0.6-9.4-0.1-14c1.1-10.9,9.2-19.2,20.1-20.8
			c4.6-0.7,9.3-0.5,14-0.8c1.6-0.1,3.1-0.2,4.6-0.4c1.9-0.2,4-2.1,4.1-4c0.2-4.7,0.3-9.3,0.5-14c0.1-5.2-0.1-10.4,0.3-15.6
			c2-21.9,17.3-30.7,30.9-31.4c5.7-0.3,11.5-0.4,17.1,0.3c14,1.7,23.8,10.8,27.1,24.4c1.4,5.6,2,11.2,2,17c0,6.2,0.1,12.5,0.3,18.7
			c0.1,2.5,2.5,4.7,5.2,4.7c6.8,0.2,13.5,0.2,20.3,0.3c4.7,0.1,9.4-0.1,14,0.3c15.2,1.1,23.7,9.6,24.6,24.9c0.3,4.1-0.2,8.3-1,12.4
			c-1.4,7.7-6.1,13-13.2,16.3c-4.3,2-8.9,2.9-13.6,2.9c-8.8,0-17.7,0-26.5,0.1c-2.1,0-4.2-0.1-6.2,0.5c-1.3,0.4-2.8,1.7-3.1,2.9
			c-0.7,2.5-0.8,5.1-0.8,7.7c-0.1,18.2-0.1,36.4,0,54.6c0,4.1,0.2,8.4,0.9,12.4c1.7,9.4,6.9,16,16.3,19c7.6,2.4,15.3,3,23.1,1.3
			c5.1-1.1,10.2-2,15.4-1.6c5.5,0.4,9.9,3.6,11.4,9.1c3.7,13,2.9,25.7-2.4,38.1c-2.1,5-5.9,8.6-10.8,10.8c-3.8,1.7-7.8,3-11.8,3.8
			c-6.1,1.2-12.3,2.3-18.5,2.6c-17.8,1-35.3-0.9-52.2-7c-21.4-7.6-35.9-22.3-43.1-44c-3.5-10.4-5.5-21.1-5.6-32.1
			c-0.1-11.4,0-22.9,0-34.3C487.2,2185.8,487.1,2185.8,487.1,2185.8z"/>
		<path d="M2007.8,2303.6c-16.6-0.9-33.2-1.8-49.5-5.7c-8.1-1.9-16-4.6-23.5-8.2c-2.3-1.1-4.7-2.3-6.8-3.8
			c-13.6-9.4-15.6-28.8-4.4-41c5.3-5.8,12-8.3,19.6-7.3c4.1,0.5,8.1,1.9,12,3.1c11.4,3.6,22.9,6.7,34.7,8.7c9.3,1.6,18.6,1.7,28,1.4
			c4.8-0.1,9.2-1.3,13.6-3.2c3.4-1.5,6.1-3.9,7.8-7.3c3-5.7,1.1-13.2-4.4-16.4c-3.6-2.1-7.5-3.5-11.7-4.1c-13.3-2.1-26.7-4.3-40-6.4
			c-8.7-1.4-17.4-3.1-25.7-6.2c-7.4-2.8-14.2-6.5-20.1-11.6c-10.8-9.3-16.8-21-17.9-35.2c-0.6-8.3-0.6-16.6,1.6-24.8
			c3.8-14.1,11.9-25.2,23.3-34.1c12.1-9.5,26-15.2,40.9-18.3c26.9-5.6,53.7-4.6,80.3,2.3c8.1,2.1,15.7,5.3,23.1,9.2
			c18.8,9.9,15.1,36.9,1.2,45.9c-6,3.9-12.6,4.9-19.4,3.2c-4-1-7.9-2.7-11.8-3.9c-6.4-2-12.9-3.9-19.4-5.7
			c-10.7-3-21.6-2.6-32.5-1.6c-4.7,0.4-9.1,2.1-13,4.8c-4.1,2.9-6.3,6.8-6.1,11.9c0.2,4.5,2.1,8.3,6.1,10.2
			c3.7,1.8,7.7,3.1,11.8,3.8c13.8,2.5,27.7,4.6,41.5,7c8.2,1.5,16.4,2.9,24.2,5.9c7.3,2.8,14.2,6.4,20.2,11.5
			c8.2,7,13.3,15.7,15.9,26.2c3.3,13.1,2.2,25.8-1.6,38.5c-4.1,13.4-12.5,23.8-23.9,31.9c-12.1,8.6-25.7,13.7-40.1,16.3
			C2030.7,2302.6,2019.3,2304.1,2007.8,2303.6z"/>
		<path d="M338.5,2303.6c-16.6-0.7-33.2-1.8-49.5-5.4c-8.2-1.8-16-4.5-23.6-7.9c-2.8-1.3-5.6-2.8-8.1-4.5
			c-13.8-9.3-14.1-29.6-4.8-40c5.6-6.3,12.5-9.2,20.9-8c4.1,0.6,8,2,12,3.2c11.4,3.6,22.9,6.7,34.7,8.7c9.3,1.5,18.6,1.7,28,1.3
			c5.3-0.2,10.3-1.6,14.9-4.1c3.3-1.8,5.6-4.5,6.8-8.2c1.8-5.6-0.5-12.1-5.5-14.8c-3.7-2-7.6-3.3-11.8-3.9c-13.3-2-26.7-4.3-40-6.4
			c-8.7-1.4-17.4-3.1-25.7-6.3c-7.3-2.8-14.1-6.6-20-11.8c-9.8-8.6-15.7-19.2-17.1-32.3c-0.2-2.1-0.5-4.1-0.6-6.2
			c-1.3-23,7.3-41.5,25.6-55.6c11.8-9,25.2-14.6,39.5-17.7c27.4-5.9,54.7-4.8,81.8,2.1c7.6,2,14.7,5.1,21.7,8.6
			c13.4,6.7,15.9,20.3,12.5,31.8c-0.6,2-1.5,3.9-2.5,5.7c-5.3,9.8-15.4,14.6-26.2,12.3c-4-0.9-7.9-2.5-11.9-3.7
			c-5.9-1.8-11.9-3.7-17.8-5.5c-11.1-3.4-22.6-3.3-34-2.4c-5.3,0.4-10.1,2.1-14.5,5.2c-5.4,3.8-7.5,11-4.5,16.5
			c1.2,2.2,3.1,4.4,5.2,5.5c3.1,1.7,6.7,2.9,10.2,3.5c13.3,2.4,26.6,4.6,39.9,6.8c8.7,1.4,17.4,3,25.8,5.9
			c6.9,2.4,13.4,5.6,19.2,10.1c10.8,8.3,17.1,19.2,18.9,32.8c1.2,8.9,1,17.7-0.7,26.4c-3,16.1-11.7,28.7-24.8,38.3
			c-12.4,9.1-26.4,14.5-41.4,17.1C360.3,2302.5,349.5,2304.1,338.5,2303.6z"/>
		<path d="M2546.3,2201.4c1.4-3.1,2.9-6.4,4.3-9.7c10.4-25.5,20.7-51,31.1-76.5c2.2-5.3,4.4-10.5,7.1-15.6
			c5.8-10.9,14.7-17.1,27.2-18.1c5.2-0.4,10.4-0.4,15.5,0.6c11.7,2.3,20.4,11.6,21.8,23.4c0.8,6.8,0.5,13.5-2.3,19.9
			c-1.6,3.8-3.1,7.7-4.8,11.5c-19.2,43.2-38.5,86.4-57.8,129.6c-2.3,5.2-4.7,10.4-7.6,15.3c-4.6,7.8-10.9,14-19.6,17.1
			c-20.2,7.1-43.3,4-56.5-16.6c-2.8-4.4-5.2-9-7.3-13.8c-19.6-44.7-39.2-89.5-58.8-134.2c-2.5-5.8-4.6-11.6-5.2-17.9
			c-0.3-3.6-0.3-7.3,0.2-10.8c1.8-12.2,9.6-19.3,21-22.6c8-2.3,16.4-2.5,24.7-1.1c8.7,1.5,15.4,5.9,20.3,13.1
			c4.1,6.1,6.9,12.8,9.5,19.6c6.4,16.5,12.8,32.9,19.2,49.4c4.3,11.1,8.6,22.3,13,33.4C2542.2,2199.5,2543.4,2201,2546.3,2201.4z"/>
		<path d="M59.7,2119.6c0,28.1,0,56.2,0,84.3c0,4.2-0.1,8.3,0.2,12.5c0.3,3.1,0.8,6.2,1.8,9.1c3.6,11.1,12.3,16.7,23.9,15.6
			c2.6-0.3,5.1-1,7.7-1.3c7.4-0.9,13.3,3.2,15.3,10.3c0.4,1.5,0.9,3,0.9,4.6c0.2,6.8,0.7,13.5,0.3,20.3c-0.9,14.2-8.8,23-22.9,25.6
			c-6.6,1.2-13.4,2.1-20.1,2.4c-13.1,0.5-26-1-38.4-5.2c-16.6-5.6-28.7-16.5-36.2-32.3c-3.2-6.6-5.5-13.5-6.8-20.7
			c-1.9-10.2-3.3-20.5-3.2-31c0.2-18.7,0-37.5,0-56.2c0-41.6,0-83.2,0-124.9c0-6.8,0.2-13.5,2.1-20.1c4.1-14.1,13.7-21.9,27.8-23.7
			c6.1-0.8,12.6-0.8,18.6,0.2c13.4,2.2,22.7,9.6,26.8,23c1.7,5.6,2.2,11.2,2.2,16.9c0,12.5,0,25,0,37.5
			C59.7,2084.3,59.7,2101.9,59.7,2119.6z"/>
		<path d="M2929.5,2126.2c0-30.2-0.1-60.3,0-90.5c0-6.2,0.3-12.5,1.1-18.7c2.5-19.3,17.8-27.6,30.5-28.3c5.2-0.3,10.4-0.4,15.6,0.2
			c16.2,1.9,27.6,13.3,29.4,29.6c0.6,5.2,0.6,10.4,0.6,15.6c0,51,0,101.9,0,152.9c0,7.8,0.1,15.6,0,23.4c0,5.3,0.9,10.4,2.4,15.4
			c3,10.1,12,16.2,22.5,15.4c3.6-0.3,7.2-1.2,10.8-1.5c5.6-0.5,11.6,3.8,13,9.2c2.8,11.3,3.3,22.7,0.2,34
			c-1.7,6.3-5.6,11.1-11.5,14.1c-2.8,1.4-5.7,2.7-8.7,3.3c-19.7,3.8-39.2,4-58.6-2.1c-17.9-5.7-30.6-17.2-38.2-34.3
			c-4.1-9.1-6.8-18.6-7.6-28.5c-0.7-9.3-1.4-18.7-1.4-28C2929.4,2180.3,2929.5,2153.2,2929.5,2126.2z"/>
		<path d="M-650,2125.9c0-30.2-0.1-60.3,0-90.5c0-6.2,0.2-12.5,1-18.7c2.2-15.7,13.3-26.3,29.1-27.9c5.6-0.6,11.5-0.5,17.1,0.1
			c16.2,1.9,27.4,13.4,29.2,29.7c0.6,5.7,0.6,11.4,0.6,17.1c0,55.7,0,111.3,0,167c0,7.8,0.1,15.6,2.5,23.2
			c2.6,8.1,8.2,13.1,16.5,14.8c2.5,0.5,5.2,0.4,7.7,0.2c3.1-0.3,6.1-1.1,9.2-1.3c5.7-0.4,11.4,3.9,12.8,9.4
			c2.7,10.8,3.2,21.6,0.5,32.4c-1.9,7.5-6.3,13-13.4,16.2c-1.9,0.9-3.8,1.8-5.8,2.2c-20.2,4.1-40.2,4.5-60.1-1.9
			c-17.9-5.7-30.5-17.3-38.1-34.4c-4-9.1-6.8-18.6-7.5-28.5c-0.7-9.3-1.3-18.7-1.3-28C-650.2,2180-650,2153-650,2125.9z"/>
		<path d="M1037.8,1436c1.3,0.6,3.1,0.9,4.1,1.9c2.2,2.2,4.3,4.5,6,7.1c5.3,7.7,10.5,15.5,15.4,23.4c11.2,18.1,21.7,36.6,30.7,56
			c2.2,4.7,3.9,9.6,5.5,14.5c0.9,2.6,0.1,5.2-1.6,7.3c-1.7,2-3.5,3.9-5.5,5.5c-6.1,4.8-12.3,9.6-18.7,14
			c-18.4,12.7-37.5,24.2-57.6,34.1c-6,3-12.3,5.5-18.6,7.8c-4.2,1.5-8.3,0.7-11.3-2.8c-3.4-3.9-6.9-7.8-10-12
			c-17.8-24.4-32.4-50.7-45.3-78.1c-1.1-2.3-2-4.8-2.8-7.3c-0.9-2.7-0.1-5.2,1.8-7.1c1.8-1.8,3.7-3.6,5.8-5.2
			c4.1-3.2,8.3-6.3,12.6-9.2c21.4-14.7,43.6-28.3,66.6-40.4c6-3.2,12.2-5.9,18.3-8.6C1034.5,1436.3,1036.1,1436.3,1037.8,1436z"/>
		<path d="M1250.6,925.7c1.3,0.4,2.4,0.6,3.3,1.1c1.3,0.8,2.7,1.7,3.7,2.8c3,3.5,6.2,7.1,8.8,10.9c16.2,23,29.9,47.4,41.1,73.2
			c2.1,4.7,3.4,9.8,4.6,14.8c0.7,3.2-0.4,6.2-3.1,8.3c-2.4,2-4.8,4-7.3,5.8c-27.9,19-57.1,36-87.4,50.8c-3.7,1.8-7.6,3.2-11.5,4.7
			c-2.1,0.8-4.3,0-5.7-1.5c-2.8-3-5.7-6.1-7.9-9.6c-5.6-8.7-11.1-17.5-16.3-26.5c-8-14-15-28.4-21.2-43.4c-1.6-3.8-3.2-7.7-4.6-11.6
			c-4-11.5-3.4-13.9,5.4-21.8c2.3-2.1,4.7-4.1,7.2-6c22.7-17.4,46.7-32.8,72.4-45.5c4.6-2.3,9.6-3.9,14.4-5.7
			C1247.8,925.9,1249.4,925.9,1250.6,925.7z"/>
		<path d="M2325.8,2191.3c0-21.8,0-43.7,0-65.5c0-6.8,0.4-13.4,2.5-20c4.4-13.7,13.4-21.8,27.7-24c6.2-1,12.4-0.8,18.6,0.4
			c12.9,2.4,21.5,10,25.7,22.3c1.6,4.9,2.1,10.1,3,15.2c0.3,1.5,0.1,3.1,0.1,4.7c0,44.7,0,89.4,0,134.1c0,6.3-0.6,12.4-2.4,18.5
			c-4.3,14.5-13.7,22.8-28.8,24.7c-5.7,0.7-11.4,0.8-17.1-0.2c-12.9-2.1-21.6-9.5-26.2-21.7c-2.4-6.4-3.2-13.1-3.2-19.9
			c0.1-14.6,0-29.1,0-43.7C2325.8,2207.9,2325.8,2199.6,2325.8,2191.3C2325.8,2191.3,2325.8,2191.3,2325.8,2191.3z"/>
		<path d="M210.3,2192.9c0,20.8,0,41.6,0,62.3c0,5.2-0.1,10.4-0.7,15.6c-1.9,16.3-12.9,29.6-31.5,31.1c-5.7,0.5-11.4,0.5-17.1-0.7
			c-3-0.6-6-1.6-8.8-3c-10.1-5-15.7-13.5-17.5-24.3c-1.2-7.1-1.4-14.5-1.4-21.7c-0.1-36.4-0.1-72.7-0.1-109.1
			c0-5.7-0.1-11.4,0.1-17.1c0.2-5.2,0.4-10.4,1.2-15.5c2.2-14.3,12.5-27.1,30.2-28.8c5.2-0.5,10.3-0.5,15.5,0.3
			c15.4,2.4,26.4,12.9,28.9,28.5c0.9,5.6,1,11.4,1,17.1C210.4,2149.3,210.3,2171.1,210.3,2192.9z"/>
		<path d="M169.7,1976.1c8.9,0,16,0.5,23,3.1c11.6,4.5,18.7,12.5,20.9,24.9c1.1,6.2,1,12.3-0.1,18.5c-2.5,13.1-10.4,21.2-22.8,25
			c-12.2,3.7-24.6,3.8-36.8,0.3c-12.4-3.6-20.6-11.5-23.7-24.3c-1.8-7.7-1.7-15.3,0.5-23c2.8-9.6,8.9-16.2,17.9-20.3
			C155.7,1976.9,163.4,1975.8,169.7,1976.1z"/>
		<path d="M2362.2,1976.1c9.1-0.1,16.3,0.5,23.2,3.2c12.9,5,19.9,14.5,21.2,28c0.4,4.1,0.3,8.3-0.1,12.4
			c-1.4,13.7-10.2,24.2-23.5,27.9c-12.2,3.5-24.5,3.7-36.8,0.2c-14.1-4-23-14.6-24.1-29.1c-0.3-4.1-0.3-8.3,0.1-12.4
			c1.2-12.5,7.9-21.1,19.1-26.3C2348.5,1976.8,2356.2,1975.7,2362.2,1976.1z"/>
		<path class="st0" d="M397.6-77.4c2.8-2.2,4.7-4,6.9-5.3c8.4-5.1,16.9-10.2,25.4-15.1c49.6-28.3,99.8-55.6,150.5-81.8
			c7.4-3.8,14.9-7.4,22.4-10.9c4.7-2.2,7.5-1.5,10.9,2.7c3.9,4.8,7.8,9.8,11.3,14.9c14.3,20.4,27.6,41.5,40.2,63.1
			C688.3-70.3,711.1-30.7,734,8.8c1,1.8,2,3.6,2.9,5.5c0.9,1.8,0.4,4.5-1.2,5.6c-2.1,1.5-4.3,3-6.5,4.2
			c-64.8,37.3-129.6,74.6-194.5,111.8c-4.4,2.5-8.7,5.8-14.6,6.5c-1.5-1.8-3.3-3.6-4.7-5.7c-4.4-7-8.8-14.1-13-21.3
			C470.8,61.1,440.3,6.1,410.9-49.4C406.2-58.1,401.4-66.7,397.6-77.4z"/>
		<path class="st0" d="M-292.2,333c1.7,0.8,3.3,1.1,4.4,2.1c1.5,1.4,2.8,3.1,4,4.8c3.8,5.6,7.7,11.1,11.3,16.8
			c32,50.5,62.3,102,91.1,154.4c4,7.3,7.4,14.9,11,22.4c1.2,2.6,0.5,5.5-1.5,7.1c-4.1,3.2-8.2,6.5-12.5,9.2
			c-14.9,9.5-29.7,19.2-45,28c-40.5,23.4-81.2,46.3-121.9,69.4c-4.5,2.6-9.1,5-13.9,7.1c-6.8,3-13.4,2-18.9-3
			c-3.8-3.5-7.5-7.2-10.6-11.3c-5.6-7.5-11.1-15.1-16-23c-28.4-45.4-55.8-91.4-81.2-138.5c-4.2-7.8-7.8-15.8-11.6-23.8
			c-1.3-2.7-0.3-5.2,1.7-7.1c3-2.8,6.2-5.6,9.6-7.9c7.7-5.3,15.4-10.6,23.4-15.5c44.2-27.3,89.7-52.4,136.5-75.1
			c10.3-5,20.8-9.4,31.3-13.8C-298.3,334-295.1,333.7-292.2,333z"/>
		<path class="st0" d="M-858,2092.1c0-10.9,0-21.8,0-32.7c0-3,2-4.9,4.6-5.2c1-0.1,2.1-0.3,3.1-0.3c16.6,0,33.3,0,49.9,0.1
			c6.8,0,13.4,1.2,19.8,3.7c10.9,4.3,18.1,11.8,21,23.3c1.7,6.7,1.9,13.4,0.7,20.1c-2.4,14.2-11,23.4-24.5,27.5
			c-5.9,1.8-12.2,2.9-18.4,3.1c-16.6,0.4-33.3,0.1-49.9,0.1c-5.3,0-6.4-3-6.4-6.9C-858.2,2113.9-858.1,2103-858,2092.1
			C-858,2092.1-858,2092.1-858,2092.1z"/>
		<path class="st0" d="M927.4,2192.4c0.4,8-0.7,17.3-3.7,26.2c-3.3,10.2-9.1,18.6-19.1,23.4c-15.4,7.4-41.7,5.6-52.1-19.2
			c-4.5-10.7-5.8-22.1-5.3-33.6c0.3-7.2,1.2-14.5,2.8-21.5c1.1-5,3.3-9.9,6-14.2c8.3-13.3,21.1-18.2,36-16.5
			c16.7,1.9,27.1,11.8,32,27.7C926.7,2173.4,927.4,2179.2,927.4,2192.4z"/>
		<path class="st0" d="M-369.5,2215.8c-0.4,6.6-1.4,12.6-4.6,18.2c-10.1,17.4-30.3,22.4-47.2,16.3c-8.2-3-14-11.8-13.7-20.7
			c0.2-6,2.7-11.1,7.9-14.4c3-1.9,6.4-3.5,9.8-4.4c5.5-1.4,11.1-2.5,16.8-2.9c8.2-0.5,16.5-0.4,24.8-0.3c4.3,0,6.3,2.5,6.2,7
			C-369.6,2215.2-369.5,2215.7-369.5,2215.8z"/>
		<path class="st0" d="M2795.5,2207.7c4.1,0,8.3-0.1,12.4,0c2.2,0,4,1.8,4.3,3.6c3.6,20-13.5,44.4-42.4,41.1
			c-2.6-0.3-5.1-0.8-7.6-1.6c-10.3-3.1-16.6-13.6-14.9-24.3c0.8-4.9,3.4-8.8,7.6-11.3c3.5-2,7.4-3.7,11.3-4.8
			C2775.8,2207.7,2785.6,2207.3,2795.5,2207.7z"/>
		<path class="st0" d="M1788.4,2170.6c-10.4,0-20.7,0-31.1,0c-2,0-4.1-0.4-6.1-1c-0.7-0.2-1.7-1.5-1.6-2.2
			c2.5-24.7,23.9-41,48.2-36.8c15.4,2.7,25.1,11.5,28.8,26.7c0.7,3,1.1,6.1,1.6,9.2c0.2,1.3-1.3,3.3-2.5,3.4
			c-2.6,0.3-5.1,0.6-7.7,0.7C1808.1,2170.6,1798.2,2170.6,1788.4,2170.6C1788.4,2170.6,1788.4,2170.6,1788.4,2170.6z"/>
	</g>
</g>
</svg>
