<?xml version="1.0" encoding="utf-8"?>
<!-- Generator: Adobe Illustrator 24.0.1, SVG Export Plug-In . SVG Version: 6.00 Build 0)  -->
<svg version="1.1" id="Calque_1" xmlns="http://www.w3.org/2000/svg" xmlns:xlink="http://www.w3.org/1999/xlink" x="0px" y="0px"
	 viewBox="0 0 8192 6331.9" style="enable-background:new 0 0 8192 6331.9;" xml:space="preserve">
<style type="text/css">
	.st0{fill:#FFFFFF;}
	.st1{enable-background:new    ;}
</style>
<g>
	<path d="M5006.2,1604.1c0,1,0,1.9,0,2.9c-0.8,2.7-2.1,5.3-2.3,8.1c-0.7,9.9-6,17.4-13,23.6c-6.9,6-14.3,11.7-22,16.6
		c-9.4,6-19.3,11.2-29.1,16.5c-17.1,9.2-34.4,17.9-51.4,27.3c-12.3,6.8-24.4,14.1-36.2,21.6c-5.7,3.6-11.1,7.9-15.9,12.6
		c-14.2,13.6-15.3,25.2-4.4,41.3c1.6,2.4,3.5,4.6,5.3,7c6.6,9,13.5,17.8,19.8,27c30,44.2,56.4,90.6,83.9,136.3
		c1.1,1.9,1.5,4.3,2.4,6.8c-3.8,2.4-7,4.5-10.4,6.4c-47.3,26.7-94.6,53.4-142,80c-10.1,5.7-20.5,11.1-31.1,15.9
		c-7,3.2-14.4,5.6-21.8,7.9c-15,4.7-28,0.4-38.4-10.7c-6.6-7-12.5-14.9-17.6-23.1c-7.7-12.3-14.8-25.1-21.6-37.9
		c-11.4-21.4-22.4-43-33.7-64.5c-3.8-7.3-7.8-14.5-12.3-21.5c-8.3-13-20.5-17.3-35.3-13.9c-7.1,1.6-14.1,3.8-20.7,6.8
		c-12.4,5.5-24.8,11.1-36.7,17.6c-80.6,43.8-159.9,89.7-238.5,136.9c-24.9,15-49,31.4-73.4,47.3c-5.2,3.4-10.6,6.8-13.9,12.6
		c0.4,6.2,3.8,11.1,6.5,16.1c34.8,63.4,69.3,126.9,104.7,189.9c50.6,90.1,102.9,179.2,150.9,270.8c21.2,40.4,42.3,80.8,60.1,122.8
		c3.4,8,6.1,16.4,9.3,24.5c2.7,6.8,1.2,12.3-4.6,16.7c-9.3,7-18.2,14.6-28.1,20.6c-20.7,12.6-41.9,24.5-63.1,36.2
		c-17.9,9.9-35.4,20.2-51.3,33.1c-6,4.9-11.5,10.4-16.9,16c-5.9,6.1-7.6,13.2-4.2,21.4c4.9,11.6,8.7,23.7,14.4,34.9
		c13.7,26.8,28.3,53,42.4,79.6c11.1,21,22.2,42,32.9,63.2c3,5.9,6.1,12.1,6,19.3c-7.5,7.9-16.8,13.2-25.8,18.9
		c-36.2,22.8-74,42.5-112.9,60.3c-17.2,7.8-34.8,14.7-52.4,21.7c-5.4,2.1-11.1,3.3-16.8,4.6c-5.2,1.2-9.5-0.4-12.8-4.8
		c-4.6-6.3-9.5-12.3-13.8-18.7c-33.1-48.5-63-99.1-92.9-149.6c-28.9-48.8-57.9-97.6-87.3-146.2c-11-18.2-23-35.9-35.1-53.5
		c-9.8-14.3-10.4-14.5-26-7.5c-19.9,8.9-39.7,18.3-59.1,28.2c-77.8,39.7-154.2,82-229.9,125.5c-118.7,68.1-237.1,136.6-355.5,205.1
		c-359.9,208.2-719.7,416.4-1079.6,624.6c-95.3,55.2-190.5,110.5-283.9,169c-17.7,11.1-35,22.7-52.3,34.3c-4.3,2.9-9.4,5.3-11.3,12
		c3.1,6.4,6.1,13.5,9.9,20.3c19.2,34.3,38.3,68.6,58,102.6c37.4,64.7,75.4,129,112.5,193.8c11.3,19.7,20.5,40.7,30.7,61.1
		c1.5,3,2.9,6.2,4.7,9c5.3,8.1,10.7,10.4,19.8,6.8c7.6-3,14.9-6.9,22-11.2c26.2-15.7,52.1-32.1,78.4-47.5
		c205.4-120.7,412.4-238.4,620.3-354.6c33-18.5,66.5-36.1,99.8-54.1c4.6-2.5,9-5.8,15.3-5.5c6.6,4.7,10.7,11.9,15.3,18.7
		c29.5,43.4,56.1,88.5,82.5,133.8c32.5,55.8,64.7,111.7,93.9,169.2c9.9,19.4,18.7,39.4,27.1,59.6c3.9,9.3,6,19.5,7.8,29.4
		c2.1,11.9-1.9,22-12.2,29.1c-4.8,3.3-9.5,6.7-14.4,9.8c-22.6,14.2-45,28.6-67.9,42.4c-210.9,126.6-424,249.4-639.3,368.4
		c-25.9,14.3-52.2,27.8-78.4,41.5c-5.5,2.9-11,6.1-17.7,6.6c-5.8-3.9-10-9.3-13.8-14.9c-9.7-14.5-19.5-29-28.7-43.8
		c-28.1-45.4-53.2-92.5-78.3-139.6c-24.2-45.4-49.4-90.2-76.6-133.9c-8.7-14-18.3-27.4-27.6-41.1c-7.8-11.4-18.5-14.5-31.8-12.1
		c-14.9,2.8-29.2,7.5-42.8,14c-25.8,12.3-51.7,24.5-76.8,38.3c-48,26.5-95.3,54.2-143.1,81.1c-27.5,15.4-55.2,30.5-83.2,45
		c-12.4,6.4-25.7,11.5-38.8,16.4c-6.3,2.3-13.1,3.5-19.8,4.1c-8.8,0.9-16.1-2.9-21.3-10.1c-2.3-3.1-4.3-6.5-6.3-9.8
		c-8.4-14.2-16.9-28.3-25.2-42.6c-139-239.6-278.1-479.2-414.5-720.2c-2.1-3.8-4.3-7.6-6.9-11.1c-6.6-9.1-15.5-13.2-26.6-10.5
		c-8,1.9-16,4.1-23.6,7.3c-12.1,5.1-24,10.5-35.5,16.8c-45.1,24.6-90.3,49.3-135,74.6c-43.1,24.3-85.8,49.3-128.4,74.4
		c-12.5,7.4-24.4,15.9-36,24.6c-6.5,4.9-12.4,10.9-17.6,17.2c-6.3,7.6-7.8,16.7-4.1,26c2.7,6.7,6,13.3,9.4,19.6
		c10.3,19.2,21,38.3,31.3,57.5c11.2,21,21.6,42.4,33.2,63.1c30.9,55,61.9,109.9,93.5,164.5c70.7,122.2,141.9,244.1,212.6,366.3
		c20.9,36.1,40.8,72.8,57.7,111c2.5,5.8,4.7,11.7,6.9,17.6c1.9,5.1,0.7,9.6-3.2,13.3c-4.6,4.3-9,8.9-14.1,12.6
		c-15.9,11.9-31.7,24-48.2,35.2c-74.1,50.7-150.6,97.7-228.8,141.9c-31.2,17.7-62.4,35.5-96,48.6c-2,0.8-3.3,3.1-5,4.7
		c-2.9,0-5.8,0-8.7,0c-30-25.7-50.8-58.4-70.6-91.8c-2.2-3.8-4.4-7.5-6.6-11.3c-60.3-104.7-120.7-209.3-180.9-314
		c-160.1-278.4-320-556.9-480-835.3c-2.4-4.1-4.5-8.4-7-13.1c3.8-2.5,6.9-4.8,10.2-6.7c35.7-20.6,71.3-41.5,107.3-61.5
		c95.8-53.3,191.8-106.3,287.7-159.5c4.5-2.5,9.7-4.2,13.4-8.9c-1.2-2.4-2.1-4.6-3.3-6.7c-31.1-56.5-61.6-113.4-93.5-169.5
		c-30.4-53.6-62.2-106.4-93.4-159.5c-9.8-16.8-19-33.8-25.6-52.2c-2.9-8.2-5.3-16.6-7.1-25.1c-2.1-9.9,0.8-18.1,9.8-23.8
		c7.4-4.7,14.3-10.1,21.7-14.7c52.5-32.3,105-64.5,157.5-96.7c34.7-21.3,69.8-42.1,104.2-64c22.9-14.6,45-30.5,67.2-46.1
		c5.9-4.2,11.2-9.3,16.7-14c3.7-3.2,4.7-7.3,3.4-11.9c-1.2-4.2-2.3-8.5-4-12.5c-4.5-10.7-9.1-21.4-14.1-31.9
		c-24-49.9-51.2-98-78.7-146c-21.7-37.9-43.4-75.8-64-114.2c-12.9-23.9-24.1-48.7-35.7-73.2c-3.1-6.5-5.1-13.6-7.4-20.5
		c-2-6.2-0.8-11.4,4.9-15.3c6-4.1,11.7-8.7,17.7-12.7c45-30.5,91.7-58.2,138.5-86c51.7-30.7,103.5-61.3,155-92.3
		c19.1-11.5,37.4-24.3,56-36.7c4.4-2.9,9.2-5.5,11.6-11.4c-0.9-9.9-5.1-19.3-9.4-28.4c-11.4-24.1-22.7-48.3-35.2-71.9
		c-52.8-100-112.1-196.3-168.4-294.3c-1.1-2-2.9-3.6-4.8-5.8c-4.4,2.1-8.4,3.8-12.2,5.8c-44.7,24.4-89.6,48.4-134,73.3
		c-51.2,28.8-101.6,58.8-152.8,87.5c-27.9,15.6-56.7,29.6-85.2,44.2c-5.6,2.9-11.7,4.8-17.4,7.3c-6.1,2.7-11.2,2.1-15.5-3.4
		c-2.7-3.4-5.8-6.5-8.4-10c-6.4-8.5-12.9-17-19-25.8c-34.3-48.9-66.5-99.1-97.5-150.1c-41.9-68.7-85.1-136.8-119.1-210
		c-1.2-2.5-2.9-3.7-5.6-3.8c0-1.9,0-3.9,0-5.8c1.7-0.8,3.8-1.4,5.2-2.6c24.1-20.6,50.8-37.3,77.8-53.6c46.1-27.8,92.7-54.7,139.1-82
		c63.5-37.4,127-74.9,190.6-112.2c4.4-2.6,8.4-6.6,14.5-6.6c2.6,4.3,5.2,8.4,7.6,12.5c26,44.9,51.9,89.9,77.9,134.8
		c31.1,53.8,61.7,107.8,95.6,159.9c15.6,24,32,47.5,48.3,70.9c5,7.1,11,13.5,16.7,20.2c4.3,5,9.5,6.4,15.7,3.7
		c7.6-3.3,15.2-6.4,22.6-10c54.3-26,107-55,159.4-84.4c51.6-28.9,103.1-58.1,156.2-84.3c17-8.4,34.2-16.2,51.5-23.9
		c6.1-2.7,12.3-5.8,20.2-4.9c6.4,6.1,11.3,14,16,21.8c22.3,36.4,44.8,72.7,66.3,109.5c36.8,63.3,72.8,127.1,109.4,190.6
		c11.8,20.6,24.1,41,36.3,61.4c5.5,9.3,6.8,11.4,20.3,7.4c3.7-1.1,7.3-2.7,10.8-4.4c10.1-4.8,20.2-9.4,30.1-14.5
		c70.6-36.6,139.5-76.5,208.4-116.2c246.8-141.9,493.5-284.2,740.3-426.3c47.5-27.4,95.1-54.5,142.1-82.8c23.2-14,45.3-30,67.5-45.5
		c7.5-5.2,14.1-11.8,21.1-17.9c5.4-4.7,6.7-10.4,3.7-17c-3.2-7.1-5.9-14.4-9.5-21.3c-20.1-38.7-39.6-77.9-60.9-115.9
		c-45.6-81.2-92.3-161.8-138.5-242.7c-3.1-5.4-6-11-8.9-16.3c1.5-1.7,2.3-3,3.4-3.8c21.5-15.8,42.2-32.9,64.6-47.2
		c39.3-25,79.4-48.7,119.5-72.3c46-27.1,92.7-52.9,138.5-80.3c21.6-12.9,42.3-27.4,62.8-42.1c16.6-11.9,16.9-14,8.6-32.5
		c-8.2-18.1-16.7-36.1-26.3-53.5c-25.7-46.2-51.7-92.2-78.4-137.9c-21.8-37.3-45-73.7-66.9-110.9c-9.8-16.7-18.4-34.1-26.9-51.5
		c-4.5-9.1-7.2-19-8.3-29.3c-1-9.9,1.6-18.2,9.8-24.4c5.4-4.1,10.6-8.5,16.3-12.2c13.3-8.9,26.6-17.8,40.2-26.3
		c75-46.6,151.9-90,230-131.2c31.7-16.7,64.2-32.1,96.4-47.9c5.6-2.8,11.7-4.7,17.6-6.8c4.1-1.4,7.7-0.3,10.3,3.2
		c4.9,6.6,10,13.1,14.4,20.1c19.9,32.2,40.1,64.2,59.3,96.8c48.8,82.7,96.1,166.3,140.2,251.7c6.2,12.1,12,24.4,17.7,36.7
		c1.7,3.8,4.4,7.7,2.3,13.5c-3.8,2.4-8.2,5.3-12.7,8c-27.9,16.6-55.9,33.2-83.8,49.8c-70.1,41.6-140.4,82.8-210.3,124.8
		c-26.6,16-52.3,33.4-78.3,50.4c-5.6,3.7-11.6,7.1-15.5,14c1.2,3.3,2.2,7,3.9,10.4c6.8,13.4,13.5,26.9,20.9,40
		c53.5,95.7,110.1,189.6,168.7,282.3c9.8,15.6,20.3,30.8,30.7,46c3.2,4.7,6,10.1,12.6,13.1c3.8-1.7,8.3-3.4,12.6-5.5
		c9.9-5.1,19.9-10.2,29.5-15.7c60.2-34.4,120.5-68.8,180.6-103.4c50.9-29.3,101.7-58.6,154.1-85.2c6.9-3.5,14-6.6,21.1-9.9
		c5-2.3,9.5-1.5,13,3c7.7,10,15.9,19.7,22.7,30.2c19.7,30.6,39.5,61.1,58,92.4c32.6,55.1,64.1,110.9,96.5,166.1
		c15.2,25.9,31.4,51.3,47.3,76.8c4.1,6.6,8.8,12.8,13.4,19c2.2,3,5.3,4.2,9,3.2c3.7-1,7.5-1.9,11.1-3.4c10.7-4.5,21.5-8.9,32-13.9
		c46.6-21.9,91.5-46.8,136.4-71.9c52.1-29.1,104.2-58.2,156.6-86.7c20.9-11.3,42.7-20.9,63.9-31.5c8.6-4.3,15.8-3.3,21.9,4.3
		c3.1,3.8,6.6,7.1,9.5,11c5.9,7.7,11.7,15.5,17.3,23.4c22.6,32.3,41.8,66.5,60.8,100.9c46.2,83.7,94.2,166.3,145.8,246.8
		c2.6,4,5.3,7.9,8.4,12.5c3.7-2,6.6-3.5,9.5-5.1c76.7-43.6,153.6-87.1,230.2-131c56-32.1,111.5-64.9,167.3-97.3
		c4.5-2.6,8.5-6.4,14.7-6.6c2.3,3.7,4.7,7.3,6.9,11.1c54.2,92.5,108.5,184.9,162.3,277.6c15.1,26,29.2,52.5,43.1,79.2
		c6.9,13.3,12.9,27.2,13.7,42.6C5004.2,1599.6,5005.4,1601.8,5006.2,1604.1z M3255.4,1531.1c-3.3,1.1-7,2.1-10.4,3.7
		c-10.5,4.9-21.1,9.9-31.4,15.2c-98.4,50.4-195.5,103.3-291.6,158c-16.4,9.4-32.6,19.1-48.8,29c-4,2.4-8.9,4.2-10.8,10
		c1.3,3.2,2.5,6.8,4.2,10.3c5.8,11.8,11.5,23.5,17.6,35.1c55.5,105.1,113.2,208.9,173,311.6c9,15.5,18.6,30.7,28.1,45.9
		c1.7,2.7,4.2,5,6.8,7.9c9-4.9,17.6-9.4,25.9-14.2c67.4-38.5,134.8-76.9,202-115.6c56.3-32.4,112.6-65,168.8-97.6
		c3.6-2.1,8.4-2.9,9.8-8.5c-2.4-4.4-4.9-9-7.6-13.6c-30.1-52.1-60.1-104.1-90.2-156.2c-30.6-52.9-61.4-105.7-95.3-156.6
		c-11.3-17-23.2-33.4-35.2-49.9C3266.6,1540.1,3262.5,1534.6,3255.4,1531.1z M1806,2893.2c-2.5-6-4.2-10.6-6.3-14.9
		c-6.1-12.1-12.1-24.3-18.6-36.2c-40.8-75-84.1-148.5-128.6-221.4c-18.9-31-38.3-61.9-58.6-92c-15.1-22.4-11.5-22.5-39.7-11.9
		c-18.1,6.8-35.7,15.1-53.2,23.5c-69.9,33.7-138,70.8-205,110.1c-26.8,15.7-53,32.2-79.2,49c-11,7-21.4,15.1-31.5,23.4
		c-7.6,6.3-8,8.7-3.9,17.7c5.8,12.8,11.9,25.5,18.6,37.8c48,89.3,99.8,176.4,153.6,262.3c9.3,14.8,19.4,29,29.8,43
		c5.5,7.3,12,14,18.6,20.3c11,10.4,23.8,12.4,37.6,6c5.7-2.6,11.4-5.4,16.9-8.5c76-42.9,152.1-85.7,227.8-129.1
		c35.8-20.5,70.9-42,104.7-65.8C1794.7,2902.7,1799.7,2898.2,1806,2893.2z"/>
	<path class="st0" d="M5006.2,1604.1c-0.7-2.3-2-4.5-2.1-6.8c-0.8-15.5-6.8-29.3-13.7-42.6c-13.9-26.7-28-53.2-43.1-79.2
		c-53.9-92.7-108.2-185.1-162.3-277.6c-2.2-3.7-4.6-7.3-6.9-11.1c-6.2,0.2-10.2,4.1-14.7,6.6c-55.8,32.4-111.3,65.2-167.3,97.3
		c-76.6,43.9-153.4,87.4-230.2,131c-2.9,1.6-5.8,3.1-9.5,5.1c-3.1-4.6-5.9-8.5-8.4-12.5c-51.6-80.5-99.6-163.1-145.8-246.8
		c-19-34.4-38.2-68.7-60.8-100.9c-5.6-7.9-11.4-15.7-17.3-23.4c-2.9-3.8-6.5-7.2-9.5-11c-6.2-7.5-13.3-8.6-21.9-4.3
		c-21.3,10.6-43.1,20.2-63.9,31.5c-52.4,28.5-104.5,57.6-156.6,86.7c-44.9,25.1-89.9,50-136.4,71.9c-10.5,4.9-21.3,9.4-32,13.9
		c-3.6,1.5-7.4,2.4-11.1,3.4c-3.7,1-6.8-0.2-9-3.2c-4.6-6.3-9.3-12.4-13.4-19c-15.9-25.5-32.1-50.9-47.3-76.8
		c-32.4-55.2-63.9-111-96.5-166.1c-18.5-31.3-38.3-61.8-58-92.4c-6.8-10.6-15-20.2-22.7-30.2c-3.4-4.5-7.9-5.3-13-3
		c-7.1,3.2-14.2,6.3-21.1,9.9c-52.4,26.5-103.2,55.9-154.1,85.2c-60.1,34.6-120.4,69-180.6,103.4c-9.7,5.5-19.6,10.6-29.5,15.7
		c-4.3,2.2-8.8,3.9-12.6,5.5c-6.6-3-9.4-8.4-12.6-13.1c-10.4-15.2-20.8-30.4-30.7-46c-58.6-92.7-115.2-186.6-168.7-282.3
		c-7.3-13.1-14-26.6-20.9-40c-1.7-3.4-2.7-7.1-3.9-10.4c3.9-6.9,9.9-10.3,15.5-14c26-17,51.7-34.5,78.3-50.4
		c69.9-42,140.1-83.2,210.3-124.8c28-16.6,55.9-33.2,83.8-49.8c4.6-2.7,9-5.6,12.7-8c2.1-5.8-0.6-9.7-2.3-13.5
		c-5.6-12.3-11.4-24.6-17.7-36.7c-44.1-85.4-91.4-168.9-140.2-251.7c-19.2-32.6-39.4-64.6-59.3-96.8c-4.3-7-9.5-13.5-14.4-20.1
		c-2.6-3.5-6.2-4.7-10.3-3.2c-5.9,2.1-12,4.1-17.6,6.8c-32.2,15.8-64.7,31.1-96.4,47.9c-78.1,41.2-155,84.6-230,131.2
		c-13.6,8.4-26.9,17.3-40.2,26.3c-5.6,3.8-10.9,8.2-16.3,12.2c-8.2,6.2-10.7,14.6-9.8,24.4c1,10.3,3.8,20.1,8.3,29.3
		c8.5,17.4,17.1,34.9,26.9,51.5c21.9,37.2,45.2,73.6,66.9,110.9c26.7,45.6,52.7,91.7,78.4,137.9c9.7,17.3,18.2,35.4,26.3,53.5
		c8.4,18.5,8,20.6-8.6,32.5c-20.5,14.7-41.2,29.2-62.8,42.1c-45.8,27.3-92.5,53.2-138.5,80.3c-40.1,23.6-80.2,47.3-119.5,72.3
		c-22.4,14.3-43.2,31.3-64.6,47.2c-1.1,0.8-1.9,2.1-3.4,3.8c2.9,5.3,5.8,10.9,8.9,16.3c46.2,80.9,92.9,161.5,138.5,242.7
		c21.4,38,40.8,77.2,60.9,115.9c3.6,6.9,6.3,14.2,9.5,21.3c3,6.6,1.7,12.3-3.7,17c-6.9,6.1-13.5,12.6-21.1,17.9
		c-22.3,15.5-44.3,31.6-67.5,45.5c-47,28.2-94.6,55.4-142.1,82.8c-246.7,142.2-493.4,284.4-740.3,426.3
		c-69,39.7-137.8,79.5-208.4,116.2c-9.9,5.1-20,9.8-30.1,14.5c-3.5,1.7-7.1,3.3-10.8,4.4c-13.5,4-14.7,1.9-20.3-7.4
		c-12.1-20.4-24.4-40.8-36.3-61.4c-36.5-63.5-72.5-127.3-109.4-190.6c-21.5-36.9-44-73.1-66.3-109.5c-4.8-7.8-9.6-15.7-16-21.8
		c-7.9-0.9-14.1,2.2-20.2,4.9c-17.3,7.7-34.5,15.5-51.5,23.9c-53.1,26.2-104.6,55.3-156.2,84.3c-52.5,29.4-105.2,58.4-159.4,84.4
		c-7.4,3.6-15.1,6.7-22.6,10c-6.1,2.7-11.4,1.3-15.7-3.7c-5.7-6.7-11.7-13-16.7-20.2c-16.4-23.5-32.7-47-48.3-70.9
		c-33.9-52.1-64.5-106.1-95.6-159.9c-26-44.9-51.9-89.9-77.9-134.8c-2.4-4.2-5-8.2-7.6-12.5c-6.2,0-10.1,4-14.5,6.6
		c-63.6,37.3-127.1,74.8-190.6,112.2c-46.4,27.3-93,54.3-139.1,82c-27,16.2-53.8,33-77.8,53.6c-1.4,1.2-3.4,1.7-5.2,2.6
		C0,1137.4,0,568.8,0,0c1668.7,0,3337.4,0,5006.2,0C5006.2,534.8,5006.2,1069.5,5006.2,1604.1z"/>
	<path class="st0" d="M882.4,5135.8c1.6-1.6,3-4,5-4.7c33.6-13.1,64.8-31,96-48.6c78.2-44.2,154.6-91.2,228.8-141.9
		c16.4-11.2,32.2-23.3,48.2-35.2c5-3.8,9.5-8.3,14.1-12.6c3.9-3.7,5.1-8.2,3.2-13.3c-2.2-5.9-4.4-11.8-6.9-17.6
		c-16.9-38.2-36.8-74.9-57.7-111c-70.7-122.2-141.9-244.1-212.6-366.3c-31.6-54.6-62.6-109.5-93.5-164.5
		c-11.6-20.7-22-42.1-33.2-63.1c-10.3-19.3-21-38.3-31.3-57.5c-3.4-6.4-6.7-12.9-9.4-19.6c-3.8-9.3-2.2-18.4,4.1-26
		c5.2-6.3,11.1-12.3,17.6-17.2c11.6-8.7,23.5-17.2,36-24.6c42.6-25.1,85.4-50.1,128.4-74.4c44.8-25.3,89.9-50,135-74.6
		c11.5-6.3,23.4-11.7,35.5-16.8c7.5-3.2,15.6-5.3,23.6-7.3c11.1-2.7,20,1.4,26.6,10.5c2.5,3.5,4.7,7.3,6.9,11.1
		c136.4,241.1,275.5,480.6,414.5,720.2c8.3,14.3,16.8,28.4,25.2,42.6c2,3.3,4,6.7,6.3,9.8c5.3,7.2,12.5,11,21.3,10.1
		c6.7-0.7,13.6-1.8,19.8-4.1c13.1-4.9,26.4-10,38.8-16.4c28-14.5,55.7-29.5,83.2-45c47.8-26.8,95.1-54.6,143.1-81.1
		c25-13.8,51-26,76.8-38.3c13.6-6.5,27.9-11.2,42.8-14c13.3-2.5,24,0.7,31.8,12.1c9.3,13.6,18.8,27.1,27.6,41.1
		c27.2,43.7,52.3,88.5,76.6,133.9c25.2,47.1,50.2,94.2,78.3,139.6c9.2,14.8,19,29.3,28.7,43.8c3.8,5.6,8,11,13.8,14.9
		c6.7-0.6,12.2-3.8,17.7-6.6c26.2-13.7,52.6-27.2,78.4-41.5c215.3-119,428.4-241.8,639.3-368.4c22.9-13.7,45.3-28.2,67.9-42.4
		c4.9-3.1,9.6-6.5,14.4-9.8c10.3-7.1,14.3-17.2,12.2-29.1c-1.8-10-3.9-20.1-7.8-29.4c-8.3-20.1-17.2-40.1-27.1-59.6
		c-29.3-57.5-61.5-113.4-93.9-169.2c-26.4-45.3-53-90.4-82.5-133.8c-4.6-6.7-8.7-14-15.3-18.7c-6.3-0.3-10.7,3-15.3,5.5
		c-33.3,18-66.8,35.6-99.8,54.1c-207.9,116.2-415,233.9-620.3,354.6c-26.3,15.5-52.2,31.8-78.4,47.5c-7,4.2-14.4,8.2-22,11.2
		c-9.1,3.6-14.5,1.3-19.8-6.8c-1.8-2.8-3.2-6-4.7-9c-10.2-20.4-19.4-41.3-30.7-61.1c-37.1-64.8-75.1-129.1-112.5-193.8
		c-19.7-34-38.8-68.3-58-102.6c-3.8-6.7-6.8-13.9-9.9-20.3c1.8-6.7,7-9.1,11.3-12c17.3-11.6,34.7-23.2,52.3-34.3
		c93.3-58.5,188.6-113.8,283.9-169c359.9-208.2,719.7-416.5,1079.6-624.6c118.4-68.5,236.8-137,355.5-205.1
		c75.7-43.4,152.1-85.7,229.9-125.5c19.4-9.9,39.2-19.3,59.1-28.2c15.6-7,16.2-6.7,26,7.5c12.1,17.6,24.1,35.3,35.1,53.5
		c29.4,48.6,58.4,97.4,87.3,146.2c29.9,50.5,59.8,101,92.9,149.6c4.4,6.4,9.2,12.5,13.8,18.7c3.2,4.4,7.6,6,12.8,4.8
		c5.7-1.3,11.4-2.5,16.8-4.6c17.6-7,35.2-13.9,52.4-21.7c38.9-17.7,76.7-37.5,112.9-60.3c9-5.7,18.3-11,25.8-18.9
		c0.1-7.3-3-13.4-6-19.3c-10.7-21.2-21.8-42.2-32.9-63.2c-14.1-26.6-28.7-52.8-42.4-79.6c-5.7-11.2-9.5-23.3-14.4-34.9
		c-3.4-8.2-1.7-15.3,4.2-21.4c5.4-5.6,10.9-11.1,16.9-16c15.9-12.9,33.4-23.2,51.3-33.1c21.2-11.7,42.3-23.7,63.1-36.2
		c9.9-6,18.8-13.6,28.1-20.6c5.8-4.3,7.3-9.9,4.6-16.7c-3.2-8.1-5.9-16.4-9.3-24.5c-17.8-42.1-38.9-82.5-60.1-122.8
		c-47.9-91.6-100.3-180.7-150.9-270.8c-35.4-63-69.9-126.5-104.7-189.9c-2.8-5-6.1-9.9-6.5-16.1c3.3-5.8,8.7-9.2,13.9-12.6
		c24.4-15.9,48.4-32.4,73.4-47.3c78.6-47.2,157.9-93.2,238.5-136.9c11.9-6.5,24.3-12.1,36.7-17.6c6.6-2.9,13.6-5.1,20.7-6.8
		c14.7-3.4,27,0.8,35.3,13.9c4.4,6.9,8.4,14.2,12.3,21.5c11.3,21.4,22.3,43.1,33.7,64.5c6.9,12.8,13.9,25.6,21.6,37.9
		c5.1,8.2,11,16,17.6,23.1c10.4,11.1,23.4,15.4,38.4,10.7c7.4-2.3,14.8-4.6,21.8-7.9c10.6-4.9,20.9-10.2,31.1-15.9
		c47.4-26.6,94.7-53.3,142-80c3.3-1.9,6.5-4,10.4-6.4c-0.8-2.5-1.2-4.9-2.4-6.8c-27.5-45.8-53.9-92.1-83.9-136.3
		c-6.3-9.2-13.2-18-19.8-27c-1.7-2.3-3.6-4.6-5.3-7c-10.9-16-9.8-27.7,4.4-41.3c4.9-4.7,10.2-9,15.9-12.6
		c11.9-7.5,23.9-14.8,36.2-21.6c17-9.4,34.3-18.1,51.4-27.3c9.8-5.3,19.7-10.5,29.1-16.5c7.7-4.9,15.1-10.6,22-16.6
		c7-6.1,12.3-13.7,13-23.6c0.2-2.7,1.5-5.4,2.3-8.1c0,1176,0,2352.1,0,3528.8C3631.6,5135.8,2257,5135.8,882.4,5135.8z M3640.7,4102
		c7.5-2.7,13.6-4.3,19.3-7c12.7-6,25.4-12.1,37.8-18.8c93.8-51,184.3-107.6,272.9-167.1c20.5-13.8,40.4-28.6,60.3-43.2
		c6.2-4.6,11.8-10,17.5-15.3c3.9-3.6,5.2-8,3.2-13.2c-2.9-7.7-5.3-15.6-8.6-23.1c-10.6-24-23.8-46.6-37.8-68.8
		c-11.4-18.1-22.8-36.1-33.6-54.5c-5.9-10-10.7-20.6-15.7-31.1c-1.6-3.4-3.1-7.2-0.6-12.5c3.8-2.4,8.6-5.7,13.6-8.6
		c30.5-18.1,61.1-35.8,91.4-54.2c16.2-9.8,32-20.2,47.3-31.2c9.4-6.8,17.8-15,26.1-23.1c4.1-4,7.2-9.1,10.3-14
		c3.3-5.2,3.7-10.8,0.8-16.6c-4.3-8.7-7.9-17.7-12.5-26.2c-24.1-45-52.2-87.4-84.2-127.2c-6.1-7.5-12.6-14.8-19.4-21.6
		c-10.4-10.4-12.1-10.8-25.3-4c-25,12.9-49.9,25.9-74.4,39.8c-147.8,83.7-293.3,171.1-436.9,261.6c-24.2,15.3-47.9,31.4-71.6,47.3
		c-5.5,3.7-11.6,7.2-15.4,14.1c1.6,4.2,3,8.8,5.1,13.2c6.2,13.2,12.2,26.4,18.9,39.3c43.8,85.5,90.9,169.2,139.6,251.9
		c18.7,31.8,38.3,63,57.7,94.3C3630.5,4088.6,3635.4,4094.6,3640.7,4102z M3850.6,4696c2,8.9,6.1,17.7,10.3,26.4
		c19.1,39.8,40.5,78.4,65,115.2c8.3,12.5,17.5,24.4,26.6,36.4c3.5,4.6,7.7,8.7,11.9,12.7c3.7,3.6,8.1,5,13.4,3.2
		c4.6-1.6,9.3-2.8,13.8-4.6c8.9-3.8,17.9-7.6,26.5-12c43.3-22,84.8-47.1,124-75.7c9-6.5,17.2-14.2,25.7-21.3
		c6.5-5.4,7.5-12.1,4.4-19.7c-2.9-7.2-5.6-14.5-8.9-21.5c-23.7-49.5-51-97-81.6-142.5c-4.3-6.4-9.4-12.4-14-18.6
		c-4.7-6.4-10.6-8.1-17.8-4.8c-8.8,4-17.8,7.6-26.4,12.1c-49.6,25.6-97.1,54.7-142.8,86.8c-7.1,5-13.9,10.6-20.7,16.1
		C3856,4687.2,3852.2,4690.3,3850.6,4696z M4570.5,3812.7c-1.2-5.1-1.9-9.5-3.4-13.5c-3.3-9.1-6.6-18.3-10.6-27.1
		c-19.1-42-41.7-82.1-67.6-120.3c-4.6-6.8-9.6-13.4-14.7-19.9c-2.7-3.4-5.8-6.5-8.7-9.8c-5.5-6.2-12.2-7.7-19.7-4.7
		c-9,3.6-18.2,6.8-26.8,11.1c-47.9,23.9-92.8,52.5-135.2,85.1c-5.4,4.1-10.6,8.6-15.5,13.2c-14.2,13.1-15.3,15.9-8.6,34.2
		c6.5,17.7,13.7,35.2,21.5,52.4c15.5,34,33.3,66.9,54,98c5.4,8.1,11.5,15.6,17.5,23.2c3.4,4.3,7.8,5.5,13,3.3
		c8.5-3.6,17.1-6.8,25.4-10.9c51.7-25.8,101.6-54.7,149.8-86.6c6.1-4,11.9-8.3,17.8-12.7c2.7-2,5.6-4.1,7.6-6.7
		C4568.2,3818.5,4569.2,3815.3,4570.5,3812.7z"/>
	<path class="st0" d="M0,1711.8c2.7,0,4.4,1.3,5.6,3.8c34,73.2,77.2,141.3,119.1,210c31.1,50.9,63.2,101.2,97.5,150.1
		c6.1,8.7,12.6,17.3,19,25.8c2.6,3.5,5.8,6.6,8.4,10c4.3,5.5,9.4,6.1,15.5,3.4c5.8-2.5,11.8-4.5,17.4-7.3
		c28.5-14.6,57.3-28.5,85.2-44.2c51.2-28.7,101.6-58.7,152.8-87.5c44.4-25,89.3-49,134-73.3c3.8-2,7.7-3.7,12.2-5.8
		c1.8,2.2,3.6,3.8,4.8,5.8c56.3,98,115.6,194.3,168.4,294.3c12.4,23.6,23.8,47.8,35.2,71.9c4.3,9.1,8.5,18.5,9.4,28.4
		c-2.4,5.8-7.2,8.5-11.6,11.4c-18.6,12.4-36.9,25.1-56,36.7c-51.5,31.1-103.3,61.6-155,92.3c-46.7,27.7-93.4,55.5-138.5,86
		c-6,4.1-11.7,8.6-17.7,12.7c-5.7,3.9-6.9,9.1-4.9,15.3c2.3,6.9,4.3,14,7.4,20.5c11.6,24.5,22.8,49.3,35.7,73.2
		c20.7,38.4,42.3,76.4,64,114.2c27.5,48,54.8,96.1,78.7,146c5,10.5,9.6,21.2,14.1,31.9c1.7,4,2.8,8.3,4,12.5
		c1.3,4.6,0.3,8.7-3.4,11.9c-5.5,4.7-10.8,9.9-16.7,14c-22.3,15.6-44.3,31.5-67.2,46.1c-34.4,21.9-69.4,42.7-104.2,64
		c-52.5,32.2-105.1,64.4-157.5,96.7c-7.4,4.6-14.3,10-21.7,14.7c-9,5.7-11.9,13.9-9.8,23.8c1.8,8.5,4.2,17,7.1,25.1
		c6.6,18.3,15.8,35.4,25.6,52.2c31.2,53.1,62.9,105.9,93.4,159.5c31.8,56.1,62.4,112.9,93.5,169.5c1.1,2.1,2.1,4.3,3.3,6.7
		c-3.6,4.8-8.8,6.4-13.4,8.9c-95.9,53.2-191.9,106.1-287.7,159.5c-36,20.1-71.6,41-107.3,61.5c-3.3,1.9-6.4,4.2-10.2,6.7
		c2.5,4.7,4.6,8.9,7,13.1c160,278.4,320,556.9,480,835.3c60.2,104.7,120.6,209.3,180.9,314c2.2,3.8,4.3,7.6,6.6,11.3
		c19.8,33.5,40.6,66.2,70.6,91.8c-291.2,0-582.5,0-873.7,0C0,3994.5,0,2853.2,0,1711.8z"/>
	<path class="st0" d="M3255.4,1531.1c7,3.5,11.1,9,15.1,14.4c11.9,16.5,23.9,33,35.2,49.9c33.8,50.9,64.7,103.7,95.3,156.6
		c30.1,52.1,60.2,104.1,90.2,156.2c2.7,4.6,5.2,9.3,7.6,13.6c-1.4,5.6-6.2,6.4-9.8,8.5c-56.2,32.6-112.4,65.2-168.8,97.6
		c-67.3,38.6-134.7,77.1-202,115.6c-8.4,4.8-16.9,9.3-25.9,14.2c-2.6-3-5.1-5.2-6.8-7.9c-9.5-15.2-19.1-30.4-28.1-45.9
		c-59.8-102.7-117.6-206.5-173-311.6c-6.1-11.6-11.8-23.4-17.6-35.1c-1.7-3.4-2.9-7.1-4.2-10.3c1.9-5.8,6.8-7.5,10.8-10
		c16.2-9.8,32.4-19.6,48.8-29c96.1-54.7,193.2-107.6,291.6-158c10.4-5.3,20.9-10.3,31.4-15.2
		C3248.5,1533.2,3252.2,1532.2,3255.4,1531.1z"/>
	<path class="st0" d="M1806,2893.2c-6.3,5-11.4,9.5-16.8,13.3c-33.7,23.8-68.9,45.3-104.7,65.8c-75.7,43.4-151.8,86.1-227.8,129.1
		c-5.5,3.1-11.2,5.8-16.9,8.5c-13.8,6.4-26.6,4.4-37.6-6c-6.7-6.3-13.2-13-18.6-20.3c-10.4-14-20.6-28.2-29.8-43
		c-53.9-85.9-105.7-173-153.6-262.3c-6.6-12.4-12.8-25.1-18.6-37.8c-4.1-9-3.7-11.4,3.9-17.7c10.1-8.3,20.5-16.4,31.5-23.4
		c26.1-16.7,52.4-33.3,79.2-49c67-39.2,135.1-76.4,205-110.1c17.5-8.4,35.1-16.7,53.2-23.5c28.2-10.6,24.6-10.5,39.7,11.9
		c20.3,30.2,39.7,61,58.6,92c44.4,72.9,87.8,146.4,128.6,221.4c6.5,11.9,12.5,24.1,18.6,36.2
		C1801.9,2882.6,1803.5,2887.2,1806,2893.2z"/>
	<path d="M3640.7,4102c-5.4-7.4-10.3-13.4-14.3-19.9c-19.4-31.3-39-62.6-57.7-94.3c-48.7-82.8-95.9-166.4-139.6-251.9
		c-6.6-12.9-12.7-26.2-18.9-39.3c-2-4.3-3.5-8.9-5.1-13.2c3.8-6.9,9.8-10.3,15.4-14.1c23.8-16,47.4-32.1,71.6-47.3
		c143.6-90.6,289.1-178,436.9-261.6c24.5-13.9,49.4-26.8,74.4-39.8c13.2-6.8,14.9-6.4,25.3,4c6.9,6.8,13.4,14.1,19.4,21.6
		c32,39.8,60.1,82.2,84.2,127.2c4.6,8.5,8.2,17.5,12.5,26.2c2.8,5.8,2.4,11.4-0.8,16.6c-3.1,4.9-6.2,10-10.3,14
		c-8.3,8.1-16.7,16.3-26.1,23.1c-15.3,11-31.2,21.4-47.3,31.2c-30.3,18.4-60.9,36.1-91.4,54.2c-5,2.9-9.8,6.2-13.6,8.6
		c-2.5,5.3-1.1,9.1,0.6,12.5c5,10.5,9.9,21.1,15.7,31.1c10.8,18.4,22.2,36.4,33.6,54.5c14,22.2,27.2,44.8,37.8,68.8
		c3.3,7.5,5.7,15.4,8.6,23.1c2,5.2,0.7,9.6-3.2,13.2c-5.7,5.2-11.3,10.7-17.5,15.3c-19.9,14.6-39.8,29.4-60.3,43.2
		c-88.6,59.5-179.1,116.1-272.9,167.1c-12.3,6.7-25,12.8-37.8,18.8C3654.4,4097.7,3648.3,4099.3,3640.7,4102z"/>
	<path d="M3850.6,4696c1.6-5.7,5.4-8.8,9.2-11.9c6.8-5.5,13.5-11,20.7-16.1c45.7-32.1,93.2-61.2,142.8-86.8
		c8.6-4.4,17.6-8.1,26.4-12.1c7.2-3.3,13.1-1.6,17.8,4.8c4.6,6.2,9.7,12.2,14,18.6c30.7,45.5,58,92.9,81.6,142.5
		c3.3,7,6,14.3,8.9,21.5c3.1,7.6,2.1,14.2-4.4,19.7c-8.5,7.1-16.7,14.8-25.7,21.3c-39.3,28.6-80.7,53.7-124,75.7
		c-8.6,4.4-17.6,8.2-26.5,12c-4.4,1.9-9.2,3-13.8,4.6c-5.2,1.9-9.6,0.4-13.4-3.2c-4.2-4-8.4-8.1-11.9-12.7
		c-9.1-12-18.3-23.9-26.6-36.4c-24.5-36.8-45.9-75.3-65-115.2C3856.7,4713.7,3852.7,4704.9,3850.6,4696z"/>
	<path d="M4570.5,3812.7c-1.3,2.5-2.3,5.8-4.3,8.3c-2.1,2.6-4.9,4.7-7.6,6.7c-5.8,4.3-11.7,8.7-17.8,12.7
		c-48.2,31.9-98.1,60.8-149.8,86.6c-8.2,4.1-16.9,7.3-25.4,10.9c-5.2,2.2-9.6,1-13-3.3c-6-7.6-12.2-15.1-17.5-23.2
		c-20.7-31.2-38.5-64-54-98c-7.8-17.2-15-34.7-21.5-52.4c-6.7-18.2-5.5-21.1,8.6-34.2c5-4.6,10.2-9,15.5-13.2
		c42.4-32.6,87.4-61.2,135.2-85.1c8.6-4.3,17.8-7.6,26.8-11.1c7.6-3,14.3-1.6,19.7,4.7c2.9,3.3,6,6.4,8.7,9.8
		c5,6.5,10,13.1,14.7,19.9c25.9,38.2,48.5,78.3,67.6,120.3c4,8.8,7.3,18,10.6,27.1C4568.6,3803.2,4569.2,3807.6,4570.5,3812.7z"/>
</g>
<g>
	<path class="st0" d="M8192,2815.1c0,784.1,0,1568.2,0,2352.2c-889.6,0-1779.2,0-2668.9,0c0-1722.4,0-3444.9,0-5167.3
		C6412.8,0,7302.4,0,8192,0c0,785.1,0,1570.1,0,2355.2c-5.5-2.4-5.6-7.5-6-12.3c-2.1-25.6-4.4-51.2-6-76.9c-1.9-30-3.6-60.1-9-89.7
		c-1.2-6.7-2.3-13.4-2.6-20.2c-2.5-52-14.9-102.7-19.7-154.4c-0.5-5.8-1.9-11.5-3.2-17.2c-4.3-18-7.1-36.1-9.2-54.5
		c-1.2-10-3.6-20-5.7-30c-2-9.5-4.8-18.9-6-28.5c-2.5-19.3-5.5-38.4-11.9-56.9c-1.2-3.6-1.9-7.6-2.4-11.4c-2.3-18.4-7.4-36-11.7-54
		c-5.4-22.1-10.4-44.3-16.1-66.4c-3.9-15-7.5-30-11.7-44.9c-6-21.5-11.5-43-17.6-64.5c-3.3-11.7-6.8-23.2-10.2-34.8
		c-6-20.9-12.9-41.6-18.8-62.6c-5.8-20.5-15.2-39.9-19-61c-0.4-1.9-1.6-3.6-2.3-5.4c-7.4-20.5-14.6-41-21.9-61.5
		c-6.9-19.1-13.9-38.2-20.9-57.2c-2.7-7.3-5.5-14.5-8.2-21.8c-1.5-4.1-2.8-8.2-4.4-12.3c-3.5-9-7.1-18-10.7-26.9
		c-1.6-4.1-3.3-8.1-5-12.1c-6.8-16-13.8-32-20.5-48.1c-6.8-16.5-13-33.4-20.4-49.7c-4-8.8-8.8-17.3-11.5-26.7
		c-0.8-2.8-2.5-5.2-3.6-7.9c-3.3-7-6.5-14.1-9.8-21c-2-4.4-4.3-8.7-6.5-13c-1.9-3.9-3.9-7.8-5.8-11.7c-6.3-14.1-12.4-28.4-19-42.4
		c-9-18.8-18.4-37.3-27.7-55.9c-1.1-2.2-2.4-4.2-3.6-6.3c-7.1-13.8-14.3-27.5-21.4-41.2c-6.5-12.5-12.7-25.1-19.4-37.4
		c-8.4-15.8-17.2-31.5-25.9-47c-6.1-11-12.3-21.9-18.6-32.8c-7.1-12.2-14.3-24.2-21.3-36.3c-6.6-11.3-13-22.7-19.7-33.9
		c-7.2-12-14.8-23.9-22.2-35.8c-11.2-18.1-22-36.6-33.6-54.3c-16.5-25.1-33.4-50-50.3-74.7c-16.4-24-32.8-48-49.7-71.6
		c-17.4-24.5-35.2-48.7-53.2-72.7c-12.2-16.3-25.1-32-37.6-48.1c-10.8-13.7-21.6-27.5-32.4-41.1c-11.4-14.4-22.5-29.2-34.4-43.3
		c-21.9-25.9-44.2-51.5-66.5-77c-16.6-19-33.1-38.1-50.2-56.5c-32.4-34.8-65.2-69.1-97.9-103.6c-2.7-2.8-5.4-5.6-8.4-8.1
		c-3.8-3.2-8.2-3.3-12.1-0.5c-3.9,2.8-7.5,6.1-10.9,9.5c-17.5,17.5-34.9,35.1-52.4,52.6c-75.8,75.8-151.7,151.5-227.5,227.3
		c-1.4,1.4-2.8,2.7-4,4.2c-4.6,5.9-4.7,12.6-0.1,18.7c1.2,1.5,2.5,2.9,3.9,4.3c18.8,19.6,37.6,39.3,56.4,58.8
		c22.9,23.7,45.9,47.3,66.8,72.9c11.7,14.3,24.2,27.8,36.1,41.8c16.7,19.5,33.2,39.2,49.7,58.9c5.6,6.7,10.6,13.8,16,20.7
		c21.3,27,42.9,53.7,63.8,81c14.1,18.4,27.6,37.4,40.9,56.5c21.6,30.9,43,62.2,64.3,93.4c5.5,8,10.3,16.4,15.6,24.5
		c11.5,17.9,23.4,35.7,34.6,53.7c12,19.3,23.6,39,35.2,58.5c5.5,9.2,10.6,18.5,15.9,27.7c7.5,13,15.1,25.9,22.4,39
		c6.5,11.4,12.5,22.9,19.1,34.3c9,15.5,18.1,30.9,25.1,47.5c1.3,3.1,3.3,6,4.8,9c2.6,5.2,5.2,10.3,7.9,15.5
		c2.4,4.7,4.9,9.5,7.3,14.2c2.2,4.3,4.4,8.6,6.6,13c2.8,5.6,5.7,11.2,8.5,16.8c1.5,3,3.2,6,4.7,9c6.8,14.4,13.7,28.8,20.5,43.3
		c7.4,15.8,14.6,31.6,21.9,47.4c0.6,1.3,0.9,2.8,1.5,4.1c2.8,6.2,5.6,12.3,8.3,18.5c1.7,4,3.5,7.9,5.2,11.9
		c2.7,6.2,5.4,12.5,8.1,18.6c2.1,4.9,4.4,9.7,6.4,14.6c2.1,4.9,4.2,9.8,6.2,14.7c7.3,17.9,14.5,35.9,21.7,53.8
		c0.5,1.3,0.7,2.8,1.2,4.2c6.3,16.7,12.5,33.6,18.8,50.3c0.4,0.9,0.9,1.7,1.3,2.6c6.8,17.5,13.8,35.2,20.6,52.7
		c0.4,0.9,0.5,1.9,0.7,2.8c2,10.6,6.3,20.3,9.8,30.4c6.3,18.8,12.7,37.6,18.7,56.5c7.6,24,15.9,47.7,22.1,72.2
		c2.3,8.9,4.9,17.8,7.4,26.6c6.6,24.3,12.6,48.8,20,72.8c9.1,29.7,14.3,60.3,21.9,90.4c3.3,13.1,6,26.4,9,39.7
		c1.1,4.7,2.6,9.3,3.6,14.1c4.3,20.9,8.4,41.8,12.5,62.8c1.4,7.1,2.5,14.3,3.3,21.6c1.8,17.4,4.8,34.6,8.9,51.6
		c2.5,10.3,3.9,21,5.4,31.5c3,20.2,5.8,40.3,8.5,60.5c2.1,15.9,4,31.7,5.8,47.6c1.5,13.5,1.9,27.2,4.2,40.6
		c6.4,37.9,8.7,76.1,10.5,114.4c2.3,48.9,5.4,97.8,6.6,146.8c1,42.7,2.9,85.3,1.2,128c-0.5,12.6-1.6,25.2-1.7,37.8
		c-0.4,54.8-4.5,109.5-7.1,164.3c-0.9,17.9-2.5,35.8-4.3,53.7c-2.8,27-5.9,54-9.1,81c-2,16.8-4.2,33.6-6.4,50.5
		c-2.2,16.8-4.8,33.6-6.6,50.5c-1.8,16.5-4.2,32.7-8.1,48.8c-2.5,10.3-4.6,20.9-5.9,31.5c-2.2,17.8-5,35.5-9.3,53
		c-2.5,9.8-3.3,20.1-5.4,30.1c-2.4,11.9-5.2,23.7-7.9,35.5c-2.1,9.5-4.4,18.9-6.6,28.3c-2.6,11.4-5.2,22.6-7.7,34
		c-2.3,10.4-4.7,20.8-7,31.2c-2,9-4,18-6.3,26.9c-2.8,10.8-5.5,21.6-8.7,32.3c-6.7,21.8-12.2,43.9-18.8,65.6
		c-7.9,25.9-14,52.4-23.2,77.9c-6.8,19.2-14.1,38.2-19.3,57.8c-0.1,0.4-0.4,0.9-0.6,1.3c-7.3,21-14.3,42.2-21.9,63.1
		c-6.8,18.6-14,37.1-21.2,55.6c-7.1,18.1-14.4,35.9-21.5,54c-6.4,16.2-12.6,32.5-18.9,48.6c-0.1,0.4-0.5,0.9-0.7,1.3
		c-3.6,7.9-7.1,15.9-10.7,23.8c-1.6,3.5-3.3,7-5,10.5c-6.8,14.4-13.6,28.8-20.4,43.3c-0.6,1.3-0.9,2.8-1.5,4.2
		c-2.5,5.8-5.2,11.4-7.8,17.2c-1.8,3.9-4.1,7.7-5.5,11.9c-5.5,16.2-14.6,30.5-21.8,45.8c-6.2,13.1-13.5,25.7-20.1,38.6
		c-6.8,13.4-13,27.1-19.8,40.4c-8.4,16.4-17.2,32.6-25.9,48.7c-5.8,10.6-11.9,21.1-18,31.5c-7.1,12.1-14.6,24-21.6,36.1
		c-6.8,11.7-12.7,24-19.7,35.5c-14.1,23.2-28.5,46.2-43.1,69c-11.7,18.4-23.7,36.6-35.8,54.8c-12,18.2-23.9,36.5-36.3,54.3
		c-17.5,25-35.3,49.8-53.2,74.5c-10.5,14.5-21.1,29-32.2,43.1c-22.1,28.3-44.3,56.4-66.6,84.4c-10.9,13.6-21.8,27.2-33.2,40.4
		c-15.8,18.4-32.4,36.1-48.1,54.5c-30.5,35.8-62.7,70.1-95.5,103.9c-9.8,10.1-19.7,20.2-29.3,30.3c-7.4,7.6-7.4,13.4-0.2,21.6
		c1.2,1.5,2.7,2.8,4.1,4.2c40.8,40.9,81.5,81.8,122.3,122.6c33.3,33.3,66.6,66.6,99.8,99.8c16.8,16.8,33.6,33.6,50.4,50.5
		c3.4,3.4,6.9,6.8,10.9,9.6c6.2,4.3,11.7,3.6,17.1-1.3c1.1-0.9,2-2.1,3-3.2c41.4-42.3,81.6-85.7,121-129.8
		c17.5-19.5,34.8-39.1,52.1-58.8c11.4-13.1,22.6-26.5,33.9-39.9c14.9-17.8,30-35.5,44.5-53.7c18.4-23.1,36.4-46.6,54.5-70
		c10.7-13.8,21.5-27.5,31.7-41.6c18.3-25.1,36.2-50.3,54.2-75.6c7.3-10.3,14.2-20.8,21.3-31.2c6-8.8,12-17.6,17.9-26.5
		c17.1-25.9,34.4-51.6,51.2-77.6c12.9-19.9,25.3-40.1,37.8-60.3c6.4-10.3,12.6-20.7,18.7-31.2c6.8-11.7,13.3-23.6,20.2-35.3
		c6.6-11.3,13.7-22.3,20.2-33.6c9.3-16.4,18.4-33,27.5-49.5c5.8-10.6,11.7-21.2,17.2-32c6.6-12.9,12.7-26.1,19.7-38.9
		c9.2-17,18.8-33.9,26.3-51.8c1.1-2.7,2.8-5.1,4.1-7.7c2.8-5.6,5.5-11.4,8.2-17c2.1-4.4,4.2-8.7,6.5-13c2-3.9,4.2-7.6,6-11.6
		c6.4-14.1,12.7-28.3,19.1-42.3c1.2-2.6,3-5,4.3-7.6c1.5-3,3.3-6,4.3-9.2c2.5-8.4,6.2-16.2,10.9-23.7c2-3.3,3.1-7.1,4.6-10.6
		c6.3-15.2,12.6-30.4,18.9-45.6c0.6-1.3,1.5-2.5,2-3.9c2.9-6.6,5.8-13.3,8.6-20c1.7-4,3.4-8,5.1-12c3-7.1,6-14.2,8.9-21.4
		c1.6-4,2.6-8.4,4.6-12.2c4.6-8.6,8.2-17.5,10.8-26.9c1-3.7,3-7.1,4.4-10.8c2.9-7.1,5.8-14.3,8.5-21.6c6.3-17.3,12.6-34.6,18.9-51.8
		c0.4-0.9,0.9-1.7,1.2-2.6c7.4-20.5,14.8-40.9,22.2-61.4c0.1-0.4,0.2-0.9,0.4-1.4c6.4-19.8,14.3-39.1,19.6-59.3
		c0.2-0.9,0.9-1.7,1.2-2.7c2.4-7.4,5-14.6,7.2-22.1c6.5-22.3,15-44,20.2-66.7c0.2-0.9,0.8-1.7,1.1-2.7c6.8-23.2,13.8-46.4,20.5-69.6
		c0.4-1.4,0.5-2.8,0.9-4.3c6.8-26.7,13.7-53.4,20.5-80.2c2.8-11.3,5.6-22.6,8.3-33.9c1.9-8,3.1-16.2,5.4-24.1
		c9.3-32.2,13.4-65.5,22.1-97.8c0.4-1.4,0.4-2.9,0.7-4.3c2.5-13.3,5.2-26.7,7.7-40c2.2-11.4,4.4-22.9,6.4-34.3
		c2.7-15.3,5.2-30.6,7.8-45.9c2.2-12.9,4.4-25.8,6.3-38.7c2.7-17.8,5.2-35.5,7.7-53.3c2.5-18.3,4.9-36.6,7.1-54.8
		c2.4-19.7,4.7-39.5,6.9-59.3c1.8-15.9,4.2-31.7,5.4-47.7c2.3-28.5,3.8-57.1,5.8-85.6c0.6-7.7,1.7-15.4,2.6-23.2
		C8186.8,2819.4,8188.7,2816.7,8192,2815.1z M7284.3,2602.2c-0.6-38.3-0.7-67.9-1.5-97.5c-0.9-33-1.9-65.9-5.3-98.8
		c-3.1-30.4-4.9-60.9-7.6-91.3c-1.5-16.9-3-33.9-5.9-50.5c-4.2-24.4-7.1-48.9-9.2-73.6c-0.9-10.1-2.4-20.2-4.7-30.1
		c-8.7-38.3-12.4-77.6-21.5-115.8c-1.3-5.7-1.7-11.5-2.7-17.3c-0.7-3.8-1.2-7.7-2.5-11.4c-10.4-28.8-11.5-60.1-22.1-88.9
		c-1.3-3.6-1.2-7.6-2.1-11.4c-2.3-9.4-4.8-18.7-7.4-28c-6.8-24.2-13.8-48.4-20.8-72.6c-0.1-0.4-0.1-0.9-0.3-1.5
		c-4.8-23.3-13.8-45.4-21-67.9c-6.6-20.8-14.1-41.2-21.2-61.8c-0.3-0.9-0.4-1.9-0.7-2.8c-6.2-17.8-12.5-35.6-18.7-53.5
		c-0.5-1.4-1.5-2.5-2-3.9c-7.1-18-14.3-36-21.4-53.9c-0.1-0.4-0.2-0.9-0.4-1.4c-6.3-16.2-12.7-32.4-19.2-48.6
		c-0.9-2.3-2.5-4.2-3.6-6.3c-1.7-3.5-3.3-7-4.9-10.6c-3.4-7.5-6.8-14.9-10.2-22.4c-1.4-3.1-3.1-6.1-4-9.3
		c-2.2-7.5-5.2-14.6-9.5-21.1c-1.8-2.8-2.9-6.1-4.3-9.2c-6.5-14.6-12.6-29.3-19.5-43.7c-8.6-17.8-17.8-35.5-26.8-53.1
		c-1.1-2.2-2.4-4.2-3.5-6.4c-3.1-6-6.1-12.1-9.2-18.1c-1.7-3.4-3.4-6.9-5.3-10.3c-7-12.7-14.1-25.4-21-38.1
		c-6.8-12.3-13.5-24.6-20.5-36.8c-7.2-12.6-14.6-25.1-21.9-37.6c-6.8-11.7-13.3-23.6-20.5-35.1c-11.4-18.1-23.4-35.6-34.7-53.7
		c-13.8-22.1-27.5-44.4-43-65.5c-16.6-22.6-32.1-46.1-48.2-69.1c-5.5-7.9-11.3-15.8-17.2-23.4c-17.2-22.2-34.3-44.5-51.8-66.5
		c-16.6-20.8-33.5-41.4-50.5-61.9c-11.1-13.4-22.9-26.4-34.3-39.5c-12.1-13.9-23.8-28.2-36.3-41.7c-20.7-22.5-41.9-44.5-62.8-66.7
		c-1.7-1.7-3.3-3.6-5.1-5.2c-5.9-4.7-12.7-4.7-18.7-0.1c-1.9,1.5-3.6,3.3-5.3,5c-24.3,23.7-48.6,47.4-73,71.1
		c-46.2,45-92.4,90.1-138.7,135c-24,23.3-48.3,46.4-72.3,69.7c-12.5,12.1-12.7,18.3-0.9,30.4c36.8,37.9,73.6,75.9,107.3,116.7
		c12.7,15.3,25.7,30.3,38.2,45.7c10.7,13.2,20.8,26.7,31.2,40.2c13.9,18,29,35.1,41.3,54.4c5.2,8.2,11.2,15.8,16.7,23.7
		c12.2,17.4,24.8,34.7,36.6,52.4c12.7,18.9,24.7,38.2,37,57.4c6.3,9.8,12.9,19.4,18.7,29.4c11.2,19.3,21.8,38.8,32.8,58.2
		c14.6,25.6,30.1,50.8,42.1,77.9c1.2,2.6,3.1,5,4.4,7.5c2.3,4.3,4.4,8.6,6.6,13c6.9,13.8,13.8,27.7,20.6,41.6
		c2.8,5.6,5.5,11.3,8.2,17c2,4.4,3.9,8.9,5.8,13.3c7,15.4,14.1,30.8,21.1,46.2c0.4,0.9,0.6,1.9,0.9,2.8c2.9,6.6,5.9,13.3,8.9,19.8
		c1.4,3.1,3,6.1,4.3,9.2c3.8,9.4,7.8,18.8,11.1,28.4c5.1,14.6,9.8,29.4,16.9,43.3c0.9,1.7,1,3.7,1.7,5.6
		c6.9,19.6,14.6,38.9,20.8,58.8c6.5,20.8,14.1,41.2,21,61.8c3.5,10.6,6.8,21.3,9.8,32c6.6,23.8,13.2,47.6,19.4,71.5
		c7,26.7,14.7,53.3,18.6,80.7c0.1,0.5,0.2,0.9,0.4,1.4c6,17,9,34.7,11.7,52.5c1.5,10,4.1,20,6.1,29.9c1.4,6.6,3.1,13.3,3.9,20
		c2.8,22.1,5.8,44.2,10.9,66c2,8.4,2.6,17.3,3.6,25.9c2.3,21.7,4.4,43.4,6.7,65.1c2.3,21.2,5.3,42.4,7,63.6
		c4.7,61,3.9,122.2,5.8,183.3c0.1,4.4-0.1,8.7-0.2,13.1c-0.7,29.1-1,58.2-2.2,87.3c-1.2,30.1-2.5,60.1-5.1,90.1
		c-3.1,36.3-6.9,72.5-11.7,108.5c-4.7,36-10.8,71.9-16.4,107.8c-0.5,3.3-1.6,6.6-2.3,9.9c-2.8,14.8-5.5,29.6-8.3,44.3
		c-1.7,8.5-3.1,17.2-5.6,25.6c-3.9,13-7.3,26.1-9,39.7c-0.6,4.8-1.2,9.8-2.9,14.3c-8.7,24.2-10.5,50.4-20.8,74.1
		c-1.9,4.4-2.5,9.3-3.4,14.1c-1.9,10.6-4.4,20.8-8.8,30.7c-1.5,3.5-2.8,7.3-3.6,11.1c-2.8,13.8-6.6,27.3-13,40.1
		c-1.5,3-1.8,6.5-2.9,9.8c-6.3,19.8-12.7,39.6-19.1,59.4c-0.4,1.4-1.2,2.6-1.7,4c-3,7.6-5.9,15.4-8.8,23c-1.7,4.5-3.5,9-5.3,13.5
		c-7.3,17.9-14.6,35.8-21.8,53.7c-0.1,0.4-0.2,0.9-0.4,1.4c-2.8,6.7-5.5,13.4-8.2,20.1c-1.9,4.4-3.9,8.9-5.8,13.3
		c-6.6,15.1-13.3,30.1-20,45.1c-4.5,10.2-8.9,20.4-13.8,30.4c-8.5,17.4-17.3,34.6-26,51.9c-5.2,10.3-10.4,20.8-15.8,31
		c-5.2,9.8-10.4,19.7-15.9,29.3c-7.2,12.6-14.7,25.1-22,37.6c-6.5,11.4-12.5,23-19.3,34.2c-11.4,18.6-23.3,36.8-35,55.2
		c-6.7,10.6-13.2,21.5-20,32.1c-5.5,8.6-11.1,17.1-16.9,25.4c-12.6,17.8-25.3,35.5-38.1,53.2c-10.2,14.1-20.5,28.2-30.9,42.2
		c-3.8,5-7.9,9.8-11.8,14.7c-12.7,15.9-25,32.1-37.9,47.8c-16.1,19.4-32.6,38.5-49,57.6c-12.4,14.3-24.8,28.6-37.7,42.3
		c-20.3,21.5-41.1,42.5-61.7,63.8c-2,2.1-4.2,4.1-6,6.3c-3.6,4.5-3.7,8.8-0.1,13.3c3.1,3.7,6.6,7.1,10,10.5
		c28.1,27.4,56.3,54.8,84.5,82.1c58,56.5,116.1,112.9,174.2,169.5c8.4,8.1,16.5,16.4,25,24.3c8.3,7.8,15.9,7.8,24.4,0.2
		c1.8-1.6,3.4-3.4,5.1-5.2c11-11.7,22-23.2,32.9-35c18.5-19.9,37.3-39.5,55.4-59.7c17.5-19.4,34.4-39.5,51.4-59.3
		c10-11.8,20-23.7,29.8-35.8c12.2-15.1,24-30.4,35.9-45.7c19.8-25.7,39.9-51.2,59-77.4c19.2-26.2,37.3-53.1,55.8-79.8
		c5.8-8.4,11.3-16.9,16.7-25.6c11.6-18.5,22.6-37.3,34.5-55.5c14.3-21.9,27.8-44.3,40.2-67.4c6-11.1,12.4-21.9,18.7-32.8
		c6.8-11.7,13.8-23.4,20.4-35.2c5.2-9.2,10.3-18.6,15.1-28.2c6.7-13.4,13-27,19.6-40.6c4.7-9.5,9.5-19.1,14.3-28.5
		c6.9-13.3,14-26.5,20.8-39.9c1.5-3,2.3-6.4,3.6-9.5c2.1-4.9,4.4-9.7,6.6-14.6c2.3-5.3,4.7-10.6,7-15.9c2.1-4.9,4.2-9.8,6.4-14.6
		c7-15.4,14.1-30.8,21-46.2c3.6-7.9,7-15.9,10.4-24c1.7-4,3.1-8.2,4.5-12.2c6.6-17.7,13.2-35.4,19.7-53c0.4-0.9,0.9-1.7,1.3-2.6
		c6.8-17.1,13.5-34.2,20.2-51.3c0.9-2.3,1.1-4.7,1.8-7.1c6.3-19.8,12.7-39.6,19.2-59.4c0.7-2.3,2-4.4,2.9-6.7
		c1.4-3.6,3.1-7.2,3.9-10.9c2.9-12.8,8.5-24.8,11.9-37.3c5.8-21,12.6-41.7,17.6-62.9c2.8-11.8,5.3-23.6,9.9-34.9
		c1.5-3.6,2.7-7.4,3.3-11.1c2.9-16.7,8.4-32.9,12-49.4c5.2-23.2,9.7-46.5,15.8-69.5c5.3-20.1,8.5-40.8,12.5-61.3
		c1.5-7.6,2.8-15.3,3.6-23c1.9-17.4,5-34.5,8.8-51.6c2.6-11.8,4.1-23.9,5.7-35.9c2.8-21.1,5.4-42.3,8-63.5
		c2.2-17.8,4.7-35.6,6.3-53.5c3.1-34.3,5.7-68.7,8.5-103c1.1-13,2.7-26.1,3.1-39.2C7282.6,2683.7,7283.4,2638.6,7284.3,2602.2z
		 M6374.5,2589.4c-0.4-20.4-0.9-40.8-0.9-61.1c-0.1-30.1-2.3-60.1-5.5-90c-2.8-26.5-5.6-53.1-8.1-79.6c-1.7-18.4-4.4-36.6-8.4-54.6
		c-2.3-9.9-3.6-20-4.9-30.1c-2-16.9-4.4-33.6-9.8-49.9c-1.7-5-3-10.3-3.5-15.6c-2.8-28.2-14.1-54.5-18.3-82.3
		c-0.5-3.3-2.1-6.4-3.1-9.7c-3.1-10.7-6-21.4-9-32.2c-2-7-3.9-14-6-20.9c-2.5-8.3-5.4-16.5-7.9-24.9c-5.8-19-13-37.4-18.6-56.5
		c-3-10-7.3-20-11.1-29.9c-5.8-14.9-12.2-29.5-17-44.8c-0.6-1.8-1.7-3.5-2.5-5.2c-7-14.3-11-30.1-19.4-43.8c-1-1.6-1.2-3.7-1.9-5.5
		c-2.3-5.3-4.6-10.6-7-15.9c-2-4.4-4.1-8.8-6.1-13.2c-3.1-6.6-6.3-13.1-9.3-19.6c-1.9-3.9-3.7-7.9-5.7-11.8
		c-2.5-5.2-5.2-10.3-7.9-15.5c-2.2-4.3-4.3-8.7-6.5-13c-2.1-4.4-4.1-8.7-6.4-13c-7.1-13.2-14.3-26.4-21.5-39.5
		c-6.8-12.3-13.4-24.7-20.5-36.8c-7.3-12.5-15-24.9-22.6-37.2c-4.6-7.4-9.3-14.7-14.1-22.1c-11-17.1-21.4-34.7-33.1-51.3
		c-17-24.2-34.6-47.9-52.4-71.5c-12.8-17-26-33.8-39.4-50.4c-9.4-11.7-19.8-22.6-29.1-34.4c-19-24-39.8-46.3-60.9-68.5
		c-8-8.4-16.1-16.9-24.6-24.8c-7.1-6.6-11.9-6.3-19.1,0.2c-6.5,5.8-12.4,12.3-18.6,18.4c-86.1,86.1-172.1,172.1-258.3,258.3
		c-2.8,2.8-5.5,5.5-8,8.4c-5.8,7-6,11.2-0.7,18.2c2.9,3.9,6.3,7.4,9.6,10.9c13.5,14.6,27.2,29.1,40.4,43.8
		c25,27.7,48.1,57,70.6,86.8c5.5,7.4,10.6,15,15.9,22.6c8.6,12.3,17.3,24.5,25.8,36.9c6,8.8,11.8,17.8,17.4,26.8
		c11.7,18.9,23.6,37.8,34.9,56.9c9,15.4,17.4,31.3,25.8,47.1c5.9,11.1,11.8,22.3,17,33.6c6.5,14.1,12.4,28.4,18.6,42.6
		c0.9,2.2,2,4.4,3.3,6.5c4.5,7,7.5,14.6,9.7,22.6c0.9,3.3,2.5,6.3,3.7,9.5c3.6,9,7.1,18,10.6,27c1.6,4.1,3.1,8.2,4.8,12.2
		c8.8,20,13.9,41.2,21.8,61.5c0.1,0.4,0.2,0.9,0.4,1.4c5.9,22.5,14.5,44.2,18.6,67.2c0.3,1.4,0.9,2.8,1.4,4.2
		c4.5,11.4,6.8,23.2,8.9,35.2c1.7,9.5,4.3,18.9,6.3,28.3c2.4,11.4,4.8,22.7,6.8,34.2c2,11.4,2.9,23.2,5.3,34.5
		c4.6,21.9,7.6,44,9.3,66.3c1.3,17.9,2,35.8,3.9,53.7c6.3,62.5,6.3,125,1.5,187.5c-1.2,15.9-2.5,31.9-3.6,47.9
		c-2.1,31-5.1,61.9-12.1,92.3c-2.2,9.4-2.7,19.2-4.2,28.8c-1.5,9.5-2.6,19.3-5.3,28.5c-4.1,14-6.5,28.3-9.7,42.5
		c-5.5,24-12.5,47.8-19.1,71.6c-2.5,9.3-5.6,18.6-8.5,27.7c-5.8,18-12.4,35.7-18.4,53.6c-3.5,10.4-8.7,20.5-11.7,31.2
		c-0.9,3.2-2.5,6.3-4,9.3c-7.6,15.7-12.3,32.6-21,47.8c-0.7,1.2-0.9,2.8-1.5,4.1c-1.9,4.4-3.9,8.9-5.9,13.3
		c-2.8,6.2-5.7,12.3-8.6,18.4c-1.7,3.5-3.2,7.1-5,10.5c-7.1,13.7-14.3,27.5-21.6,41.1c-7.1,13.2-14.3,26.4-21.7,39.4
		c-6.8,11.7-13.9,23.3-21,34.8c-7.6,12.3-15.2,24.8-23.4,36.8c-10.3,15.3-20.8,30.4-31.6,45.3c-16.8,23.1-33.4,46.5-51.4,68.6
		c-19,23.3-39.5,45.3-59.5,67.7c-7.1,7.9-14.7,15.5-21.8,23.4c-6.7,7.5-6.9,12.7-1.1,20.8c2.3,3.1,5,5.9,7.8,8.6
		c28.8,28.8,57.7,57.5,86.5,86.4c62,62.1,124.2,124.1,185.9,186.6c13.9,14.1,18.6,10.7,29.1-0.9c27.7-30.5,55.9-60.4,82.2-92.3
		c26.6-32.1,52.1-65,77.3-98.3c17.5-23.2,33.2-47.7,49.6-71.7c5.2-7.6,9.9-15.5,14.9-23.3c8.5-13.5,17.2-26.9,25.6-40.6
		c6.1-9.9,11.8-20,17.7-30c7.1-12.1,14.5-24,21.3-36.3c9-16.1,17.5-32.3,26-48.6c5.8-11.1,12.2-22.1,17-33.7
		c6-14.3,14.9-27.2,19.2-42.3c0.7-2.7,2.8-5,4.2-7.6c2-3.9,4.2-7.7,5.5-11.9c5.5-16.5,15.9-31.1,20-48.3c0.2-0.9,0.9-1.7,1.3-2.6
		c7.1-17.5,14.3-35,21.4-52.4c0.5-1.3,0.9-2.8,1.2-4.2c5.4-18.1,14.2-35,17.9-53.7c0.3-1.4,1.1-2.7,1.7-4
		c9.5-22.4,14.7-46.1,22.1-69.1c3.3-10.1,5.9-20.5,9-30.7c1.1-3.7,2.9-7.3,3.5-11.1c3.1-19.7,8.4-38.8,14.1-57.9
		c0.8-2.8,1.2-5.7,1.7-8.5c3.1-14.7,6.2-29.4,9.2-44.1c1.4-6.6,3.1-13.3,4-20c2.5-20.7,5.9-41.3,10.5-61.7c2.1-9.4,3-19.2,4-28.8
		c1.5-14.5,2.2-29.1,4.2-43.5C6371.9,2721.4,6374.7,2655.5,6374.5,2589.4z"/>
	<path d="M8192,2815.1c-3.3,1.6-5.2,4.3-5.5,7.9c-0.9,7.7-2.1,15.4-2.6,23.2c-2,28.5-3.6,57.2-5.8,85.6c-1.2,15.9-3.6,31.8-5.4,47.7
		c-2.3,19.7-4.5,39.5-6.9,59.3c-2.3,18.3-4.6,36.6-7.1,54.8c-2.4,17.8-5,35.5-7.7,53.3c-2,13-4.2,25.9-6.3,38.7
		c-2.5,15.3-5.1,30.6-7.8,45.9c-2,11.4-4.2,22.9-6.4,34.3c-2.5,13.3-5.2,26.7-7.7,40c-0.3,1.5-0.2,2.9-0.7,4.3
		c-8.7,32.3-12.7,65.6-22.1,97.8c-2.3,7.9-3.5,16.1-5.4,24.1c-2.7,11.3-5.5,22.6-8.3,33.9c-6.8,26.7-13.7,53.5-20.5,80.2
		c-0.4,1.4-0.4,2.9-0.9,4.3c-6.8,23.2-13.7,46.5-20.5,69.6c-0.3,0.9-0.9,1.7-1.1,2.7c-5.2,22.7-13.7,44.4-20.2,66.7
		c-2.2,7.4-4.7,14.7-7.2,22.1c-0.3,0.9-0.9,1.7-1.2,2.7c-5.2,20.2-13.2,39.5-19.6,59.3c-0.1,0.4-0.2,0.9-0.4,1.4
		c-7.4,20.5-14.8,40.9-22.2,61.4c-0.4,0.9-0.9,1.7-1.2,2.6c-6.3,17.3-12.5,34.6-18.9,51.8c-2.7,7.3-5.7,14.4-8.5,21.6
		c-1.5,3.6-3.4,7.1-4.4,10.8c-2.5,9.4-6.2,18.4-10.8,26.9c-2,3.8-3,8.2-4.6,12.2c-2.9,7.1-5.9,14.3-8.9,21.4c-1.7,4-3.4,8-5.1,12
		c-2.8,6.7-5.7,13.3-8.6,20c-0.6,1.3-1.5,2.5-2,3.9c-6.3,15.2-12.6,30.4-18.9,45.6c-1.5,3.6-2.6,7.4-4.6,10.6
		c-4.7,7.5-8.3,15.3-10.9,23.7c-0.9,3.2-2.8,6.2-4.3,9.2c-1.3,2.5-3.1,5-4.3,7.6c-6.4,14.1-12.7,28.3-19.1,42.3
		c-1.8,3.9-4.1,7.7-6,11.6c-2.2,4.3-4.3,8.7-6.5,13c-2.8,5.7-5.5,11.4-8.2,17c-1.3,2.6-3,5-4.1,7.7c-7.5,17.9-17,34.7-26.3,51.8
		c-6.9,12.7-13,26-19.7,38.9c-5.5,10.8-11.4,21.3-17.2,32c-9.1,16.5-18.1,33.1-27.5,49.5c-6.5,11.4-13.5,22.4-20.2,33.6
		c-6.8,11.7-13.4,23.6-20.2,35.3c-6.1,10.5-12.3,20.8-18.7,31.2c-12.5,20.2-24.9,40.3-37.8,60.3c-16.8,26-34.1,51.8-51.2,77.6
		c-5.9,8.9-11.9,17.7-17.9,26.5c-7.1,10.4-14,20.9-21.3,31.2c-17.9,25.3-35.9,50.5-54.2,75.6c-10.3,14.1-21,27.8-31.7,41.6
		c-18.1,23.4-36,46.9-54.5,70c-14.5,18.2-29.6,35.9-44.5,53.7c-11.2,13.4-22.4,26.8-33.9,39.9c-17.2,19.7-34.6,39.3-52.1,58.8
		c-39.5,44.1-79.7,87.5-121,129.8c-1,1-1.9,2.2-3,3.2c-5.4,5-10.9,5.7-17.1,1.3c-3.9-2.8-7.4-6.2-10.9-9.6
		c-16.8-16.7-33.6-33.6-50.4-50.5c-33.3-33.3-66.6-66.5-99.8-99.8c-40.8-40.9-81.5-81.8-122.3-122.6c-1.4-1.4-2.8-2.7-4.1-4.2
		c-7.1-8.2-7.1-13.9,0.2-21.6c9.8-10.1,19.6-20.2,29.3-30.3c32.7-33.8,65-68,95.5-103.9c15.7-18.4,32.3-36.2,48.1-54.5
		c11.4-13.2,22.4-26.8,33.2-40.4c22.4-28,44.6-56.1,66.6-84.4c11-14.1,21.7-28.5,32.2-43.1c17.9-24.8,35.8-49.5,53.2-74.5
		c12.5-17.8,24.3-36.2,36.3-54.3c12-18.2,24-36.3,35.8-54.8c14.6-22.9,29.1-45.9,43.1-69c7.1-11.6,13-23.8,19.7-35.5
		c7-12.2,14.5-24,21.6-36.1c6.1-10.4,12.2-20.9,18-31.5c8.8-16.2,17.5-32.3,25.9-48.7c6.8-13.3,13-27,19.8-40.4
		c6.6-13,13.9-25.5,20.1-38.6c7.2-15.3,16.4-29.6,21.8-45.8c1.4-4.1,3.6-7.9,5.5-11.9c2.6-5.7,5.2-11.4,7.8-17.2
		c0.6-1.3,0.8-2.8,1.5-4.2c6.8-14.4,13.6-28.9,20.4-43.3c1.7-3.5,3.3-7,5-10.5c3.6-7.9,7.1-15.9,10.7-23.8c0.2-0.4,0.5-0.9,0.7-1.3
		c6.3-16.2,12.5-32.5,18.9-48.6c7.1-18,14.5-35.9,21.5-54c7.2-18.5,14.4-36.9,21.2-55.6c7.6-20.9,14.6-42,21.9-63.1
		c0.1-0.4,0.4-0.9,0.6-1.3c5.3-19.7,12.5-38.7,19.3-57.8c9.2-25.6,15.3-52,23.2-77.9c6.6-21.8,12.1-43.8,18.8-65.6
		c3.3-10.6,6-21.5,8.7-32.3c2.3-8.9,4.2-17.9,6.3-26.9c2.4-10.4,4.7-20.8,7-31.2c2.5-11.4,5.1-22.6,7.7-34
		c2.2-9.5,4.4-18.9,6.6-28.3c2.7-11.8,5.5-23.6,7.9-35.5c2-10,2.9-20.2,5.4-30.1c4.4-17.5,7.1-35.2,9.3-53
		c1.3-10.6,3.3-21.1,5.9-31.5c4-16.1,6.3-32.3,8.1-48.8c1.8-16.9,4.4-33.6,6.6-50.5c2.2-16.8,4.4-33.6,6.4-50.5
		c3.1-26.9,6.3-54,9.1-81c1.8-17.8,3.4-35.8,4.3-53.7c2.7-54.8,6.8-109.4,7.1-164.3c0.1-12.6,1.2-25.2,1.7-37.8
		c1.7-42.7-0.2-85.3-1.2-128c-1.2-49-4.4-97.9-6.6-146.8c-1.7-38.3-4.1-76.5-10.5-114.4c-2.3-13.3-2.6-27-4.2-40.6
		c-1.7-15.9-3.6-31.8-5.8-47.6c-2.7-20.2-5.5-40.3-8.5-60.5c-1.5-10.6-2.9-21.2-5.4-31.5c-4.1-17-7-34.2-8.9-51.6
		c-0.7-7.2-1.9-14.4-3.3-21.6c-4.1-21-8.2-41.9-12.5-62.8c-0.9-4.7-2.5-9.4-3.6-14.1c-3.1-13.3-5.7-26.5-9-39.7
		c-7.6-30-12.8-60.7-21.9-90.4c-7.4-24-13.3-48.6-20-72.8c-2.4-8.9-5.1-17.7-7.4-26.6c-6.2-24.4-14.5-48.2-22.1-72.2
		c-6-18.9-12.4-37.7-18.7-56.5c-3.4-10.1-7.6-19.9-9.8-30.4c-0.2-0.9-0.4-1.9-0.7-2.8c-6.8-17.6-13.7-35.2-20.6-52.7
		c-0.4-0.9-0.9-1.7-1.3-2.6c-6.3-16.7-12.6-33.5-18.8-50.3c-0.5-1.4-0.6-2.8-1.2-4.2c-7.2-18-14.4-35.9-21.7-53.8
		c-2-5-4.1-9.8-6.2-14.7c-2.1-4.9-4.3-9.8-6.4-14.6c-2.7-6.2-5.4-12.4-8.1-18.6c-1.7-4-3.5-8-5.2-11.9c-2.8-6.2-5.6-12.3-8.3-18.5
		c-0.6-1.3-0.9-2.8-1.5-4.1c-7.3-15.8-14.5-31.7-21.9-47.4c-6.8-14.5-13.6-28.9-20.5-43.3c-1.5-3.1-3.1-6-4.7-9
		c-2.8-5.6-5.7-11.2-8.5-16.8c-2.2-4.3-4.4-8.7-6.6-13c-2.4-4.7-4.9-9.5-7.3-14.2c-2.6-5.2-5.2-10.3-7.9-15.5c-1.5-3-3.5-5.8-4.8-9
		c-6.9-16.6-16-32-25.1-47.5c-6.6-11.3-12.6-22.9-19.1-34.3c-7.4-13-15-26-22.4-39c-5.3-9.2-10.5-18.6-15.9-27.7
		c-11.7-19.6-23.2-39.2-35.2-58.5c-11.3-18.1-23.1-35.8-34.6-53.7c-5.2-8.2-10.1-16.5-15.6-24.5c-21.3-31.2-42.7-62.4-64.3-93.4
		c-13.3-19.1-26.7-38.1-40.9-56.5c-20.9-27.3-42.5-54-63.8-81c-5.4-6.8-10.5-14-16-20.7c-16.5-19.7-33-39.4-49.7-58.9
		c-11.9-14.1-24.5-27.5-36.1-41.8c-20.9-25.6-43.9-49.2-66.8-72.9c-18.9-19.5-37.6-39.2-56.4-58.8c-1.3-1.4-2.8-2.8-3.9-4.3
		c-4.5-6.1-4.5-12.9,0.1-18.7c1.2-1.5,2.7-2.8,4-4.2c75.8-75.7,151.7-151.5,227.5-227.3c17.5-17.5,34.9-35.1,52.4-52.6
		c3.4-3.4,7-6.7,10.9-9.5c3.9-2.8,8.3-2.7,12.1,0.5c2.9,2.5,5.7,5.3,8.4,8.1c32.7,34.5,65.5,68.8,97.9,103.6
		c17.2,18.4,33.6,37.6,50.2,56.5c22.3,25.6,44.6,51.1,66.5,77c11.9,14.1,22.9,28.8,34.4,43.3c10.8,13.7,21.6,27.4,32.4,41.1
		c12.6,16,25.5,31.7,37.6,48.1c18,24,35.8,48.3,53.2,72.7c16.9,23.7,33.4,47.6,49.7,71.6c17,24.8,33.9,49.6,50.3,74.7
		c11.7,17.8,22.4,36.3,33.6,54.3c7.4,11.9,14.9,23.8,22.2,35.8c6.7,11.2,13.1,22.6,19.7,33.9c7.1,12.2,14.3,24.2,21.3,36.3
		c6.3,10.9,12.5,21.8,18.6,32.8c8.7,15.7,17.4,31.3,25.9,47c6.6,12.4,12.9,24.9,19.4,37.4c7.1,13.8,14.3,27.5,21.4,41.2
		c1.1,2.2,2.5,4.2,3.6,6.3c9.2,18.6,18.7,37.1,27.7,55.9c6.7,14,12.7,28.3,19,42.4c1.8,3.9,3.8,7.9,5.8,11.7c2.1,4.4,4.4,8.6,6.5,13
		c3.3,7,6.5,14.1,9.8,21c1.2,2.6,2.9,5.2,3.6,7.9c2.7,9.4,7.5,17.8,11.5,26.7c7.4,16.3,13.5,33.1,20.4,49.7
		c6.7,16.1,13.7,32,20.5,48.1c1.7,4,3.3,8,5,12.1c3.6,9,7.2,18,10.7,26.9c1.6,4.1,2.8,8.2,4.4,12.3c2.7,7.3,5.5,14.5,8.2,21.8
		c7,19.1,14,38.2,20.9,57.2c7.4,20.5,14.6,41,21.9,61.5c0.7,1.8,1.9,3.5,2.3,5.4c3.8,21.1,13.3,40.5,19,61
		c5.9,21,12.7,41.7,18.8,62.6c3.3,11.6,6.9,23.2,10.2,34.8c6.1,21.5,11.7,43,17.6,64.5c4.2,14.9,7.7,30,11.7,44.9
		c5.8,22.1,10.7,44.3,16.1,66.4c4.4,17.9,9.3,35.6,11.7,54c0.5,3.9,1.2,7.7,2.4,11.4c6.3,18.5,9.3,37.6,11.9,56.9
		c1.3,9.6,4.1,18.9,6,28.5c2,10,4.5,19.9,5.7,30c2.2,18.4,5,36.6,9.2,54.5c1.4,5.7,2.7,11.4,3.2,17.2
		c4.9,51.7,17.2,102.4,19.7,154.4c0.4,6.8,1.4,13.5,2.6,20.2c5.4,29.6,7.1,59.7,9,89.7c1.6,25.6,3.9,51.3,6,76.9
		c0.4,4.8,0.6,9.9,6,12.3C8192,2508.4,8192,2661.8,8192,2815.1z"/>
	<path d="M7284.3,2602.2c-0.8,36.4-1.7,81.5-3,126.6c-0.4,13.1-2,26.1-3.1,39.2c-2.8,34.3-5.4,68.7-8.5,103
		c-1.6,17.8-4.2,35.6-6.3,53.5c-2.6,21.2-5.2,42.4-8,63.5c-1.6,12-3.1,24.1-5.7,35.9c-3.8,17-7,34.2-8.8,51.6
		c-0.8,7.7-2.1,15.4-3.6,23c-3.9,20.5-7.1,41.1-12.5,61.3c-6.1,23-10.6,46.2-15.8,69.5c-3.7,16.5-9.1,32.7-12,49.4
		c-0.7,3.8-1.9,7.6-3.3,11.1c-4.6,11.3-7.1,23.1-9.9,34.9c-5.1,21.2-11.9,41.9-17.6,62.9c-3.4,12.5-9,24.5-11.9,37.3
		c-0.9,3.7-2.5,7.3-3.9,10.9c-0.9,2.3-2.1,4.4-2.9,6.7c-6.5,19.8-12.8,39.6-19.2,59.4c-0.7,2.3-0.9,4.8-1.8,7.1
		c-6.7,17.1-13.5,34.2-20.2,51.3c-0.4,0.9-0.9,1.7-1.3,2.6c-6.6,17.7-13.2,35.3-19.7,53c-1.5,4.1-2.8,8.2-4.5,12.2
		c-3.3,8-6.8,16-10.4,24c-6.9,15.4-14.1,30.8-21,46.2c-2.2,4.9-4.2,9.8-6.4,14.6c-2.3,5.3-4.7,10.6-7,15.9
		c-2.2,4.9-4.4,9.7-6.6,14.6c-1.3,3.1-2.1,6.5-3.6,9.5c-6.8,13.3-14,26.6-20.8,39.9c-4.9,9.5-9.7,18.9-14.3,28.5
		c-6.6,13.5-12.9,27.1-19.6,40.6c-4.7,9.5-9.8,18.9-15.1,28.2c-6.6,11.8-13.6,23.4-20.4,35.2c-6.3,10.9-12.7,21.7-18.7,32.8
		c-12.4,23.1-25.9,45.4-40.2,67.4c-11.9,18.3-22.9,37.1-34.5,55.5c-5.4,8.6-10.9,17.2-16.7,25.6c-18.5,26.7-36.6,53.6-55.8,79.8
		c-19.2,26.2-39.3,51.7-59,77.4c-11.8,15.4-23.7,30.7-35.9,45.7c-9.7,12.1-19.7,24-29.8,35.8c-17,19.9-33.9,39.8-51.4,59.3
		c-18.1,20.2-36.8,39.9-55.4,59.7c-10.9,11.7-21.9,23.3-32.9,35c-1.7,1.7-3.3,3.6-5.1,5.2c-8.4,7.6-16.1,7.6-24.4-0.2
		c-8.4-7.9-16.7-16.2-25-24.3c-58-56.5-116.1-112.9-174.2-169.5c-28.2-27.4-56.4-54.8-84.5-82.1c-3.5-3.3-7-6.8-10-10.5
		c-3.6-4.4-3.5-8.7,0.1-13.3c1.8-2.3,3.9-4.3,6-6.3c20.6-21.3,41.4-42.3,61.7-63.8c13-13.8,25.3-28,37.7-42.3
		c16.5-19.1,33-38.2,49-57.6c13-15.7,25.3-31.9,37.9-47.8c3.9-5,8.1-9.7,11.8-14.7c10.4-14,20.7-28,30.9-42.2
		c12.7-17.7,25.5-35.4,38.1-53.2c5.9-8.3,11.4-16.8,16.9-25.4c6.8-10.6,13.3-21.4,20-32.1c11.7-18.4,23.6-36.6,35-55.2
		c6.8-11.1,12.7-22.8,19.3-34.2c7.2-12.6,14.8-25,22-37.6c5.5-9.7,10.7-19.5,15.9-29.3c5.4-10.3,10.6-20.7,15.8-31
		c8.7-17.3,17.5-34.5,26-51.9c4.9-10,9.2-20.2,13.8-30.4c6.7-15.1,13.3-30.1,20-45.1c2-4.4,4-8.8,5.8-13.3
		c2.8-6.7,5.5-13.4,8.2-20.1c0.2-0.4,0.2-0.9,0.4-1.4c7.3-17.9,14.6-35.8,21.8-53.7c1.8-4.5,3.6-9,5.3-13.5c3-7.6,5.9-15.4,8.8-23
		c0.5-1.4,1.3-2.6,1.7-4c6.4-19.8,12.7-39.6,19.1-59.4c1-3.2,1.4-6.8,2.9-9.8c6.3-12.7,10.1-26.2,13-40.1c0.8-3.8,2-7.5,3.6-11.1
		c4.4-9.8,6.8-20.2,8.8-30.7c0.9-4.7,1.5-9.8,3.4-14.1c10.3-23.7,12.1-50,20.8-74.1c1.6-4.5,2.3-9.5,2.9-14.3
		c1.7-13.5,5.1-26.7,9-39.7c2.5-8.3,4-17,5.6-25.6c2.8-14.8,5.5-29.6,8.3-44.3c0.7-3.3,1.7-6.6,2.3-9.9c5.5-36,11.7-71.8,16.4-107.8
		c4.7-36,8.5-72.2,11.7-108.5c2.5-29.9,3.9-60,5.1-90.1c1.2-29.1,1.5-58.2,2.2-87.3c0.1-4.4,0.4-8.7,0.2-13.1
		c-2-61.1-1.1-122.3-5.8-183.3c-1.7-21.3-4.7-42.4-7-63.6c-2.3-21.7-4.4-43.4-6.7-65.1c-0.9-8.7-1.6-17.5-3.6-25.9
		c-5-21.8-8-43.9-10.9-66c-0.9-6.7-2.5-13.3-3.9-20c-2-10-4.7-19.9-6.1-29.9c-2.5-17.8-5.6-35.5-11.7-52.5c-0.1-0.4-0.3-0.9-0.4-1.4
		c-3.9-27.5-11.6-54-18.6-80.7c-6.3-23.9-12.8-47.7-19.4-71.5c-3-10.7-6.3-21.4-9.8-32c-6.9-20.7-14.5-41.1-21-61.8
		c-6.2-19.9-13.9-39.2-20.8-58.8c-0.7-1.8-0.8-3.9-1.7-5.6c-7.1-13.8-11.8-28.6-16.9-43.3c-3.3-9.6-7.4-18.9-11.1-28.4
		c-1.2-3.1-2.8-6.1-4.3-9.2c-3-6.6-6-13.2-8.9-19.8c-0.4-0.9-0.6-1.9-0.9-2.8c-7.1-15.4-14.1-30.8-21.1-46.2
		c-2-4.4-3.8-8.9-5.8-13.3c-2.6-5.7-5.4-11.4-8.2-17c-6.8-13.9-13.7-27.7-20.6-41.6c-2.2-4.3-4.3-8.7-6.6-13
		c-1.4-2.5-3.3-4.9-4.4-7.5c-11.9-27.2-27.4-52.3-42.1-77.9c-11.1-19.3-21.7-38.9-32.8-58.2c-5.8-10-12.5-19.7-18.7-29.4
		c-12.3-19.2-24.3-38.5-37-57.4c-11.9-17.7-24.4-35-36.6-52.4c-5.6-7.9-11.6-15.6-16.7-23.7c-12.3-19.3-27.3-36.4-41.3-54.4
		c-10.4-13.4-20.5-27-31.2-40.2c-12.5-15.4-25.6-30.4-38.2-45.7c-33.7-40.8-70.5-78.7-107.3-116.7c-11.8-12.2-11.7-18.4,0.9-30.4
		c24-23.3,48.3-46.4,72.3-69.7c46.2-44.9,92.4-90,138.6-135c24.3-23.7,48.6-47.4,73-71.1c1.7-1.7,3.4-3.5,5.3-5
		c6-4.6,12.7-4.5,18.7,0.1c1.9,1.5,3.5,3.3,5.1,5.2c21,22.2,42.2,44.3,62.8,66.7c12.5,13.5,24.2,27.8,36.3,41.7
		c11.4,13.2,23.2,26.1,34.3,39.5c17,20.5,33.9,41.1,50.5,61.9c17.5,22,34.7,44.3,51.8,66.5c5.9,7.6,11.7,15.5,17.2,23.4
		c16.1,23,31.6,46.5,48.2,69.1c15.5,21.1,29.1,43.4,43,65.5c11.3,18.1,23.4,35.6,34.7,53.7c7.2,11.5,13.8,23.4,20.5,35.1
		c7.3,12.5,14.7,25.1,21.9,37.6c6.9,12.2,13.6,24.5,20.5,36.8c7.1,12.7,14.1,25.4,21,38.1c1.9,3.4,3.6,6.9,5.3,10.3
		c3.1,6,6,12.1,9.2,18.1c1.1,2.2,2.4,4.2,3.5,6.4c9,17.7,18.2,35.2,26.8,53.1c6.9,14.3,13,29.1,19.5,43.7c1.4,3.1,2.5,6.4,4.3,9.2
		c4.2,6.6,7.4,13.6,9.5,21.1c0.9,3.2,2.6,6.3,4,9.3c3.3,7.5,6.8,15,10.2,22.4c1.6,3.5,3.2,7.1,4.9,10.6c1.1,2.2,2.7,4.1,3.6,6.3
		c6.5,16.2,12.8,32.4,19.2,48.6c0.1,0.4,0.2,0.9,0.4,1.4c7.1,18,14.3,36,21.4,53.9c0.5,1.3,1.5,2.5,2,3.9
		c6.3,17.8,12.5,35.6,18.7,53.5c0.3,0.9,0.4,1.9,0.7,2.8c7.1,20.6,14.6,41.1,21.2,61.8c7.1,22.6,16.2,44.6,21,67.9
		c0.1,0.5,0.1,0.9,0.3,1.5c6.9,24.2,13.9,48.4,20.8,72.6c2.6,9.3,5.1,18.6,7.4,28c0.9,3.8,0.8,7.9,2.1,11.4
		c10.6,28.8,11.7,60,22.1,88.9c1.3,3.6,1.8,7.5,2.5,11.4c1,5.8,1.4,11.6,2.7,17.3c9.1,38.2,12.7,77.5,21.5,115.8
		c2.3,9.9,3.8,20,4.7,30.1c2.1,24.7,5,49.2,9.2,73.6c2.9,16.7,4.4,33.6,5.9,50.5c2.8,30.4,4.5,61,7.6,91.3
		c3.3,32.8,4.4,65.8,5.3,98.8C7283.6,2534.3,7283.7,2563.9,7284.3,2602.2z"/>
	<path d="M6374.5,2589.4c0.1,66-2.5,131.9-11.7,197.4c-2,14.4-2.6,29-4.2,43.5c-1,9.6-1.9,19.4-4,28.8c-4.6,20.4-7.9,40.9-10.5,61.7
		c-0.8,6.7-2.6,13.3-4,20c-3.1,14.7-6.2,29.4-9.2,44.1c-0.6,2.8-0.9,5.8-1.7,8.5c-5.7,19.1-10.9,38.2-14.1,57.9
		c-0.6,3.8-2.4,7.4-3.5,11.1c-3,10.2-5.6,20.5-9,30.7c-7.5,23-12.6,46.8-22.1,69.1c-0.6,1.3-1.4,2.6-1.7,4
		c-3.7,18.6-12.5,35.6-17.9,53.7c-0.4,1.4-0.7,2.8-1.2,4.2c-7.1,17.5-14.3,35-21.4,52.4c-0.4,0.9-1.1,1.7-1.3,2.6
		c-4.1,17.2-14.3,31.7-20,48.3c-1.4,4.1-3.6,7.9-5.5,11.9c-1.3,2.6-3.4,5-4.2,7.6c-4.2,15.1-13.2,28-19.2,42.3
		c-4.8,11.6-11.1,22.6-17,33.7c-8.6,16.3-17.1,32.6-26,48.6c-6.8,12.3-14.2,24.2-21.3,36.3c-5.9,10-11.7,20.1-17.7,30
		c-8.4,13.6-17,27-25.6,40.6c-5,7.8-9.7,15.7-14.9,23.3c-16.4,24-32.1,48.5-49.6,71.7c-25.1,33.3-50.7,66.1-77.3,98.3
		c-26.3,31.8-54.5,61.8-82.2,92.3c-10.5,11.6-15.1,15-29.1,0.9c-61.7-62.5-123.9-124.4-185.9-186.6c-28.8-28.8-57.7-57.5-86.5-86.4
		c-2.8-2.8-5.5-5.5-7.8-8.6c-5.9-8-5.7-13.3,1.1-20.8c7.1-7.9,14.7-15.4,21.8-23.4c20-22.4,40.5-44.4,59.5-67.7
		c18.1-22.1,34.5-45.5,51.4-68.6c10.9-14.9,21.3-30,31.6-45.3c8.1-12,15.7-24.5,23.4-36.8c7.1-11.5,14.3-23.1,21-34.8
		c7.5-13,14.6-26.2,21.7-39.4c7.4-13.6,14.5-27.4,21.6-41.1c1.8-3.4,3.4-7,5-10.5c2.8-6.1,5.8-12.3,8.6-18.4c2-4.4,4-8.8,5.9-13.3
		c0.6-1.3,0.7-2.8,1.5-4.1c8.7-15.2,13.5-32.1,21-47.8c1.5-3.1,3.1-6.1,4-9.3c3.1-10.8,8.2-20.8,11.7-31.2
		c6-17.9,12.6-35.6,18.4-53.6c2.9-9.2,6-18.4,8.5-27.7c6.6-23.8,13.5-47.6,19.1-71.6c3.2-14.1,5.6-28.5,9.7-42.5
		c2.7-9.2,3.8-19,5.3-28.5c1.5-9.6,2-19.4,4.2-28.8c6.9-30.4,10-61.2,12.1-92.3c1.1-15.9,2.4-31.9,3.6-47.9
		c4.8-62.6,4.7-125-1.5-187.5c-1.8-17.8-2.5-35.8-3.9-53.7c-1.7-22.3-4.7-44.3-9.3-66.3c-2.4-11.4-3.3-23-5.3-34.5
		c-2-11.4-4.4-22.8-6.8-34.2c-2-9.5-4.7-18.9-6.3-28.3c-2.1-12-4.4-23.9-8.9-35.2c-0.5-1.4-1.2-2.7-1.4-4.2
		c-4.2-22.9-12.7-44.7-18.6-67.2c-0.1-0.4-0.1-0.9-0.4-1.4c-7.9-20.2-13-41.5-21.8-61.5c-1.7-4-3.2-8.1-4.8-12.2
		c-3.6-9-7.1-18-10.6-27c-1.2-3.1-2.8-6.2-3.7-9.5c-2.1-8-5.2-15.7-9.7-22.6c-1.3-2-2.3-4.3-3.3-6.5c-6.2-14.2-12.1-28.5-18.6-42.6
		c-5.3-11.4-11.1-22.6-17-33.6c-8.4-15.8-16.7-31.7-25.8-47.1c-11.3-19.2-23.1-38.1-34.9-56.9c-5.6-9-11.4-18-17.4-26.8
		c-8.4-12.4-17.2-24.6-25.8-36.9c-5.3-7.5-10.4-15.2-15.9-22.6c-22.4-29.8-45.7-59.1-70.6-86.8c-13.3-14.8-26.9-29.2-40.4-43.8
		c-3.3-3.6-6.7-7.1-9.6-10.9c-5.2-7-5-11.3,0.7-18.2c2.5-3,5.2-5.7,8-8.4c86.1-86.1,172.1-172.2,258.3-258.3
		c6.2-6.2,12.1-12.6,18.6-18.4c7.2-6.6,12-6.7,19.1-0.2c8.5,7.9,16.6,16.3,24.6,24.8c21,22.1,41.9,44.5,60.9,68.5
		c9.3,11.8,19.7,22.6,29.1,34.4c13.4,16.6,26.6,33.4,39.4,50.4c17.7,23.7,35.4,47.3,52.4,71.5c11.7,16.7,22.1,34.2,33.1,51.3
		c4.7,7.4,9.5,14.6,14.1,22.1c7.6,12.4,15.3,24.7,22.6,37.2c7.1,12.2,13.7,24.5,20.5,36.8c7.2,13.1,14.4,26.3,21.5,39.5
		c2.3,4.2,4.2,8.7,6.4,13c2.1,4.4,4.3,8.7,6.5,13c2.6,5.2,5.2,10.3,7.9,15.5c2,3.9,3.8,7.9,5.7,11.8c3.1,6.6,6.3,13,9.3,19.6
		c2,4.4,4.2,8.7,6.1,13.2c2.4,5.3,4.7,10.6,7,15.9c0.7,1.7,0.9,3.9,1.9,5.5c8.4,13.8,12.5,29.4,19.4,43.8c0.9,1.7,2,3.4,2.5,5.2
		c4.8,15.2,11.2,29.9,17,44.8c3.9,9.9,8.2,19.8,11.1,29.9c5.7,19.1,12.9,37.5,18.6,56.5c2.5,8.3,5.4,16.6,7.9,24.9
		c2.1,6.9,4.1,13.9,6,20.9c3,10.7,6,21.5,9,32.2c0.9,3.3,2.5,6.4,3.1,9.7c4.2,27.9,15.4,54.1,18.3,82.3c0.5,5.2,1.9,10.6,3.5,15.6
		c5.3,16.2,7.7,33,9.8,49.9c1.2,10.1,2.6,20.2,4.9,30.1c4.1,18.1,6.7,36.2,8.4,54.6c2.5,26.6,5.2,53.1,8.1,79.6
		c3.2,29.9,5.5,59.9,5.5,90C6373.6,2548.7,6374.1,2569.1,6374.5,2589.4z"/>
</g>
<g class="st1">
	<path d="M472.8,6139.5v-575.3h248c28.1,0,54,5.7,77.8,17c23.7,11.3,44.3,26.6,61.6,45.7c17.3,19.2,30.7,40.6,40.1,64.4
		c9.5,23.7,14.2,47.8,14.2,72.1c0,34-8,66.1-23.9,96.3c-15.9,30.2-38.1,54.9-66.5,74.1s-61.5,28.8-99.3,28.8h-94.1v177H472.8z
		 M630.8,5824.7h83.5c6.5,0,12.7-1.9,18.6-5.7c6-3.8,10.9-10.2,15-19.4c4.1-9.2,6.1-21.3,6.1-36.3c0-16.2-2.3-28.7-6.9-37.6
		c-4.6-8.9-10.3-15.1-17-18.6c-6.8-3.5-13.4-5.2-19.9-5.2h-79.4V5824.7z"/>
	<path d="M963.6,5548.2h154V5970c0,15.7,3.3,27.7,10.1,36c6.8,8.4,16.6,12.5,29.6,12.5c6.5,0,13.5-1.1,21-3.2
		c7.6-2.1,14.6-5.1,21.1-9l19.4,113.5c-18.4,8.7-39,15.4-62,20.2c-22.9,4.8-44.7,7.3-65.2,7.3c-41.1,0-72.7-10.6-94.8-32
		s-33.2-51.7-33.2-91.1L963.6,5548.2L963.6,5548.2z"/>
	<path d="M1231,6012.8c0-28.2,7.9-53,23.5-74.5c15.7-21.6,37.4-38.4,65.2-50.6c27.8-12.2,59.6-18.4,95.2-18.4
		c16.7,0,32.6,1.4,47.4,4.1s27.7,6.8,38.5,12.2v-13c0-19.2-5.8-33.5-17.4-42.8c-11.7-9.3-30.4-14-56.3-14
		c-23.8,0-46.1,3.9-66.8,11.7c-20.8,7.9-42.5,19.3-65.2,34.4l-44.6-95.6c28.6-18.4,58.8-32,90.4-40.9c31.6-8.9,65.5-13.4,101.7-13.4
		c67.6,0,119.8,14.9,156.9,44.8c37.1,29.9,55.6,74.1,55.6,132.7v80.8c0,14.3,2.2,24.2,6.5,29.7c4.3,5.5,11.9,8.9,22.7,9.9v129.6
		c-12.5,2.7-24.2,4.7-35.2,6c-11.1,1.3-21,2-29.6,2c-27.5,0-48.5-5-62.8-15c-14.3-10-23.7-24.8-28-44.2l-3.3-15.4
		c-18.9,24.3-40.8,42.8-65.7,55.5c-24.8,12.7-51.3,19.1-79.4,19.1s-53.5-5.8-76.2-17.5s-40.5-27.7-53.5-48.2
		C1237.5,6061.3,1231,6038.3,1231,6012.8z M1480.6,6021.9c6-4.1,10.8-8.6,14.6-13.5c3.8-4.9,5.7-9.8,5.7-15v-29.9
		c-8.7-3.1-18.5-5.6-29.6-7.6c-11.1-2-21-3.1-29.6-3.1c-18.4,0-33.9,4.4-46.6,13c-12.7,8.7-19.1,19.7-19.1,33
		c0,7.1,2.2,13.7,6.5,19.6s10.3,10.5,17.8,13.8s16.2,5,25.9,5c9.2,0,18.8-1.4,28.8-4.2C1465.1,6030.2,1473.6,6026.5,1480.6,6021.9z"
		/>
	<path d="M1717.1,6182.2c12.5,4.3,23.9,7.7,34.4,10.1c10.6,2.4,20.1,3.6,28.8,3.6c11.4,0,20.8-2,28.4-6c7.6-4,13.5-10.3,17.8-18.6
		c4.3-8.4,7-18.5,8.1-30.4l-154.8-422.4h158l81,265.8l65.7-265.8H2128l-144.3,472.9c-8.1,27.3-21.3,51.3-39.7,71.9
		c-18.4,20.6-40.3,36.7-65.7,48.3c-25.4,11.6-52.6,17.3-81.9,17.3c-13.5,0-26.9-1.2-40.1-3.6c-13.3-2.5-26.4-6.3-39.3-11.7V6182.2z"
		/>
	<path d="M2166.7,5548.2h154V5970c0,15.7,3.3,27.7,10.1,36c6.8,8.4,16.6,12.5,29.6,12.5c6.5,0,13.5-1.1,21-3.2
		c7.6-2.1,14.6-5.1,21.1-9l19.4,113.5c-18.4,8.7-39,15.4-62,20.2c-22.9,4.8-44.7,7.3-65.2,7.3c-41.1,0-72.7-10.6-94.8-32
		c-22.1-21.3-33.2-51.7-33.2-91.1L2166.7,5548.2L2166.7,5548.2z"/>
	<path d="M2457.5,5677.8v-129.7h154v129.7H2457.5z M2457.5,6139.5v-426h154v426H2457.5z"/>
	<path d="M2860.2,6147.5c-37.3,0-73.9-6.1-109.8-18.2c-35.9-12.2-66.3-29.9-91.2-53.1l52.6-94.8c26.4,17.3,52,30.8,76.6,40.6
		s46.9,14.6,66.8,14.6c11.4,0,19.7-1.3,25.1-3.9c5.4-2.6,8.1-7.1,8.1-13.3c0-4.8-1.9-8.7-5.7-11.9c-3.8-3.2-9.8-6.4-18.2-9.5
		c-8.4-3.1-19.1-6.6-32-10.3c-33.5-11.7-61.5-22.6-83.9-32.6c-22.4-10-39.2-22.4-50.2-37s-16.6-34.1-16.6-58.5
		c0-28.6,7.3-54,21.8-76c14.6-22,35.5-39.4,62.8-52.1c27.3-12.7,60.1-19.1,98.5-19.1c28.6,0,57.4,4.4,86.3,13.4
		c28.9,9,56.9,25,83.9,48.2l-58.3,94c-27-16.7-49.9-28.6-68.5-35.7c-18.6-7-35.2-10.6-49.8-10.6c-7.1,0-13.1,0.8-18.2,2.4
		c-5.2,1.6-9,3.9-11.7,7.1c-2.7,3.1-4.1,7.4-4.1,12.7s1.9,9.6,5.7,13c3.8,3.4,9.8,6.6,17.8,9.5c8.1,2.8,18.4,6.2,30.8,9.9
		c36.8,10.6,66.7,21.3,89.9,32c23.2,10.9,40.4,23.9,51.5,39.2c11.1,15.3,16.6,35.3,16.6,60.1c0,43.8-15.8,78.1-47.4,102.9
		C2957.9,6135,2914.8,6147.5,2860.2,6147.5z"/>
	<path d="M3389.3,6115c-14.1,6-29.1,11.5-45,16.6c-15.9,5.2-32.2,9-48.6,11.7c-16.5,2.7-32.6,4.1-48.2,4.1c-23.2,0-44.6-3.9-64-11.5
		c-19.4-7.6-35-20.4-46.6-38.2c-11.7-17.8-17.4-41.7-17.4-71.9v-191.4h-52.6v-115.9h52.6v-134h154v134h83.5v115.9h-83.5v136
		c0,13.5,3,23.1,8.9,28.5s14.1,8.2,24.3,8.2c7.6,0,16.2-1.3,25.9-4.1c9.8-2.7,19.4-6,29.2-9.8L3389.3,6115z"/>
	<path d="M3592.4,5929c0-41.5,7.9-78.6,23.9-111.3c15.9-32.7,37.9-58.5,66-77.3c28.1-18.9,60.2-28.3,96.5-28.3
		c27.5,0,52.9,6.3,76.2,19.1c23.2,12.7,40.8,30.1,52.6,52.3v-235.2h154v421.2c0,14.6,2.2,24.7,6.5,30.4c4.3,5.7,11.9,9,22.7,10.1
		v129.6c-26.5,5.4-48.1,8.1-64.8,8.1c-25.9-0.1-46.5-5-61.6-14.7c-15.1-9.8-24.8-24.6-29.2-44.6l-3.3-15.4
		c-14.6,25.9-34.3,44.9-59.2,56.7c-24.8,11.9-51.3,17.8-79.4,17.8c-29.2,0-56.1-5.3-80.6-15.9c-24.6-10.6-45.9-25.6-64-45.1
		c-18.1-19.4-32-42.5-41.7-69.4C3597.3,5990.2,3592.4,5960.9,3592.4,5929z M3908.6,5975.7v-73.3c-4.9-11.9-11.5-22.4-19.9-31.5
		s-17.7-16.2-28-21.4c-10.3-5.2-20.8-7.8-31.6-7.8c-11.4,0-21.8,2.3-31.2,7c-9.5,4.7-17.7,11.1-24.8,19.5
		c-7.1,8.3-12.5,17.9-16.2,28.8c-3.8,10.9-5.7,22.6-5.7,35c0,13,2,24.7,6,35.1c4,10.4,9.8,19.4,17.4,26.9
		c7.6,7.5,16.5,13.4,26.7,17.5c10.3,4.2,21.6,6.3,34.1,6.3c7.6,0,14.6-0.9,21-2.7c6.5-1.8,12.7-4.4,18.6-7.8s11.7-7.8,17.4-13.3
		C3898.4,5988.5,3903.7,5982.5,3908.6,5975.7z"/>
	<path d="M4149.8,5995.4v-276.9h154v241.1c0,18.1,4.2,32.3,12.6,42.6c8.4,10.3,19.9,15.5,34.4,15.5c8.1,0,16.2-1,24.3-3.1
		c8.1-2,16.4-6.2,24.8-12.3c8.4-6.2,16.6-14.9,24.8-26.1v-257.7h154V5970c0,14.3,2.2,24.2,6.5,29.9s11.9,8.9,22.7,10v129.6
		c-13.5,2.7-25.7,4.7-36.5,6s-20.2,2-28.4,2c-25.9,0-46.5-4.8-61.6-14.4s-24.8-24.3-29.1-44.1l-3.3-15.2
		c-20,26.1-43.9,44.9-71.7,56.4c-27.8,11.5-59.3,17.2-94.4,17.2c-42.7,0-75.5-13-98.5-39.2
		C4161.3,6082.1,4149.8,6044.5,4149.8,5995.4z"/>
	<path d="M4863.5,6139.5v-575.3h394.7V5702h-236.7v95.3h192.9v128.1h-192.9v214.1H4863.5z"/>
	<path d="M5491.5,6147.5c-37.3,0-70.5-5.8-99.7-17.2c-29.2-11.4-53.6-27-73.3-46.8c-19.7-19.7-34.7-42.3-45-67.9
		c-10.3-25.6-15.4-52.4-15.4-80.7c0-40.3,8.9-77.4,26.7-111.1c17.8-33.7,44.1-60.8,78.6-81.3c34.6-20.5,77.3-30.7,128.1-30.7
		s93.5,10.1,128.1,30.4c34.6,20.2,60.8,46.8,78.6,79.9c17.8,33.1,26.7,69,26.7,107.8c0,8-0.4,16.1-1.2,24.4
		c-0.8,8.2-1.7,15.6-2.8,22h-299.1c1.1,14.4,5.2,26.1,12.6,35.1c7.3,9,16.5,15.6,27.5,19.7c11.1,4.2,22.6,6.2,34.4,6.2
		c16.7,0,32.6-3.8,47.4-11.4c14.9-7.6,24.7-18.1,29.6-31.6l130.5,37.3c-11.4,22.7-27.2,42.7-47.4,60c-20.2,17.3-44.2,30.9-71.7,40.9
		C5557.1,6142.5,5526,6147.5,5491.5,6147.5z M5418.6,5884h141.1c-1.6-13.3-5.5-24.4-11.7-33.6c-6.2-9.2-14.3-16.2-24.3-21.3
		c-10-5.1-21.5-7.6-34.4-7.6s-24.5,2.5-34.4,7.6c-10,5.1-18.1,12.2-24.3,21.3C5424.2,5859.5,5420.2,5870.7,5418.6,5884z"/>
	<path d="M5945.9,6147.5c-37.3,0-73.9-6.1-109.8-18.2c-35.9-12.2-66.3-29.9-91.2-53.1l52.6-94.8c26.4,17.3,52,30.8,76.6,40.6
		s46.9,14.6,66.8,14.6c11.4,0,19.7-1.3,25.1-3.9c5.4-2.6,8.1-7.1,8.1-13.3c0-4.8-1.9-8.7-5.7-11.9c-3.8-3.2-9.8-6.4-18.2-9.5
		c-8.4-3.1-19.1-6.6-32-10.3c-33.5-11.7-61.5-22.6-83.9-32.6c-22.4-10-39.2-22.4-50.2-37s-16.6-34.1-16.6-58.5
		c0-28.6,7.3-54,21.8-76s35.5-39.4,62.8-52.1c27.3-12.7,60.1-19.1,98.5-19.1c28.6,0,57.4,4.4,86.3,13.4c28.9,9,56.9,25,83.9,48.2
		l-58.3,94c-27-16.7-49.9-28.6-68.5-35.7c-18.6-7-35.2-10.6-49.8-10.6c-7.1,0-13.1,0.8-18.2,2.4c-5.2,1.6-9,3.9-11.7,7.1
		c-2.7,3.1-4.1,7.4-4.1,12.7s1.9,9.6,5.7,13c3.8,3.4,9.8,6.6,17.8,9.5c8.1,2.8,18.4,6.2,30.8,9.9c36.8,10.6,66.7,21.3,89.9,32
		c23.2,10.9,40.4,23.9,51.5,39.2c11.1,15.3,16.6,35.3,16.6,60.1c0,43.8-15.8,78.1-47.4,102.9
		C6043.6,6135,6000.5,6147.5,5945.9,6147.5z"/>
	<path d="M6475,6115c-14.1,6-29.1,11.5-45,16.6c-15.9,5.2-32.2,9-48.6,11.7c-16.5,2.7-32.6,4.1-48.2,4.1c-23.2,0-44.6-3.9-64-11.5
		c-19.4-7.6-35-20.4-46.6-38.2c-11.7-17.8-17.4-41.7-17.4-71.9v-191.4h-52.6v-115.9h52.6v-134h154v134h83.5v115.9h-83.5v136
		c0,13.5,3,23.1,8.9,28.5s14.1,8.2,24.3,8.2c7.6,0,16.2-1.3,25.9-4.1c9.8-2.7,19.4-6,29.2-9.8L6475,6115z"/>
	<path d="M6518.6,5677.8v-129.7h154v129.7H6518.6z M6518.6,6139.5v-426h154v426H6518.6z"/>
	<path d="M6855.7,6139.5l-143.5-420.9h158l76.2,285.7l77-285.7h143.5l-143.5,420.9H6855.7z"/>
	<path d="M7172.4,6012.8c0-28.2,7.9-53,23.5-74.5c15.7-21.6,37.4-38.4,65.2-50.6c27.8-12.2,59.6-18.4,95.2-18.4
		c16.7,0,32.6,1.4,47.4,4.1s27.7,6.8,38.5,12.2v-13c0-19.2-5.8-33.5-17.4-42.8c-11.7-9.3-30.4-14-56.3-14
		c-23.8,0-46.1,3.9-66.8,11.7c-20.8,7.9-42.5,19.3-65.2,34.4l-44.6-95.6c28.6-18.4,58.8-32,90.4-40.9c31.6-8.9,65.5-13.4,101.7-13.4
		c67.6,0,119.8,14.9,156.9,44.8s55.6,74.1,55.6,132.7v80.8c0,14.3,2.2,24.2,6.5,29.7c4.3,5.5,11.9,8.9,22.7,9.9v129.6
		c-12.5,2.7-24.2,4.7-35.2,6s-21,2-29.6,2c-27.5,0-48.5-5-62.8-15c-14.3-10-23.7-24.8-28-44.2l-3.3-15.4
		c-18.9,24.3-40.8,42.8-65.7,55.5c-24.8,12.7-51.3,19.1-79.4,19.1s-53.5-5.8-76.2-17.5s-40.5-27.7-53.5-48.2
		S7172.4,6038.3,7172.4,6012.8z M7422,6021.9c6-4.1,10.8-8.6,14.6-13.5c3.8-4.9,5.7-9.8,5.7-15v-29.9c-8.7-3.1-18.5-5.6-29.6-7.6
		c-11.1-2-21-3.1-29.6-3.1c-18.4,0-33.9,4.4-46.6,13c-12.7,8.7-19.1,19.7-19.1,33c0,7.1,2.2,13.7,6.5,19.6s10.3,10.5,17.8,13.8
		c7.6,3.3,16.2,5,25.9,5c9.2,0,18.8-1.4,28.8-4.2C7406.5,6030.2,7415,6026.5,7422,6021.9z"/>
	<path d="M7677.9,5548.2h154V5970c0,15.7,3.3,27.7,10.1,36c6.8,8.4,16.6,12.5,29.6,12.5c6.5,0,13.5-1.1,21-3.2
		c7.6-2.1,14.6-5.1,21.1-9l19.4,113.5c-18.4,8.7-39,15.4-62,20.2c-22.9,4.8-44.7,7.3-65.2,7.3c-41.1,0-72.7-10.6-94.8-32
		s-33.2-51.7-33.2-91.1L7677.9,5548.2L7677.9,5548.2z"/>
</g>
</svg>
