<svg xmlns="http://www.w3.org/2000/svg" viewBox="0 0 15243.06 354.4"><defs><style>.cls-1{fill:#7f5af0;}</style></defs><title>SYSMIC - Bande graphique blanc</title><g id="Calque_2" data-name="Calque 2"><g id="Calque_1-2" data-name="Calque 1"><path class="cls-1" d="M137.25,341.9a321.7,321.7,0,0,1-76.5-9q-36.9-9-60.75-23.4l34.2-77.4A219.08,219.08,0,0,0,84.38,253a196,196,0,0,0,53.77,7.87q15.3,0,24.08-2T175.05,253a12.24,12.24,0,0,0,4-9.23q0-8.55-9.45-13.5t-25-8.32q-15.52-3.37-34-7.2a317.63,317.63,0,0,1-37.12-10.13A144.52,144.52,0,0,1,39.38,188a77.89,77.89,0,0,1-25-27.22Q4.95,143.91,5,118.7A92.46,92.46,0,0,1,21.38,65.38Q37.79,41.31,70.43,26.9t81.22-14.4a295.72,295.72,0,0,1,63,6.75q31,6.75,55.8,20.7l-31.95,77a241.43,241.43,0,0,0-45.22-17.55,164,164,0,0,0-42.53-5.85q-15.3,0-24.3,2.7t-12.82,7.2a14.9,14.9,0,0,0-3.83,9.9q0,8.1,9.45,12.83t25,7.87q15.53,3.15,34.2,6.75a277.44,277.44,0,0,1,37.12,9.9,146,146,0,0,1,34,16.65,78.48,78.48,0,0,1,25,27Q284,211,284,235.7a91.92,91.92,0,0,1-16.42,52.88q-16.44,24.07-48.83,38.7T137.25,341.9Z"/><path class="cls-1" d="M769.9,341.9a321.58,321.58,0,0,1-76.5-9q-36.92-9-60.75-23.4l34.2-77.4A218.81,218.81,0,0,0,717,253a196.05,196.05,0,0,0,53.78,7.87q15.29,0,24.07-2T807.7,253a12.24,12.24,0,0,0,4-9.23q0-8.55-9.45-13.5t-25-8.32q-15.52-3.37-34-7.2a317.78,317.78,0,0,1-37.13-10.13A144.7,144.7,0,0,1,672,188a77.86,77.86,0,0,1-25-27.22q-9.45-16.87-9.45-42.08A92.53,92.53,0,0,1,654,65.38q16.43-24.07,49.05-38.48T784.3,12.5a295.78,295.78,0,0,1,63,6.75Q878.35,26,903.1,40l-32,77a241.51,241.51,0,0,0-45.23-17.55A163.94,163.94,0,0,0,783.4,93.5q-15.31,0-24.3,2.7t-12.83,7.2a14.94,14.94,0,0,0-3.82,9.9q0,8.1,9.45,12.83t25,7.87q15.52,3.15,34.2,6.75a277.58,277.58,0,0,1,37.13,9.9,146.12,146.12,0,0,1,34,16.65,78.51,78.51,0,0,1,25,27q9.45,16.65,9.45,41.4a91.86,91.86,0,0,1-16.43,52.88q-16.42,24.07-48.82,38.7T769.9,341.9Z"/><path class="cls-1" d="M1318.4,347.2H1206.81l-.51-106.52-41.59,78.17h-56.77l-41.37-74.57V347.2H955V7.2H1053l84.4,153.87,82-153.87h98.13Zm-86.71-25h61.64l-.74-290H1234.4l-96.67,181.43L1038.2,32.2H980v290h61.62V147.71l81.09,146.14h27l81.14-152.5Z"/><path class="cls-1" d="M1488.86,347.2h-131.2V7.2h131.2Zm-106.2-25h81.2V32.2h-81.2Z"/><path class="cls-1" d="M1713.56,354.4c-26.56,0-51.57-4.27-74.32-12.7a177.88,177.88,0,0,1-60-36.56,167.55,167.55,0,0,1-39.61-56.38c-9.34-21.56-14.08-45.64-14.08-71.56s4.74-50,14.08-71.57a167.81,167.81,0,0,1,39.61-56.37,177.78,177.78,0,0,1,60-36.56C1662,4.27,1687,0,1713.56,0c32.54,0,61.91,5.83,87.28,17.31a165.5,165.5,0,0,1,64,50.6l7,9.2-85.57,76.38L1778,143.13c-8.26-10.4-17.43-18.53-27.26-24.16-9.41-5.4-19.81-8-31.8-8a68.52,68.52,0,0,0-25.51,4.51,50.73,50.73,0,0,0-18.69,12.68,61.24,61.24,0,0,0-12.48,20.77,81.84,81.84,0,0,0-4.62,28.29,81.53,81.53,0,0,0,4.62,28.29,61,61,0,0,0,12.48,20.77,50.77,50.77,0,0,0,18.69,12.68,68.55,68.55,0,0,0,25.51,4.51c12,0,22.4-2.62,31.8-8,9.82-5.62,19-13.75,27.26-24.16l8.24-10.36,85.63,76.44-7.16,9.21a169.13,169.13,0,0,1-63.83,50.28C1775.51,348.49,1746.12,354.4,1713.56,354.4Zm0-329.4c-23.59,0-45.67,3.75-65.63,11.15a152.87,152.87,0,0,0-51.62,31.39,142.81,142.81,0,0,0-33.73,48c-8,18.42-12,39.15-12,61.63s4,43.22,12,61.63a142.71,142.71,0,0,0,33.73,48,152.6,152.6,0,0,0,51.61,31.39c20,7.4,42,11.15,65.64,11.15,28.94,0,54.81-5.14,76.91-15.29a145.18,145.18,0,0,0,47-34l-48.57-43.36a114.93,114.93,0,0,1-25.7,20.34c-13.1,7.52-28,11.33-44.24,11.33a93.41,93.41,0,0,1-34.79-6.29,76.26,76.26,0,0,1-27.67-18.83,85.9,85.9,0,0,1-17.67-29.18,106.56,106.56,0,0,1-6.17-37,106.6,106.6,0,0,1,6.17-36.95,86.07,86.07,0,0,1,17.67-29.19,76.41,76.41,0,0,1,27.67-18.82A93.41,93.41,0,0,1,1719,86c16.24,0,31.12,3.81,44.24,11.33a115.5,115.5,0,0,1,25.7,20.34l48.64-43.42a141.16,141.16,0,0,0-47-34.11C1768.42,30.08,1742.52,25,1713.56,25Z"/><polygon class="cls-1" points="465.81 334.7 465.81 121.28 465.8 121.31 405.95 19.7 293.9 19.7 412.7 219.19 412.7 334.7 465.81 334.7"/><polygon class="cls-1" points="527.68 19.7 467.83 121.31 467.81 121.28 467.8 121.31 407.95 19.7 295.9 19.7 414.7 219.19 414.7 334.7 467.81 334.7 520.93 334.7 520.93 219.19 639.73 19.7 527.68 19.7"/><path class="cls-1" d="M2047.39,341.9a321.7,321.7,0,0,1-76.5-9q-36.9-9-60.75-23.4l34.2-77.4A219.08,219.08,0,0,0,1994.52,253a196,196,0,0,0,53.77,7.87q15.3,0,24.08-2t12.82-5.85a12.24,12.24,0,0,0,4-9.23q0-8.55-9.45-13.5t-25-8.32q-15.53-3.37-34-7.2a317.63,317.63,0,0,1-37.12-10.13,144.7,144.7,0,0,1-34.2-16.65,77.89,77.89,0,0,1-25-27.22q-9.45-16.87-9.45-42.08a92.46,92.46,0,0,1,16.43-53.32q16.43-24.07,49-38.48t81.22-14.4a295.72,295.72,0,0,1,63,6.75q31,6.75,55.8,20.7l-32,77a241.17,241.17,0,0,0-45.22-17.55,164,164,0,0,0-42.53-5.85q-15.3,0-24.3,2.7t-12.82,7.2a15,15,0,0,0-3.83,9.9q0,8.1,9.45,12.83t25,7.87q15.52,3.15,34.2,6.75a277.44,277.44,0,0,1,37.12,9.9,146,146,0,0,1,34,16.65,78.48,78.48,0,0,1,25,27q9.45,16.65,9.45,41.4a91.92,91.92,0,0,1-16.42,52.88q-16.44,24.07-48.83,38.7T2047.39,341.9Z"/><path class="cls-1" d="M2680,341.9a321.64,321.64,0,0,1-76.5-9q-36.9-9-60.75-23.4l34.2-77.4A219,219,0,0,0,2627.16,253a196.11,196.11,0,0,0,53.78,7.87q15.29,0,24.07-2t12.83-5.85a12.24,12.24,0,0,0,4-9.23q0-8.55-9.45-13.5t-25-8.32q-15.52-3.37-34-7.2a317.78,317.78,0,0,1-37.13-10.13,144.7,144.7,0,0,1-34.2-16.65,77.86,77.86,0,0,1-25-27.22q-9.45-16.87-9.45-42.08a92.53,92.53,0,0,1,16.42-53.32q16.43-24.07,49.05-38.48t81.23-14.4a295.72,295.72,0,0,1,63,6.75q31,6.75,55.8,20.7l-31.95,77a241.24,241.24,0,0,0-45.23-17.55,163.94,163.94,0,0,0-42.52-5.85q-15.3,0-24.3,2.7t-12.83,7.2a14.94,14.94,0,0,0-3.82,9.9q0,8.1,9.45,12.83t25,7.87q15.52,3.15,34.2,6.75a277.58,277.58,0,0,1,37.13,9.9,145.92,145.92,0,0,1,34,16.65,78.51,78.51,0,0,1,25,27q9.45,16.65,9.45,41.4a91.86,91.86,0,0,1-16.43,52.88q-16.42,24.07-48.82,38.7T2680,341.9Z"/><path class="cls-1" d="M3228.54,347.2H3117l-.51-106.52-41.59,78.17h-56.76l-41.38-74.57V347.2H2865.09V7.2h98.06l84.4,153.87,82-153.87h98.13Zm-86.71-25h61.64l-.74-290h-58.18l-96.68,181.43L2948.35,32.2h-58.26v290h61.62V147.71l81.09,146.14h27L3141,141.35Z"/><path class="cls-1" d="M3399,347.2H3267.8V7.2H3399Zm-106.2-25H3374V32.2h-81.2Z"/><path class="cls-1" d="M3623.7,354.4c-26.56,0-51.57-4.27-74.32-12.7a177.83,177.83,0,0,1-60-36.56,167.44,167.44,0,0,1-39.62-56.38c-9.34-21.56-14.08-45.64-14.08-71.56s4.74-50,14.08-71.57a167.69,167.69,0,0,1,39.62-56.37,177.83,177.83,0,0,1,60-36.56C3572.13,4.27,3597.14,0,3623.7,0c32.55,0,61.91,5.83,87.28,17.31a165.5,165.5,0,0,1,63.95,50.6l7,9.2-85.57,76.38-8.23-10.36c-8.27-10.4-17.44-18.53-27.27-24.16-9.41-5.4-19.81-8-31.8-8a68.55,68.55,0,0,0-25.51,4.51,50.69,50.69,0,0,0-18.68,12.68,60.92,60.92,0,0,0-12.48,20.77,81.6,81.6,0,0,0-4.63,28.29,81.52,81.52,0,0,0,4.63,28.29,60.87,60.87,0,0,0,12.47,20.77,50.77,50.77,0,0,0,18.69,12.68,68.55,68.55,0,0,0,25.51,4.51c12,0,22.4-2.62,31.8-8,9.82-5.62,19-13.75,27.27-24.16l8.23-10.36L3782,277.35l-7.16,9.21A169.13,169.13,0,0,1,3711,336.84C3685.65,348.49,3656.26,354.4,3623.7,354.4Zm0-329.4c-23.59,0-45.67,3.75-65.63,11.15a153,153,0,0,0-51.62,31.39,142.81,142.81,0,0,0-33.73,48c-8,18.42-12,39.15-12,61.63s4,43.22,12,61.63a142.71,142.71,0,0,0,33.73,48,152.65,152.65,0,0,0,51.62,31.39c20,7.4,42,11.15,65.63,11.15,28.94,0,54.82-5.14,76.91-15.29a145.33,145.33,0,0,0,47-34l-48.57-43.36a115.2,115.2,0,0,1-25.71,20.34c-13.1,7.52-28,11.33-44.24,11.33a93.45,93.45,0,0,1-34.79-6.29,76.26,76.26,0,0,1-27.67-18.83A85.9,85.9,0,0,1,3549,214.15a106.56,106.56,0,0,1-6.17-37,106.6,106.6,0,0,1,6.17-36.95,86.23,86.23,0,0,1,17.67-29.19,76.41,76.41,0,0,1,27.67-18.82A93.41,93.41,0,0,1,3629.1,86c16.24,0,31.12,3.81,44.24,11.33a115.78,115.78,0,0,1,25.71,20.34l48.63-43.42a141.16,141.16,0,0,0-47-34.11C3678.56,30.08,3652.67,25,3623.7,25Z"/><polygon class="cls-1" points="2375.96 334.7 2375.96 121.28 2375.94 121.31 2316.09 19.7 2204.04 19.7 2322.84 219.19 2322.84 334.7 2375.96 334.7"/><polygon class="cls-1" points="2437.82 19.7 2377.97 121.31 2377.96 121.28 2377.94 121.31 2318.09 19.7 2206.04 19.7 2324.84 219.19 2324.84 334.7 2377.96 334.7 2431.07 334.7 2431.07 219.19 2549.87 19.7 2437.82 19.7"/><path class="cls-1" d="M3957.49,341.9a321.7,321.7,0,0,1-76.5-9q-36.9-9-60.75-23.4l34.2-77.4A219.08,219.08,0,0,0,3904.62,253a196,196,0,0,0,53.77,7.87q15.3,0,24.08-2t12.82-5.85a12.24,12.24,0,0,0,4.05-9.23q0-8.55-9.45-13.5t-25-8.32q-15.52-3.37-34-7.2a317.63,317.63,0,0,1-37.12-10.13,144.52,144.52,0,0,1-34.2-16.65,77.89,77.89,0,0,1-25-27.22q-9.45-16.87-9.45-42.08a92.46,92.46,0,0,1,16.43-53.32Q3858,41.31,3890.67,26.9t81.22-14.4a295.72,295.72,0,0,1,63,6.75q31.05,6.75,55.8,20.7l-32,77a241.43,241.43,0,0,0-45.22-17.55A164,164,0,0,0,3971,93.5q-15.3,0-24.3,2.7t-12.82,7.2a14.9,14.9,0,0,0-3.83,9.9q0,8.1,9.45,12.83t25,7.87q15.53,3.15,34.2,6.75a277.44,277.44,0,0,1,37.12,9.9,146,146,0,0,1,34,16.65,78.48,78.48,0,0,1,25,27q9.45,16.65,9.45,41.4a91.92,91.92,0,0,1-16.42,52.88q-16.44,24.07-48.83,38.7T3957.49,341.9Z"/><path class="cls-1" d="M4590.14,341.9a321.58,321.58,0,0,1-76.5-9q-36.9-9-60.75-23.4l34.2-77.4A219,219,0,0,0,4537.26,253,196.05,196.05,0,0,0,4591,260.9q15.28,0,24.07-2t12.83-5.85a12.24,12.24,0,0,0,4.05-9.23q0-8.55-9.45-13.5t-25-8.32q-15.53-3.37-34-7.2a317.78,317.78,0,0,1-37.13-10.13,144.7,144.7,0,0,1-34.2-16.65,77.86,77.86,0,0,1-25-27.22q-9.45-16.87-9.45-42.08a92.53,92.53,0,0,1,16.42-53.32q16.42-24.07,49.05-38.48t81.23-14.4a295.72,295.72,0,0,1,63,6.75q31.05,6.75,55.8,20.7l-31.95,77a241.24,241.24,0,0,0-45.23-17.55,163.94,163.94,0,0,0-42.52-5.85q-15.31,0-24.3,2.7t-12.83,7.2a14.94,14.94,0,0,0-3.82,9.9q0,8.1,9.45,12.83t25,7.87q15.53,3.15,34.2,6.75a277.58,277.58,0,0,1,37.13,9.9,146.12,146.12,0,0,1,34,16.65,78.51,78.51,0,0,1,25,27q9.45,16.65,9.45,41.4a91.86,91.86,0,0,1-16.43,52.88q-16.42,24.07-48.82,38.7T4590.14,341.9Z"/><path class="cls-1" d="M5138.64,347.2H5027.05l-.51-106.52L4985,318.85h-56.77l-41.37-74.57V347.2H4775.19V7.2h98.06l84.4,153.87,82-153.87h98.13Zm-86.71-25h61.64l-.74-290h-58.19L4958,213.63,4858.45,32.2h-58.26v290h61.62V147.71l81.09,146.14h27l81.14-152.5Z"/><path class="cls-1" d="M5309.1,347.2H5177.9V7.2h131.2Zm-106.2-25h81.2V32.2h-81.2Z"/><path class="cls-1" d="M5533.8,354.4c-26.56,0-51.57-4.27-74.32-12.7a177.73,177.73,0,0,1-60-36.56,167.44,167.44,0,0,1-39.62-56.38c-9.34-21.56-14.08-45.64-14.08-71.56s4.74-50,14.08-71.57a167.69,167.69,0,0,1,39.62-56.37,177.73,177.73,0,0,1,60-36.56C5482.23,4.27,5507.24,0,5533.8,0c32.55,0,61.91,5.83,87.28,17.31A165.5,165.5,0,0,1,5685,67.91l7,9.2-85.57,76.38-8.23-10.36C5590,132.73,5580.83,124.6,5571,119c-9.41-5.4-19.81-8-31.8-8a68.55,68.55,0,0,0-25.51,4.51A50.61,50.61,0,0,0,5495,128.14a61.1,61.1,0,0,0-12.49,20.77,81.84,81.84,0,0,0-4.62,28.29,81.76,81.76,0,0,0,4.62,28.29A61,61,0,0,0,5495,226.26a50.77,50.77,0,0,0,18.69,12.68,68.55,68.55,0,0,0,25.51,4.51c12,0,22.4-2.62,31.8-8,9.82-5.62,19-13.75,27.27-24.16l8.23-10.36,85.63,76.44-7.16,9.21a169.13,169.13,0,0,1-63.83,50.28C5595.75,348.49,5566.36,354.4,5533.8,354.4Zm0-329.4c-23.59,0-45.67,3.75-65.63,11.15a152.87,152.87,0,0,0-51.62,31.39,142.81,142.81,0,0,0-33.73,48c-8,18.42-12,39.15-12,61.63s4,43.22,12,61.63a142.71,142.71,0,0,0,33.73,48,152.55,152.55,0,0,0,51.62,31.39c20,7.4,42,11.15,65.63,11.15,28.94,0,54.81-5.14,76.91-15.29a145.33,145.33,0,0,0,47-34l-48.58-43.36a114.93,114.93,0,0,1-25.7,20.34c-13.1,7.52-28,11.33-44.24,11.33a93.41,93.41,0,0,1-34.79-6.29,76.26,76.26,0,0,1-27.67-18.83,85.9,85.9,0,0,1-17.67-29.18,106.56,106.56,0,0,1-6.17-37,106.6,106.6,0,0,1,6.17-36.95,86.07,86.07,0,0,1,17.67-29.19,76.41,76.41,0,0,1,27.67-18.82A93.41,93.41,0,0,1,5539.2,86c16.24,0,31.12,3.81,44.24,11.33a115.5,115.5,0,0,1,25.7,20.34l48.64-43.42a141.16,141.16,0,0,0-47-34.11C5588.66,30.08,5562.77,25,5533.8,25Z"/><polygon class="cls-1" points="4286.06 334.7 4286.06 121.28 4286.04 121.31 4226.19 19.7 4114.14 19.7 4232.94 219.19 4232.94 334.7 4286.06 334.7"/><polygon class="cls-1" points="4347.92 19.7 4288.07 121.31 4288.06 121.28 4288.04 121.31 4228.19 19.7 4116.14 19.7 4234.94 219.19 4234.94 334.7 4288.06 334.7 4341.17 334.7 4341.17 219.19 4459.97 19.7 4347.92 19.7"/><path class="cls-1" d="M5867.63,341.9a321.7,321.7,0,0,1-76.5-9q-36.9-9-60.75-23.4l34.2-77.4A219.08,219.08,0,0,0,5814.76,253a196,196,0,0,0,53.77,7.87q15.3,0,24.08-2t12.82-5.85a12.24,12.24,0,0,0,4-9.23q0-8.55-9.45-13.5t-25-8.32q-15.53-3.37-34-7.2A317.63,317.63,0,0,1,5804,204.65a144.7,144.7,0,0,1-34.2-16.65,77.89,77.89,0,0,1-25-27.22q-9.45-16.87-9.45-42.08a92.46,92.46,0,0,1,16.43-53.32q16.42-24.07,49.05-38.48T5882,12.5a295.72,295.72,0,0,1,63,6.75q31.05,6.75,55.8,20.7l-31.95,77a241.17,241.17,0,0,0-45.22-17.55,164,164,0,0,0-42.53-5.85q-15.3,0-24.3,2.7T5844,103.4a15,15,0,0,0-3.83,9.9q0,8.1,9.45,12.83t25,7.87q15.53,3.15,34.2,6.75a277.44,277.44,0,0,1,37.12,9.9,146,146,0,0,1,34,16.65,78.48,78.48,0,0,1,25,27q9.45,16.65,9.45,41.4a91.85,91.85,0,0,1-16.42,52.88q-16.44,24.07-48.83,38.7T5867.63,341.9Z"/><path class="cls-1" d="M6500.28,341.9a321.64,321.64,0,0,1-76.5-9q-36.9-9-60.75-23.4l34.2-77.4A219.19,219.19,0,0,0,6447.4,253a196.11,196.11,0,0,0,53.78,7.87q15.28,0,24.07-2t12.83-5.85a12.24,12.24,0,0,0,4.05-9.23q0-8.55-9.45-13.5t-25-8.32q-15.54-3.37-34-7.2a317.78,317.78,0,0,1-37.13-10.13A144.7,144.7,0,0,1,6402.4,188a77.86,77.86,0,0,1-25-27.22Q6368,143.91,6368,118.7a92.53,92.53,0,0,1,16.42-53.32q16.43-24.07,49.06-38.48t81.22-14.4a295.72,295.72,0,0,1,63,6.75q31,6.75,55.8,20.7l-31.95,77a241.24,241.24,0,0,0-45.23-17.55,163.88,163.88,0,0,0-42.52-5.85q-15.3,0-24.3,2.7t-12.83,7.2a14.94,14.94,0,0,0-3.82,9.9q0,8.1,9.45,12.83t25,7.87q15.53,3.15,34.21,6.75a277.44,277.44,0,0,1,37.12,9.9,145.73,145.73,0,0,1,34,16.65,78.51,78.51,0,0,1,25,27Q6647,211,6647,235.7a91.86,91.86,0,0,1-16.43,52.88q-16.43,24.07-48.82,38.7T6500.28,341.9Z"/><path class="cls-1" d="M7048.78,347.2H6937.19l-.51-106.52-41.59,78.17h-56.76L6797,244.28V347.2H6685.33V7.2h98.06l84.4,153.87,82-153.87h98.13Zm-86.71-25h61.65l-.75-290h-58.18l-96.68,181.43L6768.59,32.2h-58.26v290H6772V147.71l81.1,146.14h27l81.13-152.5Z"/><path class="cls-1" d="M7219.25,347.2h-131.2V7.2h131.2Zm-106.2-25h81.2V32.2h-81.2Z"/><path class="cls-1" d="M7443.94,354.4c-26.56,0-51.56-4.27-74.32-12.7a177.83,177.83,0,0,1-60-36.56A167.44,167.44,0,0,1,7270,248.76c-9.34-21.56-14.08-45.64-14.08-71.56s4.74-50,14.08-71.57a167.69,167.69,0,0,1,39.62-56.37,177.83,177.83,0,0,1,60-36.56C7392.38,4.27,7417.38,0,7443.94,0c32.55,0,61.91,5.83,87.28,17.31a165.42,165.42,0,0,1,63.95,50.6l7,9.2-85.57,76.38-8.23-10.36c-8.27-10.4-17.44-18.53-27.26-24.16-9.42-5.4-19.82-8-31.81-8a68.55,68.55,0,0,0-25.51,4.51,50.69,50.69,0,0,0-18.68,12.68,60.92,60.92,0,0,0-12.48,20.77A81.6,81.6,0,0,0,7388,177.2a81.52,81.52,0,0,0,4.63,28.29,60.87,60.87,0,0,0,12.47,20.77,50.77,50.77,0,0,0,18.69,12.68,68.55,68.55,0,0,0,25.51,4.51c12,0,22.4-2.62,31.81-8,9.81-5.62,19-13.75,27.26-24.16l8.23-10.36,85.63,76.44-7.15,9.21a169.24,169.24,0,0,1-63.84,50.28C7505.89,348.49,7476.51,354.4,7443.94,354.4Zm0-329.4c-23.59,0-45.67,3.75-65.63,11.15a153,153,0,0,0-51.62,31.39,142.81,142.81,0,0,0-33.73,48c-8,18.42-12,39.15-12,61.63s4.05,43.22,12,61.63a142.71,142.71,0,0,0,33.73,48,152.65,152.65,0,0,0,51.62,31.39c20,7.4,42,11.15,65.63,11.15,28.94,0,54.82-5.14,76.91-15.29a145.33,145.33,0,0,0,47-34l-48.57-43.36a115.2,115.2,0,0,1-25.71,20.34c-13.1,7.52-28,11.33-44.24,11.33a93.45,93.45,0,0,1-34.79-6.29,76.26,76.26,0,0,1-27.67-18.83,85.9,85.9,0,0,1-17.67-29.18,106.56,106.56,0,0,1-6.17-37,106.6,106.6,0,0,1,6.17-36.95,86.09,86.09,0,0,1,17.68-29.19,76.37,76.37,0,0,1,27.66-18.82A93.45,93.45,0,0,1,7449.34,86c16.24,0,31.12,3.81,44.24,11.33a115.32,115.32,0,0,1,25.71,20.34l48.63-43.42a141.16,141.16,0,0,0-47-34.11C7498.8,30.08,7472.91,25,7443.94,25Z"/><polygon class="cls-1" points="6196.2 334.7 6196.2 121.28 6196.18 121.31 6136.33 19.7 6024.28 19.7 6143.08 219.19 6143.08 334.7 6196.2 334.7"/><polygon class="cls-1" points="6258.06 19.7 6198.21 121.31 6198.2 121.28 6198.18 121.31 6138.33 19.7 6026.28 19.7 6145.08 219.19 6145.08 334.7 6198.2 334.7 6251.31 334.7 6251.31 219.19 6370.11 19.7 6258.06 19.7"/><path class="cls-1" d="M7778,341.9a321.7,321.7,0,0,1-76.5-9q-36.9-9-60.75-23.4l34.2-77.4A219.08,219.08,0,0,0,7725.17,253a196,196,0,0,0,53.77,7.87q15.3,0,24.08-2t12.82-5.85a12.24,12.24,0,0,0,4.05-9.23q0-8.55-9.45-13.5t-25-8.32q-15.53-3.37-34-7.2a317.63,317.63,0,0,1-37.12-10.13,144.52,144.52,0,0,1-34.2-16.65,77.89,77.89,0,0,1-25-27.22q-9.45-16.87-9.45-42.08a92.46,92.46,0,0,1,16.43-53.32q16.41-24.07,49.05-38.48t81.22-14.4a295.72,295.72,0,0,1,63,6.75q31.05,6.75,55.8,20.7l-31.95,77a241.43,241.43,0,0,0-45.22-17.55,164,164,0,0,0-42.53-5.85q-15.3,0-24.3,2.7t-12.82,7.2a14.9,14.9,0,0,0-3.83,9.9q0,8.1,9.45,12.83t25,7.87q15.52,3.15,34.2,6.75a277.44,277.44,0,0,1,37.12,9.9,146,146,0,0,1,34,16.65,78.48,78.48,0,0,1,25,27q9.45,16.65,9.45,41.4a91.92,91.92,0,0,1-16.42,52.88q-16.44,24.07-48.83,38.7T7778,341.9Z"/><path class="cls-1" d="M8410.69,341.9a321.58,321.58,0,0,1-76.5-9q-36.9-9-60.75-23.4l34.2-77.4A219,219,0,0,0,8357.81,253a196.11,196.11,0,0,0,53.78,7.87q15.28,0,24.07-2t12.83-5.85a12.24,12.24,0,0,0,4.05-9.23q0-8.55-9.45-13.5t-25-8.32q-15.53-3.37-34-7.2A317.78,317.78,0,0,1,8347,204.65a144.7,144.7,0,0,1-34.2-16.65,77.86,77.86,0,0,1-25-27.22q-9.45-16.87-9.45-42.08a92.53,92.53,0,0,1,16.42-53.32q16.43-24.07,49.05-38.48t81.23-14.4a295.72,295.72,0,0,1,63,6.75q31.05,6.75,55.8,20.7l-31.95,77a241.24,241.24,0,0,0-45.23-17.55,163.94,163.94,0,0,0-42.52-5.85q-15.3,0-24.3,2.7t-12.83,7.2a14.94,14.94,0,0,0-3.82,9.9q0,8.1,9.45,12.83t25,7.87q15.53,3.15,34.2,6.75a277.58,277.58,0,0,1,37.13,9.9,146.12,146.12,0,0,1,34,16.65,78.51,78.51,0,0,1,25,27q9.45,16.65,9.45,41.4A91.86,91.86,0,0,1,8541,288.58q-16.42,24.07-48.82,38.7T8410.69,341.9Z"/><path class="cls-1" d="M8959.19,347.2H8847.6l-.51-106.52-41.59,78.17h-56.76l-41.38-74.57V347.2H8595.74V7.2h98.06l84.4,153.87,82-153.87h98.13Zm-86.71-25h61.64l-.74-290H8875.2l-96.68,181.43L8679,32.2h-58.26v290h61.62V147.71l81.09,146.14h27l81.14-152.5Z"/><path class="cls-1" d="M9129.65,347.2h-131.2V7.2h131.2Zm-106.2-25h81.2V32.2h-81.2Z"/><path class="cls-1" d="M9354.35,354.4c-26.56,0-51.57-4.27-74.32-12.7a177.83,177.83,0,0,1-60-36.56,167.44,167.44,0,0,1-39.62-56.38c-9.34-21.56-14.08-45.64-14.08-71.56s4.74-50,14.08-71.57a167.69,167.69,0,0,1,39.62-56.37,177.83,177.83,0,0,1,60-36.56C9302.78,4.27,9327.79,0,9354.35,0c32.55,0,61.91,5.83,87.28,17.31a165.5,165.5,0,0,1,64,50.6l7,9.2-85.57,76.38-8.23-10.36c-8.27-10.4-17.44-18.53-27.27-24.16-9.41-5.4-19.81-8-31.8-8a68.55,68.55,0,0,0-25.51,4.51,50.61,50.61,0,0,0-18.68,12.68,60.92,60.92,0,0,0-12.48,20.77,81.6,81.6,0,0,0-4.63,28.29,81.52,81.52,0,0,0,4.63,28.29,60.87,60.87,0,0,0,12.47,20.77,50.77,50.77,0,0,0,18.69,12.68,68.55,68.55,0,0,0,25.51,4.51c12,0,22.4-2.62,31.8-8,9.82-5.62,19-13.75,27.27-24.16l8.23-10.36,85.63,76.44-7.16,9.21a169.13,169.13,0,0,1-63.83,50.28C9416.3,348.49,9386.91,354.4,9354.35,354.4Zm0-329.4c-23.59,0-45.67,3.75-65.63,11.15a152.87,152.87,0,0,0-51.62,31.39,142.81,142.81,0,0,0-33.73,48c-8,18.42-12,39.15-12,61.63s4,43.22,12,61.63a142.71,142.71,0,0,0,33.73,48,152.55,152.55,0,0,0,51.62,31.39c20,7.4,42,11.15,65.63,11.15,28.94,0,54.81-5.14,76.91-15.29a145.33,145.33,0,0,0,47-34l-48.57-43.36A115.2,115.2,0,0,1,9404,257.12c-13.1,7.52-28,11.33-44.24,11.33a93.41,93.41,0,0,1-34.79-6.29,76.26,76.26,0,0,1-27.67-18.83,85.9,85.9,0,0,1-17.67-29.18,106.56,106.56,0,0,1-6.17-37,106.6,106.6,0,0,1,6.17-36.95,86.23,86.23,0,0,1,17.67-29.19A76.41,76.41,0,0,1,9325,92.24,93.41,93.41,0,0,1,9359.75,86c16.24,0,31.12,3.81,44.24,11.33a115.78,115.78,0,0,1,25.71,20.34l48.63-43.42a141.16,141.16,0,0,0-47-34.11C9409.21,30.08,9383.32,25,9354.35,25Z"/><polygon class="cls-1" points="8106.61 334.7 8106.61 121.28 8106.59 121.31 8046.74 19.7 7934.69 19.7 8053.49 219.19 8053.49 334.7 8106.61 334.7"/><polygon class="cls-1" points="8168.47 19.7 8108.62 121.31 8108.61 121.28 8108.59 121.31 8048.74 19.7 7936.69 19.7 8055.49 219.19 8055.49 334.7 8108.61 334.7 8161.72 334.7 8161.72 219.19 8280.52 19.7 8168.47 19.7"/><path class="cls-1" d="M9688.18,341.9a321.7,321.7,0,0,1-76.5-9q-36.9-9-60.75-23.4l34.2-77.4A219.08,219.08,0,0,0,9635.31,253a196,196,0,0,0,53.77,7.87q15.3,0,24.08-2T9726,253a12.24,12.24,0,0,0,4.05-9.23q0-8.55-9.45-13.5t-25-8.32q-15.53-3.37-34-7.2a317.63,317.63,0,0,1-37.12-10.13,144.7,144.7,0,0,1-34.2-16.65,77.89,77.89,0,0,1-25-27.22q-9.45-16.87-9.45-42.08a92.46,92.46,0,0,1,16.43-53.32q16.43-24.07,49.05-38.48t81.22-14.4a295.72,295.72,0,0,1,63,6.75q31.05,6.75,55.8,20.7l-31.95,77a241.17,241.17,0,0,0-45.22-17.55,164,164,0,0,0-42.53-5.85q-15.3,0-24.3,2.7t-12.82,7.2a15,15,0,0,0-3.83,9.9q0,8.1,9.45,12.83t25,7.87q15.53,3.15,34.2,6.75a277,277,0,0,1,37.12,9.9,146,146,0,0,1,34,16.65,78.48,78.48,0,0,1,25,27q9.45,16.65,9.45,41.4a91.85,91.85,0,0,1-16.42,52.88q-16.44,24.07-48.83,38.7T9688.18,341.9Z"/><path class="cls-1" d="M10320.83,341.9a321.7,321.7,0,0,1-76.5-9q-36.9-9-60.75-23.4l34.2-77.4A219.19,219.19,0,0,0,10268,253a196.11,196.11,0,0,0,53.78,7.87q15.3,0,24.08-2t12.82-5.85a12.24,12.24,0,0,0,4.05-9.23q0-8.55-9.45-13.5t-25-8.32q-15.54-3.37-34-7.2a318.32,318.32,0,0,1-37.13-10.13A144.89,144.89,0,0,1,10223,188a77.86,77.86,0,0,1-25-27.22q-9.45-16.87-9.45-42.08A92.53,92.53,0,0,1,10205,65.38q16.42-24.07,49.06-38.48t81.22-14.4a295.72,295.72,0,0,1,63,6.75Q10429.28,26,10454,40l-32,77a241.24,241.24,0,0,0-45.23-17.55,163.88,163.88,0,0,0-42.52-5.85q-15.3,0-24.3,2.7t-12.83,7.2a14.94,14.94,0,0,0-3.82,9.9q0,8.1,9.45,12.83t25,7.87q15.51,3.15,34.2,6.75a277.44,277.44,0,0,1,37.12,9.9,145.73,145.73,0,0,1,34,16.65,78.51,78.51,0,0,1,25,27q9.45,16.65,9.45,41.4a91.86,91.86,0,0,1-16.43,52.88q-16.43,24.07-48.82,38.7T10320.83,341.9Z"/><path class="cls-1" d="M10869.33,347.2h-111.59l-.51-106.52-41.59,78.17h-56.76l-41.38-74.57V347.2h-111.62V7.2h98.06l84.4,153.87,82-153.87h98.13Zm-86.71-25h61.65l-.75-290h-58.18l-96.68,181.43L10589.14,32.2h-58.26v290h61.62V147.71l81.1,146.14h27l81.13-152.5Z"/><path class="cls-1" d="M11039.8,347.2h-131.2V7.2h131.2Zm-106.2-25h81.2V32.2h-81.2Z"/><path class="cls-1" d="M11264.49,354.4c-26.56,0-51.56-4.27-74.32-12.7a177.83,177.83,0,0,1-60-36.56,167.44,167.44,0,0,1-39.62-56.38c-9.34-21.56-14.08-45.64-14.08-71.56s4.74-50,14.08-71.57a167.69,167.69,0,0,1,39.62-56.37,177.83,177.83,0,0,1,60-36.56c22.76-8.43,47.76-12.7,74.32-12.7,32.55,0,61.91,5.83,87.28,17.31a165.42,165.42,0,0,1,63.95,50.6l7,9.2-85.57,76.38-8.23-10.36c-8.27-10.4-17.44-18.53-27.26-24.16-9.42-5.4-19.82-8-31.81-8a68.55,68.55,0,0,0-25.51,4.51,50.69,50.69,0,0,0-18.68,12.68,61.08,61.08,0,0,0-12.48,20.77,81.6,81.6,0,0,0-4.63,28.29,81.52,81.52,0,0,0,4.63,28.29,61,61,0,0,0,12.47,20.77,50.77,50.77,0,0,0,18.69,12.68,68.55,68.55,0,0,0,25.51,4.51c12,0,22.4-2.62,31.81-8,9.81-5.62,19-13.75,27.26-24.16l8.23-10.36,85.63,76.44-7.15,9.21a169.24,169.24,0,0,1-63.84,50.28C11326.44,348.49,11297.06,354.4,11264.49,354.4Zm0-329.4c-23.59,0-45.67,3.75-65.63,11.15a153,153,0,0,0-51.62,31.39,142.81,142.81,0,0,0-33.73,48c-8,18.42-12,39.15-12,61.63s4.05,43.22,12,61.63a142.71,142.71,0,0,0,33.73,48,152.65,152.65,0,0,0,51.62,31.39c20,7.4,42,11.15,65.63,11.15,28.94,0,54.82-5.14,76.91-15.29a145.22,145.22,0,0,0,47-34l-48.57-43.36a115.2,115.2,0,0,1-25.71,20.34c-13.1,7.52-28,11.33-44.24,11.33a93.45,93.45,0,0,1-34.79-6.29,76.26,76.26,0,0,1-27.67-18.83,85.72,85.72,0,0,1-17.66-29.18,106.33,106.33,0,0,1-6.18-37,106.37,106.37,0,0,1,6.18-36.95,85.92,85.92,0,0,1,17.67-29.19,76.37,76.37,0,0,1,27.66-18.82,93.45,93.45,0,0,1,34.79-6.29c16.24,0,31.13,3.81,44.24,11.33a115.32,115.32,0,0,1,25.71,20.34l48.63-43.42a141.16,141.16,0,0,0-47-34.11C11319.35,30.08,11293.46,25,11264.49,25Z"/><polygon class="cls-1" points="10016.75 334.7 10016.75 121.28 10016.73 121.31 9956.88 19.7 9844.83 19.7 9963.63 219.19 9963.63 334.7 10016.75 334.7"/><polygon class="cls-1" points="10078.61 19.7 10018.76 121.31 10018.75 121.28 10018.73 121.31 9958.88 19.7 9846.83 19.7 9965.63 219.19 9965.63 334.7 10018.75 334.7 10071.86 334.7 10071.86 219.19 10190.67 19.7 10078.61 19.7"/><path class="cls-1" d="M11598.28,341.9a321.7,321.7,0,0,1-76.5-9q-36.9-9-60.75-23.4l34.2-77.4a219.08,219.08,0,0,0,50.18,20.93,196,196,0,0,0,53.77,7.87q15.3,0,24.08-2t12.82-5.85a12.24,12.24,0,0,0,4-9.23q0-8.55-9.45-13.5t-25-8.32q-15.52-3.37-34-7.2a317.63,317.63,0,0,1-37.12-10.13,144.7,144.7,0,0,1-34.2-16.65,77.89,77.89,0,0,1-25-27.22q-9.45-16.87-9.45-42.08a92.46,92.46,0,0,1,16.43-53.32q16.43-24.07,49-38.48t81.22-14.4a295.72,295.72,0,0,1,63,6.75q31,6.75,55.8,20.7l-31.95,77a241.17,241.17,0,0,0-45.22-17.55,164,164,0,0,0-42.53-5.85q-15.3,0-24.3,2.7t-12.82,7.2a15,15,0,0,0-3.83,9.9q0,8.1,9.45,12.83t25,7.87q15.52,3.15,34.2,6.75a277.44,277.44,0,0,1,37.12,9.9,146,146,0,0,1,34,16.65,78.48,78.48,0,0,1,25,27q9.45,16.65,9.45,41.4a91.85,91.85,0,0,1-16.42,52.88q-16.44,24.07-48.83,38.7T11598.28,341.9Z"/><path class="cls-1" d="M12230.93,341.9a321.64,321.64,0,0,1-76.5-9q-36.9-9-60.75-23.4l34.2-77.4a219,219,0,0,0,50.17,20.93,196.11,196.11,0,0,0,53.78,7.87q15.29,0,24.07-2t12.83-5.85a12.24,12.24,0,0,0,4.05-9.23q0-8.55-9.45-13.5t-25-8.32q-15.52-3.37-34-7.2a317.78,317.78,0,0,1-37.13-10.13,144.7,144.7,0,0,1-34.2-16.65,77.86,77.86,0,0,1-25-27.22q-9.45-16.87-9.45-42.08a92.53,92.53,0,0,1,16.42-53.32q16.43-24.07,49.05-38.48t81.23-14.4a295.72,295.72,0,0,1,63,6.75q31.05,6.75,55.8,20.7l-31.95,77A241.24,241.24,0,0,0,12287,99.35a163.94,163.94,0,0,0-42.52-5.85q-15.3,0-24.3,2.7t-12.83,7.2a14.94,14.94,0,0,0-3.82,9.9q0,8.1,9.45,12.83t25,7.87q15.52,3.15,34.2,6.75a277.58,277.58,0,0,1,37.13,9.9,145.92,145.92,0,0,1,34,16.65,78.51,78.51,0,0,1,25,27q9.45,16.65,9.45,41.4a91.86,91.86,0,0,1-16.43,52.88q-16.43,24.07-48.82,38.7T12230.93,341.9Z"/><path class="cls-1" d="M12779.43,347.2h-111.59l-.51-106.52-41.59,78.17H12569l-41.38-74.57V347.2H12416V7.2H12514l84.4,153.87,82-153.87h98.13Zm-86.71-25h61.65l-.75-290h-58.18l-96.68,181.43L12499.24,32.2H12441v290h61.62V147.71l81.1,146.14h27l81.13-152.5Z"/><path class="cls-1" d="M12949.89,347.2H12818.7V7.2h131.19Zm-106.19-25h81.19V32.2h-81.19Z"/><path class="cls-1" d="M13174.59,354.4c-26.56,0-51.56-4.27-74.32-12.7a177.83,177.83,0,0,1-60-36.56,167.44,167.44,0,0,1-39.62-56.38c-9.34-21.56-14.08-45.64-14.08-71.56s4.74-50,14.08-71.57a167.69,167.69,0,0,1,39.62-56.37,177.83,177.83,0,0,1,60-36.56C13123,4.27,13148,0,13174.59,0c32.55,0,61.91,5.83,87.28,17.31a165.5,165.5,0,0,1,63.95,50.6l7,9.2-85.57,76.38-8.23-10.36c-8.27-10.4-17.44-18.53-27.27-24.16-9.41-5.4-19.81-8-31.8-8a68.55,68.55,0,0,0-25.51,4.51,50.69,50.69,0,0,0-18.68,12.68,60.92,60.92,0,0,0-12.48,20.77,81.6,81.6,0,0,0-4.63,28.29,81.52,81.52,0,0,0,4.63,28.29,60.87,60.87,0,0,0,12.47,20.77,50.77,50.77,0,0,0,18.69,12.68,68.55,68.55,0,0,0,25.51,4.51c12,0,22.4-2.62,31.8-8,9.82-5.62,19-13.75,27.27-24.16l8.23-10.36,85.63,76.44-7.15,9.21a169.24,169.24,0,0,1-63.84,50.28C13236.54,348.49,13207.16,354.4,13174.59,354.4Zm0-329.4c-23.59,0-45.67,3.75-65.63,11.15a153,153,0,0,0-51.62,31.39,142.81,142.81,0,0,0-33.73,48c-8,18.42-12,39.15-12,61.63s4,43.22,12,61.63a142.71,142.71,0,0,0,33.73,48,152.65,152.65,0,0,0,51.62,31.39c20,7.4,42,11.15,65.63,11.15,28.94,0,54.82-5.14,76.91-15.29a145.33,145.33,0,0,0,47-34l-48.57-43.36a115.2,115.2,0,0,1-25.71,20.34c-13.1,7.52-28,11.33-44.24,11.33a93.45,93.45,0,0,1-34.79-6.29,76.26,76.26,0,0,1-27.67-18.83,85.9,85.9,0,0,1-17.67-29.18,106.56,106.56,0,0,1-6.17-37,106.6,106.6,0,0,1,6.17-36.95,86.09,86.09,0,0,1,17.68-29.19,76.29,76.29,0,0,1,27.66-18.82A93.41,93.41,0,0,1,13180,86c16.24,0,31.12,3.81,44.24,11.33a115.55,115.55,0,0,1,25.71,20.34l48.63-43.42a141.16,141.16,0,0,0-47-34.11C13229.45,30.08,13203.56,25,13174.59,25Z"/><polygon class="cls-1" points="11926.85 334.7 11926.85 121.28 11926.83 121.31 11866.98 19.7 11754.93 19.7 11873.73 219.19 11873.73 334.7 11926.85 334.7"/><polygon class="cls-1" points="11988.71 19.7 11928.86 121.31 11928.85 121.28 11928.83 121.31 11868.98 19.7 11756.93 19.7 11875.73 219.19 11875.73 334.7 11928.85 334.7 11981.96 334.7 11981.96 219.19 12100.76 19.7 11988.71 19.7"/><path class="cls-1" d="M13508.43,341.9a321.58,321.58,0,0,1-76.5-9q-36.92-9-60.75-23.4l34.2-77.4a218.81,218.81,0,0,0,50.17,20.93,196.05,196.05,0,0,0,53.78,7.87q15.29,0,24.07-2t12.83-5.85a12.24,12.24,0,0,0,4.05-9.23q0-8.55-9.45-13.5t-25-8.32q-15.52-3.37-34-7.2a317.78,317.78,0,0,1-37.13-10.13,144.7,144.7,0,0,1-34.2-16.65,77.86,77.86,0,0,1-25-27.22q-9.45-16.87-9.45-42.08a92.53,92.53,0,0,1,16.42-53.32q16.43-24.07,49.05-38.48t81.23-14.4a295.78,295.78,0,0,1,63,6.75q31.05,6.75,55.8,20.7l-31.95,77a241.51,241.51,0,0,0-45.23-17.55,163.94,163.94,0,0,0-42.52-5.85q-15.32,0-24.3,2.7t-12.83,7.2a14.94,14.94,0,0,0-3.82,9.9q0,8.1,9.45,12.83t25,7.87q15.52,3.15,34.2,6.75a277.58,277.58,0,0,1,37.13,9.9,146.12,146.12,0,0,1,34,16.65,78.51,78.51,0,0,1,25,27q9.45,16.65,9.45,41.4a91.86,91.86,0,0,1-16.43,52.88q-16.43,24.07-48.82,38.7T13508.43,341.9Z"/><path class="cls-1" d="M14141.07,341.9a321.7,321.7,0,0,1-76.5-9q-36.9-9-60.75-23.4l34.2-77.4A219.08,219.08,0,0,0,14088.2,253a196,196,0,0,0,53.77,7.87q15.3,0,24.08-2t12.82-5.85a12.24,12.24,0,0,0,4-9.23q0-8.55-9.45-13.5t-25-8.32q-15.53-3.37-34-7.2a317.63,317.63,0,0,1-37.12-10.13,144.52,144.52,0,0,1-34.2-16.65,77.89,77.89,0,0,1-25-27.22q-9.45-16.87-9.45-42.08a92.46,92.46,0,0,1,16.43-53.32q16.41-24.07,49-38.48t81.22-14.4a295.72,295.72,0,0,1,63,6.75q31.05,6.75,55.8,20.7l-32,77a241.43,241.43,0,0,0-45.22-17.55,164,164,0,0,0-42.53-5.85q-15.3,0-24.3,2.7t-12.82,7.2a14.9,14.9,0,0,0-3.83,9.9q0,8.1,9.45,12.83t25,7.87q15.53,3.15,34.2,6.75a277.44,277.44,0,0,1,37.12,9.9,146,146,0,0,1,34,16.65,78.48,78.48,0,0,1,25,27q9.45,16.65,9.45,41.4a91.92,91.92,0,0,1-16.42,52.88q-16.44,24.07-48.83,38.7T14141.07,341.9Z"/><path class="cls-1" d="M14689.57,347.2H14578l-.51-106.52-41.58,78.17h-56.77l-41.38-74.57V347.2h-111.62V7.2h98.06l84.4,153.87,82-153.87h98.13Zm-86.71-25h61.65l-.74-290h-58.19l-96.68,181.43L14409.38,32.2h-58.26v290h61.62V147.71l81.1,146.14h27l81.13-152.5Z"/><path class="cls-1" d="M14860,347.2h-131.2V7.2H14860Zm-106.2-25h81.2V32.2h-81.2Z"/><path class="cls-1" d="M15084.73,354.4c-26.56,0-51.56-4.27-74.31-12.7a177.78,177.78,0,0,1-60-36.56,167.72,167.72,0,0,1-39.62-56.38c-9.34-21.56-14.08-45.64-14.08-71.56s4.74-50,14.08-71.57a168,168,0,0,1,39.62-56.37,177.83,177.83,0,0,1,60-36.56c22.76-8.43,47.76-12.7,74.32-12.7,32.55,0,61.92,5.83,87.28,17.31a165.42,165.42,0,0,1,63.95,50.6l7,9.2-85.57,76.38-8.23-10.36c-8.27-10.4-17.44-18.53-27.26-24.16-9.41-5.4-19.82-8-31.81-8a68.46,68.46,0,0,0-25.5,4.51,50.65,50.65,0,0,0-18.69,12.68,61.24,61.24,0,0,0-12.48,20.77,81.6,81.6,0,0,0-4.63,28.29,81.52,81.52,0,0,0,4.63,28.29,60.89,60.89,0,0,0,12.48,20.77,50.65,50.65,0,0,0,18.68,12.68,68.55,68.55,0,0,0,25.51,4.51c12,0,22.4-2.62,31.81-8,9.81-5.62,19-13.75,27.26-24.16l8.23-10.36,85.63,76.44-7.15,9.21a169.16,169.16,0,0,1-63.84,50.28C15146.68,348.49,15117.3,354.4,15084.73,354.4Zm0-329.4c-23.58,0-45.67,3.75-65.63,11.15a152.82,152.82,0,0,0-51.61,31.39,143,143,0,0,0-33.74,48c-8,18.42-12,39.15-12,61.63s4.05,43.22,12,61.63a142.74,142.74,0,0,0,33.74,48,152.5,152.5,0,0,0,51.61,31.39c20,7.4,42,11.15,65.63,11.15,28.94,0,54.82-5.14,76.91-15.29a145.22,145.22,0,0,0,47-34l-48.57-43.36a115.2,115.2,0,0,1-25.71,20.34c-13.1,7.52-28,11.33-44.24,11.33a93.45,93.45,0,0,1-34.79-6.29,76.26,76.26,0,0,1-27.67-18.83,85.72,85.72,0,0,1-17.66-29.18,106.33,106.33,0,0,1-6.18-37,106.37,106.37,0,0,1,6.18-36.95,85.92,85.92,0,0,1,17.67-29.19,76.37,76.37,0,0,1,27.66-18.82,93.45,93.45,0,0,1,34.79-6.29c16.24,0,31.13,3.81,44.24,11.33a115.32,115.32,0,0,1,25.71,20.34l48.63-43.42a141.16,141.16,0,0,0-47-34.11C15139.59,30.08,15113.7,25,15084.73,25Z"/><polygon class="cls-1" points="13836.99 334.7 13836.99 121.28 13836.98 121.31 13777.13 19.7 13665.08 19.7 13783.88 219.19 13783.88 334.7 13836.99 334.7"/><polygon class="cls-1" points="13898.85 19.7 13839.01 121.31 13838.99 121.28 13838.98 121.31 13779.13 19.7 13667.08 19.7 13785.88 219.19 13785.88 334.7 13838.99 334.7 13892.1 334.7 13892.1 219.19 14010.91 19.7 13898.85 19.7"/></g></g></svg>